<svg width="61" height="61" viewBox="0 0 61 61" fill="none" xmlns="http://www.w3.org/2000/svg">
<path d="M10.8314 49.0868C13.712 47.0143 16.7685 45.3752 20.001 44.1696C23.2335 42.9639 26.7331 42.3611 30.5 42.3611C34.2669 42.3611 37.7665 42.9639 40.999 44.1696C44.2315 45.3752 47.288 47.0143 50.1686 49.0868C52.4061 46.771 54.2059 44.036 55.568 40.8817C56.9301 37.7274 57.6111 34.2669 57.6111 30.5C57.6111 22.988 54.9706 16.5914 49.6896 11.3104C44.4086 6.0294 38.012 3.38889 30.5 3.38889C22.988 3.38889 16.5914 6.0294 11.3104 11.3104C6.0294 16.5914 3.38889 22.988 3.38889 30.5C3.38889 34.2669 4.06991 37.7274 5.43197 40.8817C6.79407 44.036 8.59388 46.771 10.8314 49.0868ZM30.5 32.1944C27.6455 32.1944 25.2374 31.2136 23.2758 29.252C21.3142 27.2904 20.3333 24.8823 20.3333 22.0278C20.3333 19.1733 21.3142 16.7652 23.2758 14.8036C25.2374 12.8419 27.6455 11.8611 30.5 11.8611C33.3545 11.8611 35.7626 12.8419 37.7242 14.8036C39.6858 16.7652 40.6667 19.1733 40.6667 22.0278C40.6667 24.8823 39.6858 27.2904 37.7242 29.252C35.7626 31.2136 33.3545 32.1944 30.5 32.1944ZM30.5 61C26.2465 61 22.2645 60.2082 18.5542 58.6246C14.8438 57.0409 11.6156 54.8761 8.86974 52.1303C6.12389 49.3844 3.95913 46.1562 2.37544 42.4458C0.791813 38.7355 0 34.7535 0 30.5C0 26.2465 0.791813 22.2645 2.37544 18.5542C3.95913 14.8438 6.12389 11.6156 8.86974 8.86974C11.6156 6.12389 14.8438 3.95913 18.5542 2.37544C22.2645 0.791816 26.2465 0 30.5 0C34.7535 0 38.7355 0.791816 42.4458 2.37544C46.1562 3.95913 49.3844 6.12389 52.1303 8.86974C54.8761 11.6156 57.0409 14.8438 58.6246 18.5542C60.2082 22.2645 61 26.2465 61 30.5C61 34.7535 60.2082 38.7355 58.6246 42.4458C57.0409 46.1562 54.8761 49.3844 52.1303 52.1303C49.3844 54.8761 46.1562 57.0409 42.4458 58.6246C38.7355 60.2082 34.7535 61 30.5 61Z" fill="#5B527D"/>
</svg>
