<svg width="20" height="25" viewBox="0 0 20 25" fill="none" xmlns="http://www.w3.org/2000/svg">
<g clip-path="url(#clip0_53455_32989)">
<path d="M13.7299 18.635C13.7299 18.7036 13.7086 18.7677 13.6725 18.8186C13.6618 18.8319 13.6576 18.8407 13.6469 18.854C13.6001 18.9182 13.5491 18.9823 13.498 19.0421C13.3576 19.2124 13.2065 19.3717 13.0469 19.5177C12.2171 20.2788 11.1469 20.7013 10.0044 20.7013C8.86182 20.7013 7.78948 20.2788 6.95544 19.5177C6.74267 19.3252 6.54693 19.1084 6.37033 18.8739C6.36608 18.8673 6.36182 18.8629 6.35757 18.8562C6.34906 18.8452 6.34267 18.8363 6.33416 18.823C6.29587 18.7699 6.27246 18.7058 6.27246 18.635C6.27246 18.4624 6.4065 18.323 6.57246 18.323C6.66395 18.323 6.74267 18.3651 6.80012 18.4314C6.91501 18.5708 7.03629 18.6991 7.16821 18.8208C7.90863 19.5044 8.89374 19.8739 9.99587 19.8739H10.0299C11.1086 19.8673 12.1044 19.4845 12.8405 18.812C12.9214 18.739 12.998 18.6615 13.0725 18.5819C13.1108 18.5398 13.1469 18.5 13.1831 18.4558C13.1895 18.4491 13.1916 18.4447 13.1959 18.4403C13.2001 18.4336 13.2044 18.4314 13.2086 18.4248C13.264 18.3584 13.3427 18.3186 13.432 18.3186C13.598 18.3186 13.7299 18.4558 13.7299 18.6283V18.635Z" fill="white"/>
<path d="M7.57473 16.5708C5.80452 16.5708 5.80452 13.7478 7.57473 13.7478C9.34494 13.7478 9.36196 16.5708 7.57473 16.5708Z" fill="white"/>
<path d="M12.4156 16.5708C10.6453 16.5708 10.6453 13.7478 12.4156 13.7478C14.1858 13.7478 14.2028 16.5708 12.4156 16.5708Z" fill="white"/>
<path d="M16.1941 4.58854H15.1941C14.6473 2.13279 12.5281 0.296509 10.0026 0.296509C7.47706 0.296509 5.35791 2.13279 4.8111 4.58854H3.8111C1.89195 4.58854 0.328125 6.21244 0.328125 8.20801V21.0885C0.328125 23.0841 1.88983 24.708 3.80898 24.708H16.1962C18.1154 24.708 19.6771 23.0841 19.6771 21.0885V8.20801C19.6771 6.21244 18.1154 4.58854 16.1962 4.58854H16.1941ZM10.0026 1.05315C12.5409 1.05315 14.6047 3.19916 14.6047 5.83854C14.6047 8.47792 12.5409 10.6239 10.0026 10.6239C7.4643 10.6239 5.40047 8.47792 5.40047 5.83854C5.40047 3.19916 7.4643 1.05315 10.0005 1.05315H10.0026ZM18.9473 21.0863C18.9473 22.6682 17.7154 23.947 16.1962 23.947H3.80685C2.2877 23.947 1.05578 22.666 1.05578 21.0863V8.2058C1.05578 6.62615 2.28983 5.34518 3.80898 5.34518H4.69195C4.67706 5.50669 4.67068 5.67261 4.67068 5.83854C4.67068 8.89385 7.06217 11.3806 10.0005 11.3806C12.9388 11.3806 15.3303 8.89385 15.3303 5.83854C15.3303 5.67261 15.3217 5.5089 15.309 5.34518H16.1941C17.7154 5.34518 18.9451 6.62837 18.9451 8.2058V21.0863H18.9473Z" fill="white"/>
<path d="M13.0485 5.04209V5.05979C13.0485 5.09518 13.0485 5.12616 13.0464 5.16155C13.0315 5.60182 12.8975 6.0089 12.6804 6.35182C12.6528 6.39607 12.6251 6.43368 12.5975 6.47793L12.5932 6.48456C11.9911 7.36731 11.2102 8.10624 10.3081 8.65049C10.2889 8.66155 10.2762 8.66819 10.2549 8.68368C10.1804 8.7235 10.0911 8.74784 10.0017 8.74784C9.91235 8.74784 9.8315 8.72793 9.75703 8.68589C9.73788 8.67483 9.71022 8.65934 9.69533 8.65049C8.79107 8.10624 8.01022 7.36731 7.40809 6.48014C7.38469 6.44695 7.36129 6.41155 7.33788 6.37616C7.12724 6.04872 6.98895 5.66155 6.96129 5.24563L6.95703 5.16155C6.95703 5.12837 6.95703 5.09518 6.95703 5.062V5.05094C6.95703 4.33412 7.38469 3.71023 7.99533 3.45802C8.18682 3.37837 8.39533 3.33412 8.61235 3.33412C9.10171 3.33412 9.54214 3.55536 9.84214 3.90492C9.84426 3.90934 9.85065 3.91598 9.8549 3.91819C9.8932 3.95802 9.94639 3.98235 10.0038 3.98235C10.0655 3.98235 10.1209 3.9558 10.1592 3.91156C10.1634 3.90713 10.1677 3.90271 10.1719 3.89828C10.4719 3.54872 10.9124 3.33191 11.3996 3.33191C11.6166 3.33191 11.8272 3.37837 12.0166 3.4558C12.6294 3.71023 13.0549 4.33855 13.0549 5.04209H13.0485Z" fill="#D83834"/>
<path d="M10.8408 5.5221H10.4195V5.08405C10.4195 4.8429 10.2322 4.646 9.99821 4.646C9.76416 4.646 9.57693 4.84069 9.57693 5.08405V5.5221H9.15565C8.92374 5.5221 8.73438 5.71679 8.73438 5.96016C8.73438 6.20352 8.92161 6.39821 9.15565 6.39821H9.57693V6.83626C9.57693 7.07741 9.76416 7.27431 9.99821 7.27431C10.2322 7.27431 10.4195 7.07962 10.4195 6.83626V6.39821H10.8408C11.0727 6.39821 11.262 6.20352 11.262 5.96016C11.262 5.71679 11.0748 5.5221 10.8408 5.5221Z" fill="white"/>
</g>
<defs>
<clipPath id="clip0_53455_32989">
<rect width="20" height="25" fill="white"/>
</clipPath>
</defs>
</svg>
