<?xml version="1.0" encoding="UTF-8"?><svg id="OBJECTS" xmlns="http://www.w3.org/2000/svg" viewBox="0 0 500 500"><path d="m142.83,116.32s17.43-3.34,16.79-36.16c-.64-32.82,43.64-34.09,120.95-36.47,77.31-2.39,131.21,4.77,148.39,51.31,17.18,46.54-6.01,76.77-55.84,85.52-49.82,8.75-21.5,35.45,7.3,39.18,39.78,5.16,58.09,43.19,36.18,71.23s-47.95,32.74-54.37,66.17c-8.09,42.11-75.06,88.1-167.98,80.95-103.42-7.95-143.12-74.79-124.37-141.98,10.44-37.41,52.18-54.3,83.75-62.65,31.57-8.35,16.75-44.75-37.37-35.8-54.12,8.95-61.87-47.03-32.79-62.59,25.76-13.78,36.14-9.18,59.33-18.72Z" fill="#5b527d" stroke-width="0"/><circle cx="129.98" cy="93" r="12.85" fill="#5b527d" stroke-width="0"/><circle cx="145.58" cy="68.61" r="8.46" fill="#5b527d" stroke-width="0"/><circle cx="101.06" cy="107.97" r="6.63" fill="#5b527d" stroke-width="0"/><circle cx="114.2" cy="67.48" r="9.21" fill="#5b527d" stroke-width="0"/><circle cx="169.44" cy="45.09" r="5.14" fill="#5b527d" stroke-width="0"/><rect x="183.59" y="46.32" width="182.08" height="344.66" rx="18.57" ry="18.57" fill="#8000e3" stroke-width="0"/><rect x="188.81" y="51.71" width="171.63" height="332.82" rx="14.13" ry="14.13" fill="#ebdeff" stroke-width="0"/><rect x="250.59" y="364.29" width="42.46" height="12.58" rx="6.29" ry="6.29" fill="#625dbd" stroke-width="0"/><circle cx="207.67" cy="63" r="4.72" fill="#8000e3" stroke-width="0"/><circle cx="220.33" cy="63" r="2.85" fill="#8000e3" stroke-width="0"/><rect x="195.24" y="75.58" width="157.57" height="281.52" fill="#fff" stroke-width="0"/><rect x="205.27" y="83.67" width="137.66" height="35.35" rx="6.89" ry="6.89" fill="#e6e8ff" stroke-width="0"/><text transform="translate(220.09 104.51)" fill="#b9bdea" font-family="Montserrat-SemiBold, Montserrat" font-size="11.99" font-weight="600"><tspan x="0" y="0">Mo</tspan><tspan x="19.19" y="0" letter-spacing="0em">n</tspan><tspan x="27.47" y="0">d</tspan><tspan x="35.71" y="0" letter-spacing="-.01em">a</tspan><tspan x="42.87" y="0" letter-spacing="0em">y 11</tspan><tspan x="62.25" y="0" letter-spacing="-.01em">.</tspan><tspan x="65.03" y="0" letter-spacing="0em">00 AM</tspan></text><rect x="205.27" y="129.57" width="28.2" height="28.2" fill="#e6e8ff" stroke-width="0"/><rect x="241.75" y="129.57" width="28.2" height="28.2" fill="#e6e8ff" stroke-width="0"/><rect x="278.24" y="129.57" width="28.2" height="28.2" fill="#e6e8ff" stroke-width="0"/><rect x="314.73" y="129.57" width="28.2" height="28.2" fill="#e6e8ff" stroke-width="0"/><rect x="205.27" y="165.62" width="28.2" height="28.2" fill="#e6e8ff" stroke-width="0"/><rect x="241.75" y="165.62" width="28.2" height="28.2" fill="#e6e8ff" stroke-width="0"/><rect x="278.24" y="165.62" width="28.2" height="28.2" fill="#e6e8ff" stroke-width="0"/><rect x="314.73" y="165.62" width="28.2" height="28.2" fill="#e6e8ff" stroke-width="0"/><rect x="205.27" y="201.68" width="28.2" height="28.2" fill="#e6e8ff" stroke-width="0"/><rect x="241.75" y="201.68" width="28.2" height="28.2" fill="#e6e8ff" stroke-width="0"/><rect x="278.24" y="201.68" width="28.2" height="28.2" fill="#8000e3" stroke-width="0"/><rect x="314.73" y="201.68" width="28.2" height="28.2" fill="#e6e8ff" stroke-width="0"/><rect x="205.27" y="237.74" width="28.2" height="28.2" fill="#e6e8ff" stroke-width="0"/><rect x="241.75" y="237.74" width="28.2" height="28.2" fill="#e6e8ff" stroke-width="0"/><rect x="278.24" y="237.74" width="28.2" height="28.2" fill="#e6e8ff" stroke-width="0"/><rect x="314.73" y="237.74" width="28.2" height="28.2" fill="#e6e8ff" stroke-width="0"/><path d="m321.58,304.34c-.5,0-.9.4-.9.9v20.21c0,2.21-1.8,4.01-4.01,4.01h-3.19c-1.06,0-2.06-.41-2.82-1.16l-45.21-44.64c-1.09-1.08-2.54-1.67-4.08-1.67h-42.75c-1.91,0-3.63.89-4.73,2.44-1.1,1.55-1.38,3.48-.75,5.28l1.97,5.64c.81,2.33,3.02,3.89,5.48,3.89h30.99c1.07,0,2.08.42,2.84,1.17l11.19,11.19c1.4,1.4,1.36,3.17.87,4.37-.5,1.2-1.73,2.48-3.7,2.48h-25.48c-3.2,0-5.81,2.6-5.81,5.81v5.91c0,3.2,2.61,5.81,5.81,5.81h28.15c2.21,0,4.01,1.8,4.01,4.08s-1.8,4.01-4.01,4.01h-56.31v1.8h56.31c3.2,0,5.81-2.6,5.81-5.88s-2.61-5.81-5.81-5.81h-28.15c-2.21,0-4.01-1.8-4.01-4.01v-5.91c0-2.21,1.8-4.01,4.01-4.01h25.48c2.39,0,4.45-1.37,5.37-3.59s.43-4.64-1.26-6.33l-11.19-11.19c-1.1-1.1-2.55-1.7-4.11-1.7h-30.99c-1.7,0-3.23-1.08-3.79-2.69l-1.97-5.64c-.43-1.24-.24-2.57.52-3.64.76-1.07,1.95-1.69,3.27-1.69h42.75c1.06,0,2.06.41,2.82,1.16l45.21,44.64c1.09,1.08,2.54,1.67,4.08,1.67h3.19c3.2,0,5.81-2.6,5.81-5.81v-20.21c0-.5-.4-.9-.9-.9Z" fill="#e6e8ff" stroke-width="0"/><path d="m333.72,284.98c0,6.7-12.13,24.49-12.13,24.49,0,0-12.13-17.79-12.13-24.49s5.43-12.13,12.13-12.13,12.13,5.43,12.13,12.13Z" fill="#b9bdea" stroke-width="0"/><circle cx="321.58" cy="284.41" r="6.52" fill="#8375ee" stroke-width="0"/><circle cx="212.77" cy="344.96" r="6.96" fill="#b9bdea" stroke-width="0"/><circle cx="212.77" cy="344.96" r="3.59" fill="#8375ee" stroke-width="0"/><path d="m180.26,308.27s1.31,25.6.57,32.35-7.2,28.67-9.48,35.41-5.14,12.29-2.89,18.09c2.26,5.8,1.28,11.34,1.36,14.48s.46,4.11-.3,4.27-3.45-2.49-3.51-4.39-.13-4.41-.35-5.15-2.8,1.72-2.65,3.99.47,3.29.47,3.29l-1.04,3.16s-5.98-4.63-6.28-9.17c-.31-4.54-.02-7.93,2.06-12.98,2.08-5.06,3.53-42.86,7.01-51.6,3.47-8.74-.15-36.46-.15-36.46l15.18,4.72Z" fill="#ffae83" stroke-width="0"/><path d="m180.39,311.16c-.08-1.79-.14-2.89-.14-2.89l-15.18-4.72s3.62,27.72.15,36.46c-2.52,6.33-5.26,37.08-6.66,50.42,12.28-36.84,7.83-53.72,16.89-74.82.81-1.34,2.62-3.5,4.94-4.44Z" fill="#f9a37d" stroke-width="0"/><path d="m158.59,393.9s3.73-.9,4.98,1.3-2.09,5.83-2.57,7.44-.5,3.87-.36,4.26-.21,1.08-.21,1.08c0,0,1.59,1.44,2.28,1.9s2.98.85,3.59,2.39c-1.99,1.21-4.98-.58-6.94-1.43s-3.6-2.48-3.8-4.42.25-8.81,1.2-10.53,1.22-1.88,1.82-1.98Z" fill="#ffb797" stroke-width="0"/><path d="m156.05,407.12s.03,4.46,3.29,6.39,8.81,2.61,10.41,1.92c.45-1.34-3.99-2.58-5.27-3.3s-6.47-4.67-6.45-4.83-1.99-.17-1.99-.17Z" fill="#ffb797" stroke-width="0"/><path d="m157.87,411.4s.03,2.04,2.45,3.7,6.13,3.68,6.81,3.79.64-2.92-1.66-4.1-7.6-3.39-7.6-3.39Z" fill="#ffb797" stroke-width="0"/><path d="m164.01,265.82s-5.09,15.73-8.32,40.63c6.32,3.69,24.5,3.56,24.5,3.56-.19-3.21-.68-4.13,0-5.4s.16-10.13-4.7-16.2c-4.86-6.07-8.1-20.67-11.48-22.6Z" fill="#b19eca" stroke-width="0"/><path d="m179,350.87s-13.19,8.89-11.38,39.21c1.81,30.32,5.88,43.51,5.88,43.51,0,0,31.95,9.34,67.39,1.39,6.44-24.83,20.15-66.17,3.63-92.72-28.86-.63-65.51,8.61-65.51,8.61Z" fill="#413c7b" stroke-width="0"/><path d="m195.29,371.51c16.13-11.01,39.44-7.08,53.22-21.05-1.07-2.85-2.39-5.6-4.01-8.2-28.86-.63-65.51,8.61-65.51,8.61,0,0-13.19,8.89-11.38,39.21,1.81,30.32,5.88,43.51,5.88,43.51,0,0,1.43.42,4,1-7.82-22.57-1.23-49.86,17.8-63.07Z" fill="#31345a" stroke-width="0"/><path d="m164.01,265.82s36.95-26.4,82.23-18.43c.71,5.12,2.33,23.98-3.3,39.36-5.63,15.38-2.92,30.36-.66,34.3s5.99,27.59,7.11,36.05c-20.96,12.78-68.01,5.09-76.62,2.39,11.7-24.12,17.42-35.09,14.8-39.28s-5.1-4.61-4.84-7.67-1.34-5.84-2.54-7.92-.4-3.41-1.06-6.4-6.56-8.99-8.9-13.81-6.21-18.58-6.21-18.58Z" fill="#3e385b" stroke-width="0"/><path d="m202.47,338.45c18.52-27.79,45.89-58.66,29.74-92.49-38.63-1.24-68.19,19.86-68.19,19.86,0,0,3.88,13.76,6.21,18.58,2.34,4.82,8.24,10.82,8.9,13.81.66,2.99-.13,4.32,1.06,6.4,1.2,2.08,2.79,4.86,2.54,7.92s2.22,3.49,4.84,7.67c2.62,4.18-3.1,15.15-14.8,39.28,3.51,1.1,13.44,3.04,25.38,4.07-1.23-9.06-.04-17.95,4.32-25.1Z" fill="#b19eca" stroke-width="0"/><path d="m255.4,257.44s7.9-1.54,10.27-2.55,10.3-17.85,11.08-23.07-2-7.54-1.62-12.03,8.46-20.54,10.53-20.7.91,3.48-.53,6.29-2.77,6.46-2.49,7.22,1.59.26,2.48.1,1.6.36,1.49,2.4c0,.56,2.14-.17,2.27,2.07.21.6,1.96.37,1.95,2.35s-1.3,5.05-4.5,6.44c-.73,1.51,1.04,16.27-2.32,26.72s-3.63,10.6-5.72,11.99-10.12,6.25-20.27,8.71c-10.15,2.45-2.61-15.94-2.61-15.94Z" fill="#ffae83" stroke-width="0"/><path d="m279.17,226.67c-1.15-3.77-2.89-6.58-3.38-9.67-.37,1.13-.61,2.09-.67,2.78-.38,4.48,2.4,6.81,1.62,12.03s-8.71,22.06-11.08,23.07c-2.37,1.01-10.27,2.55-10.27,2.55,0,0-1.86,4.53-2.49,8.79,18.4-1.17,29.44-21.41,26.26-39.55Z" fill="#f9a37d" stroke-width="0"/><path d="m246.24,247.39s3.23.99,4.11,4.86c.88,3.87,9.07,2.08,9.5,2.12,4.26,5.39,3.94,8.34,3.55,14.99-.39,6.66-5.2,9.89-5.92,10.32-3.18.15-11.88,2.28-14.53,7.07-1.33-7.98,2.35-38.92,3.3-39.36Z" fill="#3e385b" stroke-width="0"/><path d="m237.43,246.25c2.26.22,5.87.9,5.87.9,0,0-7.17-1.7-9.3-6.28-2.13-4.58-2.92-8.83-.5-15.9s-.68-18.81-3.79-23c-3.79-5.12-13.78-8.17-18.38-4.4,0,0-8.29-4.66-15.21,4.23s-8.43,35.19-11.84,40.41c-3.41,5.22-14.84,18.59-12.26,31.78,1.24,6.35,4.13,10.47,6.75,13.91-3.02-9.69-.72-20.48-.04-23.22-.19,4.17-.26,11.8,1.21,18.34,2.14,9.55-2.07,11.47,2.78,24.33-1.73-9.65-.34-13.48.66-17.41.44-1.74,1.08-3.68,1.58-5.82.29,6.63-.81,11.51-1.09,13.29.03.39.05.79.03,1.2-.43,7.82-.36,17.95,14.9,26.72-3.44-8-2.43-20.1,6.43-24.93,8.86-4.83,12.17-19.75,11.59-23.76,4.27,6.3,1.29,17.28-3.44,21.95s-9.29,12.65-7.37,21.18c2.75-12.32,7.1-12.4,14.32-19.5,7.22-7.1,14.65-22.06,11.1-37.03,4.22,4.18,5.31,23.87-4.69,36.9,11.69-11.35,12.8-37.58,9.71-45.87-3.09-8.29-1.28-8.25.98-8.03Z" fill="#5b527d" stroke-width="0"/><path d="m237.43,246.25c2.26.22,5.87.9,5.87.9,0,0-7.17-1.7-9.3-6.28-2.13-4.58-2.92-8.83-.5-15.9s-.68-18.81-3.79-23c-2.35-3.17-7.07-5.54-11.41-6-3.34.09-6.38,1.21-8.49,3.87-8.6,13.2.96,26.85,3.08,39.88,1.5,7.62,1.85,16.22-3.02,23.31-11.86,17.99-22.16,42.37-11.44,61.32-2.96-7.97-1.7-19.31,6.81-23.96,8.86-4.83,12.17-19.75,11.59-23.76,4.27,6.3,1.29,17.28-3.44,21.95s-9.29,12.65-7.37,21.18c2.75-12.32,7.1-12.4,14.32-19.5,7.22-7.1,14.65-22.06,11.1-37.03,4.22,4.18,5.31,23.87-4.69,36.9,11.69-11.35,12.8-37.58,9.71-45.87-3.09-8.29-1.28-8.25.98-8.03Z" fill="#111" stroke-width="0"/><path d="m209.86,263.03c4.88-7.09,4.53-15.68,3.02-23.31-2.12-13.03-11.69-26.68-3.08-39.88,2.12-2.66,5.15-3.78,8.49-3.87-2.68-.28-5.21.16-6.96,1.59,0,0-8.29-4.66-15.21,4.23s-8.43,35.19-11.84,40.41c-3.41,5.22-14.84,18.59-12.26,31.78,1.24,6.35,4.13,10.47,6.75,13.91-3.02-9.69-.72-20.48-.04-23.22-.19,4.17-.26,11.8,1.21,18.34,2.14,9.55-2.07,11.47,2.78,24.33-1.73-9.65-.34-13.48.66-17.41.44-1.74,1.08-3.68,1.58-5.82.29,6.63-.81,11.51-1.09,13.29.03.39.05.79.03,1.2-.43,7.82-.36,17.95,14.9,26.72-.14-.32-.25-.65-.38-.98-10.72-18.95-.43-43.33,11.44-61.32Z" fill="#111" stroke-width="0"/></svg>