<?xml version="1.0" encoding="UTF-8"?><svg xmlns="http://www.w3.org/2000/svg" viewBox="0 0 500 500"><g isolation="isolate"><g id="OBJECTS"><path d="m216.71,133.69h58.65c54.2,0,98.2,44,98.2,98.2v97.64c0,54.2-44,98.2-98.2,98.2h-58.65c-54.2,0-98.2-44-98.2-98.2v-97.64c0-54.2,44-98.2,98.2-98.2Z" fill="#d0a7fc" stroke-width="0"/><path d="m321.74,138.71c-.36.64-.81,1.39-1.34,2.25-.54.86-.99,1.66-1.36,2.39-.08.68-.37,1.27-.87,1.8-.49.53-.78,1.13-.85,1.79-.06.58-.23,1.02-.52,1.33-.27.31-.59.69-.92,1.14-1.14,1.52-2.15,3.05-3,4.6-1.21,1.32-2.2,2.71-2.95,4.18l-4.28,6.94c-.61,1.09-1.11,2.08-1.5,2.96-.39.88-.74,1.79-1.04,2.71l-.39,3.45c-.15,1.35.02,2.86.5,4.57.15.5.58,1.18,1.3,2.03.73.87,1.27,1.46,1.62,1.79,1.23,1.11,2.5,1.88,3.81,2.32.27.23.58.41.96.55.36.24,1.01.5,1.95.8.47.15.96.33,1.47.53.51.2,1.14.35,1.91.44.19.02.54-.03,1.04-.18.5-.13.99-.18,1.47-.13.76.09,1.57.09,2.4-.02.83-.1,1.52-.35,2.05-.78.83-.49,1.64-.95,2.41-1.4.78-.44,1.45-1.02,2.02-1.73.63-.42,1.35-1.06,2.19-1.93.82-.89,1.36-1.55,1.6-2.01.31-.16.52-.28.62-.36.12-.09.31-.11.6-.08.19.02.47.15.82.38.36.24.68.47.94.69.45.35.85.68,1.2,1.01.36.33.7.62,1.07.85.19.11.45.27.82.45.37.19.58.43.64.73-.13.38-.29.72-.47,1.03-.19.32-.4.71-.64,1.17-.24.37-.38.73-.42,1.12-.05.38-.12.66-.24.84-.39.83-.81,1.51-1.25,2.04-.45.53-.95,1.11-1.51,1.72-.57.72-1.15,1.4-1.76,2.06-.6.66-1.33,1.33-2.19,2.01-.21.17-.45.36-.72.57-.27.2-.56.45-.88.7-.1.08-.36.27-.79.56-.42.3-.92.58-1.48.86-.56.27-1.08.52-1.54.77-.45.24-.74.35-.83.34-1.14.65-2.2,1.06-3.2,1.24-.99.17-1.98.36-2.97.54-.2-.02-.6-.05-1.23-.07-.64-.02-1.28-.05-1.95-.07-.69-.03-1.34-.05-1.96-.08-.64-.02-1.08-.05-1.38-.08-.94-.3-1.9-.55-2.9-.77-1-.21-1.95-.5-2.88-.91-.74-.27-1.37-.54-1.87-.79-.5-.25-1.12-.61-1.84-1.08-.8-.57-1.38-.91-1.7-1-.34-.09-.85-.41-1.56-.98-.44-.54-.9-.95-1.38-1.25-.51-.3-.99-.62-1.43-.96-1-.6-1.9-1.4-2.7-2.41-.81-1.02-1.34-2.21-1.56-3.6-.25-.41-.57-1.04-.96-1.86-.39-.81-.75-1.68-1.08-2.6-.34-.9-.6-1.78-.79-2.63-.2-.85-.27-1.56-.2-2.13.14-1.24.32-2.59.53-4.01.21-1.43.54-2.9,1.01-4.4.05-.48.14-1.03.26-1.65.11-.62.34-1.15.69-1.59.24-.45.46-1.01.63-1.67.17-.66.37-1.22.63-1.67.62-1.19,1.25-2.23,1.88-3.14.63-.9,1.38-1.68,2.23-2.37l1.86-2.27c.53-.41.98-.78,1.35-1.08.38-.3.83-.65,1.36-1.08,1.07-.95,2.06-1.93,2.95-2.94.89-1.02,1.78-2.01,2.66-2.98.24-.36.65-.8,1.25-1.31.59-.52.91-1.01.96-1.49.91-1.16,1.79-2.32,2.66-3.48.85-1.17,1.6-2.44,2.24-3.83.41-1.02.85-1.96,1.34-2.83.49-.87.88-1.82,1.2-2.85,0-.77.15-1.14.49-1.11.33.03.75-.01,1.25-.15.19.02.48.03.87.03.39,0,.87.03,1.45.09.48.06.91.05,1.3,0,.4-.05.84-.1,1.33-.14.49-.03,1.02,0,1.59.11.57.11.7.34.36.69l-.33.25c-.21.17-.33.4-.36.69.19.79.04,2.11-.45,3.95-.5,1.83-.93,3.12-1.31,3.86Zm-5.29-20.09c-.36-.34-.48-.88-.4-1.65l.28-2.43c.05-.48.09-1.03.12-1.66.02-.62.07-1.27.15-1.95l.15-1.29c.08-.68.15-1.1.21-1.28.07-.19.11-.38.14-.57l1.19-.3c1.2-.26,2.41-.31,3.65-.17.96.1,1.84.28,2.64.51.79.24,1.49.39,2.06.45.48.05.84.08,1.08.05.24-.02.35.11.32.4.04.49.02.93-.07,1.3-.09.38-.16.81-.22,1.29-.12,1.05-.21,2.13-.29,3.24-.08,1.11-.18,2.18-.3,3.24-.05.48-.05.88,0,1.23.07.35.07.77.02,1.24-.43.34-1.03.47-1.8.38-.76-.09-1.52-.22-2.27-.4-.38-.14-.69-.2-.93-.18-.25.02-.46-.03-.64-.15-.09,0-.52-.11-1.27-.29-.76-.18-1.24-.29-1.42-.31-.48-.05-.89-.13-1.21-.21-.34-.08-.73-.25-1.19-.49Z" fill="#3d3d3d" stroke-width="0"/><path d="m287.83,72.06c-.09.31-.22.68-.37,1.1-.15.42-.27.81-.36,1.17.03.3-.04.58-.2.86-.16.27-.23.56-.2.86.03.26,0,.46-.1.62-.09.16-.19.35-.29.58-.35.77-.64,1.52-.86,2.27-.4.69-.7,1.38-.88,2.09l-1.2,3.41c-.16.53-.29,1.01-.37,1.42-.09.41-.15.84-.19,1.27l.16,1.53c.06.6.28,1.24.65,1.94.11.2.36.45.75.76.4.31.69.51.87.62.64.36,1.26.58,1.87.64.14.08.29.13.47.15.18.07.48.12.92.16.22.02.45.05.68.09.24.04.53.05.87.01.08-.01.23-.07.43-.18.2-.1.41-.17.63-.19.34-.03.69-.11,1.04-.24.35-.12.63-.3.81-.53.31-.29.62-.57.91-.84.3-.26.53-.58.71-.94.23-.24.49-.58.76-1.04.27-.46.44-.8.5-1.02.12-.1.2-.17.23-.22.04-.05.12-.08.25-.09.08-.01.22.02.39.09.18.07.34.14.47.21.23.11.43.22.62.33.19.11.36.2.54.27.09.03.22.07.4.12.18.05.29.13.34.26-.02.17-.06.34-.11.49-.05.16-.11.34-.17.57-.07.18-.09.35-.08.53.02.17.01.3-.02.38-.09.4-.21.73-.35,1.01-.14.27-.31.57-.49.88-.18.37-.37.72-.57,1.06-.2.34-.45.7-.76,1.08-.08.09-.16.2-.26.32-.1.11-.2.24-.32.39-.04.04-.13.15-.29.32-.15.16-.34.34-.56.51-.22.17-.42.33-.6.48-.17.15-.29.23-.33.23-.43.39-.85.66-1.27.84-.41.17-.82.34-1.23.52-.09,0-.27.04-.54.09-.28.05-.56.1-.85.15-.3.06-.58.1-.85.15-.28.05-.47.08-.6.09-.43-.04-.87-.06-1.33-.06-.45,0-.89-.03-1.33-.12-.34-.05-.64-.1-.88-.17-.24-.06-.54-.16-.9-.29-.4-.17-.68-.26-.83-.27-.15,0-.41-.1-.77-.27-.24-.19-.48-.32-.72-.41-.25-.08-.49-.17-.71-.28-.49-.16-.95-.43-1.4-.79-.45-.37-.79-.83-1.01-1.41-.15-.16-.34-.4-.59-.71-.25-.32-.48-.65-.71-1.02-.23-.36-.43-.72-.59-1.06-.17-.35-.26-.65-.29-.9-.06-.55-.11-1.15-.15-1.79-.05-.64-.04-1.31.02-2-.02-.21-.04-.46-.05-.74,0-.28.04-.53.15-.76.06-.22.1-.48.11-.78.01-.3.05-.56.11-.78.16-.57.33-1.09.52-1.53.19-.45.44-.86.74-1.24l.59-1.16c.19-.23.35-.43.48-.6.13-.16.3-.36.49-.6.37-.51.71-1.03,1-1.55.29-.53.58-1.04.87-1.54.07-.18.21-.41.42-.69.21-.28.3-.53.27-.73.29-.59.56-1.17.82-1.76.26-.58.46-1.21.61-1.87.08-.48.18-.93.31-1.35.13-.42.21-.87.25-1.35-.08-.33-.04-.51.11-.53.14-.02.32-.07.53-.18.08,0,.21-.03.38-.07.17-.03.38-.07.64-.09.21-.02.4-.07.56-.13.17-.06.36-.12.56-.18.21-.06.44-.1.7-.1.25,0,.33.08.22.26l-.12.14c-.07.09-.1.2-.09.33.16.33.22.91.18,1.75-.05.84-.11,1.44-.2,1.79Zm-4.19-8.2c-.19-.11-.29-.33-.33-.68l-.11-1.08c-.02-.21-.06-.46-.11-.73-.05-.27-.09-.56-.12-.86l-.06-.57c-.03-.3-.04-.49-.03-.57.01-.09.01-.18,0-.26l.49-.24c.5-.23,1.02-.37,1.57-.42.42-.04.82-.05,1.19-.02.36.03.68.02.93,0,.21-.02.37-.05.47-.08.1-.03.16.01.18.14.06.21.09.4.09.57,0,.17,0,.37.03.58.05.47.11.94.18,1.43.07.48.13.96.18,1.43.02.21.06.39.12.53.06.15.1.33.13.54-.15.19-.4.3-.74.33-.34.03-.68.05-1.02.04-.18-.02-.32-.02-.42.01-.11.03-.2.03-.29,0-.04,0-.23,0-.58,0-.35,0-.56,0-.64,0-.21.02-.4.03-.54.02-.15,0-.34-.04-.56-.1Z" fill="#3d3d3d" stroke-width="0"/><path d="m352.52,142.48c.46-.31,1.02-.69,1.68-1.1.66-.42,1.23-.82,1.74-1.21.27-.43.67-.75,1.19-.95.51-.2.91-.52,1.19-.96.24-.38.5-.63.8-.74.29-.12.63-.28,1.01-.48,1.29-.68,2.5-1.4,3.6-2.19,1.28-.51,2.42-1.15,3.42-1.91l5.26-3.39c.78-.55,1.46-1.07,2.02-1.55.56-.47,1.1-.99,1.62-1.53l1.41-2.26c.32-.5.55-1.03.72-1.58.17-.55.32-1.14.45-1.75.07-.39,0-1.01-.22-1.83-.22-.84-.4-1.43-.53-1.78-.49-1.17-1.1-2.13-1.87-2.86-.15-.18-.3-.41-.48-.7-.15-.18-.31-.37-.5-.57-.18-.2-.37-.41-.58-.63-.28-.26-.55-.54-.84-.86-.29-.31-.68-.63-1.18-.94-.13-.08-.39-.15-.78-.22-.4-.07-.74-.21-1.06-.4-.5-.32-1.05-.57-1.67-.78-.61-.21-1.17-.26-1.68-.14-.73.07-1.45.12-2.13.17-.68.05-1.34.22-1.97.53-.57.08-1.29.29-2.15.62-.86.33-1.45.62-1.77.85-.27,0-.45.02-.55.05-.11.02-.25-.03-.44-.15-.12-.08-.27-.26-.44-.54-.17-.29-.32-.55-.42-.79-.2-.38-.36-.75-.5-1.09-.13-.35-.29-.66-.45-.94-.09-.14-.23-.34-.42-.59-.19-.25-.26-.49-.2-.72.21-.21.44-.4.67-.56.23-.16.51-.36.83-.6.29-.16.5-.38.66-.63.15-.25.3-.41.44-.5.55-.45,1.06-.78,1.54-1,.49-.22,1.03-.45,1.61-.69.63-.3,1.26-.58,1.9-.84.64-.25,1.36-.48,2.18-.66.2-.05.43-.1.69-.16.25-.06.53-.12.84-.19.1-.02.33-.05.7-.08.37-.03.81-.06,1.31-.1.5-.04.95-.06,1.35-.07.4-.01.63,0,.69.04,1-.07,1.87,0,2.62.2.75.2,1.49.41,2.24.61.12.08.4.23.83.46.42.22.87.46,1.32.69.46.25.9.48,1.33.7.42.23.73.39.93.51.55.52,1.13,1.02,1.75,1.49.62.48,1.18,1,1.69,1.58.42.44.77.83,1.03,1.18.27.34.57.79.92,1.36.36.66.65,1.08.85,1.25.2.17.45.57.76,1.2.11.5.29.94.55,1.32.24.37.46.75.66,1.13.49.75.85,1.6,1.07,2.57.22.97.19,1.98-.12,3,0,.44-.01.97-.02,1.62-.02.64-.06,1.33-.13,2.08-.07.74-.16,1.45-.28,2.11-.11.68-.29,1.2-.53,1.57-.51.82-1.08,1.68-1.69,2.6-.62.93-1.34,1.83-2.15,2.71-.2.31-.44.66-.72,1.05-.28.39-.62.68-1,.87-.32.24-.66.55-.99.95-.34.4-.66.72-.99.95-.82.62-1.61,1.13-2.34,1.55s-1.51.71-2.33.9l-2.03.95c-.51.11-.94.22-1.29.3-.36.08-.8.18-1.3.29-1.06.3-2.06.65-3.02,1.06-.95.41-1.9.8-2.82,1.17-.29.17-.72.34-1.3.5-.58.16-.97.4-1.16.71-1.01.5-2.01,1.01-2.99,1.53-.98.52-1.92,1.16-2.82,1.9-.62.57-1.25,1.08-1.86,1.51-.63.44-1.22.96-1.77,1.57-.25.54-.49.74-.71.61-.21-.14-.52-.24-.91-.31-.13-.08-.32-.18-.6-.31-.27-.12-.59-.31-.97-.54-.31-.19-.62-.34-.9-.43-.29-.1-.62-.21-.97-.34-1.31-.57-1.65-.99-1.02-1.3l.72-.33c.13-.62.67-1.48,1.62-2.59.96-1.1,1.68-1.84,2.19-2.23Zm-3,15.66c.13.35.04.77-.27,1.27l-1,1.59c-.2.32-.41.69-.63,1.12-.22.42-.47.86-.75,1.3l-.53.85c-.27.43-.47.71-.58.81-.11.11-.2.22-.28.34l-.92-.18c-.91-.23-1.77-.59-2.59-1.1-.63-.39-1.18-.8-1.66-1.23-.47-.42-.9-.76-1.27-1-.32-.19-.56-.33-.73-.39-.18-.07-.21-.19-.09-.38.14-.35.3-.64.49-.88.19-.23.38-.5.57-.81.43-.69.86-1.41,1.28-2.14.42-.74.85-1.45,1.28-2.14.19-.31.33-.6.41-.86.07-.26.2-.54.4-.86.41-.09.86.02,1.37.33.5.31.98.66,1.44,1.04.21.22.41.37.58.43.18.07.3.17.4.31.06.04.32.25.78.63.47.38.76.61.88.68.31.2.57.38.77.55.19.16.41.41.65.73Z" fill="#3d3d3d" stroke-width="0"/><path d="m202.76,125.66c-2.82-4.39-7.53-11.13-13.48-7.69-5.64,2.82-2.51,8.78.31,12.54-5.33,0-15.36-3.45-19.75.31-5.64,5.02,4.08,10.98,8.47,11.92-5.02-1.25-15.05-.63-17.56,5.02-2.82,6.27,6.59,10.03,11.29,10.97-3.14.94-11.91,2.82-12.23,7.22-.31,5.02,9.41,5.64,12.86,5.96-3.14,1.57-10.03,5.02-8.78,9.72,1.88,5.33,11.92,4.7,15.99,4.39-2.82.94-7.84,3.14-6.9,6.9,1.25,5.96,9.41,3.45,12.86,1.88l68.67-2.82c9.72.63,10.66-12.23,1.88-15.05,10.35-1.88,12.23-10.97.63-12.54,3.76-2.19,9.72-5.96,10.35-10.66.31-5.33-5.02-6.27-9.09-5.64,2.82-2.2,11.29-6.59,9.09-11.29-2.82-5.64-13.8-2.51-17.25.31,2.51-3.45,6.27-9.72,1.57-13.17-5.33-3.45-13.8,1.25-16.93,5.33,1.57-3.76,4.7-11.6,0-14.74-5.64-3.45-14.11,3.76-16.62,8.47.94-5.96,2.2-18.19-7.53-12.54-5.33,2.82-9.09,9.25-7.84,15.21" fill="#1e0f48" stroke-width="0"/><path d="m198.98,140.23c-2.94,5.34-8.62,11.74-15.37,10.75-1.03-.15-1.48,1.43-.43,1.58,7.57,1.1,13.85-5.41,17.21-11.51.51-.93-.9-1.75-1.41-.82Z" fill="#2d1972" stroke-width="0"/><path d="m215.7,134.13c-.37,4.33-3.12,7.31-6.28,10.01-.8.69.36,1.84,1.16,1.16,3.54-3.03,6.35-6.37,6.76-11.17.09-1.05-1.55-1.04-1.64,0Z" fill="#2d1972" stroke-width="0"/><path d="m231.18,123.54c-.29,4.14-2.26,8.42-7.11,7.63-1.03-.17-1.47,1.41-.43,1.58,5.99.97,8.8-3.87,9.18-9.21.07-1.05-1.56-1.05-1.64,0Z" fill="#2d1972" stroke-width="0"/><path d="m238.54,132.01c-.98,5.46-5.23,8.75-10.67,6.49-.51-.21-1.03.31-1.04.79-.06,4.03-.78,7.65-4.48,9.88-.9.55-.08,1.96.83,1.41,3.84-2.32,5.02-5.98,5.24-10.16,5.77,1.8,10.63-2.02,11.7-7.98.19-1.03-1.39-1.47-1.58-.44Z" fill="#2d1972" stroke-width="0"/><path d="m257.24,136.03c.31,5.22-4.17,10.22-9.55,8.17-.99-.38-1.41,1.21-.44,1.58,6.35,2.42,12-3.52,11.63-9.75-.06-1.05-1.7-1.05-1.64,0Z" fill="#2d1972" stroke-width="0"/><path d="m255.37,154.82c-.53,3-3.53,4.44-5.56,1.71-.62-.84-2.04-.02-1.41.82,1.21,1.63,2.81,2.62,4.89,2.25,2.06-.36,3.33-2.45,3.67-4.34.18-1.03-1.39-1.48-1.58-.44Z" fill="#2d1972" stroke-width="0"/><path d="m190.18,136.57c-1.06-.02-1.05,1.62,0,1.64,3.54.07,5.68-2.92,6.86-5.94,1.33-3.4-.76-6.67-3.03-9.04-.73-.77-1.88.4-1.16,1.16,1.81,1.9,3.25,3.93,2.81,6.69-.41,2.57-2.75,5.54-5.49,5.49Z" fill="#2d1972" stroke-width="0"/><path d="m210.71,113.89c-.61-.85-2.03-.03-1.41.82,2.16,3.01,2.37,9.89-2.82,9.36-1.05-.11-1.04,1.53,0,1.64,6.47.66,7.13-7.8,4.24-11.82Z" fill="#2d1972" stroke-width="0"/><path d="m203.56,249.26c0,7.71,6.25,13.95,13.95,13.95h0c7.71,0,13.96-6.24,13.96-13.95v-33.97c0-7.71-6.25-13.95-13.96-13.95h0c-7.71,0-13.95,6.25-13.95,13.95v33.97Z" fill="#cc6448" stroke-width="0"/><path d="m217.52,201.33c7.71,0,13.96,6.25,13.96,13.95v12.96c-4.23,2.02-8.96,3.15-13.96,3.15s-9.73-1.13-13.95-3.15v-12.96c0-7.71,6.25-13.95,13.95-13.95Z" fill="#913c2c" stroke-width="0"/><path d="m172.71,189.75c0,4.89,3.96,8.85,8.85,8.85s8.85-3.96,8.85-8.85-3.96-8.85-8.85-8.85-8.85,3.96-8.85,8.85Z" fill="#cc6448" stroke-width="0"/><path d="m262.33,189.75c0,4.89-3.96,8.85-8.85,8.85s-8.85-3.96-8.85-8.85,3.96-8.85,8.85-8.85,8.85,3.96,8.85,8.85Z" fill="#cc6448" stroke-width="0"/><path d="m177.6,186.02c2.99.22,4.96,2,6.09,4.36-2.11-.2-4.61.38-4.42,3.02.24,3.29,3.49,3.79,6.21,3.8.24,0,.39-.12.48-.28.05-.08.1-.18.1-.3.2-5.44-2.44-11.34-8.46-11.77-.75-.06-.74,1.11,0,1.16Zm6.6,5.6c.48,1.41.7,2.93.71,4.42-1.85-.05-4.47-.35-4.47-2.63,0-2.11,2.17-2.11,3.76-1.79Z" fill="#913c2c" stroke-width="0"/><path d="m257.44,184.86c-6.02.43-8.67,6.33-8.46,11.77,0,.12.05.22.1.3.09.16.24.28.48.28,2.72-.01,5.97-.51,6.21-3.8.19-2.64-2.31-3.22-4.42-3.02,1.14-2.36,3.11-4.15,6.1-4.36.74-.05.75-1.22,0-1.16Zm-2.84,8.55c0,2.28-2.62,2.59-4.47,2.63,0-1.48.23-3.01.71-4.42,1.59-.32,3.76-.32,3.76,1.79Z" fill="#913c2c" stroke-width="0"/><path d="m240.69,150.02c9.27,7.57,9.27,27.06,9.27,27.06v14.15c0,17.91-14.52,32.43-32.43,32.43s-32.43-14.52-32.43-32.43v-29.09c11.65-1.73,18.48-10.98,18.48-10.98,0,0-.96,7.58,4.61,6.32,5.57-1.25,9.7-11.91,9.7-11.91,0,0-2.4,12.23,4.73,11.91,7.13-.31,8.87-9.72,8.87-9.72,0,0,2.8,8.27,9.21,2.26Z" fill="#cc6448" stroke-width="0"/><path d="m222.32,194.7c.65-.38.06-1.39-.59-1.01-2.66,1.58-5.89,1.33-8.25-.69-.57-.48-1.39.33-.82.82,2.76,2.36,6.52,2.72,9.66.87Z" fill="#913c2c" stroke-width="0"/><path d="m191.99,185.28c4.44,2.1,6.77,6.51,5.2,9.84-1.57,3.33-6.46,4.32-10.9,2.21-.23-.11-.45-.23-.67-.35-.34-1.87-.52-3.78-.52-5.75v-6.78c2.05-.52,4.53-.28,6.9.84Z" fill="#b53b35" mix-blend-mode="multiply" opacity=".6" stroke-width="0"/><path d="m243.05,185.28c2.37-1.12,4.85-1.35,6.9-.84v6.78c0,1.97-.18,3.88-.52,5.75-.22.12-.44.24-.67.35-4.44,2.11-9.33,1.11-10.9-2.21-1.57-3.33.75-7.73,5.2-9.84Z" fill="#b53b35" mix-blend-mode="multiply" opacity=".6" stroke-width="0"/><path d="m199.8,174.73c-1.17,0-2.12,2.11-2.12,4.72s.95,4.71,2.12,4.71,2.12-2.11,2.12-4.71-.95-4.72-2.12-4.72Z" fill="#1e0f48" stroke-width="0"/><path d="m238.57,174.73c-1.17,0-2.12,2.11-2.12,4.72s.95,4.71,2.12,4.71,2.12-2.11,2.12-4.71-.95-4.72-2.12-4.72Z" fill="#1e0f48" stroke-width="0"/><path d="m194.51,166.36c.9-.84,2.11-1.12,3.31-1.13.75-.01.75,1.15,0,1.16-.88.01-1.82.18-2.49.79-.55.51-1.37-.31-.82-.82Z" fill="#913c2c" stroke-width="0"/><path d="m237.22,165.23c1.2.02,2.41.3,3.31,1.13.55.52-.27,1.33-.82.82-.66-.62-1.61-.78-2.49-.79-.75-.01-.75-1.18,0-1.16Z" fill="#913c2c" stroke-width="0"/><path d="m215.26,212.43c-1.67-1.94-3.76-3.59-6.4-3.77-1.06-.07-.84-1.69.21-1.62,3.08.2,5.56,2.14,7.5,4.4.69.8-.62,1.78-1.31.98h0Z" fill="#913c2c" stroke-width="0"/><path d="m208.08,199.85c-1.54-1.83-7.69,4.6-14.53,13.02,1.98,2.18,4.24,4.08,6.75,5.66,3.99-5.44,10.54-15.39,7.78-18.67Z" fill="#913c2c" mix-blend-mode="multiply" opacity=".5" stroke-width="0"/><path d="m399,220.69c2.02-13.43-9.85-17.31-12.6-11.27-4.63,10.17-15.23,17.43-15.92,16.33-1.55-2.51,7.81-12.3,6.26-14.09-1.55-1.79-8.15,1.74-18,11.36-9.47,9.23-5.44,19.25-5.44,19.25,0,0,.35,10.91.22,24.41,7.67,2.76,15.45,4.91,23.33,6.68-4.9-15.56-9.75-26.61-9.75-26.61,11.63-2.43,29.84-12.36,31.9-26.07Z" fill="#cc6448" stroke-width="0"/><path d="m390.13,212.74c-2.05,5.43-6.32,9.29-11.39,11.92-.67.35-.18,1.42.5,1.07,5.34-2.78,9.84-6.87,11.99-12.59.27-.71-.84-1.12-1.11-.4Z" fill="#913c2c" stroke-width="0"/><path d="m394.99,216.77c-1.84,5.66-7.19,9.23-12.38,11.56-.69.31-.19,1.38.5,1.07,5.47-2.46,11.05-6.28,12.99-12.23.23-.72-.87-1.13-1.11-.4Z" fill="#913c2c" stroke-width="0"/><path d="m274.58,248.62c3.08-2.2,63.54,67.17,69.33,68.66,5.79,1.49,5.97-60.8,9.62-61.58,3.65-.78,19.02,1.22,22.96,7.51,3.94,6.3,35.47,98.59-20.1,109.98-55.57,11.39-87.49-44.57-87.49-44.57,0,0,.7-76.46,5.67-80Z" fill="#5d00b3" stroke-width="0"/><path d="m160.46,248.62c-8.99.4-79.28,130.93-54.38,155.71,24.9,24.78,46.06,4.29,49.67-8.32,3.61-12.61,18.58-115.3,18.58-115.3l-13.87-32.09Z" fill="#310061" stroke-width="0"/><path d="m217.52,441.67c33.21,0,61.98-12.51,61.98-12.51,0,0,.62-86.32-.72-98.83-1.34-12.51-4.19-81.71-4.19-81.71-6.26-3.13-36.88-11.17-36.88-11.17,0,0-6.23,11.17-20.19,11.17-13.12,0-20.18-11.17-20.18-11.17,0,0-30.62,8.04-36.88,11.17,0,0-2.85,69.2-4.19,81.71-1.34,12.51-.72,98.83-.72,98.83,0,0,28.77,12.51,61.98,12.51" fill="#8000e3" stroke-width="0"/><path d="m204.37,361.97c-26.3-34-32.62-75.16-34.95-116.59-4,1.26-7.33,2.42-8.97,3.24,0,0-2.85,69.2-4.19,81.71-1.34,12.51-.72,98.83-.72,98.83,0,0,28.77,12.51,61.98,12.51s61.98-12.51,61.98-12.51c0,0,.04-5.1.07-12.98-29.12-10.97-55.27-28.05-75.19-54.21Z" fill="#8000e3" stroke-width="0"/><path d="m181.46,284.59c2.29-17.89,3.63-30.56,3.63-30.56,0,0,14.94.95,18.48-7.96,3.54-8.91-4.58-22.41-4.58-22.41,0,0,14.45-17.72,10.58-22.33-3.87-4.61-36.86,43.03-36.86,43.03,0,0-5.73,7.72-13.94,19.81,6.89,7.98,14.46,14.77,22.69,20.42Z" fill="#cc6448" stroke-width="0"/><path d="m185.09,254.03c6.86-.08,16.24-1.54,18.42-9.12,1-3.53.42-7.34-.57-10.83-1.02-3.55-2.49-7-4.3-10.21,0,0-.14-.26-.14-.26l.18-.22c3.08-4.08,13.95-17.29,10.9-22.07,3.43,4.82-7.11,18.46-10.26,22.59,0,0,.03-.48.03-.48,2.79,4.93,5.03,10.3,5.47,15.99,1.13,11.96-9.83,15.22-19.72,14.59h0Z" fill="#ff8a5c" stroke-width="0"/><path d="m159.97,260.08c-19.57,28.83-54.47,86.66-58.34,120.17-4.92,42.54,42.54,46.06,58.01,13.71,9.12-19.07,20.95-76.28,25.45-111.38-4.42-8.2-17.12-21.33-25.12-22.5Z" fill="#5d00b3" stroke-width="0"/></g></g></svg>