<?xml version="1.0" encoding="UTF-8"?><svg id="_ÎÓÈ_1" xmlns="http://www.w3.org/2000/svg" viewBox="0 0 792 762.88"><path d="m569.82,351.4c-4-4.55-9.7-7.01-16.48-7.14h-.02s-.02,0-.02,0c-6.78.12-12.48,2.59-16.48,7.13-3.55,4.03-5.5,9.42-5.5,15.17,0,5.75,1.95,11.14,5.5,15.17,4,4.55,9.7,7.01,16.48,7.14h.02s.02,0,.02,0c6.78-.12,12.48-2.59,16.48-7.13,3.55-4.03,5.5-9.42,5.5-15.17,0-5.75-1.95-11.14-5.5-15.17Zm.32,15.17c0,8.07-5.26,16.86-16.81,17.07-11.55-.21-16.81-9-16.81-17.07,0-8.07,5.26-16.86,16.81-17.07,11.55.21,16.81,9,16.81,17.07Z" fill="#9358e0" stroke-width="0"/><path d="m555.62,375.94c-2.05.75-12.44-11.53-13.94-12.51-3.17-3.19,1.67-8.04,4.87-4.87,0,0,9.07,9.07,9.07,9.07l20.4-20.4c3.19-3.16,8.04,1.67,4.87,4.87-.99.47-24.18,25.58-25.27,23.84Z" fill="#eb5648" stroke-width="0"/><path d="m293.79,394.92c0,11.35-9.2,20.56-20.56,20.56-4.1,0-7.92-1.2-11.12-3.27-5.68-3.66-9.43-10.03-9.43-17.29,0-11.35,9.2-20.56,20.56-20.56,2.51,0,4.91.45,7.14,1.28,7.83,2.9,13.42,10.44,13.42,19.28Z" fill="#8342d7" stroke-width="0"/><path d="m289.8,392.93c0,11.35-9.2,20.56-20.56,20.56-2.51,0-4.91-.45-7.14-1.28-.39-.25-.78-.52-1.15-.8-5.03-3.74-8.28-9.74-8.28-16.49,0-11.35,9.2-20.56,20.56-20.56,2.08,0,4.09.31,5.98.88.39.12.78.25,1.16.39,5.68,3.66,9.43,10.03,9.43,17.29Z" fill="#b18bf3" stroke-width="0"/><path d="m289.8,392.93c0,11.35-9.2,20.56-20.56,20.56-2.51,0-4.91-.45-7.14-1.28-.39-.25-.78-.52-1.15-.8-3.39-3.84-5.44-8.89-5.44-14.42,0-12.05,9.77-21.82,21.82-21.82.63,0,1.26.03,1.88.08.39.12.78.25,1.16.39,5.68,3.66,9.43,10.03,9.43,17.29Z" fill="#9f5ee8" stroke-width="0"/><path d="m269.1,389.31c0,1.22-.99,2.21-2.21,2.21s-2.21-.99-2.21-2.21.99-2.21,2.21-2.21,2.21.99,2.21,2.21Z" fill="#fff" stroke-width="0"/><path d="m281.78,389.31c0,1.22-.99,2.21-2.21,2.21s-2.21-.99-2.21-2.21.99-2.21,2.21-2.21,2.21.99,2.21,2.21Z" fill="#fff" stroke-width="0"/><path d="m284.15,394.2c0,6.03-4.89,10.92-10.92,10.92s-10.92-4.89-10.92-10.92h21.85Z" fill="#fff" stroke-width="0"/><rect x="498.26" y="227.14" width="102.82" height="54.89" rx="10.31" ry="10.31" fill="#9f5ee8" stroke-width="0"/><path d="m498.26,271.72c0,5.69,4.62,10.31,10.31,10.31h4.21v14.71l19.86-14.71h58.14c5.69,0,10.31-4.61,10.31-10.31v-34.27c-38.81,38.81-102.82,34.27-102.82,34.27Z" fill="#8342d7" stroke-width="0"/><path d="m563.43,243.89h-54.75c-1.58,0-2.85-1.28-2.85-2.85s1.28-2.85,2.85-2.85h54.75c3.72.01,3.75,5.69,0,5.71Z" fill="#fff" stroke-width="0"/><path d="m530.76,257.44h-22.09c-3.73-.02-3.74-5.69,0-5.71,0,0,22.09,0,22.09,0,3.73.02,3.74,5.69,0,5.71Z" fill="#fff" stroke-width="0"/><path d="m590.66,257.44h-46.63c-1.58,0-2.85-1.28-2.85-2.85s1.28-2.85,2.85-2.85h46.63c3.72.01,3.74,5.69,0,5.71Z" fill="#fff" stroke-width="0"/><path d="m553.83,270.98h-45.16c-3.72-.01-3.74-5.69,0-5.71,0,0,45.15,0,45.15,0,3.72.01,3.74,5.69,0,5.71Z" fill="#fff" stroke-width="0"/><path d="m585.96,227.14c-69.3,0-85.41,11.56-87.71,13.59-.86-6.84,2.83-13.54,10.31-13.59,0,0,77.4,0,77.4,0Z" fill="#b18bf3" stroke-width="0"/><rect x="241.41" y="281.8" width="102.82" height="54.89" rx="10.31" ry="10.31" fill="#9f5ee8" stroke-width="0"/><path d="m344.23,326.38c0,5.69-4.62,10.31-10.31,10.31h-4.21v14.71l-19.86-14.71h-58.14c-5.69,0-10.31-4.61-10.31-10.31v-34.27c38.81,38.81,102.82,34.27,102.82,34.27Z" fill="#8342d7" stroke-width="0"/><path d="m279.06,298.56h54.75c1.58,0,2.85-1.28,2.85-2.85s-1.28-2.85-2.85-2.85h-54.75c-3.72.01-3.75,5.69,0,5.71Z" fill="#fff" stroke-width="0"/><path d="m311.73,312.1h22.09c3.73-.02,3.74-5.69,0-5.71,0,0-22.09,0-22.09,0-3.73.02-3.74,5.69,0,5.71Z" fill="#fff" stroke-width="0"/><path d="m251.83,312.1h46.63c1.58,0,2.85-1.28,2.85-2.85s-1.28-2.85-2.85-2.85h-46.63c-3.72.01-3.74,5.69,0,5.71Z" fill="#fff" stroke-width="0"/><path d="m288.66,325.64h45.16c3.72-.01,3.74-5.69,0-5.71,0,0-45.15,0-45.15,0-3.72.01-3.74,5.69,0,5.71Z" fill="#fff" stroke-width="0"/><path d="m256.53,281.8c69.3,0,85.41,11.56,87.71,13.59.86-6.84-2.83-13.54-10.31-13.59,0,0-77.4,0-77.4,0Z" fill="#b18bf3" stroke-width="0"/><rect x="371.48" y="156.05" width="58.83" height="58.83" rx="8.6" ry="8.6" transform="translate(213.86 585.63) rotate(-89.78)" fill="#9f5ee8" stroke-width="0"/><path d="m387.41,176.01c3.19-3.17,8.35-3.15,11.51.05l2.01,2.02,2.02-2.01c1.6-1.58,3.68-2.37,5.77-2.36,2.08,0,4.17.81,5.75,2.41,3.17,3.19,3.15,8.35-.05,11.51l-2.02,2.01-11.56,11.47-11.47-11.56-2.01-2.02c-1.58-1.6-2.37-3.68-2.36-5.77,0-2.08.81-4.16,2.41-5.75Z" fill="#fff" stroke-width="0"/><path d="m379.96,214.8l41.74.16c4.69.02,8.51-3.77,8.53-8.47l.08-20.92s-14.76,29.36-50.35,29.22Z" fill="#8342d7" stroke-width="0"/><path d="m421.83,156.13l-41.68-.16c-4.73-.02-8.58,3.8-8.6,8.53l-.08,20.85s14.76-29.36,50.35-29.22Z" fill="#b18bf3" stroke-width="0"/><polygon points="400.73 229.48 392.36 214.85 409.21 214.92 400.73 229.48" fill="#8342d7" stroke-width="0"/><path d="m503.69,582.8h-157.42c.77-6.04,1.86-13.11,3.35-20.49,1.73-8.53,4.01-17.49,6.99-25.77l137.75,1.53s6.79,19.06,9.32,44.73Z" fill="#1d3f70" stroke-width="0"/><path d="m408.03,407.34c-24.23,6.66-68.09,39.92-82.87,60.52-13.95,20.03,1.36,44.63,14.62,60.81,0,0,.97,1.14.97,1.14l.47.55.22.26.1.12s.03.05.05.08c7.27,8.17-1.65,20.06-11.22,14.51-13.84-8.7-25.97-20.35-34.31-34.5-13.27-21.72-12.71-50.39,3.02-70.75,20.33-26.73,47.96-49.61,77.66-65.44,4.91-2.45,9.8-4.62,15.24-6.34,32.28-13.55,48.51,30.31,16.06,39.05Z" fill="#f99370" stroke-width="0"/><rect x="413.68" y="340.72" width="21.89" height="25.85" fill="#e2b79a" stroke-width="0"/><path d="m494.36,538.07s-75.41,13.87-137.75-1.53c0,0-15.85-6.5,2.04-87.47,5.47-24.75,7.83-59.53,48.79-86.88,0,0-.76-6.17,6.23-9.47,0,0,9.92,2.56,21.89-.07,0,0,6.88,2.96,5.54,9.43,61.86,45.55,59.52,175.99,53.26,175.99Z" fill="#9358e0" stroke-width="0"/><path d="m460.55,307.97c-2.66,12.27-17.64,9.11-15.1-3.19,2.66-12.27,17.64-9.1,15.1,3.19Z" fill="#e2b79a" stroke-width="0"/><path d="m387.32,307.97c2.66,12.27,17.64,9.11,15.1-3.19-2.66-12.27-17.64-9.1-15.1,3.19Z" fill="#e2b79a" stroke-width="0"/><path d="m454.74,321.23c-1.71,41.1-67.62,35.07-61.12-6.2.9-8.18,3.83-13.63,5.2-26.68,3.18-30.2,46.1-31.81,49.95-.23,1.52,12.46,6.05,21.64,5.96,33.1Z" fill="#ffd8bd" stroke-width="0"/><path d="m432.2,302.73c-.99-1.88,1.98-3.39,2.91-1.48.99,1.88-1.98,3.39-2.91,1.48Z" fill="#c16256" stroke-width="0"/><path d="m412.6,302.77c-.99-1.88,1.98-3.39,2.91-1.48.99,1.88-1.98,3.39-2.91,1.48Z" fill="#c16256" stroke-width="0"/><path d="m422.5,315.58c-2.99-.04-7.65-2.05-3.86-4.71,3.09-1.67,5.36-8.07,5.38-8.14.25-.76,1.45-.35,1.17.41-.1.28-2.45,6.92-5.96,8.82-2.42,1.48,2.63,2.92,4.71,2.19.33-.1.67.07.78.4.18,1.11-1.44.95-2.22,1.04Z" fill="#c16256" stroke-width="0"/><path d="m403.75,286.44c14.83,6.89,31.84-15.54,40.92-5.25l1.11-6.28-17.29-8.11-27.59,9.61,2.85,10.04Z" fill="#e2b79a" stroke-width="0"/><path d="m450.6,297.65s-5.17-9.91-5.93-16.46c-.76-6.54-9.55-7.68-16.77-2.56-7.22,5.12-16.23,7.45-25.69,3.96-9.47-3.49-15.59-17.85-5.96-26.31,9.54-8.38,19.45-1.85,28.03,1.4,11.07,4.19,38.88-4.26,26.32,39.98Z" fill="#8c4225" stroke-width="0"/><path d="m397.57,297.17s7.74-8.77,8.21-20.41l-8.29-3.26s-3.38,11.33.08,23.67Z" fill="#8c4225" stroke-width="0"/><path d="m457.41,310.42c-.4,0-.7-.4-.58-.78,2.12-6.03-.08-9.11-4.84-7.29-.72.3-1.18-.85-.44-1.13,5.03-2.06,9.17,1.13,6.44,8.76-.08.26-.32.43-.58.43Z" fill="#c16256" stroke-width="0"/><path d="m451.77,309.58c-1.88-.15,1.7-5.94,6.28-6.25.33-.02.62.23.64.56s-.23.62-.56.64c-4.69.48-5.25,4.89-6.36,5.04Z" fill="#c16256" stroke-width="0"/><path d="m390.84,310.42c-.26,0-.5-.17-.58-.43-2.73-7.64,1.42-10.82,6.44-8.76.73.28.29,1.42-.44,1.12-4.31-1.77-7.12.91-4.84,7.29.12.38-.18.79-.58.78Z" fill="#c16256" stroke-width="0"/><path d="m396.48,309.58c-1.1-.14-1.7-4.57-6.36-5.04-.33-.02-.58-.31-.56-.64.02-.33.32-.58.64-.56,4.58.31,8.16,6.09,6.28,6.25Z" fill="#c16256" stroke-width="0"/><path d="m454.74,315.43s0-.03,0-.05c-.48-2.94-.96-5.48-1.45-7.74-.12-.56-.24-1.1-.36-1.63-.3-1.3-.61-2.52-.92-3.67-.11-.4-.22-.79-.32-1.17-.35-1.23-.71-2.39-1.08-3.53v-.02c-.08-.23-.16-.46-.23-.68-.75-2.24-1.55-4.43-2.44-6.88.1.83.28,1.86.51,3.02.3,1.51.68,3.25,1.08,5.13.68,3.17,1.41,6.72,1.88,10.11.06.4.11.8.16,1.2.26,2.21.39,4.32.3,6.19-.3,6.08-2.97,9.54-11.18,5.17-11.76-6.25-24.36-3.45-34.89,1.54-4.96,1.86-10.05,1.52-9.4-5.88.03-.28.05-.58.08-.88.38-4.41.82-10.47,1.93-17.43.14-.88.29-1.77.45-2.67.2-1.13.42-2.28.66-3.45-.75,1.17-1.37,2.93-1.93,5.06-.05.17-.09.35-.13.53-.1.37-.19.75-.28,1.13,0,.03-.02.06-.02.09-.1.44-.2.89-.3,1.35,0,.03-.02.07-.02.1-.06.27-.12.55-.18.83-.08.39-.16.79-.25,1.19-.26,1.27-.52,2.59-.79,3.93-.12.59-.23,1.18-.36,1.77-.48,2.35-1.01,4.71-1.62,6.94h0c-.02.16-.05.32-.07.47-.16,1.15-.27,2.27-.34,3.36,0,.15-.02.29-.02.44-.75,15.96,8.73,25.77,20.48,29.29,7.05,2.12,14.92,1.96,21.89-.48,11.88-4.17,21.12-15.02,19.18-32.68Zm-46.55,10.84c4.3-2.9,10.09-5.14,15.85-5.37,5.46-.22,10.89,1.17,15.26,3.51,8.54,5.16,2.15,15.2-5.65,15.47-6.08.18-5.1-8.15-9.68-8.03-3.69.09-3.1,12.57-14.63,7.68-5.53-2.3-6.12-9.91-1.15-13.26Z" fill="#8c4225" stroke-width="0"/><path d="m420.77,327.13c-1.75,0-2.84-.27-2.95-.29-.78-.19-.47-1.41.31-1.2.05.01,5.42,1.31,11.75-2.24.3-.17.67-.06.84.24-.7,2.8-9.14,3.54-9.95,3.5Z" fill="#c16256" stroke-width="0"/><path d="m441.1,362.08s.03.05.05.08c-16.9,4.38-33.74.01-33.7.03,0,0-.76-6.17,6.23-9.47,0,0,9.92,2.56,21.89-.07,0,0,6.88,2.96,5.54,9.43Z" fill="#7640cc" stroke-width="0"/><path d="m438.36,298.72c-.19,0-.38-.09-.5-.26-3.02-4.24-8.71-3.04-8.77-3.03-.33.07-.65-.13-.73-.46-.07-.33.13-.65.46-.73.26-.06,6.53-1.39,10.03,3.51.2.27.13.65-.14.85-.11.08-.23.11-.35.11Z" fill="#c16256" stroke-width="0"/><path d="m409.36,298.72c-.12,0-.25-.04-.35-.11-.27-.2-.34-.58-.14-.85,3.49-4.91,9.76-3.57,10.03-3.51.33.07.54.4.46.73-.07.33-.4.54-.73.46-.07-.01-5.75-1.2-8.77,3.03-.12.17-.31.26-.5.26Z" fill="#c16256" stroke-width="0"/><path d="m418.14,486.4s-22.73.64-30.2-6.95c-2.95-3-1.39-8.33-.02-13.48,1.4-5.26,2.66-10.31,4.67-10.45,4-.28,20.01,4.35,30.89,10.96,0,0-.81,11.89-5.34,19.92Z" fill="#ffd8bd" stroke-width="0"/><path d="m403.09,457.84l-1.33-7.16c-1.43-4.7-.47-7.41,1.68-8.13,2.37-.78,1.72,2.52,2.94,5.45,1.72,4.12,8.57,11.89,11.46,16.62,3.03,4.96-18.29-1.02-14.75-6.79Z" fill="#ffd8bd" stroke-width="0"/><path d="m393.28,482.79c-14.85-4.5-8.71-15.81-1.35-8.09,0,0-.02-.03-.02-.03,1.85.48,2.17,6.37,1.37,8.12Z" fill="#ffd8bd" stroke-width="0"/><path d="m394.48,469.83c-.23-.18-.49-.35-.78-.5h0c-.24-.15-.53-.34-.67-.55-.14-1.96-2.74-3.37-5-3.19-3.93.11-4.07,4.12-1.55,6.6,3.73,4.7,12.56,2.58,8.01-2.36Zm-1.45-.99s0-.03,0-.05c0,0,0,.03,0,.05Z" fill="#ffd8bd" stroke-width="0"/><path d="m395.31,468.66c-.22.13-.45.24-.69.32h0c-3.29,1.27-5.71-1.14-7.88-3.14-3.87-4.09,3.05-8.8,7.37-2.83.09.12.83.72.92.82h0c1.84,1.26,2.38,3.65.28,4.83Z" fill="#ffd8bd" stroke-width="0"/><path d="m396.21,463.19c-5.6,3.54-18.06-10.57-1.38-7.55,1.89,1.71,4.98,5.18,1.38,7.55Z" fill="#ffd8bd" stroke-width="0"/><path d="m522.52,505.56c-26.99,12.18-75.41,1.02-99.04-13.77-2.81-1.76-5.26-3.56-7.29-5.39,0,0,.25-13.68,7.29-19.92,0,0,3.46.32,8.8.68,15.07,1.03,45.13,2.4,54.79-2.04,5.73-2.64,1.14-20.68,1.14-20.68,0,0-9.48-50.78-47.1-82.35,0,0,42.42,1.08,75.85,39.36,25.93,29.7,44.58,86.52,5.57,104.12Z" fill="#9358e0" stroke-width="0"/><path d="m356.62,536.54c4.44,3.95,10.35,5,10.36,5.04,7.11,1.94,14.1,4.6,21.36,5.87,5.04.88,4.06,4.89-.47,4.38-7.15-.81-14.44-2.22-21.58-3.2-.01.03,13.96,7.94,21.18,10.62,5.36,1.99,3.51,4.97-1.1,3.73-7.92-2.14-23.21-7.95-23.21-7.95.01-.01,12.15,8.36,18.85,11.38,5.11,2.3,3.25,4.94-1.34,3.65-8.08-2.27-15.78-5.86-22.96-10.22-.02.02,8.67,7.81,13.46,11.14,4.26,2.96,2.01,5.5-1.98,3.35-5.69-3.07-11.4-6.15-16.56-10.09-3.97-2.84-11.14-5.64-20.93-17.57-2.73-3.34,6.75-14.65,10.93-15.38,3.91-.68,9.32.15,10.32.02l3.67,5.22Z" fill="#ffd8bd" stroke-width="0"/><path d="m407.45,362.19c-14.29,10.94-25.55,29.46-33.64,46.59-10.01,21.2-15.16,40.3-15.16,40.3-32.02,20.01-36.49,46.29-16.03,82.22-8.97,4.91-10.93,15.38-10.93,15.38,0,0-3.09-1.2-7.74-3.7h0c-115.59-66.92,33.16-186.05,83.49-180.78Z" fill="#9358e0" stroke-width="0"/><path d="m432.28,467.16h0s-8.38,10.09-8.8,24.63c-2.81-1.76-5.26-3.56-7.29-5.39,0,0,.25-13.68,7.29-19.92,0,0,3.46.32,8.8.68Z" fill="#7640cc" stroke-width="0"/><path d="m461.73,469.57c-6.28,0-12.79-.23-18.55-.43-6.18-.22-11.52-.41-13.8-.17-.47.05-.89-.29-.94-.76-.05-.47.29-.89.76-.94,2.4-.25,7.54-.07,14.04.16,15.02.53,37.72,1.33,43.3-2.99,3.03-2.35,2.86-10.99-.48-24.34-2.62-10.45-6.28-20.25-6.32-20.35-.17-.44.06-.93.5-1.1.44-.17.93.06,1.1.5.04.1,3.74,9.99,6.38,20.53,3.62,14.45,3.58,23.23-.13,26.1-3.91,3.03-14.5,3.78-25.86,3.78Z" fill="#7640cc" stroke-width="0"/><path d="m496.42,511.55s-.01,0-.02,0c-26.11-.49-45.03-6.16-56.31-10.84-12.26-5.09-18.25-10-18.5-10.21-.36-.3-.41-.84-.11-1.2.3-.36.84-.41,1.2-.11.08.07,6.12,5,18.15,9.98,11.13,4.61,29.81,10.2,55.6,10.68.47,0,.85.4.84.87,0,.47-.39.84-.85.84Z" fill="#7640cc" stroke-width="0"/><path d="m342.63,531.29c-8.97,4.91-10.93,15.38-10.93,15.38,0,0-3.09-1.2-7.74-3.7h0s2.63-10.12,15.33-17.96c1.9,3.9,3.34,6.28,3.34,6.28Z" fill="#7640cc" stroke-width="0"/><path d="m373.81,408.78c-10.01,21.2-15.15,40.29-15.15,40.29,0,0-19.43,11.68-26.2,28.39-.86,2.11-1.46,4.31-1.84,6.55,1.43-18.54,18.5-30.47,24.97-43.66,6.42-13.09,18.04-31.29,18.22-31.58Z" fill="#7640cc" stroke-width="0"/><polygon points="296.69 203.03 307.25 215.97 323.37 211.63 314.33 225.67 323.43 239.66 307.29 235.4 296.8 248.39 295.86 231.72 280.27 225.75 295.83 219.7 296.69 203.03" fill="#f9b233" stroke-width="0"/><polygon points="482.1 170.73 483.47 181.22 493.59 184.27 484.04 188.8 484.27 199.37 477 191.69 467.02 195.17 472.08 185.89 465.68 177.47 476.07 179.42 482.1 170.73" fill="#f9b233" stroke-width="0"/></svg>