<svg width="24" height="24" viewBox="0 0 24 24" fill="none" xmlns="http://www.w3.org/2000/svg">
<path d="M4.2998 2C4.72949 2 5.12012 2.35156 5.19824 2.78125L5.27637 3.25H21.6826C22.5029 3.25 23.1279 4.07031 22.8936 4.85156L20.7842 12.3516C20.6279 12.8984 20.1592 13.25 19.5732 13.25H7.19043L7.54199 15.125H19.6123C20.1201 15.125 20.5498 15.5547 20.5498 16.0625C20.5498 16.6094 20.1201 17 19.6123 17H6.76074C6.33105 17 5.94043 16.6875 5.8623 16.2578L3.51855 3.875H1.4873C0.94043 3.875 0.549805 3.48438 0.549805 2.9375C0.549805 2.42969 0.94043 2 1.4873 2H4.2998ZM5.5498 20.125C5.5498 19.1094 6.37012 18.25 7.4248 18.25C8.44043 18.25 9.2998 19.1094 9.2998 20.125C9.2998 21.1797 8.44043 22 7.4248 22C6.37012 22 5.5498 21.1797 5.5498 20.125ZM20.5498 20.125C20.5498 21.1797 19.6904 22 18.6748 22C17.6201 22 16.7998 21.1797 16.7998 20.125C16.7998 19.1094 17.6201 18.25 18.6748 18.25C19.6904 18.25 20.5498 19.1094 20.5498 20.125Z" fill="#43474E"/>
</svg>
