<svg width="26" height="24" viewBox="0 0 26 24" fill="none" xmlns="http://www.w3.org/2000/svg">
<path d="M11.6631 5.75C11.6631 5.4375 11.9365 5.125 12.2881 5.125H12.9131C13.2256 5.125 13.5381 5.4375 13.5381 5.75V6.6875H14.4756C14.7881 6.6875 15.1006 7 15.1006 7.3125V7.9375C15.1006 8.28906 14.7881 8.5625 14.4756 8.5625H13.5381V9.5C13.5381 9.85156 13.2256 10.125 12.9131 10.125H12.2881C11.9365 10.125 11.6631 9.85156 11.6631 9.5V8.5625H10.7256C10.374 8.5625 10.1006 8.28906 10.1006 7.9375V7.3125C10.1006 7 10.374 6.6875 10.7256 6.6875H11.6631V5.75ZM16.0381 2C17.5615 2 18.8506 3.28906 18.8506 4.8125V5.125H22.2881C23.8115 5.125 25.1006 6.41406 25.1006 7.9375V19.1875C25.1006 20.75 23.8115 22 22.2881 22H2.87402C1.35059 22 0.100586 20.75 0.100586 19.1875V7.9375C0.100586 6.41406 1.35059 5.125 2.91309 5.125H6.35059V4.8125C6.35059 3.28906 7.60059 2 9.16309 2H16.0381ZM18.8506 7V20.125H22.2881C22.7959 20.125 23.2256 19.7344 23.2256 19.1875V15.125H21.0381C20.4912 15.125 20.1006 14.7344 20.1006 14.1875C20.1006 13.6797 20.4912 13.25 21.0381 13.25H23.2256V11.375H21.0381C20.4912 11.375 20.1006 10.9844 20.1006 10.4375C20.1006 9.92969 20.4912 9.5 21.0381 9.5H23.2256V7.9375C23.2256 7.42969 22.7959 7 22.2881 7H18.8506ZM1.97559 7.9375V9.5H4.16309C4.6709 9.5 5.10059 9.92969 5.10059 10.4375C5.10059 10.9844 4.6709 11.375 4.16309 11.375H1.97559V13.25H4.16309C4.6709 13.25 5.10059 13.6797 5.10059 14.1875C5.10059 14.7344 4.6709 15.125 4.16309 15.125H1.97559V19.1875C1.97559 19.7344 2.36621 20.125 2.87402 20.125H6.35059V7H2.91309C2.36621 7 1.97559 7.42969 1.97559 7.9375ZM8.22559 20.125H10.7256V17.625C10.7256 16.6094 11.5459 15.75 12.6006 15.75C13.6162 15.75 14.4756 16.6094 14.4756 17.625V20.125H16.9756V4.8125C16.9756 4.30469 16.5459 3.875 16.0381 3.875H9.16309C8.61621 3.875 8.22559 4.30469 8.22559 4.8125V20.125Z" fill="#43474E"/>
</svg>
