<svg width="31" height="31" viewBox="0 0 31 31" fill="none" xmlns="http://www.w3.org/2000/svg">
<mask id="mask0_433_1109" style="mask-type:alpha" maskUnits="userSpaceOnUse" x="0" y="0" width="31" height="31">
<rect width="31" height="31" fill="#D9D9D9"/>
</mask>
<g mask="url(#mask0_433_1109)">
<path d="M10.3333 18.0088C10.0171 18.0088 9.74755 17.8974 9.52482 17.6747C9.3021 17.452 9.19073 17.1825 9.19073 16.8662C9.19073 16.5499 9.3021 16.2804 9.52482 16.0577C9.74755 15.835 10.0171 15.7236 10.3333 15.7236C10.6496 15.7236 10.9191 15.835 11.1419 16.0577C11.3646 16.2804 11.476 16.5499 11.476 16.8662C11.476 17.1825 11.3646 17.452 11.1419 17.6747C10.9191 17.8974 10.6496 18.0088 10.3333 18.0088ZM15.5 18.0088C15.1837 18.0088 14.9142 17.8974 14.6915 17.6747C14.4688 17.452 14.3574 17.1825 14.3574 16.8662C14.3574 16.5499 14.4688 16.2804 14.6915 16.0577C14.9142 15.835 15.1837 15.7236 15.5 15.7236C15.8163 15.7236 16.0858 15.835 16.3085 16.0577C16.5313 16.2804 16.6426 16.5499 16.6426 16.8662C16.6426 17.1825 16.5313 17.452 16.3085 17.6747C16.0858 17.8974 15.8163 18.0088 15.5 18.0088ZM20.6667 18.0088C20.3504 18.0088 20.0809 17.8974 19.8582 17.6747C19.6354 17.452 19.5241 17.1825 19.5241 16.8662C19.5241 16.5499 19.6354 16.2804 19.8582 16.0577C20.0809 15.835 20.3504 15.7236 20.6667 15.7236C20.983 15.7236 21.2525 15.835 21.4752 16.0577C21.6979 16.2804 21.8093 16.5499 21.8093 16.8662C21.8093 17.1825 21.6979 17.452 21.4752 17.6747C21.2525 17.8974 20.983 18.0088 20.6667 18.0088ZM6.85582 27.7708C6.20336 27.7708 5.65108 27.5448 5.199 27.0927C4.74692 26.6406 4.52087 26.0883 4.52087 25.4359V8.14748C4.52087 7.49502 4.74692 6.94275 5.199 6.49066C5.65108 6.03858 6.20336 5.81254 6.85582 5.81254H8.64429V3.08018H10.6314V5.81254H20.4183V3.08018H22.3557V5.81254H24.1442C24.7967 5.81254 25.3489 6.03858 25.801 6.49066C26.2531 6.94275 26.4791 7.49502 26.4791 8.14748V25.4359C26.4791 26.0883 26.2531 26.6406 25.801 27.0927C25.3489 27.5448 24.7967 27.7708 24.1442 27.7708H6.85582ZM6.85582 25.8333H24.1442C24.2436 25.8333 24.3347 25.7919 24.4175 25.7091C24.5003 25.6263 24.5417 25.5352 24.5417 25.4359V13.3142H6.45834V25.4359C6.45834 25.5352 6.49974 25.6263 6.58254 25.7091C6.66535 25.7919 6.75645 25.8333 6.85582 25.8333ZM6.45834 11.3767H24.5417V8.14748C24.5417 8.04811 24.5003 7.95702 24.4175 7.8742C24.3347 7.7914 24.2436 7.75001 24.1442 7.75001H6.85582C6.75645 7.75001 6.66535 7.7914 6.58254 7.8742C6.49974 7.95702 6.45834 8.04811 6.45834 8.14748V11.3767Z" fill="#6C6D6E"/>
</g>
</svg>
