<svg width="216" height="180" viewBox="0 0 216 180" fill="none" xmlns="http://www.w3.org/2000/svg">
<path d="M87.727 176.559C94.2292 170.888 94.8408 161.602 93.6764 153.441C93.4856 152.081 93.4807 150.623 92.6979 149.493C91.915 148.363 90.3152 147.707 89.1507 148.412C88.1722 148.999 87.8738 150.232 87.409 151.269C86.7922 152.659 85.7948 153.846 84.5321 154.694C83.7102 155.237 82.6631 155.628 81.7531 155.247C80.5006 154.723 80.1875 153.109 80.0505 151.748C79.7895 149.214 79.5319 146.678 79.2775 144.14C79.2125 142.771 78.9267 141.421 78.431 140.143C77.8684 138.901 76.8067 137.8 75.471 137.575C74.1353 137.35 72.6186 138.274 72.4914 139.634C72.5 140.203 72.5474 140.77 72.6333 141.332C72.6727 141.612 72.6283 141.898 72.5055 142.153C72.3827 142.408 72.1871 142.622 71.9435 142.766C71.4151 142.986 70.8328 142.658 70.3827 142.306C68.8269 141.083 67.6869 139.414 66.6056 137.751C65.5244 136.087 64.4676 134.38 63.034 133.02C61.6005 131.659 59.7071 130.661 57.75 130.764C55.793 130.867 53.8359 132.291 53.5571 134.253C53.2782 136.214 54.5992 138.049 56.0034 139.468C58.0559 141.577 60.4025 143.378 62.9704 144.816C63.4651 145.02 63.8804 145.379 64.1544 145.838C64.5458 146.714 63.7826 147.707 62.9215 148.099C61.943 148.549 60.8324 148.559 59.7853 148.798C58.7383 149.038 57.6375 149.63 57.339 150.677C56.933 152.145 58.254 153.456 59.5016 154.288C61.9997 155.952 64.765 157.175 67.6771 157.903C68.7143 158.163 69.8054 158.393 70.6861 158.985C71.5667 159.577 72.1734 160.78 71.7967 161.759C71.4199 162.737 70.1968 163.227 69.1253 163.134C68.0538 163.041 67.0606 162.586 66.0185 162.316C64.0615 161.827 61.6739 162.199 60.6367 163.946C60.332 164.541 60.169 165.199 60.1605 165.868C60.152 166.536 60.2982 167.198 60.5877 167.801C61.1834 169.001 62.0155 170.068 63.034 170.937C66.3783 174.177 70.5236 176.47 75.0454 177.581C79.5417 178.619 83.6025 178.594 87.7416 176.554" fill="#EBEBEB"/>
<path d="M85.0595 171.651C83.2173 167.334 81.1297 163.126 78.8068 159.048L76.9965 155.829C76.4045 154.777 75.8125 153.73 75.1716 152.741C73.9347 150.848 72.5954 149.024 71.1596 147.276C69.7995 145.603 68.4491 144.062 67.1771 142.628C65.905 141.195 64.6818 139.888 63.5223 138.744C61.7018 136.923 59.7385 135.251 57.6512 133.743C56.9173 133.21 56.3302 132.814 55.929 132.55L55.474 132.256C55.4253 132.217 55.3708 132.186 55.3125 132.163L55.4593 132.276L55.9045 132.594C56.291 132.868 56.883 133.279 57.5925 133.822C59.6513 135.356 61.591 137.044 63.3951 138.871C64.5399 140.021 65.7484 141.317 67.0156 142.785C68.2828 144.253 69.6282 145.765 70.9786 147.443C72.4034 149.186 73.7329 151.006 74.9612 152.893C75.5972 153.872 76.1794 154.914 76.7763 155.97C77.3732 157.027 77.975 158.104 78.5817 159.19C80.9017 163.257 82.9909 167.452 84.8393 171.754" fill="#E0E0E0"/>
<path d="M75.098 152.741C75.1398 152.545 75.1627 152.345 75.1665 152.144C75.2007 151.763 75.2252 151.205 75.2496 150.515C75.2937 149.14 75.2937 147.242 75.2839 145.133C75.2741 143.025 75.2839 141.141 75.367 139.752C75.4013 139.067 75.4307 138.514 75.46 138.132C75.4844 137.932 75.4844 137.73 75.46 137.53C75.4053 137.724 75.3692 137.922 75.3524 138.122C75.2937 138.504 75.2349 139.057 75.1811 139.742C75.0686 141.117 75.0148 143.02 75.0246 145.124C75.0344 147.227 75.0246 149.062 75.0588 150.505V152.13C75.0497 152.334 75.0628 152.54 75.098 152.741Z" fill="#E0E0E0"/>
<path d="M57.2617 151.357C57.4961 151.377 57.7318 151.377 57.9663 151.357C58.4213 151.357 59.0769 151.332 59.8842 151.357C61.5085 151.357 63.7444 151.435 66.2103 151.631C68.6762 151.826 70.9023 152.12 72.5022 152.35C73.3046 152.467 73.97 152.58 74.4005 152.653C74.6305 152.706 74.8646 152.739 75.1001 152.751C74.8812 152.663 74.6531 152.599 74.4201 152.56C73.9748 152.453 73.3339 152.316 72.5315 152.174C70.9316 151.88 68.7006 151.577 66.2299 151.376C64.1145 151.202 61.9916 151.135 59.8695 151.176C59.0573 151.176 58.4017 151.235 57.9467 151.274C57.7163 151.28 57.4869 151.308 57.2617 151.357Z" fill="#E0E0E0"/>
<path d="M84.8125 171.348C84.8556 171.278 84.8886 171.203 84.9104 171.123C84.9691 170.947 85.0473 170.727 85.1403 170.458C85.336 169.881 85.6002 169.039 85.9133 168.012C86.5445 165.918 87.3175 162.997 88.1297 159.763C88.9419 156.529 89.6953 153.603 90.2775 151.499C90.5613 150.476 90.801 149.635 90.9723 149.009C91.0506 148.74 91.1093 148.519 91.1631 148.329C91.1907 148.252 91.2056 148.171 91.2071 148.089C91.1672 148.16 91.136 148.235 91.1142 148.314L90.8793 148.979C90.6836 149.557 90.4194 150.403 90.1063 151.45C89.48 153.544 88.7021 156.465 87.8899 159.699C87.0778 162.933 86.3292 165.854 85.747 167.958C85.4583 168.98 85.2235 169.822 85.0473 170.448C84.974 170.722 84.9103 170.937 84.8614 171.128C84.836 171.199 84.8196 171.273 84.8125 171.348Z" fill="#E0E0E0"/>
<path d="M60.7695 166.368C60.8469 166.399 60.9272 166.422 61.0093 166.436L61.7089 166.588L64.2824 167.126C66.4547 167.581 69.4539 168.247 72.7613 168.981C76.0687 169.714 79.0776 170.355 81.2646 170.766C82.3557 170.972 83.2217 171.128 83.8528 171.226L84.5622 171.329C84.6448 171.343 84.7292 171.343 84.8118 171.329C84.7338 171.3 84.6536 171.277 84.572 171.261L83.8724 171.109L81.294 170.571C79.1217 170.116 76.1274 169.45 72.8151 168.716C69.5028 167.983 66.4988 167.342 64.3167 166.931C63.2256 166.725 62.3596 166.569 61.7236 166.471L61.0191 166.368C60.9365 166.354 60.8521 166.354 60.7695 166.368Z" fill="#E0E0E0"/>
<path d="M201.347 65.1792L196.39 72.1512L194.546 71.3341L180.47 79.7053L177.965 72.3126C177.965 72.3126 185.861 70.2088 187.623 67.7625C189.384 65.3162 187.887 64.4845 187.887 64.4845L191.967 61.0254L201.347 65.1792Z" fill="#EBEBEB"/>
<path d="M198.615 49.0333C198.615 49.0333 193.164 46.9588 186.359 38.1668C179.553 29.3748 177.317 18.7041 176.339 18.5964C175.36 18.4888 171.417 15.9104 160.775 32.2566C150.134 48.6027 152.707 53.1382 154.317 53.3388C155.927 53.5394 167.263 52.1107 173.951 53.8867C180.639 55.6628 188.859 60.4918 188.859 60.4918L198.615 49.0333Z" fill="#EBEBEB"/>
<path d="M209.177 60.3502L206.731 63.7212L205.625 65.233C204.897 66.2299 203.814 66.9098 202.6 67.1328C201.386 67.3558 200.133 67.1049 199.098 66.4317L187.645 60.4431L197.038 45.4229L208.145 53.6326C209.168 54.3896 209.851 55.5204 210.044 56.7787C210.238 58.0371 209.926 59.3208 209.177 60.3502Z" fill="#E0E0E0"/>
<path d="M161.374 32.682C155.689 41.5474 152.656 49.7474 154.608 50.9999C156.56 52.2524 162.744 46.0731 168.429 37.2077C174.115 28.3423 177.148 20.1423 175.201 18.8947C173.253 17.6471 167.064 23.8166 161.374 32.682Z" fill="#E0E0E0"/>
<path d="M209.429 65.7855L206.312 64.2737L208.901 60.7217L211.132 62.6102L209.429 65.7855Z" fill="#E0E0E0"/>
<path d="M206.519 61.2797C206.456 61.3775 204.914 60.5018 203.094 59.3226C201.274 58.1435 199.821 57.1063 199.885 57.0084C199.948 56.9106 201.485 57.7864 203.31 58.9655C205.135 60.1446 206.583 61.1769 206.519 61.2797Z" fill="#EBEBEB"/>
<path d="M207.859 59.1312C207.796 59.229 206.392 58.3875 204.762 57.2524C203.133 56.1173 201.827 55.1241 201.91 55.0263C201.993 54.9284 203.378 55.77 205.007 56.905C206.636 58.0401 207.928 59.0138 207.859 59.1312Z" fill="#EBEBEB"/>
<path d="M204.877 63.4954C204.852 63.5492 204.476 63.4025 203.898 63.1187C203.6 62.9768 203.253 62.8007 202.866 62.6001C202.48 62.3995 202.098 62.1108 201.677 61.8515C200.009 60.7605 198.742 59.7428 198.82 59.6547C198.898 59.5667 200.258 60.4131 201.912 61.4992C202.323 61.7634 202.705 62.0472 203.072 62.2674C203.438 62.4876 203.766 62.6833 204.05 62.8545C204.593 63.2019 204.921 63.4416 204.877 63.4954Z" fill="#EBEBEB"/>
<path d="M170.432 31.8599C170.432 31.8599 165.984 28.1024 162.329 34.3062C158.675 40.5101 163.67 42.379 163.67 42.379C166.408 39.2085 168.684 35.6672 170.432 31.8599Z" fill="#EBEBEB"/>
<path d="M176.8 24.7656C176.709 25.1878 176.583 25.6018 176.424 26.0035C176.15 26.7863 175.753 27.9262 175.23 29.3206C174.917 30.0007 174.579 30.7444 174.212 31.537L173.645 32.7699L173.341 33.4157C173.238 33.631 173.106 33.8414 172.989 34.0567L171.462 36.7476C171.33 36.9824 171.198 37.2369 171.061 37.4521C170.924 37.6674 170.758 37.9071 170.611 38.142L169.647 39.5119L168.708 40.9112C168.546 41.1363 168.405 41.4005 168.219 41.5864L167.729 42.2175C167.054 43.0542 166.399 43.8565 165.772 44.6247C165.611 44.8155 165.464 45.0063 165.283 45.1873L164.794 45.7011L163.85 46.6796L162.157 48.436C161.056 49.4145 160.136 50.212 159.51 50.7551C159.196 51.0528 158.855 51.3213 158.492 51.5575C158.768 51.2252 159.071 50.9159 159.397 50.6328L161.956 48.2159C162.445 47.6679 163.008 47.071 163.6 46.4349L164.515 45.4564L165.004 44.9378C165.166 44.7617 165.308 44.566 165.464 44.3752C166.071 43.607 166.712 42.8046 167.377 41.9729L167.866 41.3418C168.038 41.1314 168.18 40.8965 168.356 40.6715L169.3 39.2869L170.244 37.9023C170.396 37.6723 170.562 37.457 170.694 37.2222L171.115 36.5079C171.648 35.5832 172.162 34.6927 172.656 33.8463C172.774 33.631 172.906 33.4304 173.013 33.2151C173.121 32.9999 173.219 32.7895 173.317 32.5791L173.904 31.3608C174.285 30.578 174.638 29.8507 174.961 29.1788C175.509 27.8186 175.939 26.7325 176.277 25.9203C176.418 25.5213 176.593 25.135 176.8 24.7656Z" fill="#E0E0E0"/>
<path d="M167.624 123.621C167.624 123.621 170.858 124.928 167.135 131.797C163.411 138.666 160.843 142.047 160.843 142.047C160.843 142.047 160.167 143.647 161.523 143.935C162.878 144.224 165.882 143.818 166.45 145.501C167.017 147.184 165.735 148.838 163.157 150.203C160.578 151.568 155.035 154.758 154.536 155.047C154.037 155.335 153.558 156.069 154.433 156.412C155.309 156.754 162.041 157.635 161.435 160.815C160.828 163.995 153.015 166.574 152.173 166.877C151.331 167.18 151.116 167.532 151.194 167.992C151.273 168.452 153.538 168.54 155.441 168.868C157.344 169.196 159.487 169.905 158.983 171.701C158.48 173.497 153.797 177.176 142.642 177.978L137.451 178.012L134.741 173.555C129.52 163.662 130.166 157.747 131.423 156.368C132.681 154.988 134.423 156.436 135.704 157.874C136.986 159.313 138.268 161.211 138.689 161.016C139.11 160.82 139.301 160.453 139.11 159.577C138.919 158.701 137.006 150.682 139.369 148.495C141.732 146.308 146.033 151.548 146.791 152.121C147.549 152.693 147.916 151.876 147.897 151.309C147.877 150.741 147.657 144.342 147.452 141.43C147.246 138.519 147.912 136.577 149.702 136.151C151.493 135.726 152.677 138.505 153.616 139.503C154.556 140.501 155.573 139.082 155.573 139.082C155.573 139.082 157.1 135.129 160.955 128.318C164.811 121.508 167.692 123.651 167.692 123.651" fill="#EBEBEB"/>
<path d="M137.121 179.225C139.935 174.22 144.783 165.242 148.986 157.556C153.189 149.869 156.995 142.917 159.784 137.897C161.178 135.397 162.304 133.367 163.091 131.957L163.987 130.343L164.217 129.922C164.244 129.875 164.268 129.826 164.29 129.775L164.202 129.912C164.143 130.01 164.065 130.152 163.957 130.328L163.032 131.913C162.235 133.303 161.075 135.338 159.686 137.829C156.873 142.834 153.047 149.781 148.844 157.463C144.641 165.144 139.802 174.151 137.023 179.171" fill="#E0E0E0"/>
<path d="M162.266 146.229C162.142 146.245 162.021 146.274 161.904 146.318C161.669 146.386 161.341 146.494 160.925 146.631C160.108 146.91 158.968 147.321 157.76 147.795L154.629 149.038L153.675 149.4C153.555 149.437 153.44 149.488 153.332 149.552C153.455 149.533 153.576 149.504 153.694 149.463C153.929 149.395 154.262 149.282 154.673 149.145C155.49 148.857 156.6 148.436 157.828 147.961L160.974 146.753L161.928 146.396C162.047 146.353 162.16 146.297 162.266 146.229Z" fill="#E0E0E0"/>
<path d="M152.984 149.195C153.028 149.195 152.285 146.836 151.321 143.955C150.357 141.073 149.55 138.764 149.506 138.764C149.462 138.764 150.21 141.122 151.169 144.004C152.128 146.885 152.94 149.209 152.984 149.195Z" fill="#E0E0E0"/>
<path d="M147.063 161.269C147.009 161.153 146.942 161.043 146.863 160.942C146.701 160.712 146.5 160.428 146.266 160.085C145.776 159.361 145.082 158.358 144.367 157.223C143.653 156.088 143.032 155.041 142.596 154.288L142.073 153.387C142.016 153.273 141.947 153.165 141.867 153.064C141.904 153.187 141.955 153.305 142.019 153.417C142.126 153.637 142.288 153.955 142.508 154.346C142.924 155.124 143.526 156.186 144.245 157.321C144.964 158.456 145.664 159.454 146.202 160.164C146.466 160.516 146.691 160.8 146.838 160.99C146.905 161.09 146.98 161.183 147.063 161.269Z" fill="#E0E0E0"/>
<path d="M156.053 160.453C155.934 160.44 155.815 160.44 155.696 160.453L154.717 160.502C153.905 160.551 152.76 160.634 151.547 160.732C150.334 160.83 149.189 160.928 148.377 161.011L147.423 161.113C147.303 161.115 147.184 161.135 147.07 161.172C147.189 161.185 147.309 161.185 147.427 161.172L148.406 161.123C149.218 161.074 150.339 160.991 151.576 160.893C152.814 160.795 153.935 160.698 154.742 160.614L155.72 160.512C155.833 160.505 155.945 160.485 156.053 160.453Z" fill="#E0E0E0"/>
<path d="M152.181 171.794C152.03 171.781 151.878 171.781 151.726 171.794L150.493 171.857C149.451 171.916 148.013 172.004 146.428 172.117C144.842 172.229 143.404 172.342 142.367 172.43L141.134 172.542C140.982 172.55 140.832 172.57 140.684 172.601C140.835 172.62 140.988 172.62 141.139 172.601L142.372 172.542C143.414 172.484 144.852 172.391 146.437 172.278C148.022 172.166 149.461 172.058 150.498 171.97L151.731 171.857C151.883 171.85 152.033 171.828 152.181 171.794Z" fill="#E0E0E0"/>
<path d="M140.952 172.522C140.884 172.374 140.802 172.233 140.707 172.101L139.998 170.986C139.396 170.047 138.569 168.745 137.698 167.282C136.828 165.819 136.074 164.474 135.536 163.495L134.91 162.321C134.837 162.176 134.754 162.037 134.66 161.905C134.711 162.06 134.776 162.209 134.856 162.351C134.988 162.634 135.193 163.04 135.448 163.535C135.962 164.513 136.705 165.883 137.576 167.346C138.447 168.809 139.289 170.11 139.915 171.035C140.228 171.524 140.487 171.872 140.673 172.121C140.757 172.261 140.85 172.395 140.952 172.522Z" fill="#E0E0E0"/>
<path d="M19.207 159.968L22.0203 178.447H38.3567L42.1484 160.237L19.207 159.968Z" fill="#39A53B"/>
<path d="M39.8636 171.813C39.8636 171.867 35.6755 171.906 30.5138 171.906C25.3521 171.906 21.1641 171.867 21.1641 171.813C21.1641 171.759 25.3521 171.715 30.5138 171.715C35.6755 171.715 39.8636 171.759 39.8636 171.813Z" fill="#FAFAFA"/>
<path d="M39.9244 170.903C39.9244 170.956 35.7119 171 30.511 171C25.3102 171 21.0977 170.956 21.0977 170.903C21.0977 170.849 25.3151 170.81 30.511 170.81C35.707 170.81 39.9244 170.849 39.9244 170.903Z" fill="#FAFAFA"/>
<path d="M39.8921 169.875C39.8921 169.929 35.6796 169.973 30.4837 169.973C25.2877 169.973 21.0703 169.929 21.0703 169.875C21.0703 169.821 25.2828 169.782 30.4837 169.782C35.6845 169.782 39.8921 169.826 39.8921 169.875Z" fill="#FAFAFA"/>
<path d="M23.8922 177.415C23.6696 176.652 23.506 175.873 23.403 175.086C23.2373 174.309 23.1327 173.521 23.0898 172.728C23.3164 173.487 23.48 174.265 23.5791 175.052C23.7491 175.829 23.8538 176.62 23.8922 177.415Z" fill="#FAFAFA"/>
<path d="M25.0104 177.2C24.8947 176.448 24.8261 175.69 24.8049 174.929C24.7221 174.172 24.6862 173.411 24.6973 172.649C24.8775 173.392 24.9776 174.151 24.9957 174.915C25.0781 175.674 25.083 176.439 25.0104 177.2Z" fill="#FAFAFA"/>
<path d="M27.0357 177.195C26.8118 176.438 26.6691 175.659 26.6101 174.871C26.4862 174.09 26.4436 173.298 26.4829 172.508C26.6323 173.281 26.7385 174.062 26.8009 174.846C26.9221 175.624 27.0005 176.408 27.0357 177.195Z" fill="#FAFAFA"/>
<path d="M28.4518 177.293C28.2962 176.515 28.2208 175.723 28.2267 174.93C28.1675 174.138 28.1921 173.343 28.3001 172.557C28.3841 173.343 28.4233 174.134 28.4176 174.925C28.4766 175.713 28.488 176.503 28.4518 177.293Z" fill="#FAFAFA"/>
<path d="M30.9715 177.199C30.7938 175.708 30.7431 174.203 30.8198 172.703C30.9378 173.452 30.9951 174.21 30.991 174.968C31.0458 175.711 31.0392 176.458 30.9715 177.199Z" fill="#FAFAFA"/>
<path d="M32.8076 177.297C32.7237 176.526 32.6992 175.749 32.7342 174.973C32.7075 174.199 32.7452 173.423 32.8467 172.654C32.9372 173.424 32.9633 174.2 32.925 174.973C32.9513 175.75 32.912 176.527 32.8076 177.297Z" fill="#FAFAFA"/>
<path d="M34.5352 177.048C34.5674 175.426 34.731 173.809 35.0244 172.214C35.0402 173.032 34.9928 173.85 34.8825 174.66C34.8306 175.464 34.7144 176.262 34.5352 177.048Z" fill="#FAFAFA"/>
<path d="M36.7539 176.808C36.7588 176.111 36.8509 175.417 37.0279 174.743C37.1484 174.057 37.3522 173.389 37.6346 172.752C37.5354 173.436 37.3965 174.114 37.2187 174.782C37.1017 175.466 36.9465 176.142 36.7539 176.808Z" fill="#FAFAFA"/>
<path d="M17.332 156.309V159.768C17.3314 159.946 17.3661 160.124 17.4343 160.289C17.5024 160.454 17.6025 160.604 17.729 160.731C17.8554 160.857 18.0056 160.957 18.1709 161.026C18.3362 161.094 18.5134 161.128 18.6922 161.128H42.3528C42.7135 161.128 43.0595 160.985 43.3146 160.729C43.5696 160.474 43.7129 160.128 43.7129 159.768V156.309H17.332Z" fill="#39A53B"/>
<g opacity="0.4">
<path d="M19.3828 161.128L19.5785 162.229L41.4093 163.785L41.9622 161.128H19.3828Z" fill="black"/>
</g>
<path d="M25.9126 156.298C22.434 154.282 20.5748 149.595 20.4378 145.76C20.3008 141.924 21.9056 137.931 25.0417 135.715C28.3589 133.401 33.0803 133.44 36.4855 135.622C38.1683 136.756 39.5335 138.3 40.4514 140.11C41.3694 141.919 41.8096 143.933 41.7304 145.96C41.6157 147.985 41.0529 149.96 40.0824 151.741C39.1119 153.522 37.758 155.065 36.1186 156.259" fill="#455A64"/>
<path d="M31.4606 156.671C31.4099 156.38 31.3886 156.085 31.397 155.79C31.397 155.164 31.3529 154.361 31.3285 153.397C31.2747 151.377 31.1964 148.588 31.0594 145.506C30.9224 142.423 30.7609 139.635 30.6337 137.624C30.575 136.645 30.5261 135.858 30.4918 135.231C30.4663 134.938 30.4663 134.644 30.4918 134.351C30.5691 134.635 30.6166 134.927 30.6337 135.221C30.7022 135.784 30.7854 136.596 30.8784 137.604C31.0643 139.62 31.2649 142.409 31.4019 145.496C31.5389 148.583 31.578 151.367 31.5731 153.397C31.5731 154.405 31.5731 155.227 31.5389 155.79C31.5394 156.085 31.5132 156.38 31.4606 156.671Z" fill="white"/>
<path d="M21.4668 144.889C21.4668 144.977 20.9042 145.006 20.229 144.952C19.5538 144.899 19.0108 144.776 19.0157 144.688C19.0206 144.6 19.5783 144.571 20.2535 144.625C20.9287 144.678 21.4766 144.801 21.4668 144.889Z" fill="#263238"/>
<path d="M21.657 141.445C21.6179 141.528 21.1678 141.396 20.5904 141.151C20.0131 140.907 19.6119 140.637 19.6511 140.559C19.6902 140.481 20.1403 140.608 20.7226 140.853C21.3048 141.097 21.6913 141.366 21.657 141.445Z" fill="#263238"/>
<path d="M23.4286 138.89C23.3796 138.964 22.8463 138.709 22.2837 138.249C21.721 137.79 21.3737 137.305 21.4422 137.246C21.5107 137.188 21.9314 137.55 22.4941 137.995C23.0567 138.44 23.4775 138.812 23.4286 138.89Z" fill="#263238"/>
<path d="M25.2089 136.478C25.1257 136.518 24.8713 136.112 24.6364 135.578C24.4016 135.045 24.2744 134.6 24.3576 134.551C24.4407 134.502 24.6951 134.918 24.93 135.446C25.1648 135.975 25.3165 136.444 25.2089 136.478Z" fill="#263238"/>
<path d="M28.0023 134.771C27.924 134.805 27.6452 134.38 27.4641 133.793C27.2831 133.206 27.2635 132.687 27.3516 132.672C27.4397 132.658 27.5962 133.127 27.7724 133.695C27.9485 134.262 28.0855 134.732 28.0023 134.771Z" fill="#263238"/>
<path d="M32.6567 132.839C32.7399 132.868 32.6861 133.235 32.5393 133.656C32.3925 134.077 32.2017 134.395 32.1185 134.365C32.0354 134.336 32.0843 133.969 32.2311 133.548C32.3778 133.127 32.5833 132.809 32.6567 132.839Z" fill="#263238"/>
<path d="M36.1294 134.326C36.1881 134.39 35.9679 134.698 35.6401 135.006C35.3123 135.314 34.9845 135.495 34.9209 135.446C34.8573 135.397 35.0824 135.074 35.4102 134.766C35.738 134.458 36.0805 134.257 36.1294 134.326Z" fill="#263238"/>
<path d="M39.1726 136.317C39.2264 136.391 38.9524 136.66 38.5708 136.924C38.1892 137.188 37.832 137.335 37.7831 137.257C37.7342 137.179 38.0032 136.914 38.3898 136.655C38.7763 136.396 39.1237 136.22 39.1726 136.317Z" fill="#263238"/>
<path d="M41.337 139.224C41.3762 139.307 40.9456 139.566 40.3879 139.806C39.8301 140.046 39.3409 140.173 39.3066 140.09C39.2724 140.007 39.698 139.747 40.2851 139.507C40.8722 139.268 41.3028 139.141 41.337 139.224Z" fill="#263238"/>
<path d="M42.187 142.423C42.187 142.511 41.7662 142.638 41.2084 142.707C40.6507 142.775 40.2299 142.756 40.2006 142.668C40.1712 142.58 40.6262 142.452 41.1791 142.384C41.7319 142.315 42.1772 142.335 42.187 142.423Z" fill="#263238"/>
<path d="M42.6309 146.362C42.5967 146.44 42.1417 146.323 41.5986 146.088C41.0555 145.853 40.6592 145.599 40.6935 145.52C40.7277 145.442 41.1827 145.559 41.7307 145.789C42.2787 146.019 42.6652 146.279 42.6309 146.362Z" fill="#263238"/>
<path d="M42.239 149.738C42.2096 149.821 41.6274 149.679 41.0159 149.278C40.4043 148.877 40.0373 148.402 40.1058 148.343C40.1743 148.285 40.5951 148.632 41.1969 149.009C41.7987 149.386 42.2733 149.65 42.239 149.738Z" fill="#263238"/>
<path d="M40.4827 152.815C40.4288 152.883 39.964 152.609 39.5041 152.13C39.0442 151.65 38.8192 151.151 38.8926 151.112C38.966 151.073 39.3133 151.445 39.7439 151.905C40.1744 152.365 40.5365 152.741 40.4827 152.815Z" fill="#263238"/>
<path d="M23.7818 153.177C23.821 153.255 23.3317 153.593 22.6908 153.925C22.0499 154.258 21.4921 154.468 21.4481 154.39C21.404 154.312 21.8933 153.974 22.5391 153.637C23.1849 153.299 23.7378 153.094 23.7818 153.177Z" fill="#263238"/>
<path d="M22.2524 150.394C22.2916 150.477 21.9002 150.731 21.3766 150.971C20.8531 151.211 20.3981 151.328 20.3688 151.25C20.3394 151.172 20.721 150.907 21.2445 150.673C21.7681 150.438 22.2133 150.311 22.2524 150.394Z" fill="#263238"/>
<path d="M21.1317 147.927C21.1317 148.02 20.6424 148.162 20.0553 148.245C19.4682 148.329 18.9447 148.329 18.93 148.245C18.9153 148.162 19.4193 148.015 20.0064 147.927C20.5935 147.839 21.117 147.839 21.1317 147.927Z" fill="#263238"/>
<path d="M24.8267 146.591C24.8267 146.675 24.3815 146.895 23.7552 146.963C23.129 147.032 22.6201 146.924 22.625 146.841C22.6299 146.758 23.1143 146.709 23.7161 146.64C24.3179 146.572 24.7827 146.484 24.8267 146.591Z" fill="#263238"/>
<path d="M27.865 143.529C27.8944 143.612 27.5176 143.803 27.0137 143.852C26.5098 143.901 26.1037 143.788 26.1135 143.705C26.1232 143.622 26.5146 143.578 26.9794 143.529C27.4442 143.48 27.8405 143.441 27.865 143.529Z" fill="#263238"/>
<path d="M28.4514 141.092C28.422 141.18 28.0159 141.116 27.5462 140.955C27.0766 140.793 26.7145 140.588 26.7439 140.505C26.7732 140.422 27.1793 140.505 27.649 140.647C28.1187 140.789 28.4807 141.009 28.4514 141.092Z" fill="#263238"/>
<path d="M29.5744 138.631C29.5108 138.695 29.2319 138.509 29.0313 138.142C28.8307 137.775 28.8161 137.462 28.8992 137.437C28.9824 137.413 29.139 137.672 29.3151 137.975C29.4913 138.279 29.638 138.567 29.5744 138.631Z" fill="#263238"/>
<path d="M28.2218 148.715C28.2218 148.803 27.8891 148.965 27.4341 149.077C27.2198 149.134 26.9999 149.167 26.7784 149.175L26.7148 148.985C26.8323 148.96 26.9057 148.985 26.9203 148.985C26.935 148.985 26.891 149.082 26.7931 149.151L26.7295 148.965C26.9306 148.867 27.1424 148.793 27.3607 148.745C27.8108 148.647 28.1973 148.627 28.2218 148.715Z" fill="#263238"/>
<path d="M28.8508 153.035C28.885 153.119 28.4398 153.373 27.8722 153.603C27.3047 153.833 26.7861 153.95 26.7518 153.867C26.7176 153.784 27.1677 153.53 27.7304 153.3C28.293 153.07 28.8214 152.952 28.8508 153.035Z" fill="#263238"/>
<path d="M25.4014 151.117C25.4307 151.201 25.1323 151.382 24.7311 151.514C24.3299 151.646 23.9923 151.69 23.9629 151.607C23.9336 151.523 24.232 151.342 24.6283 151.205C25.0246 151.068 25.372 151.029 25.4014 151.117Z" fill="#263238"/>
<path d="M25.6628 142.325C25.6628 142.413 25.1197 142.36 24.5228 142.149C23.9259 141.939 23.4856 141.66 23.5443 141.567C23.603 141.474 24.0678 141.635 24.6549 141.841C25.242 142.046 25.6824 142.237 25.6628 142.325Z" fill="#263238"/>
<path d="M34.0161 141.372C34.065 141.445 33.7715 141.724 33.3654 141.998C32.9593 142.272 32.5777 142.429 32.5288 142.35C32.4798 142.272 32.7734 141.998 33.1844 141.724C33.5954 141.45 33.9672 141.293 34.0161 141.372Z" fill="#263238"/>
<path d="M34.4702 145.706C34.4702 145.794 34.1815 145.931 33.7852 146.014C33.3889 146.097 33.0464 146.092 33.0318 146.014C33.0171 145.936 33.3204 145.789 33.7167 145.706C34.113 145.623 34.4506 145.613 34.4702 145.706Z" fill="#263238"/>
<path d="M35.0004 150.584C34.9613 150.668 34.5112 150.54 34.0219 150.305C33.5327 150.071 33.1315 149.816 33.1706 149.733C33.2098 149.65 33.6599 149.772 34.1491 150.012C34.6384 150.252 35.0396 150.506 35.0004 150.584Z" fill="#263238"/>
<path d="M33.8792 155.33C33.8107 155.388 33.522 155.154 33.2382 154.806C32.9545 154.459 32.7783 154.131 32.8468 154.072C32.9153 154.014 33.204 154.253 33.4926 154.601C33.7813 154.948 33.9525 155.276 33.8792 155.33Z" fill="#263238"/>
<path d="M33.6329 138.176C33.6867 138.245 33.4959 138.484 33.173 138.665C32.85 138.847 32.5418 138.837 32.5173 138.749C32.4929 138.661 32.7326 138.519 33.0066 138.372C33.2806 138.225 33.5937 138.103 33.6329 138.176Z" fill="#263238"/>
<path d="M37.745 142.55C37.7792 142.633 37.3976 142.844 36.879 142.912C36.3604 142.981 35.9396 142.888 35.9494 142.8C35.9592 142.712 36.3506 142.658 36.8349 142.589C37.3193 142.521 37.7156 142.462 37.745 142.55Z" fill="#263238"/>
<path d="M36.9324 138.626C36.9715 138.704 36.5948 138.974 36.0615 139.115C35.5282 139.257 35.083 139.287 35.0487 139.204C35.0145 139.12 35.4548 138.969 35.9637 138.807C36.4725 138.646 36.8884 138.543 36.9324 138.626Z" fill="#263238"/>
<path d="M38.6374 148.631C38.6374 148.72 37.9916 148.778 37.2186 148.631C36.4455 148.485 35.8584 148.211 35.8878 148.142C35.9171 148.074 36.5287 148.191 37.2773 148.323C38.0258 148.455 38.6423 148.548 38.6374 148.631Z" fill="#263238"/>
<path d="M37.1188 154.337C37.0649 154.405 36.5904 154.126 36.1402 153.652C35.6901 153.177 35.3868 152.703 35.4602 152.649C35.5336 152.595 35.9103 152.962 36.3702 153.422C36.8301 153.882 37.1775 154.263 37.1188 154.337Z" fill="#263238"/>
<path d="M30.4303 133.983C29.3889 134.615 28.4293 135.373 27.573 136.239C25.5855 138.417 24.3402 141.17 24.0161 144.101C23.8696 145.71 23.942 147.331 24.2313 148.921C24.4618 150.225 24.7639 151.515 25.1365 152.786C25.4496 153.877 25.7334 154.743 25.9291 155.349C26.0424 155.659 26.1339 155.976 26.2031 156.299C26.0425 156.012 25.9098 155.71 25.8068 155.398C25.5768 154.806 25.2588 153.931 24.9163 152.859C24.5103 151.586 24.1835 150.288 23.9378 148.974C23.6265 147.363 23.5441 145.716 23.6932 144.082C24.0209 141.085 25.3279 138.28 27.4115 136.102C28.0426 135.452 28.7585 134.891 29.5398 134.434C29.7504 134.309 29.9676 134.196 30.1905 134.096C30.2641 134.046 30.345 134.008 30.4303 133.983Z" fill="white"/>
<path d="M34.8707 156.508C35.424 155.37 35.914 154.202 36.3385 153.01C37.3205 150.119 37.6203 147.039 37.2143 144.013C36.9919 142.355 36.5253 140.739 35.8297 139.218C35.2445 137.986 34.4424 136.869 33.4617 135.92C32.7732 135.309 31.99 134.813 31.1426 134.453C30.5408 134.203 30.1641 134.144 30.1641 134.115C30.2516 134.101 30.3408 134.101 30.4283 134.115C30.6872 134.176 30.9408 134.258 31.1866 134.36C32.0788 134.681 32.907 135.158 33.6329 135.769C34.664 136.715 35.5073 137.847 36.1184 139.106C36.8448 140.653 37.3299 142.303 37.5568 143.998C37.9762 147.071 37.6403 150.199 36.5783 153.113C36.3923 153.676 36.1575 154.16 35.9814 154.581C35.8052 155.002 35.5948 155.364 35.4383 155.652C35.2725 155.953 35.0827 156.239 34.8707 156.508Z" fill="white"/>
<path d="M41.4597 72.3799C41.4597 72.3799 28.6215 104.025 26.552 112.103C24.272 121.032 25.9404 128.175 37.3157 129.286C46.7584 130.21 77.5769 117.998 77.5769 117.998L73.8096 94.4749L46.5431 105.493L53.1481 74.9387L41.4597 72.3799Z" fill="#FFBE9D"/>
<path d="M56.2067 53.1427C55.4484 52.7171 53.5843 50.1827 53.5843 50.1827C53.5843 50.1827 52.2339 41.376 51.6273 39.5266C51.0206 37.6772 49.3424 38.1714 48.9901 38.8514C48.6379 39.5315 49.68 54.4099 49.68 54.4099L44.1856 57.2868L40.3889 59.5031C39.8846 60.0831 39.5361 60.7818 39.3762 61.5335C39.2098 62.6344 41.4066 73.5449 41.4066 73.5449L53.007 75.59C55.9963 72.7572 57.6843 68.3196 58.4916 62.8007V54.5763C58.4916 54.5763 56.97 53.5586 56.2067 53.1427Z" fill="#FFBE9D"/>
<path d="M46.6367 56.137C46.7445 56.1147 46.8545 56.1049 46.9645 56.1077H47.9088H49.3766H49.8267C49.9114 56.1011 49.9964 56.1011 50.0811 56.1077C50.1661 56.1309 50.2482 56.1637 50.3257 56.2055C50.486 56.3002 50.6252 56.4268 50.7346 56.5774C50.844 56.7281 50.9213 56.8996 50.9618 57.0813C51.1428 58.5491 51.3189 60.2664 51.5734 62.1843C51.7006 63.1384 51.8327 64.1413 52.0333 65.1688C52.0737 65.4194 52.1444 65.6642 52.2436 65.8978C52.3417 66.115 52.5157 66.289 52.7329 66.387C52.9779 66.4564 53.2346 66.4748 53.4871 66.4412C53.7395 66.4075 53.9824 66.3225 54.2007 66.1913C54.4342 66.0627 54.6456 65.8975 54.8269 65.7021C54.9472 65.4846 55.0126 65.2411 55.0177 64.9927C55.0544 64.4665 55.0544 63.9385 55.0177 63.4123C54.9639 62.3702 54.8563 61.3623 54.7291 60.4083C54.6019 59.4542 54.46 58.5442 54.2985 57.7076C54.2268 57.3048 54.1271 56.9076 54.0001 56.5187C53.8756 56.1653 53.7114 55.8272 53.5108 55.5108C53.3264 55.2213 53.1221 54.945 52.8992 54.6839C52.7209 54.4421 52.4922 54.2418 52.229 54.0968C52.0156 53.9865 51.7822 53.9202 51.5427 53.9017C51.3032 53.8832 51.0624 53.9129 50.8346 53.9892L49.9539 54.3121C49.8522 54.3574 49.7455 54.3903 49.6359 54.41C49.7298 54.3505 49.8299 54.3013 49.9343 54.2632C50.13 54.18 50.4236 54.0528 50.8003 53.8962C51.0372 53.8086 51.2895 53.77 51.5417 53.7826C51.794 53.7952 52.0411 53.8588 52.2681 53.9696C52.5534 54.1149 52.8025 54.3222 52.9971 54.5763C53.2308 54.8392 53.445 55.1188 53.638 55.4129C53.8534 55.738 54.0323 56.0859 54.1713 56.4502C54.3088 56.8457 54.4152 57.2514 54.4893 57.6635C54.6655 58.51 54.8123 59.4151 54.9492 60.374C55.0862 61.333 55.1939 62.3311 55.2526 63.3977C55.2892 63.9385 55.2892 64.4812 55.2526 65.022C55.2442 65.3224 55.1546 65.6149 54.9933 65.8684C54.7943 66.0837 54.5591 66.2625 54.2985 66.3968C54.0467 66.5482 53.7657 66.6447 53.474 66.6802C53.1823 66.7156 52.8864 66.689 52.6057 66.6023C52.3252 66.4901 52.0966 66.2772 51.9648 66.0054C51.8552 65.7519 51.778 65.4856 51.7348 65.2128C51.5342 64.1707 51.407 63.1677 51.2847 62.2088C51.045 60.2958 50.8835 58.5442 50.7318 57.1156C50.6998 56.9561 50.6349 56.8051 50.5415 56.672C50.448 56.539 50.3279 56.4268 50.1887 56.3425C50.0623 56.2656 49.9158 56.2281 49.768 56.2349H49.3228L47.855 56.2006L46.9107 56.1762C46.8187 56.1683 46.7272 56.1552 46.6367 56.137Z" fill="#EB996E"/>
<path d="M52.2829 66.1566C52.3293 66.2561 52.3528 66.3648 52.3513 66.4746C52.3824 66.7867 52.3336 67.1015 52.2095 67.3895C52.1175 67.6228 51.9737 67.8321 51.7889 68.0017C51.6041 68.1712 51.3832 68.2965 51.1429 68.368C50.8248 68.4425 50.4922 68.4266 50.1826 68.322C49.8731 68.2174 49.599 68.0283 49.3913 67.776C49.0992 67.1335 48.9331 66.4409 48.9021 65.7358C48.8434 64.9921 48.858 64.2093 48.7846 63.4216C48.6389 62.2907 48.2909 61.1953 47.7572 60.1876C47.5224 59.6984 47.3169 59.2482 47.0771 58.8568C46.9684 58.6641 46.837 58.4851 46.6857 58.3235C46.5588 58.1702 46.3881 58.0593 46.1965 58.0055C45.6039 57.8004 44.9871 57.6738 44.3617 57.6288C44.1321 57.6109 43.9015 57.6109 43.6719 57.6288C43.6719 57.5652 44.6895 57.3499 46.2601 57.8294C46.3635 57.864 46.4634 57.9082 46.5585 57.9615C46.6575 58.0227 46.748 58.0967 46.8276 58.1816C46.989 58.3519 47.1317 58.5388 47.2533 58.7394C47.5126 59.1504 47.7425 59.6054 47.9627 60.08C48.5208 61.1083 48.8825 62.2315 49.0293 63.3923C49.1076 64.2044 49.088 64.9824 49.1467 65.7114C49.1717 66.3868 49.3261 67.0512 49.6017 67.6684C49.7829 67.8934 50.0226 68.064 50.2945 68.1616C50.5664 68.2591 50.86 68.2798 51.1429 68.2213C51.357 68.1598 51.5553 68.0527 51.7241 67.9075C51.893 67.7622 52.0285 67.5822 52.1214 67.3797C52.2492 67.1106 52.316 66.8166 52.3171 66.5186C52.2959 66.3991 52.2844 66.278 52.2829 66.1566Z" fill="#EB996E"/>
<path d="M48.9289 67.0622C48.9289 67.0622 49.0463 67.2531 48.8947 67.5515C48.81 67.7322 48.6959 67.8975 48.5571 68.0408C48.3767 68.2486 48.1352 68.3941 47.8672 68.4566C47.5303 68.5005 47.1893 68.4148 46.9132 68.2169C46.6078 67.9946 46.3734 67.6888 46.238 67.3362C45.9231 66.5618 45.8119 65.7196 45.9151 64.8899C45.953 64.5577 46.0235 64.2299 46.1255 63.9114L46.1646 64.0435C45.5472 63.5377 45.0718 62.8802 44.7849 62.1354L44.9121 62.199C44.1777 62.3745 43.4043 62.268 42.7447 61.9006C42.569 61.7979 42.405 61.6765 42.2554 61.5385C42.1576 61.4358 42.1086 61.3771 42.1184 61.3722C42.1282 61.3673 42.3533 61.563 42.8132 61.788C43.4535 62.0931 44.18 62.1658 44.8681 61.9935L44.961 61.9691L44.9953 62.0571C45.2878 62.7567 45.7482 63.3734 46.3358 63.8527L46.3994 63.9065V63.9848C46.3045 64.2846 46.2373 64.5925 46.1988 64.9046C46.1031 65.696 46.2022 66.4989 46.4875 67.2433C46.6049 67.5587 46.8063 67.8362 47.0697 68.0457C47.2804 68.2191 47.5455 68.3126 47.8183 68.3099C48.0546 68.266 48.2706 68.1477 48.4348 67.9723C48.5744 67.8484 48.6933 67.7031 48.787 67.5417C48.8836 67.4008 48.9332 67.233 48.9289 67.0622Z" fill="#EB996E"/>
<path d="M44.4424 60.0166C44.5158 60.0166 44.4424 60.5059 44.6137 61.0587C44.7849 61.6116 44.9611 62.0764 44.8877 62.1057C44.6204 61.8391 44.4397 61.4981 44.3691 61.1272C44.2952 60.9489 44.2634 60.7559 44.2762 60.5633C44.2889 60.3708 44.3458 60.1837 44.4424 60.0166Z" fill="#EB996E"/>
<path d="M45.5163 63.96C45.5163 64.0334 44.665 63.7986 43.6229 63.8622C42.5808 63.9258 41.7833 64.2438 41.7539 64.1704C42.3187 63.8374 42.955 63.6446 43.6095 63.608C44.2641 63.5714 44.918 63.6921 45.5163 63.96Z" fill="#EB996E"/>
<path d="M56.3905 56.9299C56.2678 56.9714 56.137 56.9831 56.0089 56.9641C55.6595 56.9429 55.3173 56.8548 55.001 56.7048C54.5308 56.4845 54.1098 56.1716 53.7632 55.785C53.3451 55.3112 52.9959 54.7809 52.726 54.2096C52.0753 53.05 51.9236 51.6899 52.3982 50.8826C52.4797 50.7201 52.5992 50.5797 52.7465 50.4732C52.8939 50.3667 53.0647 50.2974 53.2446 50.271C53.377 50.2529 53.5116 50.2805 53.6262 50.3493C53.6262 50.3738 53.4843 50.3493 53.2593 50.3493C53.1043 50.3905 52.9605 50.466 52.8386 50.5701C52.7167 50.6743 52.6197 50.8045 52.5547 50.9511C52.3543 51.3955 52.2929 51.8901 52.3786 52.37C52.4128 52.6579 52.4768 52.9416 52.5694 53.2164C52.6835 53.5098 52.8125 53.7972 52.9559 54.0775C53.2163 54.6271 53.5451 55.1417 53.9345 55.6089C54.2581 55.98 54.6459 56.29 55.0793 56.5238C55.4914 56.7295 55.9343 56.8667 56.3905 56.9299Z" fill="#EB996E"/>
<path d="M57.0764 64.2245C56.9981 64.2245 56.8024 63.3634 56.23 62.4387C55.6576 61.514 54.9726 60.9269 55.0264 60.8682C55.6049 61.2305 56.0912 61.7223 56.447 62.3047C56.8027 62.8872 57.0182 63.5444 57.0764 64.2245Z" fill="#EB996E"/>
<path d="M51.8351 42.3789C51.8938 42.4132 51.7128 42.8682 51.3458 43.3183C50.9789 43.7684 50.5581 44.0424 50.519 43.9935C50.4798 43.9445 50.7881 43.5972 51.1452 43.1568C51.5024 42.7165 51.7715 42.3789 51.8351 42.3789Z" fill="#EB996E"/>
<path d="M54.5182 57.3506C54.4448 57.3506 54.4155 57.1157 54.4448 56.8613C54.4742 56.6069 54.5574 56.3721 54.6259 56.3721C54.6944 56.3721 54.7286 56.6069 54.6993 56.8613C54.6699 57.1157 54.5867 57.3555 54.5182 57.3506Z" fill="#EB996E"/>
<path d="M39.0977 117.891C39.1999 117.723 39.3232 117.568 39.4646 117.431C39.719 117.153 40.0762 116.742 40.5067 116.228C41.6348 114.888 42.6649 113.469 43.5891 111.981C44.513 110.491 45.3305 108.938 46.0354 107.333C46.3045 106.717 46.5246 106.218 46.6518 105.865C46.7122 105.679 46.7943 105.5 46.8965 105.332C46.8653 105.526 46.8145 105.716 46.7448 105.9C46.6323 106.262 46.4512 106.775 46.2017 107.406C45.5437 109.042 44.7465 110.619 43.819 112.118C42.8883 113.616 41.8291 115.031 40.6535 116.345C40.2034 116.835 39.8218 117.241 39.5478 117.5C39.4109 117.645 39.2602 117.776 39.0977 117.891Z" fill="#EB996E"/>
<path d="M145.6 116.59L161.012 120.191L157.812 99.4951L145.052 92.9293C140.188 90.4233 134.925 88.781 129.498 88.0758L120.848 86.9554L97.2122 87.0679C91.8988 86.4564 84.6235 88.2911 75.7435 92.4987L56.5547 100.86L67.4945 122.985L79.4569 119.32L80.5186 129.056L83.1117 160.804L80.8954 178.393H139.117L134.792 169.259C132.824 165.109 132.308 160.419 133.324 155.941L140.849 119.643C140.954 119.127 141.161 118.637 141.458 118.203C141.756 117.768 142.137 117.398 142.58 117.113C143.023 116.828 143.518 116.635 144.037 116.546C144.556 116.456 145.087 116.471 145.6 116.59Z" fill="#39A53B"/>
<path d="M139.114 178.393H80.8925L83.1088 160.824L80.5108 129.08L79.454 119.354L67.4916 123.018L56.5469 100.879L75.7357 92.5179C79.6074 90.6297 83.6508 89.1159 87.8106 87.9972C91.3969 87.092 94.5624 86.7838 97.2093 87.0921L120.845 86.9746L129.5 88.0999C134.927 88.8012 140.19 90.4419 145.054 92.9485L157.819 99.5241L161.023 120.235L145.612 116.634C145.102 116.513 144.573 116.496 144.056 116.583C143.54 116.671 143.046 116.861 142.604 117.143C142.162 117.425 141.782 117.793 141.485 118.225C141.188 118.657 140.981 119.144 140.876 119.657L133.346 155.955C132.327 160.432 132.844 165.121 134.814 169.268L139.114 178.393ZM80.8925 178.368H139.075L134.76 169.244C132.787 165.092 132.27 160.397 133.292 155.916L140.817 119.618C140.925 119.102 141.134 118.613 141.433 118.18C141.732 117.746 142.115 117.377 142.559 117.094C143.003 116.81 143.499 116.618 144.018 116.529C144.538 116.44 145.069 116.456 145.582 116.575L160.994 120.171L157.799 99.5046L145.044 92.9387C140.182 90.4322 134.921 88.7915 129.496 88.0901L120.845 86.9648L97.2093 87.0823C94.5624 86.7789 91.4018 87.0823 87.8155 87.9874C83.6566 89.104 79.6146 90.6179 75.7454 92.5082L56.5664 100.865L67.4965 122.969L79.4638 119.3L80.5206 129.036L83.1186 160.784L80.8925 178.368Z" fill="#263238"/>
<path d="M80.516 129.056C80.457 128.778 80.421 128.495 80.4084 128.21C80.3497 127.623 80.2763 126.845 80.1833 125.901C79.9876 123.944 79.6598 121.267 79.1656 118.322C78.6715 115.377 78.0893 112.73 77.6343 110.822C77.4141 109.902 77.2282 109.143 77.0912 108.566C77.0106 108.294 76.9501 108.016 76.9102 107.734C77.0232 107.996 77.1148 108.266 77.1841 108.542C77.3456 109.065 77.5609 109.828 77.8104 110.778C78.2997 112.676 78.9161 115.323 79.4152 118.278C79.9142 121.233 80.2127 123.929 80.3643 125.886C80.4426 126.864 80.4866 127.657 80.5062 128.205C80.5309 128.488 80.5341 128.773 80.516 129.056Z" fill="#263238"/>
<path d="M147.169 109.246C147.198 109.285 146.444 109.765 145.353 110.714C144.719 111.258 144.117 111.839 143.553 112.456C142.169 113.969 141.024 115.685 140.157 117.544C139.806 118.303 139.498 119.082 139.238 119.878C138.802 121.243 138.65 122.119 138.602 122.109C138.603 121.9 138.627 121.691 138.675 121.487C138.709 121.292 138.753 121.047 138.822 120.768C138.89 120.489 138.954 120.171 139.066 119.829C139.303 119.015 139.596 118.219 139.942 117.446C140.377 116.505 140.88 115.597 141.449 114.731C142.029 113.866 142.675 113.048 143.382 112.284C143.96 111.666 144.581 111.088 145.241 110.557C145.515 110.322 145.784 110.141 146.019 109.97C146.254 109.799 146.454 109.667 146.625 109.559C146.796 109.437 146.978 109.332 147.169 109.246Z" fill="#263238"/>
<path d="M114.623 128.978C114.623 128.978 114.623 129.003 114.599 129.061L114.52 129.306L114.183 130.26L112.891 133.871C111.741 137.007 110.102 141.464 108.145 146.802L107.999 147.081L107.896 146.792C106.086 141.797 103.952 135.926 101.687 129.668C101.594 129.418 101.506 129.179 101.418 128.929V128.885V128.841L107.999 111.883L108.106 111.619L108.204 111.883L112.891 124.267L114.183 127.73C114.325 128.117 114.437 128.42 114.515 128.64C114.55 128.733 114.574 128.812 114.599 128.87C114.623 128.929 114.623 128.954 114.599 128.954C114.583 128.927 114.569 128.9 114.559 128.87L114.462 128.64L114.095 127.73C113.782 126.923 113.322 125.773 112.744 124.281L107.999 111.962H108.204C106.306 116.898 104.065 122.725 101.672 128.934V128.846C101.76 129.086 101.849 129.335 101.941 129.585L108.121 146.709H107.91C109.902 141.4 111.565 136.963 112.739 133.841L114.114 130.231C114.271 129.82 114.393 129.502 114.486 129.277L114.584 129.032C114.608 128.978 114.618 128.978 114.623 128.978Z" fill="#FAFAFA"/>
<path d="M128.421 129.34C128.421 129.34 128.421 129.365 128.421 129.419L128.338 129.668C128.256 129.893 128.144 130.211 128 130.622L126.684 134.248C125.534 137.384 123.895 141.841 121.938 147.179L121.835 147.463L121.728 147.174C119.918 142.179 117.814 136.307 115.519 130.05L115.25 129.311V129.267V129.223C117.662 123.004 119.908 117.197 121.821 112.265L121.923 112.001L122.021 112.265C123.978 117.383 125.578 121.649 126.713 124.648L128.005 128.112C128.147 128.499 128.259 128.802 128.338 129.022C128.372 129.115 128.396 129.194 128.421 129.252C128.445 129.311 128.445 129.335 128.421 129.335L128.382 129.252L128.284 129.022C128.196 128.802 128.074 128.499 127.922 128.112L126.591 124.668C125.436 121.683 123.792 117.442 121.826 112.348H122.026C120.128 117.285 117.892 123.112 115.495 129.321V129.228L115.764 129.967C118.019 136.224 120.138 142.1 121.943 147.091H121.698C123.69 141.782 125.358 137.345 126.527 134.223L127.902 130.608L128.274 129.629L128.372 129.384C128.388 129.369 128.404 129.354 128.421 129.34Z" fill="#FAFAFA"/>
<path d="M135.489 147.316C135.431 147.203 135.381 147.087 135.337 146.968C135.239 146.714 135.112 146.381 134.946 145.961L133.556 142.227L129.035 129.879C128.991 129.746 128.942 129.614 128.898 129.492V129.448V129.404C130.728 124.717 132.372 120.49 133.571 117.407L135.009 113.797C135.176 113.39 135.313 113.068 135.41 112.818C135.456 112.703 135.509 112.59 135.567 112.48C135.544 112.601 135.508 112.719 135.459 112.833L135.102 113.811C134.77 114.697 134.31 115.935 133.737 117.451C132.558 120.543 130.934 124.79 129.138 129.477V129.389C129.182 129.507 129.231 129.639 129.275 129.771C131.007 134.59 132.568 138.954 133.713 142.144C134.261 143.715 134.691 144.992 135.029 145.907C135.176 146.332 135.288 146.675 135.376 146.929C135.429 147.053 135.467 147.183 135.489 147.316Z" fill="#FAFAFA"/>
<path d="M101.554 128.885C101.548 128.914 101.54 128.941 101.529 128.968L101.446 129.213C101.368 129.443 101.255 129.761 101.109 130.192C100.8 131.038 100.36 132.266 99.7973 133.817C98.6426 136.953 97.0085 141.41 95.0466 146.743L94.9438 147.032L94.8411 146.743C93.0259 141.748 90.8977 135.877 88.6275 129.619L88.3633 128.88V128.836V128.792L94.9291 111.835L95.0319 111.57L95.1346 111.835L99.8217 124.218C100.38 125.685 100.8 126.865 101.118 127.677C101.26 128.068 101.368 128.371 101.451 128.592C101.48 128.685 101.51 128.763 101.529 128.822C101.539 128.847 101.547 128.873 101.554 128.9C101.554 128.9 101.554 128.875 101.515 128.822C101.475 128.768 101.456 128.685 101.417 128.592L101.05 127.682C100.732 126.869 100.277 125.725 99.6945 124.227L94.9291 111.913H95.1346C93.2314 116.849 90.9955 122.677 88.603 128.885V128.792L88.8672 129.531C91.1276 135.789 93.2461 141.665 95.0466 146.655H94.8411L99.6652 133.788C100.257 132.242 100.717 131.023 101.04 130.172C101.201 129.766 101.324 129.448 101.412 129.218L101.515 128.973C101.521 128.942 101.535 128.912 101.554 128.885Z" fill="#FAFAFA"/>
<path d="M79.7578 122.089C79.7573 122.024 79.7656 121.96 79.7823 121.898C79.7823 121.756 79.841 121.575 79.885 121.35C79.9829 120.861 80.1248 120.146 80.3009 119.261C80.6825 117.436 81.2158 114.857 81.8617 111.77L81.9301 111.423L82.0623 111.756C83.4322 115.317 85.081 119.584 86.8521 124.212C87.4539 125.778 88.0361 127.304 88.5988 128.777V128.821V128.865L83.8383 141.586L82.4194 145.309C82.2531 145.73 82.121 146.062 82.028 146.288C81.986 146.404 81.9353 146.517 81.8763 146.625C81.9013 146.505 81.9373 146.387 81.984 146.273L82.3362 145.26C82.6591 144.36 83.119 143.093 83.6866 141.512C84.8657 138.308 86.4998 133.86 88.3639 128.792V128.88C87.8013 127.412 87.2142 125.88 86.6173 124.315L81.8617 111.853H82.0671C81.3871 114.941 80.8195 117.509 80.4183 119.324C80.2177 120.205 80.0612 120.9 79.9291 121.399L79.797 121.947C79.789 121.995 79.7759 122.043 79.7578 122.089Z" fill="#FAFAFA"/>
<path d="M139.132 119.868L135.57 113.053L135.59 113.043L139.152 119.853L139.132 119.868Z" fill="#FAFAFA"/>
<path d="M118.505 153.97C118.46 154.054 118.404 154.133 118.339 154.205L117.825 154.846C117.38 155.398 116.705 156.176 115.868 157.116C115.032 158.055 113.955 159.146 112.737 160.311C111.519 161.475 110.134 162.703 108.627 163.926C107.12 165.149 105.618 166.245 104.224 167.199C102.829 168.153 101.548 168.956 100.447 169.597C99.3459 170.238 98.4456 170.737 97.8096 171.064L97.0806 171.436C96.9956 171.481 96.9072 171.518 96.8164 171.549C96.8914 171.489 96.9716 171.437 97.0561 171.392L97.7656 170.986C98.3869 170.639 99.2774 170.125 100.364 169.465C101.45 168.804 102.717 167.997 104.101 167.018C105.486 166.04 106.959 164.959 108.471 163.74C109.982 162.522 111.352 161.294 112.58 160.149C113.808 159.004 114.87 157.928 115.736 156.998C116.602 156.069 117.302 155.315 117.767 154.782L118.314 154.17C118.373 154.099 118.437 154.032 118.505 153.97Z" fill="#263238"/>
<g opacity="0.3">
<path d="M87.128 137.52C89.6428 138.802 92.9551 138.695 95.8907 138.01C98.8262 137.325 101.542 136.082 104.404 135.191C107.266 134.301 110.441 133.758 113.289 134.487C115.52 135.054 117.491 136.385 119.86 136.336C121.327 136.302 122.844 135.725 124.263 136.004C124.678 136.076 125.072 136.238 125.418 136.478C125.764 136.717 126.054 137.03 126.268 137.393C126.481 137.756 126.614 138.161 126.655 138.58C126.697 138.999 126.647 139.422 126.509 139.82C125.921 141.361 124.189 142.501 122.325 143.088C117.531 144.595 112.315 142.961 107.232 143.113C104.213 143.201 101.253 143.925 98.2587 144.311C95.2644 144.698 92.0402 144.712 89.4814 143.499C86.9225 142.286 85.352 139.526 86.7024 137.295" fill="black"/>
</g>
<path d="M140.879 92.0244C140.814 92.2459 140.727 92.4606 140.62 92.6653C140.527 92.8659 140.414 93.1106 140.297 93.4041C140.18 93.6977 140.038 94.0206 139.91 94.3827C139.592 95.2502 139.324 96.1356 139.108 97.0344C138.577 99.2383 138.376 101.509 138.511 103.772C138.562 104.694 138.67 105.612 138.834 106.521C138.893 106.913 138.981 107.26 139.04 107.568C139.098 107.876 139.167 108.141 139.225 108.351C139.293 108.572 139.342 108.798 139.372 109.026C139.269 108.82 139.189 108.604 139.133 108.38C139.043 108.125 138.966 107.866 138.903 107.602C138.829 107.294 138.726 106.947 138.658 106.555C138.467 105.642 138.339 104.717 138.276 103.786C138.201 102.645 138.211 101.501 138.306 100.361C138.414 99.2237 138.606 98.0954 138.878 96.9855C139.106 96.0797 139.395 95.1904 139.744 94.3239C139.881 93.9472 140.038 93.6243 140.17 93.3454C140.278 93.0978 140.398 92.8561 140.532 92.6213C140.63 92.4129 140.747 92.2132 140.879 92.0244Z" fill="#263238"/>
<path d="M81.4801 90.3262C81.5095 90.3262 81.1866 90.8154 80.7218 91.5983C80.1131 92.6167 79.5894 93.6837 79.1561 94.7882C78.7278 95.9006 78.3908 97.046 78.1483 98.213C78.0749 98.7072 77.9752 99.1972 77.8498 99.6808C77.8261 99.5481 77.8261 99.4123 77.8498 99.2796C77.8498 99.0203 77.9085 98.6485 77.977 98.1984C78.3669 95.822 79.2502 93.5537 80.5701 91.5395C80.8294 91.153 81.0594 90.8546 81.211 90.654C81.3627 90.4534 81.4654 90.3262 81.4801 90.3262Z" fill="#263238"/>
<g opacity="0.3">
<path d="M77.0673 108.918C76.5242 110.748 75.991 112.631 76.1671 114.53C76.3432 116.428 77.4098 118.37 79.1956 119.031C78.677 115.675 78.0377 112.341 77.2777 109.031" fill="black"/>
</g>
<path d="M118.735 39.6004C119.672 39.7019 120.537 40.1513 121.158 40.8598C121.78 41.5683 122.113 42.4842 122.091 43.4264L119.846 89.4169C119.743 95.4201 110.975 98.7911 104.576 98.6443C98.0835 97.108 97.8437 93.2135 97.7654 87.5039C97.6285 77.9633 97.6725 81.3098 97.6676 81.3637C97.6627 81.4175 89.4676 79.9839 87.7943 69.2838C86.9577 63.9607 87.2464 55.2323 87.7112 48.1038C88.1319 41.6847 92.3983 33.8174 98.7978 34.5072L118.735 39.6004Z" fill="#FFBE9D"/>
<path d="M91.2462 55.0559C91.2421 55.4139 91.3778 55.7594 91.6245 56.0189C91.8712 56.2784 92.2094 56.4314 92.5672 56.4454C92.7417 56.4594 92.9172 56.4384 93.0835 56.3837C93.2497 56.329 93.4034 56.2417 93.5356 56.1269C93.6677 56.0121 93.7756 55.8721 93.8529 55.7151C93.9303 55.5581 93.9755 55.3872 93.986 55.2125C93.9889 54.8548 93.8528 54.51 93.6063 54.2508C93.3599 53.9916 93.0224 53.8382 92.665 53.823C92.4904 53.8083 92.3146 53.8288 92.1481 53.8832C91.9815 53.9376 91.8275 54.0249 91.6953 54.1398C91.563 54.2548 91.4551 54.395 91.378 54.5524C91.3008 54.7097 91.256 54.8809 91.2462 55.0559Z" fill="#263238"/>
<path d="M89.5686 53.0255C89.735 53.2065 90.7771 52.4384 92.2546 52.4482C93.7322 52.4579 94.8135 53.1967 94.9749 53.0157C95.0532 52.9325 94.8771 52.6096 94.4074 52.2671C93.7709 51.8221 93.0117 51.5862 92.2351 51.5919C91.4658 51.5849 90.7146 51.825 90.0921 52.2769C89.6371 52.6243 89.4854 52.9472 89.5686 53.0255Z" fill="#263238"/>
<path d="M105.551 55.2126C105.547 55.5706 105.683 55.9161 105.929 56.1756C106.176 56.435 106.514 56.5881 106.872 56.6021C107.046 56.6153 107.222 56.5937 107.388 56.5384C107.554 56.4831 107.707 56.3953 107.839 56.28C107.97 56.1647 108.078 56.0244 108.155 55.8671C108.231 55.7099 108.276 55.5389 108.286 55.3642C108.291 55.0071 108.156 54.6622 107.91 54.4033C107.664 54.1445 107.327 53.9924 106.97 53.9796C106.795 53.9643 106.619 53.9843 106.452 54.0384C106.285 54.0926 106.131 54.1798 105.999 54.2949C105.866 54.4099 105.758 54.5505 105.681 54.7082C105.604 54.8658 105.56 55.0374 105.551 55.2126Z" fill="#263238"/>
<path d="M104.213 53.0255C104.384 53.2065 105.426 52.4384 106.904 52.4482C108.381 52.4579 109.463 53.1967 109.619 53.0157C109.697 52.9325 109.531 52.6096 109.056 52.2671C108.418 51.8221 107.657 51.5861 106.879 51.5919C106.111 51.5849 105.362 51.825 104.741 52.2769C104.286 52.6243 104.13 52.9472 104.213 53.0255Z" fill="#263238"/>
<path d="M98.7024 63.9063C98.7024 63.8231 97.7924 63.6617 96.305 63.4709C95.9283 63.4317 95.5711 63.3534 95.5075 63.099C95.4737 62.6982 95.5643 62.2968 95.7668 61.9493L96.8872 59.0822C98.448 54.9969 99.5733 51.6357 99.4118 51.577C99.2503 51.5182 97.8511 54.7767 96.2903 58.862C95.9185 59.8699 95.5564 60.8191 95.2188 61.7487C94.9808 62.1989 94.9098 62.7188 95.0182 63.2164C95.0719 63.3496 95.1554 63.4686 95.2623 63.5645C95.3691 63.6603 95.4965 63.7304 95.6347 63.7693C95.8352 63.8409 96.044 63.887 96.2561 63.9063C97.763 63.9699 98.7024 63.9748 98.7024 63.9063Z" fill="#263238"/>
<path d="M97.6406 81.363C102.679 81.4536 107.644 80.1426 111.981 77.5762C111.981 77.5762 108.346 85.1206 97.6406 84.0931V81.363Z" fill="#EB996E"/>
<path d="M98.9391 67.4832C99.6681 66.3873 100.779 65.6534 101.777 65.6093C102.115 65.579 102.454 65.6509 102.751 65.8158C103.047 65.9807 103.288 66.2309 103.44 66.534C103.598 66.9315 103.658 67.3607 103.616 67.7862C103.574 68.2116 103.432 68.6209 103.201 68.9803C102.975 69.3601 102.643 69.6651 102.245 69.8573C101.848 70.0496 101.402 70.1206 100.965 70.0616C100.242 69.8545 99.5974 69.4353 99.1153 68.858C98.9473 68.7164 98.8177 68.5346 98.7386 68.3296C98.6991 68.2002 98.6892 68.0636 98.7095 67.9298C98.7298 67.796 98.7799 67.6685 98.856 67.5566" fill="#EB996E"/>
<path d="M103.045 64.924C102.805 64.924 102.8 66.5141 101.425 67.6492C100.05 68.7843 98.3428 68.6032 98.3281 68.8283C98.3281 68.9261 98.7097 69.1365 99.429 69.161C100.369 69.1755 101.283 68.8585 102.012 68.2657C102.711 67.6949 103.161 66.8762 103.27 65.9808C103.333 65.3105 103.152 64.9142 103.045 64.924Z" fill="#263238"/>
<path d="M103.377 49.635C103.558 50.0215 105.006 49.6888 106.753 49.7231C108.499 49.7573 109.938 50.0949 110.134 49.7231C110.217 49.542 109.938 49.1898 109.336 48.8571C108.54 48.4514 107.66 48.2386 106.767 48.2357C105.875 48.2162 104.992 48.4091 104.189 48.7984C103.597 49.1066 103.294 49.454 103.377 49.635Z" fill="#263238"/>
<path d="M89.6954 50.5891C90.0232 50.9267 91.2855 50.5891 92.8022 50.5549C94.3189 50.5207 95.6106 50.7751 95.909 50.4277C96.0362 50.2564 95.8308 49.9384 95.2681 49.6008C94.4872 49.2059 93.6177 49.0189 92.7435 49.0578C91.873 49.064 91.0194 49.2985 90.2679 49.7378C89.7297 50.0803 89.5536 50.4277 89.6954 50.5891Z" fill="#263238"/>
<path d="M126.316 75.7074C126.316 75.7074 126.252 75.7074 126.13 75.683C125.956 75.6455 125.785 75.5981 125.616 75.5411C124.985 75.3359 124.402 75.0028 123.904 74.5626C123.524 74.2338 123.23 73.8173 123.048 73.3493C122.865 72.8812 122.8 72.3756 122.857 71.8765C122.89 71.5739 122.99 71.2824 123.15 71.0234C123.31 70.7644 123.526 70.5444 123.782 70.3794C123.928 70.2908 124.094 70.2403 124.265 70.2326C124.436 70.2249 124.606 70.2602 124.76 70.3354C124.927 70.416 125.062 70.551 125.142 70.7181C125.222 70.8853 125.242 71.0746 125.201 71.2552C125.144 71.4378 125.017 71.5907 124.848 71.6808C124.696 71.7567 124.529 71.7984 124.359 71.8031C124.037 71.8131 123.718 71.7495 123.425 71.6172C122.872 71.3982 122.372 71.0647 121.957 70.6387C121.243 69.9382 120.807 69.0033 120.729 68.0065C120.675 67.3394 120.779 66.6689 121.032 66.0494C121.1 65.8792 121.184 65.7154 121.282 65.5602C121.345 65.4574 121.384 65.4036 121.394 65.4085C121.404 65.4134 121.282 65.6385 121.125 66.069C120.917 66.6771 120.843 67.3232 120.91 67.9624C121.005 68.9091 121.435 69.7907 122.123 70.4479C122.519 70.8386 122.99 71.1448 123.508 71.3481C123.769 71.4608 124.05 71.5175 124.335 71.5145C124.465 71.5255 124.595 71.4956 124.707 71.429C124.82 71.3623 124.908 71.2622 124.961 71.1426C124.983 71.0173 124.963 70.8882 124.905 70.7751C124.847 70.662 124.753 70.5711 124.638 70.5164C124.521 70.4596 124.391 70.4338 124.26 70.4415C124.13 70.4492 124.004 70.4902 123.894 70.5604C123.67 70.7054 123.48 70.8981 123.339 71.1248C123.198 71.3514 123.109 71.6064 123.077 71.8716C123.008 72.3696 123.076 72.8769 123.273 73.3394C123.445 73.7424 123.698 74.1056 124.017 74.406C124.492 74.8385 125.042 75.1802 125.641 75.4139C126.101 75.6194 126.321 75.6879 126.316 75.7074Z" fill="#263238"/>
<path d="M100.368 28.2295C99.7238 27.8046 99.252 27.1637 99.0377 26.422C98.8234 25.6804 98.8805 24.8866 99.199 24.1834C98.7489 23.5473 99.2773 22.6031 100.011 22.3437C100.745 22.0844 101.547 22.2899 102.296 22.4954C102.095 22.1383 102.629 21.83 103.035 21.7664L105.868 21.3114C105.219 21.1431 104.618 20.8291 104.109 20.3933C103.6 19.9576 103.198 19.4115 102.932 18.7966C102.41 17.5494 102.269 16.1756 102.526 14.8483C102.537 14.6556 102.586 14.467 102.67 14.2932C102.754 14.1194 102.871 13.9639 103.015 13.8355C103.864 14.8111 104.527 15.9336 104.972 17.1478C105.363 17.1674 105.744 17.2685 106.093 17.4446C106.442 17.6207 106.75 17.8679 106.998 18.1704C107.044 18.0651 107.114 17.9717 107.201 17.8968C107.289 17.8219 107.392 17.7674 107.503 17.7374C107.614 17.7074 107.73 17.7026 107.844 17.7233C107.957 17.7441 108.064 17.7898 108.157 17.8572C108.759 16.184 109.889 14.4324 111.656 14.2171C111.103 13.4392 112.106 12.5047 112.962 12.0791C113.564 11.7277 114.229 11.4952 114.919 11.3941C115.267 11.3481 115.622 11.4007 115.942 11.546C116.262 11.6913 116.535 11.9235 116.729 12.2161C117.067 12.8276 116.754 13.7621 116.064 13.8796C116.416 14.1322 116.674 14.4946 116.798 14.9099C116.922 15.3252 116.905 15.7698 116.749 16.1742C117.026 15.8449 117.405 15.6178 117.826 15.5292C118.248 15.4405 118.686 15.4953 119.073 15.6849C120.302 15.1462 121.655 14.95 122.987 15.1174C123.329 15.1383 123.66 15.2535 123.941 15.4501C124.141 15.6164 124.274 15.8562 124.479 16.0127C124.798 16.1999 125.161 16.2963 125.531 16.2916C126.383 16.3318 127.203 16.6323 127.879 17.1527C128.211 17.4185 128.45 17.7814 128.564 18.1904C128.678 18.5994 128.661 19.0338 128.515 19.4327C130.472 20.0638 132.405 17.8181 134.421 18.2193C135.6 18.4492 136.417 19.5305 136.931 20.6216C135.932 21.0246 134.852 21.1823 133.78 21.0815C133.71 21.3736 133.544 21.6339 133.309 21.821C133.074 22.008 132.784 22.1111 132.483 22.1138C132.559 22.2184 132.608 22.34 132.626 22.468C132.644 22.596 132.63 22.7264 132.586 22.8478C132.541 22.9691 132.467 23.0777 132.371 23.1638C132.275 23.25 132.159 23.3111 132.033 23.3418C133.268 23.0157 134.568 23.0377 135.791 23.4054C137.674 23.8458 139.739 24.8341 140.194 26.7177C140.309 27.3929 140.309 28.0827 140.194 28.7579C140.077 29.7756 139.558 31.1064 138.55 30.9205C137.934 30.8031 137.611 30.1426 137.278 29.6044C136.539 28.4153 135.361 27.5647 134 27.2364C133.511 27.7011 134.411 28.298 134.798 28.846C135.184 29.394 135.028 30.1181 135.12 30.7688C135.272 31.7473 136.001 32.5595 136.437 33.4646C137.381 35.4217 136.887 37.7359 136.373 39.825C136.236 40.4023 135.585 41.1118 135.228 40.6372C135.585 40.7273 135.9 40.9385 136.118 41.2347C136.337 41.531 136.446 41.8939 136.427 42.2615C136.368 42.9957 136.135 43.7052 135.747 44.3311C135.605 44.61 135.429 44.9182 135.12 44.9867C134.68 45.0943 134.318 44.6491 134.083 44.2577L132.16 41.102C132.308 41.8222 132.291 42.5663 132.112 43.2792C131.798 44.6638 130.976 46.0777 129.621 46.4838C128.687 46.7627 127.689 46.5132 126.744 46.2686" fill="#263238"/>
<path d="M121.428 61.5043C121.012 61.3282 119.344 61.9936 119.065 61.656C117.671 59.8408 116.912 54.6595 116.565 52.3992C116.217 50.1388 117.631 47.6093 117.416 45.3294C117.245 43.5044 116.927 41.5816 115.694 40.2068C114.934 39.3961 113.984 38.7874 112.93 38.4357C111.325 37.8637 109.607 37.6825 107.918 37.9071C106.229 38.1317 104.617 38.7557 103.218 39.7273C102.073 40.5395 100.987 41.6257 99.5875 41.7578C98.1883 41.8899 96.9406 41.0337 95.742 40.3193C94.5433 39.605 93.0657 38.9739 91.7985 39.5561C91.3122 39.8069 90.8838 40.1569 90.5411 40.5835C89.6702 41.5621 87.8747 45.9654 87.8453 47.7023C87.8453 47.7023 86.9597 43.6659 88.4862 39.9328C90.3258 35.4267 95.2821 30.3286 103.164 29.0468C115.811 26.9919 121.756 34.0323 123.987 39.0668C124.965 41.2245 125.753 46.895 125.054 51.2494C124.45 54.8523 123.223 58.3225 121.428 61.5043Z" fill="#263238"/>
<path d="M124.826 40.8133C124.635 40.872 124.121 39.4483 122.869 37.4178C122.137 36.2329 121.3 35.1162 120.369 34.0811C119.265 32.8184 117.957 31.75 116.499 30.9205C115.009 30.1472 113.402 29.6233 111.743 29.3695C110.377 29.1567 108.991 29.1091 107.614 29.2276C105.246 29.438 103.822 29.986 103.749 29.7903C103.714 29.7169 104.032 29.482 104.664 29.1934C105.567 28.79 106.517 28.5007 107.491 28.3323C108.945 28.0784 110.429 28.0356 111.895 28.2051C113.712 28.4117 115.475 28.9525 117.096 29.8001C118.687 30.6979 120.095 31.8881 121.245 33.3081C122.19 34.4392 123 35.6773 123.657 36.9971C124.757 39.2183 124.973 40.7742 124.826 40.8133Z" fill="#39A53B"/>
<path d="M112.47 29.825C112.218 29.8716 111.963 29.9011 111.707 29.9131C111.014 29.9846 110.326 30.099 109.647 30.2556C107.405 30.7625 105.307 31.7689 103.509 33.1997C101.71 34.6306 100.258 36.4489 99.2599 38.5192C98.9524 39.1437 98.686 39.7876 98.4624 40.4468C98.3912 40.6934 98.3046 40.9352 98.2031 41.1709C98.2031 41.1709 98.2031 41.0976 98.2325 40.9703C98.2618 40.8431 98.2961 40.6523 98.3646 40.4175C98.5578 39.7477 98.8015 39.0935 99.0936 38.4604C100.064 36.3373 101.522 34.4734 103.349 33.0204C105.176 31.5674 107.321 30.5665 109.608 30.099C110.296 29.9567 110.995 29.8683 111.697 29.8348C111.946 29.8348 112.137 29.8348 112.269 29.8348C112.401 29.8348 112.47 29.8152 112.47 29.825Z" fill="#455A64"/>
<path d="M115.828 31.3506C115.353 31.6441 114.863 31.9135 114.361 32.1579C113.169 32.8005 112.016 33.5111 110.906 34.2861C109.799 35.0648 108.739 35.9077 107.731 36.8107C107.33 37.2044 106.909 37.5767 106.469 37.9262C106.545 37.7947 106.638 37.6745 106.748 37.5691C106.943 37.3489 107.237 37.0456 107.609 36.6786C109.573 34.7787 111.823 33.1987 114.277 31.9964C114.767 31.7713 115.134 31.6001 115.408 31.5071C115.54 31.436 115.682 31.3833 115.828 31.3506Z" fill="#455A64"/>
<path d="M122.676 37.0264C122.686 37.1687 122.678 37.3118 122.652 37.452C122.617 37.7211 122.554 38.1125 122.451 38.5871C122.181 39.8317 121.788 41.0463 121.277 42.2125C120.765 43.3796 120.141 44.4938 119.413 45.5395C119.129 45.9358 118.889 46.2489 118.708 46.4544C118.527 46.6599 118.429 46.7724 118.415 46.7626C118.4 46.7529 118.742 46.2734 119.261 45.4367C119.94 44.3773 120.535 43.2666 121.042 42.1147C121.543 40.959 121.956 39.7666 122.275 38.548C122.381 38.0338 122.515 37.5258 122.676 37.0264Z" fill="#455A64"/>
<path d="M119.154 52.3254C119.115 52.2911 119.668 51.704 120.407 50.6374C120.837 50.0102 121.228 49.3566 121.576 48.6804C121.997 47.8533 122.357 46.9964 122.653 46.1167C123.179 44.5127 123.477 42.8426 123.538 41.1556C123.582 39.859 123.489 39.0567 123.538 39.0518C123.595 39.2342 123.628 39.4234 123.636 39.6144C123.699 40.1273 123.728 40.6438 123.724 41.1605C123.723 41.9285 123.666 42.6954 123.553 43.4551C123.406 44.3853 123.189 45.3029 122.902 46.1998C122.6 47.092 122.229 47.959 121.791 48.7929C121.428 49.474 121.016 50.1281 120.558 50.75C120.257 51.1677 119.93 51.5664 119.58 51.9438C119.452 52.0853 119.309 52.2131 119.154 52.3254Z" fill="#455A64"/>
<path d="M118.806 59.9243C118.924 57.5563 121.507 55.976 123.557 57.1649C124.682 57.8156 125.548 59.1219 125.446 61.6367C125.167 68.3445 118.493 66.6859 118.488 66.4902C118.488 66.3532 118.669 62.6984 118.806 59.9243Z" fill="#FFBE9D"/>
<path d="M120.64 64.0334C120.669 64.0334 120.753 64.1215 120.948 64.2193C121.22 64.351 121.533 64.3703 121.819 64.2731C122.538 64.0432 123.184 62.9424 123.263 61.7339C123.305 61.1609 123.218 60.5857 123.008 60.0508C122.953 59.8388 122.848 59.6432 122.702 59.4805C122.555 59.3178 122.372 59.1929 122.167 59.1163C122.033 59.0753 121.89 59.0822 121.761 59.1358C121.633 59.1894 121.527 59.2864 121.462 59.4099C121.364 59.5909 121.403 59.7279 121.364 59.7377C121.325 59.7475 121.227 59.6203 121.291 59.3463C121.335 59.1807 121.435 59.0355 121.575 58.9353C121.765 58.8047 121.998 58.7537 122.225 58.7934C122.499 58.8579 122.751 58.9917 122.957 59.182C123.164 59.3722 123.318 59.6125 123.404 59.8796C123.664 60.4735 123.777 61.1214 123.732 61.7681C123.634 63.1185 122.891 64.3514 121.907 64.5912C121.725 64.636 121.535 64.6395 121.352 64.6014C121.168 64.5633 120.995 64.4846 120.846 64.371C120.645 64.1949 120.616 64.0432 120.64 64.0334Z" fill="#EB996E"/>
<path d="M181.478 104.789C178.116 95.9825 142.043 67.6445 142.043 67.6445L131.676 73.2025L157.827 99.5149L160.625 117.72C160.625 117.72 169.344 120.23 173.067 119.873C180.01 119.193 183.312 109.599 181.478 104.789Z" fill="#FFBE9D"/>
<path d="M165.241 111.393C165.109 111.243 164.992 111.079 164.894 110.904C164.659 110.528 164.37 110.048 164.023 109.485C163.269 108.238 162.276 106.604 161.18 104.798C160.084 102.993 159.013 101.339 158.245 100.165L157.339 98.7706C157.217 98.6068 157.113 98.4295 157.031 98.2422C157.178 98.3899 157.308 98.554 157.418 98.7314C157.658 99.0446 157.99 99.5045 158.396 100.082C159.204 101.232 160.275 102.856 161.4 104.681C162.526 106.506 163.494 108.189 164.179 109.417C164.522 110.028 164.796 110.528 164.977 110.885C165.082 111.045 165.171 111.215 165.241 111.393Z" fill="#EB996E"/>
<path d="M131.638 46.7483C130.606 46.6994 130.738 47.6143 131.017 48.2993C131.296 48.9842 132.915 52.7417 132.915 52.7417C132.915 52.7417 129.001 45.6817 128.566 45.2609C128.13 44.8402 127.387 44.0769 126.804 44.5173C126.222 44.9576 126.472 45.5545 126.697 46.259C126.902 46.8902 128.952 51.6409 129.388 52.6194C129.437 52.7368 129.804 53.5099 129.603 53.6322C129.461 53.916 128.845 53.2995 128.654 53.05L125.645 49.0772C125.645 49.0772 123.292 45.7698 122.744 45.985C121.765 46.3667 121.276 46.9146 121.52 47.4871C121.765 48.0595 126.834 55.5892 126.834 55.5892L122.43 50.2954C122.133 49.9482 121.729 49.7106 121.281 49.6203C121.07 49.5675 120.849 49.5734 120.641 49.6372C120.433 49.701 120.246 49.8203 120.102 49.9823C119.534 50.6281 120.62 51.8855 121.105 52.7711C121.413 53.3337 123.326 55.8975 123.326 55.8975L127.597 63.2951L126.897 63.4467L125.366 60.9711L123.742 65.7658C123.742 65.7658 126.007 69.7386 128.174 72.0871C129.084 73.0656 131.673 73.1977 131.673 73.1977L142.099 68.6084C142.099 68.6084 141.854 64.3127 141.565 63.3C140.831 61.3011 139.912 59.375 138.821 57.5463C138.013 56.3476 136.325 54.6107 135.704 53.3973C135.083 52.184 132.842 46.8119 131.638 46.7483Z" fill="#FFBE9D"/>
<path d="M135.365 56.6602C135.399 56.6944 134.939 57.1739 134.386 58.0643C134.05 58.5841 133.757 59.1307 133.51 59.6985C133.212 60.3948 132.977 61.117 132.811 61.8561C132.657 62.597 132.57 63.3502 132.551 64.1067C132.539 64.7252 132.577 65.3436 132.664 65.9561C132.82 67.0031 133.036 67.6294 132.992 67.644C132.909 67.5129 132.847 67.3692 132.811 67.2184C132.746 67.0475 132.692 66.8727 132.649 66.6949C132.582 66.4616 132.528 66.2248 132.488 65.9855C132.371 65.3644 132.314 64.7337 132.316 64.1018C132.32 62.549 132.654 61.0148 133.295 59.6006C133.558 59.0271 133.873 58.4786 134.234 57.9616C134.381 57.7365 134.543 57.5506 134.675 57.3843C134.788 57.2408 134.91 57.1051 135.042 56.9782C135.134 56.8576 135.243 56.7506 135.365 56.6602Z" fill="#EB996E"/>
<path d="M131.739 64.8214C130.85 64.5234 129.925 64.3457 128.989 64.293C128.472 64.2866 127.955 64.3358 127.448 64.4398H127.374L127.335 64.386C127.07 64.0542 126.85 63.689 126.68 63.2998C126.995 63.5901 127.273 63.9189 127.507 64.2783L127.399 64.2343C127.919 64.0945 128.456 64.0286 128.994 64.0386C129.679 64.0461 130.358 64.1736 131 64.4153C131.272 64.4974 131.524 64.6357 131.739 64.8214Z" fill="#EB996E"/>
<path d="M135.468 54.4932C134.998 54.6529 134.519 54.7852 134.034 54.8895C131.727 55.51 129.518 56.4521 127.473 57.688C127.061 57.9652 126.633 58.2184 126.191 58.4464C126.551 58.1026 126.948 57.8006 127.375 57.5461C128.38 56.8776 129.445 56.3043 130.556 55.8337C131.661 55.3608 132.808 54.9891 133.98 54.7231C134.466 54.5893 134.965 54.5122 135.468 54.4932Z" fill="#EB996E"/>
<path d="M124.998 58.7793C124.998 58.7793 125.086 58.8723 125.194 59.0631C125.343 59.3366 125.458 59.6275 125.536 59.9291C125.655 60.382 125.693 60.8524 125.649 61.3186C125.588 61.8838 125.446 62.4374 125.228 62.9625C125.035 63.4888 124.804 64.0006 124.538 64.4939C124.312 64.898 124.04 65.2741 123.726 65.6143C123.513 65.8429 123.275 66.0464 123.016 66.2209C122.924 66.2917 122.82 66.3448 122.708 66.3775C122.684 66.3384 123.095 66.0839 123.589 65.4968C123.874 65.1513 124.123 64.7775 124.332 64.3813C124.58 63.89 124.801 63.3853 124.993 62.8695C125.199 62.3642 125.34 61.8349 125.414 61.2941C125.467 60.8521 125.449 60.4044 125.36 59.9682C125.208 59.2245 124.954 58.8038 124.998 58.7793Z" fill="#EB996E"/>
<path d="M215.5 178.394C215.5 178.462 167.367 178.521 108.005 178.521C48.6432 178.521 0.5 178.443 0.5 178.394C0.5 178.345 48.6236 178.267 108.005 178.267C167.387 178.267 215.5 178.301 215.5 178.394Z" fill="#263238"/>
</svg>
