<?xml version="1.0" encoding="UTF-8"?><svg id="Layer_1" xmlns="http://www.w3.org/2000/svg" viewBox="0 0 512 417.18"><path d="m38.39,389.46H4.18v-6.14l13.01-13.08c3.84-3.93,6.39-6.72,7.65-8.37,1.25-1.64,2.17-3.19,2.74-4.64.58-1.45.86-3,.86-4.66,0-2.28-.69-4.07-2.05-5.38s-3.26-1.97-5.68-1.97c-1.93,0-3.8.36-5.61,1.07-1.81.71-3.9,2-6.27,3.87l-4.38-5.35c2.81-2.37,5.53-4.05,8.18-5.04,2.65-.99,5.47-1.48,8.46-1.48,4.69,0,8.46,1.23,11.29,3.68,2.83,2.45,4.25,5.75,4.25,9.89,0,2.28-.41,4.44-1.23,6.49-.82,2.05-2.07,4.16-3.76,6.33s-4.5,5.11-8.44,8.82l-8.77,8.49v.34h23.96v7.15Z"/><path d="m79.47,351.28v4.45l-6.52,1.21c.6.81,1.09,1.79,1.48,2.97.39,1.17.59,2.42.59,3.73,0,3.94-1.36,7.03-4.07,9.29-2.72,2.26-6.46,3.38-11.22,3.38-1.22,0-2.32-.09-3.31-.28-1.75,1.08-2.62,2.35-2.62,3.8,0,.88.41,1.53,1.23,1.97.82.44,2.32.66,4.5.66h6.66c4.21,0,7.41.9,9.6,2.69,2.19,1.79,3.28,4.38,3.28,7.77,0,4.33-1.78,7.66-5.35,10.01-3.57,2.35-8.72,3.52-15.46,3.52-5.2,0-9.17-.92-11.91-2.76-2.74-1.84-4.11-4.46-4.11-7.87,0-2.35.74-4.32,2.23-5.92,1.48-1.6,3.56-2.71,6.23-3.33-1.08-.46-1.97-1.2-2.67-2.23-.7-1.02-1.05-2.1-1.05-3.23,0-1.43.4-2.63,1.21-3.62.81-.99,2-1.97,3.59-2.93-1.98-.85-3.58-2.24-4.82-4.16-1.23-1.92-1.85-4.17-1.85-6.75,0-4.14,1.31-7.35,3.92-9.63,2.61-2.28,6.33-3.42,11.17-3.42,1.08,0,2.21.08,3.4.22,1.19.15,2.08.31,2.68.47h13.22Zm-30,44.12c0,1.75.79,3.09,2.36,4.04,1.58.94,3.79,1.42,6.65,1.42,4.42,0,7.71-.63,9.87-1.9,2.16-1.27,3.24-2.95,3.24-5.04,0-1.66-.59-2.84-1.78-3.54-1.19-.7-3.39-1.05-6.61-1.05h-6.14c-2.32,0-4.17.55-5.54,1.64-1.37,1.09-2.05,2.57-2.05,4.44Zm3.49-31.76c0,2.39.62,4.23,1.85,5.52,1.23,1.29,3,1.93,5.3,1.93,4.69,0,7.04-2.51,7.04-7.53,0-2.49-.58-4.4-1.74-5.75-1.16-1.35-2.93-2.02-5.3-2.02s-4.12.67-5.33,2c-1.21,1.33-1.81,3.28-1.81,5.83Z"/><path d="m103.22,390.15c-5.94,0-10.58-1.73-13.93-5.2-3.35-3.46-5.02-8.23-5.02-14.31s1.55-11.14,4.66-14.71c3.11-3.57,7.38-5.35,12.81-5.35,5.04,0,9.02,1.53,11.94,4.59,2.92,3.06,4.38,7.27,4.38,12.63v4.38h-25.44c.12,3.71,1.12,6.55,3,8.54,1.89,1.99,4.54,2.99,7.97,2.99,2.26,0,4.35-.21,6.3-.64,1.94-.42,4.03-1.13,6.27-2.12v6.59c-1.98.94-3.98,1.61-6.01,2-2.03.39-4.34.59-6.94.59Zm-1.48-33.42c-2.58,0-4.64.82-6.2,2.45s-2.48,4.02-2.78,7.15h17.33c-.05-3.15-.81-5.54-2.28-7.16-1.47-1.62-3.5-2.43-6.08-2.43Z"/><path d="m141.5,383.6c1.98,0,3.96-.31,5.94-.93v6.11c-.9.39-2.05.72-3.47.98-1.42.26-2.88.4-4.4.4-7.69,0-11.53-4.05-11.53-12.15v-20.57h-5.21v-3.59l5.59-2.97,2.76-8.08h5.01v8.49h10.87v6.14h-10.87v20.44c0,1.96.49,3.4,1.47,4.33.98.93,2.26,1.4,3.85,1.4Z"/><path d="m188.65,389.46h-8.15v-23.47c0-2.95-.59-5.14-1.78-6.59-1.19-1.45-3.07-2.17-5.64-2.17-3.41,0-5.91,1.02-7.51,3.05-1.6,2.04-2.4,5.45-2.4,10.24v18.95h-8.11v-53.71h8.11v13.63c0,2.19-.14,4.52-.41,7.01h.52c1.1-1.84,2.64-3.27,4.61-4.28,1.97-1.01,4.26-1.52,6.89-1.52,9.25,0,13.88,4.66,13.88,13.98v24.89Z"/><path d="m216.61,390.15c-5.94,0-10.58-1.73-13.93-5.2-3.35-3.46-5.02-8.23-5.02-14.31s1.55-11.14,4.66-14.71c3.11-3.57,7.38-5.35,12.81-5.35,5.04,0,9.02,1.53,11.94,4.59,2.92,3.06,4.38,7.27,4.38,12.63v4.38h-25.44c.12,3.71,1.12,6.55,3,8.54,1.89,1.99,4.54,2.99,7.97,2.99,2.26,0,4.35-.21,6.3-.64,1.94-.42,4.03-1.13,6.27-2.12v6.59c-1.98.94-3.98,1.61-6.01,2-2.03.39-4.34.59-6.94.59Zm-1.48-33.42c-2.58,0-4.64.82-6.2,2.45s-2.48,4.02-2.78,7.15h17.33c-.05-3.15-.81-5.54-2.28-7.16-1.47-1.62-3.5-2.43-6.08-2.43Z"/><path d="m260.04,350.59c1.63,0,2.98.12,4.04.35l-.79,7.56c-1.15-.28-2.35-.41-3.59-.41-3.24,0-5.87,1.06-7.89,3.18s-3.02,4.87-3.02,8.25v19.95h-8.11v-38.18h6.35l1.07,6.73h.41c1.27-2.28,2.92-4.08,4.95-5.42s4.23-2,6.58-2Z"/><path d="m330.18,389.46h-8.28v-22.75h-23.27v22.75h-8.25v-50.47h8.25v20.64h23.27v-20.64h8.28v50.47Z"/><path d="m359.28,390.15c-5.94,0-10.58-1.73-13.93-5.2-3.35-3.46-5.02-8.23-5.02-14.31s1.55-11.14,4.66-14.71c3.11-3.57,7.38-5.35,12.81-5.35,5.04,0,9.02,1.53,11.94,4.59,2.92,3.06,4.38,7.27,4.38,12.63v4.38h-25.44c.12,3.71,1.12,6.55,3,8.54,1.89,1.99,4.54,2.99,7.97,2.99,2.26,0,4.35-.21,6.3-.64,1.94-.42,4.03-1.13,6.27-2.12v6.59c-1.98.94-3.98,1.61-6.01,2-2.03.39-4.34.59-6.94.59Zm-1.48-33.42c-2.58,0-4.64.82-6.2,2.45s-2.48,4.02-2.78,7.15h17.33c-.05-3.15-.81-5.54-2.28-7.16-1.47-1.62-3.5-2.43-6.08-2.43Z"/><path d="m407.23,389.46l-1.62-5.32h-.28c-1.84,2.33-3.69,3.91-5.56,4.75s-4.26,1.26-7.18,1.26c-3.75,0-6.68-1.01-8.79-3.04-2.11-2.02-3.16-4.89-3.16-8.59,0-3.94,1.46-6.9,4.38-8.91,2.92-2,7.38-3.09,13.36-3.28l6.59-.21v-2.04c0-2.44-.57-4.26-1.71-5.47s-2.91-1.81-5.3-1.81c-1.96,0-3.83.29-5.63.86-1.79.58-3.52,1.25-5.18,2.04l-2.62-5.8c2.07-1.08,4.34-1.9,6.8-2.47,2.46-.56,4.79-.85,6.97-.85,4.86,0,8.52,1.06,10.99,3.18,2.47,2.12,3.71,5.44,3.71,9.98v25.72h-5.8Zm-12.08-5.52c2.95,0,5.31-.82,7.09-2.47,1.78-1.65,2.68-3.95,2.68-6.92v-3.31l-4.9.21c-3.82.14-6.6.78-8.34,1.92-1.74,1.14-2.61,2.88-2.61,5.23,0,1.7.51,3.02,1.52,3.95,1.01.93,2.53,1.4,4.56,1.4Z"/><path d="m432.46,389.46h-8.11v-53.71h8.11v53.71Z"/><path d="m458.28,383.6c1.98,0,3.96-.31,5.94-.93v6.11c-.9.39-2.05.72-3.47.98-1.42.26-2.88.4-4.4.4-7.69,0-11.53-4.05-11.53-12.15v-20.57h-5.21v-3.59l5.59-2.97,2.76-8.08h5.01v8.49h10.87v6.14h-10.87v20.44c0,1.96.49,3.4,1.47,4.33.98.93,2.26,1.4,3.85,1.4Z"/><path d="m505.44,389.46h-8.15v-23.47c0-2.95-.59-5.14-1.78-6.59-1.19-1.45-3.07-2.17-5.64-2.17-3.41,0-5.91,1.02-7.51,3.05-1.6,2.04-2.4,5.45-2.4,10.24v18.95h-8.11v-53.71h8.11v13.63c0,2.19-.14,4.52-.41,7.01h.52c1.1-1.84,2.64-3.27,4.61-4.28,1.97-1.01,4.26-1.52,6.89-1.52,9.25,0,13.88,4.66,13.88,13.98v24.89Z"/><path d="m255.85,296.6c-77.48,0-140.52-63.04-140.52-140.52S178.37,15.56,255.85,15.56s140.52,63.04,140.52,140.52-63.04,140.52-140.52,140.52Zm0-246.85c-58.63,0-106.34,47.7-106.34,106.34s47.7,106.33,106.34,106.33,106.34-47.7,106.34-106.33-47.7-106.34-106.34-106.34Z" fill="#730dd9"/><circle cx="376.12" cy="36.3" r="20.55" fill="#730dd9"/></svg>