<?xml version='1.0' encoding='us-ascii'?>
<svg xmlns="http://www.w3.org/2000/svg" id="_&#206;&#211;&#200;_1" viewBox="0 0 652 360.74"><defs><clipPath id="clippath"><rect x="0" y="1.53" width="652" height="358" fill="#00A987" stroke-width="0" /></clipPath></defs><g clip-path="url(#clippath)"><polygon points="652 30.59 0 31.24 0 1.53 652 1.53 652 30.59" fill="#00A987" stroke-width="0" /><polygon points="652 33.27 0 33.92 0 31.24 652 30.59 652 33.27" fill="#00A987" stroke-width="0" /><polygon points="652 35.95 0 36.6 0 33.92 652 33.27 652 35.95" fill="#00A987" stroke-width="0" /><polygon points="652 38.63 0 39.28 0 36.6 652 35.95 652 38.63" fill="#00A987" stroke-width="0" /><polygon points="652 41.31 0 41.96 0 39.28 652 38.63 652 41.31" fill="#00A987" stroke-width="0" /><polygon points="652 43.99 0 44.64 0 41.96 652 41.31 652 43.99" fill="#00A987" stroke-width="0" /><polygon points="652 46.67 0 47.32 0 44.64 652 43.99 652 46.67" fill="#00A987" stroke-width="0" /><polygon points="652 49.35 0 50 0 47.32 652 46.67 652 49.35" fill="#00A987" stroke-width="0" /><polygon points="652 52.02 0 52.68 0 50 652 49.35 652 52.02" fill="#00A987" stroke-width="0" /><polygon points="652 54.7 0 55.36 0 52.68 652 52.02 652 54.7" fill="#00A987" stroke-width="0" /><polygon points="652 57.38 0 58.04 0 55.36 652 54.7 652 57.38" fill="#00A987" stroke-width="0" /><polygon points="652 60.06 0 60.72 0 58.04 652 57.38 652 60.06" fill="#00A987" stroke-width="0" /><polygon points="652 62.74 0 63.4 0 60.72 652 60.06 652 62.74" fill="#00A987" stroke-width="0" /><polygon points="652 65.42 0 66.07 0 63.4 652 62.74 652 65.42" fill="#00A987" stroke-width="0" /><polygon points="652 68.1 0 68.75 0 66.07 652 65.42 652 68.1" fill="#00A987" stroke-width="0" /><polygon points="652 70.78 0 71.43 0 68.75 652 68.1 652 70.78" fill="#00A987" stroke-width="0" /><polygon points="652 73.46 0 74.11 0 71.43 652 70.78 652 73.46" fill="#00A987" stroke-width="0" /><polygon points="652 76.14 0 76.79 0 74.11 652 73.46 652 76.14" fill="#00A987" stroke-width="0" /><polygon points="652 78.82 0 79.47 0 76.79 652 76.14 652 78.82" fill="#00A987" stroke-width="0" /><polygon points="652 81.5 0 82.15 0 79.47 652 78.82 652 81.5" fill="#00A987" stroke-width="0" /><polygon points="652 84.18 0 84.83 0 82.15 652 81.5 652 84.18" fill="#00A987" stroke-width="0" /><polygon points="652 86.86 0 87.51 0 84.83 652 84.18 652 86.86" fill="#00A987" stroke-width="0" /><polygon points="652 89.54 0 90.19 0 87.51 652 86.86 652 89.54" fill="#00A987" stroke-width="0" /><polygon points="652 92.21 0 92.87 0 90.19 652 89.54 652 92.21" fill="#00A987" stroke-width="0" /><polygon points="652 94.89 0 95.55 0 92.87 652 92.21 652 94.89" fill="#00A987" stroke-width="0" /><polygon points="652 97.57 0 98.23 0 95.55 652 94.89 652 97.57" fill="#00A987" stroke-width="0" /><polygon points="652 100.25 0 100.91 0 98.23 652 97.57 652 100.25" fill="#00A987" stroke-width="0" /><polygon points="652 102.93 0 103.59 0 100.91 652 100.25 652 102.93" fill="#00A987" stroke-width="0" /><polygon points="652 105.61 0 106.26 0 103.59 652 102.93 652 105.61" fill="#00A987" stroke-width="0" /><polygon points="652 108.29 0 108.94 0 106.26 652 105.61 652 108.29" fill="#00A987" stroke-width="0" /><polygon points="652 110.97 0 111.62 0 108.94 652 108.29 652 110.97" fill="#00A987" stroke-width="0" /><polygon points="652 113.65 0 114.3 0 111.62 652 110.97 652 113.65" fill="#00A987" stroke-width="0" /><polygon points="652 116.33 0 116.98 0 114.3 652 113.65 652 116.33" fill="#00A987" stroke-width="0" /><polygon points="652 119.01 0 119.66 0 116.98 652 116.33 652 119.01" fill="#00A987" stroke-width="0" /><polygon points="652 121.69 0 122.34 0 119.66 652 119.01 652 121.69" fill="#00A987" stroke-width="0" /><polygon points="652 124.37 0 125.02 0 122.34 652 121.69 652 124.37" fill="#00A987" stroke-width="0" /><polygon points="652 127.05 0 127.7 0 125.02 652 124.37 652 127.05" fill="#00A987" stroke-width="0" /><polygon points="652 129.73 0 130.38 0 127.7 652 127.05 652 129.73" fill="#00A987" stroke-width="0" /><polygon points="652 132.41 0 133.06 0 130.38 652 129.73 652 132.41" fill="#00A987" stroke-width="0" /><polygon points="652 135.08 0 135.74 0 133.06 652 132.41 652 135.08" fill="#00A987" stroke-width="0" /><polygon points="652 137.76 0 138.42 0 135.74 652 135.08 652 137.76" fill="#00A987" stroke-width="0" /><polygon points="652 140.44 0 141.1 0 138.42 652 137.76 652 140.44" fill="#00A987" stroke-width="0" /><polygon points="652 143.12 0 143.78 0 141.1 652 140.44 652 143.12" fill="#00A987" stroke-width="0" /><polygon points="652 145.8 0 146.46 0 143.78 652 143.12 652 145.8" fill="#00A987" stroke-width="0" /><polygon points="652 148.48 0 149.13 0 146.46 652 145.8 652 148.48" fill="#00A987" stroke-width="0" /><polygon points="652 151.16 0 151.81 0 149.13 652 148.48 652 151.16" fill="#00A987" stroke-width="0" /><polygon points="652 153.84 0 154.49 0 151.81 652 151.16 652 153.84" fill="#00A987" stroke-width="0" /><polygon points="652 156.52 0 157.17 0 154.49 652 153.84 652 156.52" fill="#00A987" stroke-width="0" /><polygon points="652 159.2 0 159.85 0 157.17 652 156.52 652 159.2" fill="#00A987" stroke-width="0" /><polygon points="652 161.88 0 162.53 0 159.85 652 159.2 652 161.88" fill="#00A987" stroke-width="0" /><polygon points="652 164.56 0 165.21 0 162.53 652 161.88 652 164.56" fill="#00A987" stroke-width="0" /><polygon points="652 167.24 0 167.89 0 165.21 652 164.56 652 167.24" fill="#00A987" stroke-width="0" /><polygon points="652 169.92 0 170.57 0 167.89 652 167.24 652 169.92" fill="#00A987" stroke-width="0" /><polygon points="652 172.6 0 173.25 0 170.57 652 169.92 652 172.6" fill="#00A987" stroke-width="0" /><polygon points="652 175.27 0 175.93 0 173.25 652 172.6 652 175.27" fill="#00A987" stroke-width="0" /><polygon points="652 177.95 0 178.61 0 175.93 652 175.27 652 177.95" fill="#00A987" stroke-width="0" /><polygon points="652 180.63 0 181.29 0 178.61 652 177.95 652 180.63" fill="#00A987" stroke-width="0" /><polygon points="652 183.31 0 183.97 0 181.29 652 180.63 652 183.31" fill="#00A987" stroke-width="0" /><polygon points="652 185.99 0 186.65 0 183.97 652 183.31 652 185.99" fill="#00A987" stroke-width="0" /><polygon points="652 188.67 0 189.32 0 186.65 652 185.99 652 188.67" fill="#00A987" stroke-width="0" /><polygon points="652 191.35 0 192 0 189.32 652 188.67 652 191.35" fill="#00A987" stroke-width="0" /><polygon points="652 194.03 0 194.68 0 192 652 191.35 652 194.03" fill="#00A987" stroke-width="0" /><polygon points="652 196.71 0 197.36 0 194.68 652 194.03 652 196.71" fill="#00A987" stroke-width="0" /><polygon points="652 199.39 0 200.04 0 197.36 652 196.71 652 199.39" fill="#00A987" stroke-width="0" /><polygon points="652 202.07 0 202.72 0 200.04 652 199.39 652 202.07" fill="#00A987" stroke-width="0" /><polygon points="652 204.75 0 205.4 0 202.72 652 202.07 652 204.75" fill="#00A987" stroke-width="0" /><polygon points="652 207.43 0 208.08 0 205.4 652 204.75 652 207.43" fill="#00A987" stroke-width="0" /><polygon points="652 210.11 0 210.76 0 208.08 652 207.43 652 210.11" fill="#00A987" stroke-width="0" /><polygon points="652 212.79 0 213.44 0 210.76 652 210.11 652 212.79" fill="#00A987" stroke-width="0" /><polygon points="652 215.47 0 216.12 0 213.44 652 212.79 652 215.47" fill="#00A987" stroke-width="0" /><polygon points="652 218.14 0 218.8 0 216.12 652 215.47 652 218.14" fill="#00A987" stroke-width="0" /><polygon points="652 220.82 0 221.48 0 218.8 652 218.14 652 220.82" fill="#00A987" stroke-width="0" /><polygon points="652 223.5 0 224.16 0 221.48 652 220.82 652 223.5" fill="#00A987" stroke-width="0" /><polygon points="652 226.18 0 226.84 0 224.16 652 223.5 652 226.18" fill="#00A987" stroke-width="0" /><polygon points="652 228.86 0 229.52 0 226.84 652 226.18 652 228.86" fill="#00A987" stroke-width="0" /><polygon points="652 231.54 0 232.19 0 229.52 652 228.86 652 231.54" fill="#00A987" stroke-width="0" /><polygon points="652 234.22 0 234.87 0 232.19 652 231.54 652 234.22" fill="#00A987" stroke-width="0" /><polygon points="652 236.9 0 237.55 0 234.87 652 234.22 652 236.9" fill="#00A987" stroke-width="0" /><polygon points="652 239.58 0 240.23 0 237.55 652 236.9 652 239.58" fill="#00A987" stroke-width="0" /><polygon points="652 242.26 0 242.91 0 240.23 652 239.58 652 242.26" fill="#00A987" stroke-width="0" /><polygon points="652 244.94 0 245.59 0 242.91 652 242.26 652 244.94" fill="#00A987" stroke-width="0" /><polygon points="652 247.62 0 248.27 0 245.59 652 244.94 652 247.62" fill="#00A987" stroke-width="0" /><polygon points="652 250.3 0 250.95 0 248.27 652 247.62 652 250.3" fill="#00A987" stroke-width="0" /><polygon points="652 252.98 0 253.63 0 250.95 652 250.3 652 252.98" fill="#00A987" stroke-width="0" /><polygon points="652 255.66 0 256.31 0 253.63 652 252.98 652 255.66" fill="#00A987" stroke-width="0" /><polygon points="652 258.34 0 258.99 0 256.31 652 255.66 652 258.34" fill="#00A987" stroke-width="0" /><polygon points="652 261.01 0 261.67 0 258.99 652 258.34 652 261.01" fill="#00A987" stroke-width="0" /><polygon points="652 263.69 0 264.35 0 261.67 652 261.01 652 263.69" fill="#00A987" stroke-width="0" /><polygon points="652 266.37 0 267.03 0 264.35 652 263.69 652 266.37" fill="#00A987" stroke-width="0" /><polygon points="652 269.05 0 269.71 0 267.03 652 266.37 652 269.05" fill="#00A987" stroke-width="0" /><polygon points="652 271.73 0 272.39 0 269.71 652 269.05 652 271.73" fill="#00A987" stroke-width="0" /><polygon points="652 274.41 0 275.06 0 272.39 652 271.73 652 274.41" fill="#00A987" stroke-width="0" /><polygon points="652 277.09 0 277.74 0 275.06 652 274.41 652 277.09" fill="#00A987" stroke-width="0" /><polygon points="652 279.77 0 280.42 0 277.74 652 277.09 652 279.77" fill="#00A987" stroke-width="0" /><polygon points="652 282.45 0 283.1 0 280.42 652 279.77 652 282.45" fill="#00A987" stroke-width="0" /><polygon points="652 285.13 0 285.78 0 283.1 652 282.45 652 285.13" fill="#00A987" stroke-width="0" /><polygon points="652 287.81 0 288.46 0 285.78 652 285.13 652 287.81" fill="#00A987" stroke-width="0" /><polygon points="652 290.49 0 291.14 0 288.46 652 287.81 652 290.49" fill="#00A987" stroke-width="0" /><polygon points="652 293.17 0 293.82 0 291.14 652 290.49 652 293.17" fill="#00A987" stroke-width="0" /><polygon points="652 295.85 0 296.5 0 293.82 652 293.17 652 295.85" fill="#00A987" stroke-width="0" /><polygon points="652 298.53 0 299.18 0 296.5 652 295.85 652 298.53" fill="#00A987" stroke-width="0" /><polygon points="652 301.2 0 301.86 0 299.18 652 298.53 652 301.2" fill="#00A987" stroke-width="0" /><polygon points="652 303.88 0 304.54 0 301.86 652 301.2 652 303.88" fill="#00A987" stroke-width="0" /><polygon points="652 306.56 0 307.22 0 304.54 652 303.88 652 306.56" fill="#00A987" stroke-width="0" /><polygon points="652 309.24 0 309.9 0 307.22 652 306.56 652 309.24" fill="#00A987" stroke-width="0" /><polygon points="652 311.92 0 312.58 0 309.9 652 309.24 652 311.92" fill="#00A987" stroke-width="0" /><polygon points="652 314.6 0 315.25 0 312.58 652 311.92 652 314.6" fill="#00A987" stroke-width="0" /><polygon points="652 317.28 0 317.93 0 315.25 652 314.6 652 317.28" fill="#00A987" stroke-width="0" /><polygon points="652 319.96 0 320.61 0 317.93 652 317.28 652 319.96" fill="#00A987" stroke-width="0" /><polygon points="652 322.64 0 323.29 0 320.61 652 319.96 652 322.64" fill="#00A987" stroke-width="0" /><polygon points="652 325.32 0 325.97 0 323.29 652 322.64 652 325.32" fill="#00A987" stroke-width="0" /><polygon points="652 328 0 328.65 0 325.97 652 325.32 652 328" fill="#00A987" stroke-width="0" /><polygon points="652 330.68 0 331.33 0 328.65 652 328 652 330.68" fill="#00A987" stroke-width="0" /><polygon points="652 333.36 0 334.01 0 331.33 652 330.68 652 333.36" fill="#00A987" stroke-width="0" /><polygon points="0 334.01 652 333.36 652 359.53 0 359.53 0 334.01" fill="#00A987" stroke-width="0" /></g><g opacity=".2"><path d="m652.07,145.46c0-.09,0-.4,0-.4,0,0-.07-.31-.07-.44-24.11,41.16-68.34,68.85-119.39,68.85-76.54,0-138.81-62.27-138.81-138.81,0-27.67,6.88-51.47,20.9-73.14-3.47-.3-5.6-.37-9.03-.29-4.28.09-7.01.26-11.29.26-1.89,0-3.49-.07-5.38-.08-1.04,0-3.64.09-4.68.08-.24.01-1.39,0-1.57,0-11.27,22.45-16.95,46.37-16.95,73.15,0,91.98,74.83,166.81,166.81,166.81,46.74,0,89.13-19.36,119.44-50.44,0-7.53-.03-15,.06-21.56.11-8.44,0-15.54-.04-24.01Z" fill="#00A987" stroke-width="0" /></g><rect x="0" y="77.95" width="652" height="76.24" fill="#00A987" stroke-width="0" /></svg>