<?xml version='1.0' encoding='us-ascii'?>
<svg xmlns="http://www.w3.org/2000/svg" id="_&#206;&#211;&#200;_1" viewBox="0 0 652 360.74"><defs><clipPath id="clippath"><rect x="-.08" y="1.53" width="652" height="358" fill="#00A987" stroke-width="0" /></clipPath></defs><g clip-path="url(#clippath)"><polygon points="651.92 30.59 -.08 31.24 -.08 1.53 651.92 1.53 651.92 30.59" fill="#00A987" stroke-width="0" /><polygon points="651.92 33.27 -.08 33.92 -.08 31.24 651.92 30.59 651.92 33.27" fill="#00A987" stroke-width="0" /><polygon points="651.92 35.95 -.08 36.6 -.08 33.92 651.92 33.27 651.92 35.95" fill="#00A987" stroke-width="0" /><polygon points="651.92 38.63 -.08 39.28 -.08 36.6 651.92 35.95 651.92 38.63" fill="#00A987" stroke-width="0" /><polygon points="651.92 41.31 -.08 41.96 -.08 39.28 651.92 38.63 651.92 41.31" fill="#00A987" stroke-width="0" /><polygon points="651.92 43.99 -.08 44.64 -.08 41.96 651.92 41.31 651.92 43.99" fill="#00A987" stroke-width="0" /><polygon points="651.92 46.67 -.08 47.32 -.08 44.64 651.92 43.99 651.92 46.67" fill="#00A987" stroke-width="0" /><polygon points="651.92 49.35 -.08 50 -.08 47.32 651.92 46.67 651.92 49.35" fill="#00A987" stroke-width="0" /><polygon points="651.92 52.02 -.08 52.68 -.08 50 651.92 49.35 651.92 52.02" fill="#00A987" stroke-width="0" /><polygon points="651.92 54.7 -.08 55.36 -.08 52.68 651.92 52.02 651.92 54.7" fill="#00A987" stroke-width="0" /><polygon points="651.92 57.38 -.08 58.04 -.08 55.36 651.92 54.7 651.92 57.38" fill="#00A987" stroke-width="0" /><polygon points="651.92 60.06 -.08 60.72 -.08 58.04 651.92 57.38 651.92 60.06" fill="#00A987" stroke-width="0" /><polygon points="651.92 62.74 -.08 63.4 -.08 60.72 651.92 60.06 651.92 62.74" fill="#00A987" stroke-width="0" /><polygon points="651.92 65.42 -.08 66.07 -.08 63.4 651.92 62.74 651.92 65.42" fill="#00A987" stroke-width="0" /><polygon points="651.92 68.1 -.08 68.75 -.08 66.07 651.92 65.42 651.92 68.1" fill="#00A987" stroke-width="0" /><polygon points="651.92 70.78 -.08 71.43 -.08 68.75 651.92 68.1 651.92 70.78" fill="#00A987" stroke-width="0" /><polygon points="651.92 73.46 -.08 74.11 -.08 71.43 651.92 70.78 651.92 73.46" fill="#00A987" stroke-width="0" /><polygon points="651.92 76.14 -.08 76.79 -.08 74.11 651.92 73.46 651.92 76.14" fill="#00A987" stroke-width="0" /><polygon points="651.92 78.82 -.08 79.47 -.08 76.79 651.92 76.14 651.92 78.82" fill="#00A987" stroke-width="0" /><polygon points="651.92 81.5 -.08 82.15 -.08 79.47 651.92 78.82 651.92 81.5" fill="#00A987" stroke-width="0" /><polygon points="651.92 84.18 -.08 84.83 -.08 82.15 651.92 81.5 651.92 84.18" fill="#00A987" stroke-width="0" /><polygon points="651.92 86.86 -.08 87.51 -.08 84.83 651.92 84.18 651.92 86.86" fill="#00A987" stroke-width="0" /><polygon points="651.92 89.54 -.08 90.19 -.08 87.51 651.92 86.86 651.92 89.54" fill="#00A987" stroke-width="0" /><polygon points="651.92 92.21 -.08 92.87 -.08 90.19 651.92 89.54 651.92 92.21" fill="#00A987" stroke-width="0" /><polygon points="651.92 94.89 -.08 95.55 -.08 92.87 651.92 92.21 651.92 94.89" fill="#00A987" stroke-width="0" /><polygon points="651.92 97.57 -.08 98.23 -.08 95.55 651.92 94.89 651.92 97.57" fill="#00A987" stroke-width="0" /><polygon points="651.92 100.25 -.08 100.91 -.08 98.23 651.92 97.57 651.92 100.25" fill="#00A987" stroke-width="0" /><polygon points="651.92 102.93 -.08 103.59 -.08 100.91 651.92 100.25 651.92 102.93" fill="#00A987" stroke-width="0" /><polygon points="651.92 105.61 -.08 106.26 -.08 103.59 651.92 102.93 651.92 105.61" fill="#00A987" stroke-width="0" /><polygon points="651.92 108.29 -.08 108.94 -.08 106.26 651.92 105.61 651.92 108.29" fill="#00A987" stroke-width="0" /><polygon points="651.92 110.97 -.08 111.62 -.08 108.94 651.92 108.29 651.92 110.97" fill="#00A987" stroke-width="0" /><polygon points="651.92 113.65 -.08 114.3 -.08 111.62 651.92 110.97 651.92 113.65" fill="#00A987" stroke-width="0" /><polygon points="651.92 116.33 -.08 116.98 -.08 114.3 651.92 113.65 651.92 116.33" fill="#00A987" stroke-width="0" /><polygon points="651.92 119.01 -.08 119.66 -.08 116.98 651.92 116.33 651.92 119.01" fill="#00A987" stroke-width="0" /><polygon points="651.92 121.69 -.08 122.34 -.08 119.66 651.92 119.01 651.92 121.69" fill="#00A987" stroke-width="0" /><polygon points="651.92 124.37 -.08 125.02 -.08 122.34 651.92 121.69 651.92 124.37" fill="#00A987" stroke-width="0" /><polygon points="651.92 127.05 -.08 127.7 -.08 125.02 651.92 124.37 651.92 127.05" fill="#00A987" stroke-width="0" /><polygon points="651.92 129.73 -.08 130.38 -.08 127.7 651.92 127.05 651.92 129.73" fill="#00A987" stroke-width="0" /><polygon points="651.92 132.41 -.08 133.06 -.08 130.38 651.92 129.73 651.92 132.41" fill="#00A987" stroke-width="0" /><polygon points="651.92 135.08 -.08 135.74 -.08 133.06 651.92 132.41 651.92 135.08" fill="#00A987" stroke-width="0" /><polygon points="651.92 137.76 -.08 138.42 -.08 135.74 651.92 135.08 651.92 137.76" fill="#00A987" stroke-width="0" /><polygon points="651.92 140.44 -.08 141.1 -.08 138.42 651.92 137.76 651.92 140.44" fill="#00A987" stroke-width="0" /><polygon points="651.92 143.12 -.08 143.78 -.08 141.1 651.92 140.44 651.92 143.12" fill="#00A987" stroke-width="0" /><polygon points="651.92 145.8 -.08 146.46 -.08 143.78 651.92 143.12 651.92 145.8" fill="#00A987" stroke-width="0" /><polygon points="651.92 148.48 -.08 149.13 -.08 146.46 651.92 145.8 651.92 148.48" fill="#00A987" stroke-width="0" /><polygon points="651.92 151.16 -.08 151.81 -.08 149.13 651.92 148.48 651.92 151.16" fill="#00A987" stroke-width="0" /><polygon points="651.92 153.84 -.08 154.49 -.08 151.81 651.92 151.16 651.92 153.84" fill="#00A987" stroke-width="0" /><polygon points="651.92 156.52 -.08 157.17 -.08 154.49 651.92 153.84 651.92 156.52" fill="#00A987" stroke-width="0" /><polygon points="651.92 159.2 -.08 159.85 -.08 157.17 651.92 156.52 651.92 159.2" fill="#00A987" stroke-width="0" /><polygon points="651.92 161.88 -.08 162.53 -.08 159.85 651.92 159.2 651.92 161.88" fill="#00A987" stroke-width="0" /><polygon points="651.92 164.56 -.08 165.21 -.08 162.53 651.92 161.88 651.92 164.56" fill="#00A987" stroke-width="0" /><polygon points="651.92 167.24 -.08 167.89 -.08 165.21 651.92 164.56 651.92 167.24" fill="#00A987" stroke-width="0" /><polygon points="651.92 169.92 -.08 170.57 -.08 167.89 651.92 167.24 651.92 169.92" fill="#00A987" stroke-width="0" /><polygon points="651.92 172.6 -.08 173.25 -.08 170.57 651.92 169.92 651.92 172.6" fill="#00A987" stroke-width="0" /><polygon points="651.92 175.27 -.08 175.93 -.08 173.25 651.92 172.6 651.92 175.27" fill="#00A987" stroke-width="0" /><polygon points="651.92 177.95 -.08 178.61 -.08 175.93 651.92 175.27 651.92 177.95" fill="#00A987" stroke-width="0" /><polygon points="651.92 180.63 -.08 181.29 -.08 178.61 651.92 177.95 651.92 180.63" fill="#00A987" stroke-width="0" /><polygon points="651.92 183.31 -.08 183.97 -.08 181.29 651.92 180.63 651.92 183.31" fill="#00A987" stroke-width="0" /><polygon points="651.92 185.99 -.08 186.65 -.08 183.97 651.92 183.31 651.92 185.99" fill="#00A987" stroke-width="0" /><polygon points="651.92 188.67 -.08 189.32 -.08 186.65 651.92 185.99 651.92 188.67" fill="#00A987" stroke-width="0" /><polygon points="651.92 191.35 -.08 192 -.08 189.32 651.92 188.67 651.92 191.35" fill="#00A987" stroke-width="0" /><polygon points="651.92 194.03 -.08 194.68 -.08 192 651.92 191.35 651.92 194.03" fill="#00A987" stroke-width="0" /><polygon points="651.92 196.71 -.08 197.36 -.08 194.68 651.92 194.03 651.92 196.71" fill="#00A987" stroke-width="0" /><polygon points="651.92 199.39 -.08 200.04 -.08 197.36 651.92 196.71 651.92 199.39" fill="#00A987" stroke-width="0" /><polygon points="651.92 202.07 -.08 202.72 -.08 200.04 651.92 199.39 651.92 202.07" fill="#00A987" stroke-width="0" /><polygon points="651.92 204.75 -.08 205.4 -.08 202.72 651.92 202.07 651.92 204.75" fill="#00A987" stroke-width="0" /><polygon points="651.92 207.43 -.08 208.08 -.08 205.4 651.92 204.75 651.92 207.43" fill="#00A987" stroke-width="0" /><polygon points="651.92 210.11 -.08 210.76 -.08 208.08 651.92 207.43 651.92 210.11" fill="#00A987" stroke-width="0" /><polygon points="651.92 212.79 -.08 213.44 -.08 210.76 651.92 210.11 651.92 212.79" fill="#00A987" stroke-width="0" /><polygon points="651.92 215.47 -.08 216.12 -.08 213.44 651.92 212.79 651.92 215.47" fill="#00A987" stroke-width="0" /><polygon points="651.92 218.14 -.08 218.8 -.08 216.12 651.92 215.47 651.92 218.14" fill="#00A987" stroke-width="0" /><polygon points="651.92 220.82 -.08 221.48 -.08 218.8 651.92 218.14 651.92 220.82" fill="#00A987" stroke-width="0" /><polygon points="651.92 223.5 -.08 224.16 -.08 221.48 651.92 220.82 651.92 223.5" fill="#00A987" stroke-width="0" /><polygon points="651.92 226.18 -.08 226.84 -.08 224.16 651.92 223.5 651.92 226.18" fill="#00A987" stroke-width="0" /><polygon points="651.92 228.86 -.08 229.52 -.08 226.84 651.92 226.18 651.92 228.86" fill="#00A987" stroke-width="0" /><polygon points="651.92 231.54 -.08 232.19 -.08 229.52 651.92 228.86 651.92 231.54" fill="#00A987" stroke-width="0" /><polygon points="651.92 234.22 -.08 234.87 -.08 232.19 651.92 231.54 651.92 234.22" fill="#00A987" stroke-width="0" /><polygon points="651.92 236.9 -.08 237.55 -.08 234.87 651.92 234.22 651.92 236.9" fill="#00A987" stroke-width="0" /><polygon points="651.92 239.58 -.08 240.23 -.08 237.55 651.92 236.9 651.92 239.58" fill="#00A987" stroke-width="0" /><polygon points="651.92 242.26 -.08 242.91 -.08 240.23 651.92 239.58 651.92 242.26" fill="#00A987" stroke-width="0" /><polygon points="651.92 244.94 -.08 245.59 -.08 242.91 651.92 242.26 651.92 244.94" fill="#00A987" stroke-width="0" /><polygon points="651.92 247.62 -.08 248.27 -.08 245.59 651.92 244.94 651.92 247.62" fill="#00A987" stroke-width="0" /><polygon points="651.92 250.3 -.08 250.95 -.08 248.27 651.92 247.62 651.92 250.3" fill="#00A987" stroke-width="0" /><polygon points="651.92 252.98 -.08 253.63 -.08 250.95 651.92 250.3 651.92 252.98" fill="#00A987" stroke-width="0" /><polygon points="651.92 255.66 -.08 256.31 -.08 253.63 651.92 252.98 651.92 255.66" fill="#00A987" stroke-width="0" /><polygon points="651.92 258.34 -.08 258.99 -.08 256.31 651.92 255.66 651.92 258.34" fill="#00A987" stroke-width="0" /><polygon points="651.92 261.01 -.08 261.67 -.08 258.99 651.92 258.34 651.92 261.01" fill="#00A987" stroke-width="0" /><polygon points="651.92 263.69 -.08 264.35 -.08 261.67 651.92 261.01 651.92 263.69" fill="#00A987" stroke-width="0" /><polygon points="651.92 266.37 -.08 267.03 -.08 264.35 651.92 263.69 651.92 266.37" fill="#00A987" stroke-width="0" /><polygon points="651.92 269.05 -.08 269.71 -.08 267.03 651.92 266.37 651.92 269.05" fill="#00A987" stroke-width="0" /><polygon points="651.92 271.73 -.08 272.39 -.08 269.71 651.92 269.05 651.92 271.73" fill="#00A987" stroke-width="0" /><polygon points="651.92 274.41 -.08 275.06 -.08 272.39 651.92 271.73 651.92 274.41" fill="#00A987" stroke-width="0" /><polygon points="651.92 277.09 -.08 277.74 -.08 275.06 651.92 274.41 651.92 277.09" fill="#00A987" stroke-width="0" /><polygon points="651.92 279.77 -.08 280.42 -.08 277.74 651.92 277.09 651.92 279.77" fill="#00A987" stroke-width="0" /><polygon points="651.92 282.45 -.08 283.1 -.08 280.42 651.92 279.77 651.92 282.45" fill="#00A987" stroke-width="0" /><polygon points="651.92 285.13 -.08 285.78 -.08 283.1 651.92 282.45 651.92 285.13" fill="#00A987" stroke-width="0" /><polygon points="651.92 287.81 -.08 288.46 -.08 285.78 651.92 285.13 651.92 287.81" fill="#00A987" stroke-width="0" /><polygon points="651.92 290.49 -.08 291.14 -.08 288.46 651.92 287.81 651.92 290.49" fill="#00A987" stroke-width="0" /><polygon points="651.92 293.17 -.08 293.82 -.08 291.14 651.92 290.49 651.92 293.17" fill="#00A987" stroke-width="0" /><polygon points="651.92 295.85 -.08 296.5 -.08 293.82 651.92 293.17 651.92 295.85" fill="#00A987" stroke-width="0" /><polygon points="651.92 298.53 -.08 299.18 -.08 296.5 651.92 295.85 651.92 298.53" fill="#00A987" stroke-width="0" /><polygon points="651.92 301.2 -.08 301.86 -.08 299.18 651.92 298.53 651.92 301.2" fill="#00A987" stroke-width="0" /><polygon points="651.92 303.88 -.08 304.54 -.08 301.86 651.92 301.2 651.92 303.88" fill="#00A987" stroke-width="0" /><polygon points="651.92 306.56 -.08 307.22 -.08 304.54 651.92 303.88 651.92 306.56" fill="#00A987" stroke-width="0" /><polygon points="651.92 309.24 -.08 309.9 -.08 307.22 651.92 306.56 651.92 309.24" fill="#00A987" stroke-width="0" /><polygon points="651.92 311.92 -.08 312.58 -.08 309.9 651.92 309.24 651.92 311.92" fill="#00A987" stroke-width="0" /><polygon points="651.92 314.6 -.08 315.25 -.08 312.58 651.92 311.92 651.92 314.6" fill="#00A987" stroke-width="0" /><polygon points="651.92 317.28 -.08 317.93 -.08 315.25 651.92 314.6 651.92 317.28" fill="#00A987" stroke-width="0" /><polygon points="651.92 319.96 -.08 320.61 -.08 317.93 651.92 317.28 651.92 319.96" fill="#00A987" stroke-width="0" /><polygon points="651.92 322.64 -.08 323.29 -.08 320.61 651.92 319.96 651.92 322.64" fill="#00A987" stroke-width="0" /><polygon points="651.92 325.32 -.08 325.97 -.08 323.29 651.92 322.64 651.92 325.32" fill="#00A987" stroke-width="0" /><polygon points="651.92 328 -.08 328.65 -.08 325.97 651.92 325.32 651.92 328" fill="#00A987" stroke-width="0" /><polygon points="651.92 330.68 -.08 331.33 -.08 328.65 651.92 328 651.92 330.68" fill="#00A987" stroke-width="0" /><polygon points="651.92 333.36 -.08 334.01 -.08 331.33 651.92 330.68 651.92 333.36" fill="#00A987" stroke-width="0" /><polygon points="-.08 334.01 651.92 333.36 651.92 359.53 -.08 359.53 -.08 334.01" fill="#00A987" stroke-width="0" /></g><g opacity=".2"><path d="m651.99,145.46c0-.09,0-.4,0-.4,0,0-.07-.31-.07-.44-24.11,41.16-68.34,68.85-119.39,68.85-76.54,0-138.81-62.27-138.81-138.81,0-27.67,6.88-51.47,20.9-73.14-3.47-.3-5.6-.37-9.03-.29-4.28.09-7.01.26-11.29.26-1.89,0-3.49-.07-5.38-.08-1.04,0-3.64.09-4.68.08-.24.01-1.39,0-1.57,0-11.27,22.45-16.95,46.37-16.95,73.15,0,91.98,74.83,166.81,166.81,166.81,46.74,0,89.13-19.36,119.44-50.44,0-7.53-.03-15,.06-21.56.11-8.44,0-15.54-.04-24.01Z" fill="#00A987" stroke-width="0" /></g></svg>