<svg width="21" height="24" viewBox="0 0 21 24" fill="none" xmlns="http://www.w3.org/2000/svg">
<path d="M15.2002 7C15.2002 9.77344 12.9346 12 10.1611 12C7.42676 12 5.16113 9.77344 5.16113 7C5.16113 4.26562 7.42676 2 10.1611 2C12.9346 2 15.2002 4.26562 15.2002 7ZM12.6611 16.1406C11.6064 16.4531 10.7861 17.4297 10.7861 18.5625V19.5C10.7861 19.6953 10.8643 19.8516 10.9814 19.9688L11.6064 20.5938C11.8408 20.8281 12.2705 20.8281 12.5049 20.5938C12.7393 20.3594 12.7393 19.9297 12.5049 19.6953L12.0361 19.2656V18.5625C12.0361 17.8984 12.6221 17.3125 13.2861 17.3125C13.9893 17.3125 14.5752 17.8984 14.5752 18.5625V19.2656L14.1064 19.6953C13.8721 19.9297 13.8721 20.3594 14.1064 20.5938C14.3408 20.8281 14.7705 20.8281 15.0049 20.5938L15.6299 19.9688C15.7471 19.8516 15.8252 19.6953 15.8252 19.5V18.5625C15.8252 17.4297 15.0049 16.4531 13.9502 16.1406V14.0703C16.8018 14.7734 18.9502 17.3516 18.9502 20.4375V20.75C18.9502 21.4531 18.3643 22 17.7002 22H2.7002C1.99707 22 1.4502 21.4531 1.4502 20.75V20.4375C1.4502 17.3516 3.55957 14.7734 6.4502 14.0703V16.4922C5.5127 16.7656 4.8877 17.5859 4.8877 18.5625C4.8877 19.7734 5.86426 20.75 7.0752 20.75C8.24707 20.75 9.2627 19.7734 9.2627 18.5625C9.2627 17.5859 8.59863 16.7656 7.7002 16.4922V13.9141C7.77832 13.9141 7.89551 13.875 8.0127 13.875H12.3877C12.4658 13.875 12.583 13.9141 12.7002 13.9141L12.6611 16.1406ZM7.97363 18.5625C7.97363 19.1094 7.58301 19.5 7.03613 19.5C6.52832 19.5 6.09863 19.1094 6.09863 18.5625C6.09863 18.0547 6.52832 17.625 7.03613 17.625C7.58301 17.625 7.97363 18.0547 7.97363 18.5625Z" fill="#001E30"/>
</svg>
