<?xml version="1.0" encoding="UTF-8"?><svg id="icons" xmlns="http://www.w3.org/2000/svg" viewBox="0 0 188.03 170.74"><path d="m203.11,146.05H-11.89v.11h215v-.11Z" fill="#ebebeb"/><path d="m181.57,152.97h-14.24v.11h14.24v-.11Z" fill="#ebebeb"/><path d="m130.54,154.14h-3.74v.11h3.74v-.11Z" fill="#ebebeb"/><path d="m166.9,148.98h-20.5v.11h20.5v-.11Z" fill="#ebebeb"/><path d="m20.85,149.7h-10.18v.11h10.18v-.11Z" fill="#ebebeb"/><path d="m35.79,149.7h-11.12v.11h11.12v-.11Z" fill="#ebebeb"/><path d="m72.44,151.52h-27.8v.11h27.8v-.11Z" fill="#ebebeb"/><path d="m90.02,126.87H6.99c-.65,0-1.27-.26-1.73-.72-.46-.46-.72-1.08-.72-1.74V7.7c0-.65.27-1.27.73-1.72.46-.46,1.08-.71,1.73-.71h83.03c.65,0,1.27.26,1.74.72.46.46.72,1.08.72,1.74v116.69c0,.65-.26,1.28-.72,1.74s-1.09.72-1.74.72ZM6.99,5.36c-.62,0-1.22.25-1.66.69-.44.44-.69,1.04-.69,1.66v116.72c0,.62.25,1.22.69,1.66.44.44,1.04.69,1.66.69h83.03c.62,0,1.22-.25,1.66-.69s.69-1.04.69-1.66V7.7c0-.62-.25-1.22-.69-1.66-.44-.44-1.04-.69-1.66-.69H6.99Z" fill="#ebebeb"/><path d="m183.04,126.87h-83.03c-.65,0-1.28-.26-1.74-.72s-.72-1.08-.72-1.74V7.7c0-.65.27-1.27.73-1.72.46-.46,1.08-.71,1.73-.71h83.03c.65,0,1.26.26,1.72.71.46.46.72,1.07.72,1.72v116.72c0,.65-.26,1.27-.72,1.73-.46.46-1.08.72-1.73.72ZM100,5.36c-.62,0-1.22.25-1.66.69-.44.44-.69,1.04-.69,1.66v116.72c0,.62.25,1.22.69,1.66.44.44,1.04.69,1.66.69h83.03c.62,0,1.22-.25,1.66-.69.44-.44.69-1.04.69-1.66V7.7c0-.62-.25-1.22-.69-1.66-.44-.44-1.04-.69-1.66-.69h-83.03Z" fill="#ebebeb"/><path d="m177.92,16.45h-67.93v129.6h67.93V16.45Z" fill="#ebebeb"/><path d="m173.33,20.68h-57.82v125.37h57.82V20.68Z" fill="#f5f5f5"/><path d="m152.09,31.07h-16.26v4.49h16.26v-4.49Z" fill="#fff"/><path d="m159.41,75.71h8.82c.36,0,.71.14.97.4.26.26.4.61.4.97s-.14.71-.4.97c-.26.26-.61.4-.97.4h-8.82c-.37,0-.71-.14-.97-.4-.26-.26-.4-.61-.4-.97s.15-.71.4-.97c.26-.26.61-.4.97-.4Z" fill="#fff"/><path d="m63.55,30.24H18.38v36.41h45.18V30.24Z" fill="#ebebeb"/><path d="m61.12,64.22v-31.56H20.8v31.56h40.33Z" fill="#fafafa"/><path d="m56.42,48.86v-1.51h-30.92v1.51h30.92Z" fill="#e0e0e0"/><path d="m56.42,52.3v-1.51h-30.92v1.51h30.92Z" fill="#e0e0e0"/><path d="m56.42,55.73v-1.51h-30.92v1.51h30.92Z" fill="#e0e0e0"/><path d="m48.67,59.16v-1.51h-15.42v1.51h15.42Z" fill="#e0e0e0"/><path d="m25.52,32.67c0,.62-.12,1.23-.36,1.81-.24.57-.59,1.09-1.03,1.53-.44.44-.96.78-1.53,1.02-.57.23-1.19.35-1.81.35-.86,0-1.69-.23-2.43-.68v-6.45h6.45c.45.73.7,1.57.71,2.43Z" fill="#ebebeb"/><path d="m63.55,30.24v6.45c-.9.54-1.95.77-2.99.64-1.04-.13-2.01-.6-2.75-1.34s-1.21-1.71-1.34-2.75c-.13-1.04.1-2.1.64-2.99h6.45Z" fill="#ebebeb"/><path d="m25.52,64.23c0,.85-.23,1.69-.67,2.42h-6.45v-6.45c.71-.43,1.53-.66,2.36-.67.83-.01,1.65.2,2.37.61.72.41,1.33,1,1.75,1.72.42.72.64,1.53.64,2.37Z" fill="#ebebeb"/><path d="m63.55,60.19v6.45h-6.45c-.44-.73-.68-1.57-.68-2.42,0-.83.22-1.65.64-2.37.42-.72,1.02-1.31,1.75-1.72s1.55-.62,2.38-.61c.83.01,1.65.24,2.36.67h0Z" fill="#ebebeb"/><path d="m44.91,41c.35-2.18-1.13-4.24-3.31-4.59-2.18-.35-4.24,1.13-4.59,3.31-.35,2.18,1.13,4.24,3.31,4.59,2.18.35,4.24-1.13,4.59-3.31Z" fill="#e0e0e0"/><path d="m100.06,94.35H10.67v3.22h89.39v-3.22Z" fill="#ebebeb"/><path d="m99.28,97.56h-29.04v48.49h29.04v-48.49Z" fill="#f5f5f5"/><path d="m40.82,97.56H11.77v48.49h29.04v-48.49Z" fill="#f5f5f5"/><path d="m12.77,97.56h-.99v48.49h.99v-48.49Z" fill="#ebebeb"/><path d="m71.24,97.56h-.99v48.49h.99v-48.49Z" fill="#ebebeb"/><path d="m27.03,86.59h-5.34l.43,7.75h4.48l.43-7.75Z" fill="#f0f0f0"/><path d="m73.39,90.98h-27.9v3.36h27.9v-3.36Z" fill="#f0f0f0"/><path d="m73.4,91.38h-12.87v2.58h12.87v-2.58Z" fill="#fafafa"/><path d="m95.61,165.47c46.04,0,83.37-2.18,83.37-4.87s-37.33-4.87-83.37-4.87-83.37,2.18-83.37,4.87,37.33,4.87,83.37,4.87Z" fill="#f5f5f5"/><path d="m134.62,130.5c7.52,0,13.62-6.1,13.62-13.62s-6.1-13.62-13.62-13.62-13.62,6.1-13.62,13.62,6.1,13.62,13.62,13.62Z" fill="#fff"/><path d="m134.62,130.66c-2.73,0-5.39-.81-7.66-2.32-2.27-1.51-4.04-3.67-5.08-6.19-1.04-2.52-1.32-5.29-.79-7.97.53-2.68,1.85-5.13,3.77-7.06,1.93-1.93,4.39-3.24,7.06-3.78,2.67-.53,5.45-.26,7.97.78,2.52,1.04,4.67,2.81,6.19,5.08,1.51,2.27,2.32,4.93,2.32,7.66,0,3.66-1.46,7.16-4.04,9.75-2.59,2.59-6.09,4.04-9.74,4.04Zm0-27.24c-2.66,0-5.26.79-7.48,2.27-2.21,1.48-3.94,3.58-4.96,6.04-1.02,2.46-1.28,5.16-.76,7.77.52,2.61,1.8,5.01,3.68,6.89,1.88,1.88,4.28,3.16,6.89,3.68,2.61.52,5.32.25,7.77-.77,2.46-1.02,4.56-2.74,6.04-4.96,1.48-2.21,2.27-4.81,2.26-7.48,0-3.57-1.42-6.99-3.95-9.51-2.52-2.52-5.94-3.94-9.51-3.94Z" fill="#8000e3"/><path d="m136.81,109.15h-4.39v15.44h4.39v-15.44Z" fill="#8000e3"/><path d="m142.34,119.82v-5.14h-15.45v5.14h15.45Z" fill="#8000e3"/><path d="m42.34,13.9l-.29-.31c1.99-1.88,4.52-3.1,7.23-3.48l.06.43c-2.62.37-5.07,1.55-7,3.37Z" fill="#39a53b"/><path d="m39.16,18.6l-.4-.15c.43-1.1,1.01-2.13,1.72-3.07l.34.26c-.68.91-1.24,1.91-1.66,2.97Z" fill="#39a53b"/><path d="m51.15,35.07c6.52,0,11.8-5.28,11.8-11.8s-5.28-11.8-11.8-11.8-11.8,5.28-11.8,11.8,5.28,11.8,11.8,11.8Z" fill="#3e385b"/><path d="m58.2,17.96c-.45-.47-1-.85-1.6-1.11-.6-.26-1.25-.4-1.9-.4-.65,0-1.3.12-1.91.37-.61.25-1.16.61-1.62,1.08-.46-.46-1.01-.83-1.62-1.08-.61-.25-1.26-.37-1.91-.37-.65,0-1.3.14-1.9.4-.6.26-1.14.64-1.6,1.11-.89.96-1.37,2.23-1.34,3.54.03,1.31.58,2.56,1.51,3.47l5.59,5.59c.17.17.37.3.59.39.22.09.45.14.69.14s.47-.05.69-.14c.22-.09.42-.22.59-.39l5.59-5.59c.93-.92,1.47-2.17,1.5-3.48.03-1.31-.45-2.58-1.35-3.54Z" fill="#fff"/><path d="m51.15,28.43c-.09,0-.17-.03-.24-.08-.07-.05-.12-.12-.15-.2l-2.49-7.28-1.04,3.04c-.03.08-.08.16-.16.21-.07.05-.16.08-.25.08h-4.17c-.11,0-.22-.05-.3-.13-.08-.08-.13-.19-.13-.3s.05-.22.13-.3.19-.13.3-.13h3.87l1.35-3.94c.03-.08.08-.16.16-.21.07-.05.16-.08.25-.08s.18.03.25.08c.07.05.13.13.16.21l2.53,7.41,2.46-5.79c.03-.07.08-.14.15-.18.07-.05.14-.07.22-.08.08,0,.16.01.23.05.07.04.13.1.17.17l1.3,2.36h3.92c.11,0,.22.05.3.13.08.08.13.19.13.3s-.05.22-.13.3c-.08.08-.19.13-.3.13h-4.17c-.08,0-.15-.02-.22-.06-.07-.04-.12-.09-.16-.16l-1.02-1.82-2.55,6.02c-.03.08-.09.14-.16.19-.07.05-.15.07-.24.07Z" fill="#004236"/><path d="m116.62,145.54h-44.88c-.73,0-1.46-.14-2.13-.42s-1.28-.71-1.78-1.24c-.5-.53-.88-1.17-1.13-1.86s-.34-1.42-.28-2.15l7.25-107.5c.13-1.54.82-2.97,1.94-4.02,1.12-1.05,2.6-1.65,4.14-1.68h44.89c.73,0,1.46.14,2.13.42s1.28.71,1.78,1.25.88,1.17,1.12,1.86c.24.69.34,1.43.28,2.16l-7.27,107.5c-.13,1.53-.82,2.96-1.95,4.01-1.12,1.05-2.6,1.64-4.13,1.67Z" fill="#263238"/><path d="m126.57,70.44h-1.13c-.21,0-.41-.04-.6-.12-.19-.08-.36-.2-.5-.35-.14-.15-.25-.33-.31-.52-.07-.19-.09-.4-.08-.6l1.39-20.55c.03-.43.22-.83.54-1.13.31-.29.73-.46,1.16-.46h1.13c.21,0,.41.04.6.12.19.08.36.2.5.35.14.15.25.33.31.52.07.19.09.4.08.6l-1.39,20.55c-.03.43-.23.83-.54,1.13-.31.29-.73.46-1.16.46Z" fill="#263238"/><path d="m73.03,56.73h-1.13c-.17,0-.33-.03-.49-.1-.15-.07-.29-.16-.41-.28-.11-.12-.2-.26-.26-.42-.06-.16-.08-.32-.07-.49l.5-7.42c.03-.35.19-.67.45-.91.26-.24.59-.37.94-.38h1.13c.17,0,.33.03.48.1.15.07.29.16.4.28.11.12.2.26.26.42.06.16.08.32.07.49l-.5,7.42c-.03.35-.19.67-.45.91-.26.24-.59.37-.94.38Z" fill="#39a53b"/><path d="m72.13,69.99h-1.13c-.17,0-.33-.03-.48-.1s-.29-.16-.4-.28-.2-.26-.26-.42c-.06-.16-.08-.32-.07-.49l.5-7.42c.03-.35.19-.67.45-.91.26-.24.59-.37.94-.38h1.14c.17,0,.33.03.48.1.15.07.29.16.4.28s.2.26.26.42c.06.16.08.32.07.49l-.5,7.42c-.03.35-.19.68-.45.91-.26.24-.6.37-.95.38Z" fill="#39a53b"/><path d="m115.67,145.54h-44.88c-.73,0-1.46-.14-2.13-.42-.67-.29-1.28-.71-1.78-1.24-.5-.53-.88-1.17-1.13-1.86-.24-.69-.34-1.42-.28-2.15l7.26-107.5c.13-1.54.83-2.97,1.96-4.02,1.13-1.05,2.61-1.64,4.15-1.66h44.86c.73,0,1.46.14,2.13.42.67.29,1.28.71,1.78,1.25s.88,1.17,1.12,1.86c.24.69.34,1.42.28,2.15l-7.26,107.5c-.13,1.53-.83,2.96-1.95,4.01-1.12,1.05-2.6,1.64-4.14,1.67Z" fill="#8000e3"/><path d="m65.95,138.66l7.09-104.9h55.5l-7.09,104.9h-55.5Z" fill="#b19eca"/><path d="m87.86,138.66l19.81-104.9h12.43l-19.81,104.9h-12.43Z" fill="#fff" isolation="isolate" opacity=".1"/><path d="m78.47,138.66l19.81-104.9h6.3l-19.81,104.9h-6.3Z" fill="#fff" isolation="isolate" opacity=".1"/><path d="m95.67,29.32h10.82c.09,0,.18.02.26.05.08.04.16.09.22.15.06.07.11.14.14.23.03.09.04.18.03.27-.01.19-.1.37-.24.5-.14.13-.32.2-.51.21h-10.82c-.09,0-.18-.02-.26-.05-.08-.04-.16-.09-.22-.15-.06-.07-.11-.15-.14-.23-.03-.09-.04-.18-.03-.27.01-.19.1-.37.24-.5.14-.13.32-.2.51-.21Z" fill="#fff"/><path d="m93.42,155.88l-3.79.36-1.37-8.75,3.79-.36,1.37,8.75Z" fill="#ffb573"/><path d="m89.19,154.39l3.97-1.23c.07-.02.14-.02.21,0,.07.03.12.09.14.15l1.29,3.15c.03.08.05.18.04.26,0,.09-.03.18-.07.26-.04.08-.1.15-.17.21-.07.06-.15.1-.24.13-1.44.43-2.8.53-4.54,1.29-2.03.86-2.87,2.01-5.05,2.01-1.56,0-1.91-1.43-1.25-1.63,3.01-.91,2.61-1.66,4.8-4.01.23-.27.52-.48.86-.6Z" fill="#263238"/><path d="m88.26,147.49l.71,4.51,3.8-.36-.71-4.51-3.8.36Z" isolation="isolate" opacity=".2"/><path d="m91,36.92c-4.98-.58-9.92-.19-14.89.77-.83.16-1.58.58-2.16,1.2s-.93,1.4-1.03,2.24c-.54,4.76-1.15,15.42,1.25,31.32l20.33-1.72c.04-2.89-2.01-16.03-.32-29.67.07-.48.04-.97-.08-1.44-.12-.47-.34-.91-.64-1.3-.3-.39-.67-.71-1.09-.95-.42-.24-.89-.39-1.37-.45Z" fill="#fff"/><path d="m79.16,40.99l.73,1.45c.03.07.09.14.16.18.07.04.15.07.23.07l.79.04c.14,0,.28-.04.39-.12l1.35-1.01-1.67-1.22-1.97.6Z" fill="#263238"/><path d="m81.09,42.32c-.29-.13-.61-.16-.92-.07-.64,2.26-1.34,8.74-1.41,11.61,1.94,5.66,2.58,6.23,2.58,6.23l.98-6.82s-1.11-6.97-1.23-10.96Z" fill="#263238"/><path d="m86.7,27.11c-.46,2.8-.86,7.92,1.15,9.74-1.47,1.55-3.41,3.34-6.72,3.54-3.31.2-2.8-2.09-1.96-3.32,3.09-.83,2.94-3.13,2.33-5.28l5.19-4.68Z" fill="#ffb573"/><path d="m88.69,36.6c-.23-.1-.48-.18-.73-.24-.06-.02-.13-.01-.18.01-.06.02-.11.07-.14.12-.32.54-1.29,2.96-6.51,3.89.86.51,2,2.08,2.49,2.84,1.57-.81,5.64-3.24,5.25-6.39,0-.05-.03-.1-.06-.14-.03-.04-.07-.08-.12-.1Z" fill="#f5f5f5"/><path d="m79.2,37.21s0-.1,0-.15c-.01-.05-.04-.09-.07-.13-.03-.04-.08-.06-.13-.08-.05-.01-.1-.02-.15,0-.18.04-.36.08-.53.14-.04.02-.08.04-.11.06-.4.37-2.58,3.52-.54,6.06.43-.69,1.91-2.26,3.47-2.72-1.47-.66-2.19-1.9-1.93-3.19Z" fill="#f5f5f5"/><path d="m84.58,29.02l-3.07,2.77c.15.5.25,1.01.31,1.53,1.19-.2,2.78-1.55,2.87-2.8.06-.5.02-1.01-.11-1.51Z" isolation="isolate" opacity=".2"/><path d="m80.48,18.64c-2.65,1.04-2.82,3.21-2.58,5.59.24,2.38,2.83.8,3.41-.68s2.84-6.34-.83-4.91Z" fill="#263238"/><path d="m88.93,23.38c-.74,3.75-.98,5.97-3.12,7.69-3.23,2.58-7.6.35-7.99-3.51-.35-3.48.91-9.03,4.77-10.11.84-.25,1.73-.27,2.59-.07.85.2,1.64.62,2.28,1.22.64.6,1.11,1.35,1.37,2.19.26.84.3,1.73.11,2.58Z" fill="#ffb573"/><path d="m88.77,26.48c-3.15.17-2.49-1.62-1.91-2.65s-.59-2.73.17-3.61c-1.36.54-2.79.09-4.61-1.17-1.41-.98-3.18,2.95-4.9.98-1.63-1.86-.12-4.67,3.79-5.12,3.9-.45,4.61,2.31,7.18,2.06,2.56-.25,1.67,1.87,1.17,2.3,2.15.14,3.32,2.2-.88,7.21Z" fill="#263238"/><path d="m89.16,19.53c.49-.27.9-.67,1.19-1.15.29-.48.44-1.03.44-1.6.85,1.49.76,3.19-1.64,2.75Z" fill="#263238"/><path d="m80.99,27.38c.34.06.69.05,1.03-.03.34-.08.66-.23.94-.43,0,0,.02-.02.02-.03,0-.01,0-.02,0-.03s0-.02,0-.03c0-.01-.01-.02-.02-.03-.02-.02-.04-.02-.06-.02s-.05,0-.06.02c-.31.22-.67.37-1.05.43-.38.06-.77.03-1.13-.09-.02,0-.05,0-.07,0-.02.01-.04.03-.05.05,0,.02,0,.05,0,.07.01.02.03.04.05.04.13.04.26.06.4.08Z" fill="#263238"/><path d="m89.69,27.63c-.59.76-1.45,1.26-2.4,1.38-1.25.16-1.67-1-1.14-2.09.48-.98,1.72-2.24,2.87-1.91,1.15.34,1.4,1.66.68,2.61Z" fill="#ffb573"/><path d="m88.45,109.06c.15-11.23,1.59-37.97,1.59-37.97l-15.85,1.34s3.15,27.56,5.05,39.01c1.98,11.91,8.05,39.8,8.05,39.8l6.45-.55s-2.36-32.95-5.29-41.63Z" fill="#263238"/><path d="m86.9,151.42l7.65-.65-.3-2.47-7.97.53.62,2.58Z" fill="#8000e3"/><path d="m83.28,23.61c-.04.31-.24.54-.43.52-.19-.02-.33-.29-.28-.6.04-.31.24-.54.43-.52s.33.29.28.6Z" fill="#263238"/><path d="m79.77,23.33c-.04.31-.24.54-.43.52-.19-.02-.33-.29-.28-.59s.24-.54.43-.52c.19.02.33.27.28.59Z" fill="#263238"/><path d="m80.76,23.69c-.52.8-1.14,1.52-1.85,2.15.46.48,1.4.35,1.4.35l.45-2.5Z" fill="#ed893e"/><path d="m77.55,23.41c-.06.49.43.9,1.11.98.68.09,1.32-.29,1.38-.78" fill="#39a53b" isolation="isolate" opacity=".4"/><path d="m81.62,23.86c-.09.49.38.92,1.05,1.05s1.33-.22,1.42-.7" fill="#39a53b" isolation="isolate" opacity=".4"/><path d="m82.94,25.05c-.08,0-.15,0-.23,0-.33-.04-.64-.18-.89-.4-.11-.09-.19-.21-.25-.34-.05-.13-.08-.28-.06-.42-.22-.09-.45-.15-.69-.17-.24-.06-.49-.06-.73,0-.06.52-.71.89-1.44.8-.33-.04-.64-.17-.89-.4-.11-.09-.19-.21-.25-.34-.05-.13-.08-.28-.06-.42l.21.03c0,.11,0,.22.05.32.04.1.11.19.19.26.22.19.49.31.77.34.62.08,1.17-.21,1.23-.64.03-.24.53-.22.94-.17.41.05.9.17.86.4,0,.11,0,.22.05.32.04.1.11.19.19.26.22.19.49.31.78.34.29.04.58-.01.84-.14.1-.05.19-.12.25-.2.07-.09.11-.19.13-.3v-.1l5.31.68-.03.21-5.11-.66c-.04.12-.1.23-.18.33-.08.1-.18.17-.29.23-.22.12-.46.18-.71.18Z" fill="#263238"/><path d="m84.63,22.26s.06,0,.09-.03c.04-.02.07-.06.09-.11.01-.05,0-.1-.02-.14-.13-.25-.33-.46-.56-.62-.24-.16-.51-.25-.79-.28-.05,0-.1.01-.13.05-.04.03-.06.08-.06.13,0,.05.01.09.05.13.03.04.08.06.12.06.22.03.44.11.62.23.19.13.34.3.44.5.02.03.04.05.07.06.03.02.06.02.09.02Z" fill="#263238"/><path d="m78.64,21.77s.06,0,.09-.01c.03-.01.05-.03.07-.05.14-.18.32-.33.53-.43.21-.1.43-.15.66-.15.02,0,.05,0,.07,0,.02,0,.04-.02.06-.03.02-.02.03-.03.04-.06.01-.02.02-.04.02-.07,0-.02,0-.05,0-.07,0-.02-.02-.04-.03-.06-.01-.02-.03-.03-.05-.05-.02-.01-.04-.02-.07-.02-.29,0-.58.05-.84.18-.26.12-.49.31-.67.53-.03.04-.05.08-.04.13,0,.05.03.09.06.12.03.02.06.03.09.04Z" fill="#263238"/><path d="m101.65,107.25c-3.29-16.91-4.03-30.13-7.15-36.55l-15.35,1.72s9.15,25.19,13.61,35.95c4.64,11.18,13.8,30.28,13.8,30.28h7.67s-7.16-23.7-12.58-31.4Z" fill="#263238"/><path d="m52.98,43.24l-1.66-1.05c-.27-.17-.59-.25-.91-.21-.32.04-.61.18-.84.41l-1.13,1.19c-.12.13-.22.28-.28.45-.06.17-.09.34-.08.52.01.18.06.35.14.51.08.16.19.3.33.41l.8.69c.7.59,1.52,1.03,2.4,1.29l2.43.72,1.6-1.72c.49-1.79-2.8-3.19-2.8-3.19Z" fill="#ffb573"/><path d="m77.55,42.44c-.6,1.47-1.19,2.84-1.83,4.24s-1.29,2.78-2.01,4.15c-.72,1.37-1.48,2.73-2.35,4.1-.43.68-.91,1.36-1.45,2.04-.58.75-1.25,1.44-1.98,2.05-.48.4-1.02.72-1.59.98-.18.07-.35.14-.55.2l-.3.08c-.15.04-.31.06-.46.08-.52.06-1.05.02-1.57-.11-.64-.18-1.24-.46-1.8-.82-.41-.26-.81-.55-1.18-.86-1.24-1.08-2.38-2.27-3.42-3.56-1-1.2-1.95-2.41-2.86-3.65s-1.78-2.45-2.67-3.74l4.76-3.07c1.5,2.42,3.16,4.74,4.97,6.94.83,1.02,1.75,1.97,2.74,2.83.19.16.39.3.61.43.16.11.32.15.21.11-.15-.04-.31-.05-.46-.03-.06,0-.12.02-.18.03h-.06c.1-.06.19-.13.28-.21.39-.36.75-.75,1.06-1.18.37-.49.73-1.04,1.08-1.61.71-1.19,1.36-2.41,1.94-3.67.6-1.29,1.18-2.58,1.72-3.92.54-1.34,1.05-2.7,1.48-4.01l5.87,2.16Z" fill="#39a53b"/><path d="m77.55,42.44c-.6,1.47-1.19,2.84-1.83,4.24s-1.29,2.78-2.01,4.15c-.72,1.37-1.48,2.73-2.35,4.1-.43.68-.91,1.36-1.45,2.04-.58.75-1.25,1.44-1.98,2.05-.48.4-1.02.72-1.59.98-.18.07-.35.14-.55.2l-.3.08c-.15.04-.31.06-.46.08-.52.06-1.05.02-1.57-.11-.64-.18-1.24-.46-1.8-.82-.41-.26-.81-.55-1.18-.86-1.24-1.08-2.38-2.27-3.42-3.56-1-1.2-1.95-2.41-2.86-3.65s-1.78-2.45-2.67-3.74l4.76-3.07c1.5,2.42,3.16,4.74,4.97,6.94.83,1.02,1.75,1.97,2.74,2.83.19.16.39.3.61.43.16.11.32.15.21.11-.15-.04-.31-.05-.46-.03-.06,0-.12.02-.18.03h-.06c.1-.06.19-.13.28-.21.39-.36.75-.75,1.06-1.18.37-.49.73-1.04,1.08-1.61.71-1.19,1.36-2.41,1.94-3.67.6-1.29,1.18-2.58,1.72-3.92.54-1.34,1.05-2.7,1.48-4.01l5.87,2.16Z" fill="#8000e3"/><path d="m88.81,35.84c-1.61,3.01-7.35,14.48-8.05,21.56-2.54-6.45-1.99-20.72-1.99-20.72-1.81.18-3.59.61-5.28,1.29-.54.22-1.02.59-1.36,1.07-.35.48-.56,1.04-.6,1.62-.5,7.38-.26,14.8.7,22.13,1.78,13.89,3.44,35.49,3.44,35.49,0,0,14.21-.59,25.18-2.91-1.34-10.62-5.91-28.41-5.96-33.17-.05-6.13.09-18.12.28-23.13.03-.71-.19-1.4-.62-1.96-.43-.56-1.05-.94-1.75-1.08-1.32-.24-2.66-.31-3.99-.19Z" fill="#39a53b"/><path d="m88.81,35.84c-1.61,3.01-7.35,14.48-8.05,21.56-2.54-6.45-1.99-20.72-1.99-20.72-1.81.18-3.59.61-5.28,1.29-.54.22-1.02.59-1.36,1.07-.35.48-.56,1.04-.6,1.62-.5,7.38-.26,14.8.7,22.13,1.78,13.89,3.44,35.49,3.44,35.49,0,0,14.21-.59,25.18-2.91-1.34-10.62-5.91-28.41-5.96-33.17-.05-6.13.09-18.12.28-23.13.04-.69-.16-1.36-.57-1.91-.41-.55-1-.94-1.67-1.1-1.36-.27-2.75-.34-4.12-.22Z" fill="#3e385b"/><path d="m85.46,95.97c-2.47-13.62-4.42-33.6-4.58-36h.22c.16,2.4,2.12,22.36,4.58,35.98l-.22.03Z" fill="#fff"/><path d="m84.23,71.75h-13.11c-.26-.01-.52-.11-.72-.28-.2-.17-.35-.4-.41-.66l-4.38-20.37c-.03-.11-.04-.23-.02-.34.02-.11.07-.22.14-.31.07-.09.16-.16.27-.21.1-.05.22-.07.34-.07h13.1c.27.01.52.11.73.28.21.17.35.4.41.66l4.38,20.37c.03.11.04.23.02.34-.02.11-.07.22-.14.31-.07.09-.16.16-.27.21-.1.05-.22.07-.34.07Z" fill="#fff"/><path d="m83.82,71.92h-13.33c-.27-.01-.53-.11-.74-.28-.21-.17-.36-.41-.42-.67l-4.46-20.71c-.03-.11-.04-.23-.01-.35.02-.12.07-.22.15-.32.07-.09.17-.17.27-.22.11-.05.22-.07.34-.07h13.33c.27.01.53.11.74.28.21.17.36.41.42.67l4.45,20.71c.03.11.04.23.02.35-.02.12-.07.22-.14.32-.07.09-.17.17-.27.22-.11.05-.22.07-.34.07Z" fill="#b19eca"/><path d="m85.35,60.23l-3.32-.12c-.4-.01-.8.06-1.17.21l-1.72.69c-.16.06-.31.16-.43.28-.12.12-.22.27-.29.43-.07.16-.1.33-.1.51,0,.17.04.34.11.5l.69,1.49c.14.29.37.52.66.66.29.14.62.17.93.09l1.9-.47s3.56-.28,3.69-2.15l-.96-2.1Z" fill="#ffb573"/><path d="m94.5,37.68c.82,1.29,1.57,2.47,2.31,3.73.74,1.26,1.47,2.52,2.15,3.82.68,1.31,1.33,2.66,1.92,4.1.31.76.57,1.53.78,2.32.28.96.4,1.96.38,2.95v.17s0,.06,0,.09c0,.15-.04.31-.07.46-.03.15-.07.28-.11.43-.04.15-.09.24-.14.36-.16.37-.38.72-.63,1.04-.35.44-.75.84-1.19,1.19-.68.53-1.39,1.01-2.15,1.42-1.33.73-2.69,1.38-4.09,1.95-1.36.58-2.71,1.1-4.06,1.6-1.36.49-2.7.97-4.11,1.44l-1.64-5.42c1.29-.35,2.61-.79,3.89-1.23,1.29-.44,2.58-.93,3.8-1.44,1.2-.5,2.37-1.06,3.5-1.69.48-.26.93-.57,1.36-.91.11-.09.21-.19.3-.3-.04.04-.07.09-.09.14,0,.04-.02.06-.04.11-.02.05-.03.1-.04.15-.02.07-.03.13-.04.2,0,.03,0,.03,0,.02v-.03c-.03-.41-.11-.81-.24-1.2-.17-.56-.38-1.12-.61-1.66-.53-1.19-1.12-2.35-1.78-3.47-.67-1.15-1.38-2.3-2.15-3.44-.77-1.14-1.55-2.27-2.33-3.3l5.11-3.64Z" fill="#39a53b"/><path d="m94.5,37.68c.82,1.29,1.57,2.47,2.31,3.73.74,1.26,1.47,2.52,2.15,3.82.68,1.31,1.33,2.66,1.92,4.1.31.76.57,1.53.78,2.32.28.96.4,1.96.38,2.95v.17s0,.06,0,.09c0,.15-.04.31-.07.46-.03.15-.07.28-.11.43-.04.15-.09.24-.14.36-.16.37-.38.72-.63,1.04-.35.44-.75.84-1.19,1.19-.68.53-1.39,1.01-2.15,1.42-1.33.73-2.69,1.38-4.09,1.95-1.36.58-2.71,1.1-4.06,1.6-1.36.49-2.7.97-4.11,1.44l-1.64-5.42c1.29-.35,2.61-.79,3.89-1.23,1.29-.44,2.58-.93,3.8-1.44,1.2-.5,2.37-1.06,3.5-1.69.48-.26.93-.57,1.36-.91.11-.09.21-.19.3-.3-.04.04-.07.09-.09.14,0,.04-.02.06-.04.11-.02.05-.03.1-.04.15-.02.07-.03.13-.04.2,0,.03,0,.03,0,.02v-.03c-.03-.41-.11-.81-.24-1.2-.17-.56-.38-1.12-.61-1.66-.53-1.19-1.12-2.35-1.78-3.47-.67-1.15-1.38-2.3-2.15-3.44-.77-1.14-1.55-2.27-2.33-3.3l5.11-3.64Z" fill="#8000e3"/><path d="m90.15,52.6s-.06,0-.08-.02c-.03-.01-.05-.03-.06-.06-.01-.02-.02-.04-.03-.06,0-.02,0-.04,0-.07,0-.02.01-.04.03-.06.01-.02.03-.03.05-.05l.67-.43c.63-.39,1.12-.97,1.41-1.65.29-.68.37-1.43.22-2.16l-1.35-6.84c-.1-.51-.37-.97-.76-1.31-.39-.34-.89-.54-1.41-.56-.52-.02-1.03.13-1.45.44-.42.31-.73.74-.87,1.25l-1.91,6.7c-.21.71-.2,1.46.03,2.17.23.7.67,1.32,1.26,1.76l.64.48s.06.07.06.11c0,.05,0,.09-.03.13-.01.02-.03.03-.05.04-.02.01-.04.02-.06.02-.02,0-.04,0-.07,0-.02,0-.04-.02-.06-.03l-.6-.48c-.65-.49-1.13-1.16-1.39-1.93-.26-.77-.27-1.6-.05-2.37l1.92-6.7c.16-.57.52-1.07,1-1.42s1.07-.52,1.66-.5c.6.02,1.17.25,1.62.64.45.39.76.92.88,1.5l1.35,6.84c.16.79.07,1.62-.25,2.36-.32.74-.86,1.37-1.54,1.8l-.67.43s-.03.02-.05.03c-.02,0-.04,0-.06,0Z" fill="#263238"/><path d="m91.18,41.35l-4.83-.2s-.04,0-.07-.02c-.02,0-.04-.02-.05-.04-.02-.02-.03-.04-.03-.06,0-.02-.01-.04,0-.07,0-.04.03-.09.06-.12.03-.03.08-.05.12-.05l4.83.2s.04,0,.07.02c.02,0,.04.02.05.04s.03.04.03.06c0,.02.01.04.01.07,0,.02,0,.04-.01.06,0,.02-.02.04-.04.05-.02.02-.04.03-.06.03-.02,0-.04.01-.07,0Z" fill="#263238"/><path d="m88.83,39.35s-.09-.02-.12-.05c-.03-.03-.05-.07-.05-.12,0-.86-.27-2.35-1.07-2.68-.02,0-.04-.02-.06-.04-.02-.02-.03-.03-.04-.06,0-.02-.02-.04-.02-.07,0-.02,0-.05.01-.07,0-.02.02-.04.04-.06.02-.02.04-.03.06-.04.02,0,.05-.01.07-.01.02,0,.05,0,.07.02,1.19.49,1.29,2.73,1.29,3.01,0,.05-.02.09-.05.12-.03.03-.07.05-.12.05v-.02Z" fill="#263238"/><path d="m74.06,45.19h-.03s-.08-.04-.11-.07c-.03-.04-.03-.08-.03-.13.57-2.83,2.92-7.28,4.98-8.6.02-.01.04-.02.06-.02.02,0,.04,0,.07,0,.02,0,.04.01.06.03.02.01.03.03.04.05.01.02.02.04.03.06,0,.02,0,.04,0,.07,0,.02-.01.04-.03.06-.01.02-.03.03-.05.04-2,1.26-4.28,5.59-4.83,8.37,0,.04-.03.08-.06.1-.03.03-.07.04-.11.04Z" fill="#263238"/><path d="m75.47,45.63c-.27.68-.86,1.1-1.29.92s-.6-.86-.33-1.56c.27-.7.86-1.1,1.29-.92s.6.87.33,1.56Z" fill="#fff"/><path d="m86.83,52.3c0,.32-.2.57-.41.56-.21,0-.37-.28-.36-.6.01-.32.2-.58.41-.56s.37.28.36.6Z" fill="#fff"/><path d="m90.53,52.45c0,.32-.19.57-.41.56-.21,0-.37-.28-.36-.6.01-.32.19-.57.43-.56.24,0,.35.29.33.6Z" fill="#fff"/><path d="m163.45,46.49l-.43-.03c.07-.92-.05-1.84-.35-2.7-.3-.87-.78-1.66-1.41-2.33-.63-.67-1.39-1.21-2.23-1.57-.84-.36-1.75-.55-2.67-.54v-.43c.98,0,1.95.19,2.84.57s1.71.95,2.37,1.67c.67.71,1.18,1.56,1.5,2.48.32.92.45,1.9.38,2.88Z" fill="#39a53b"/><path d="m163.68,48.29l-.25,3.56.43.03.25-3.56-.43-.03Z" fill="#39a53b"/><path d="m156.36,40.39h-29.67c-1.62.03-3.17.65-4.36,1.76-1.18,1.11-1.91,2.62-2.04,4.23l-.27,3.99c-.06.77.04,1.54.29,2.27.25.73.66,1.4,1.18,1.96.53.56,1.16,1.01,1.87,1.32.71.3,1.47.46,2.24.45h29.67l5.75,3.55.91-13.54c.06-.77-.04-1.54-.29-2.27-.25-.73-.66-1.4-1.18-1.96-.53-.56-1.16-1.01-1.87-1.32-.71-.3-1.47-.46-2.24-.45Z" fill="#3e385b"/><path d="m154.86,46.12h-27.48v1h27.48v-1Z" fill="#fff"/><path d="m154.62,49.66h-20.4v1h20.4v-1Z" fill="#fff"/><path d="m111.73,61.76h30.32c.79,0,1.57.15,2.29.46.72.31,1.38.77,1.91,1.35.54.58.95,1.26,1.21,2,.26.74.36,1.54.3,2.32l-.27,4.09c-.14,1.65-.88,3.19-2.09,4.32s-2.79,1.78-4.45,1.8h-30.33l-6.37,3.63.94-13.85c.14-1.65.88-3.19,2.09-4.32,1.21-1.13,2.79-1.77,4.45-1.8Z" fill="#fff"/><path d="m111.73,61.76h30.32c.79,0,1.57.15,2.29.46.72.31,1.38.77,1.91,1.35.54.58.95,1.26,1.21,2,.26.74.36,1.54.3,2.32l-.27,4.09c-.14,1.65-.88,3.19-2.09,4.32s-2.79,1.78-4.45,1.8h-30.33l-6.37,3.63.94-13.85c.14-1.65.88-3.19,2.09-4.32,1.21-1.13,2.79-1.77,4.45-1.8Z" fill="#39a53b" isolation="isolate" opacity=".15"/><path d="m140.51,67.62h-28.1v1.02h28.1v-1.02Z" fill="#b19eca"/><path d="m123.27,71.23h-11.11v1.02h11.11v-1.02Z" fill="#b19eca"/><path d="m133.09,71.23h-7.1v1.02h7.1v-1.02Z" fill="#b19eca"/></svg>