<?xml version="1.0" encoding="UTF-8"?><svg id="icons" xmlns="http://www.w3.org/2000/svg" viewBox="0 0 217.99 135.13"><path d="m187.21,131.9c-7.69-4.71-9.95-14.19-10.17-22.81-.04-1.44-.29-2.94.32-4.25.61-1.3,2.15-2.26,3.47-1.73,1.1.44,1.64,1.65,2.29,2.64.88,1.32,2.12,2.37,3.57,3.01.96.42,2.09.64,2.96.09,1.2-.76,1.24-2.48,1.15-3.91-.18-2.66-.35-5.32-.53-7.98-.1-1.43-.19-2.89.18-4.27.36-1.38,1.28-2.7,2.6-3.16,1.33-.46,3.07.22,3.44,1.6.16.57.07,1.19.15,1.78.08.59.39,1.23.96,1.36.57.13,1.13-.32,1.53-.75,1.39-1.53,2.28-3.45,3.1-5.36.82-1.91,1.62-3.85,2.87-5.51,1.25-1.66,3.02-3.01,5.06-3.25,2.04-.24,4.3.89,4.94,2.87.64,1.98-.41,4.1-1.6,5.81-1.75,2.53-3.86,4.8-6.26,6.73-.43.35-.9.72-1.04,1.28-.25.96.71,1.86,1.67,2.12,1.09.29,2.23.11,3.36.18,1.13.06,2.36.48,2.84,1.51.67,1.43-.46,3.03-1.6,4.11-2.29,2.15-4.93,3.89-7.81,5.15-1.03.45-2.12.85-2.92,1.64s-1.24,2.11-.67,3.08c.57.98,1.91,1.22,3,.96,1.08-.26,2.04-.93,3.07-1.39,1.91-.86,4.47-.88,5.82.74.89,1.07,1.06,2.62.72,3.97-.34,1.36-1.12,2.55-1.96,3.66-2.92,3.88-6.77,7.1-11.23,8.95-4.46,1.85-8.66,2.55-13.28,1.15" fill="#f5f5f5"/><path d="m189.1,126.37c1.15-4.78,2.56-9.48,4.25-14.09.44-1.23.88-2.44,1.31-3.64.43-1.19.86-2.37,1.35-3.51.95-2.17,2.01-4.29,3.19-6.34,1.11-1.97,2.23-3.79,3.3-5.49,1.07-1.7,2.1-3.26,3.09-4.65,1.56-2.2,3.29-4.26,5.18-6.18.67-.68,1.2-1.19,1.57-1.53l.42-.39s.09-.09.15-.12c0,0-.04.05-.13.14l-.4.41c-.35.35-.88.87-1.53,1.56-1.85,1.94-3.56,4.02-5.1,6.22-.98,1.39-2,2.95-3.06,4.66-1.06,1.7-2.17,3.53-3.27,5.5-1.17,2.05-2.22,4.16-3.16,6.32-.48,1.12-.91,2.3-1.34,3.49-.43,1.2-.86,2.41-1.3,3.63-1.68,4.6-3.1,9.3-4.26,14.06" fill="#e0e0e0"/><path d="m196.08,105.11c-.08-.19-.14-.4-.18-.6-.1-.39-.22-.96-.37-1.67-.29-1.41-.62-3.37-.98-5.54-.36-2.16-.71-4.12-1.02-5.52-.15-.7-.28-1.28-.38-1.66-.06-.2-.1-.41-.12-.62.09.19.17.38.22.59.12.38.28.96.46,1.64.36,1.4.75,3.35,1.1,5.52.36,2.17.66,4.07.9,5.54.11.67.21,1.23.28,1.68.05.2.07.41.07.62Z" fill="#e0e0e0"/><path d="m214.25,100.58c-.24.06-.48.11-.73.13-.47.07-1.15.17-1.98.32-1.67.28-3.97.76-6.48,1.39-2.51.63-4.76,1.31-6.38,1.84-.81.26-1.46.49-1.91.64-.23.1-.46.17-.71.22.21-.13.44-.23.67-.32.44-.19,1.08-.44,1.88-.72,1.6-.58,3.85-1.28,6.38-1.91,2.15-.55,4.32-.98,6.52-1.31.84-.12,1.52-.19,2-.23.24-.04.49-.05.74-.04Z" fill="#e0e0e0"/><path d="m189.31,126.01c-.06-.07-.1-.14-.14-.21-.1-.17-.21-.39-.35-.64-.32-.56-.72-1.39-1.23-2.41-1.01-2.05-2.32-4.93-3.73-8.12-1.4-3.19-2.69-6.08-3.66-8.15l-1.15-2.46-.32-.67c-.04-.08-.07-.16-.09-.24.05.07.1.14.14.22l.35.64c.32.57.73,1.39,1.24,2.42,1.01,2.05,2.32,4.93,3.73,8.12,1.4,3.19,2.69,6.08,3.66,8.15l1.15,2.45.32.67c.04.08.07.16.09.25Z" fill="#e0e0e0"/><path d="m213.25,116.67c-.07.05-.15.09-.24.11l-.69.28-2.55,1c-2.17.85-5.14,2.06-8.42,3.39-3.29,1.34-6.28,2.52-8.46,3.32-1.09.4-1.98.72-2.59.92l-.71.23c-.08.03-.17.06-.26.06.07-.05.15-.09.24-.12l.7-.28,2.55-1c2.17-.85,5.14-2.06,8.43-3.39,3.29-1.34,6.27-2.51,8.45-3.32,1.09-.4,1.98-.72,2.59-.93l.71-.23c.08-.04.17-.06.26-.06Z" fill="#e0e0e0"/><path d="m191.03,33.94c-1.31,3.29-3.41,8.6-4.38,11.04-.14.35-.13.73.02,1.07.15.34.42.61.77.75l8.98,3.58c.17.07.36.1.54.1.18,0,.37-.04.54-.11s.32-.18.45-.31c.13-.13.23-.29.3-.46l4.35-10.95c.15-.38.23-.79.22-1.2,0-.41-.09-.81-.25-1.19s-.4-.72-.69-1c-.29-.29-.64-.51-1.02-.66l.64-1.6-5.88-2.33-.61,1.51h-.02c-.76-.28-1.6-.25-2.33.08-.74.33-1.32.93-1.62,1.68Z" fill="#f5f5f5"/><path d="m195.53,30.86l-.29.73,5.79,2.55.38-.94-5.88-2.34Z" fill="#e0e0e0"/><path d="m196.71,28.5l5.48,2.18c.24.09.42.28.52.51.1.23.1.5,0,.73l-.58,1.46c-.06.15-.18.27-.33.34-.15.06-.32.07-.47,0l-6.11-2.43c-.15-.06-.27-.18-.34-.33-.07-.15-.07-.32,0-.47l.58-1.46c.09-.24.28-.42.51-.52.23-.1.5-.1.73-.01h0Z" fill="#ebebeb"/><path d="m195.59,31.44c.12-.51.28-1.01.5-1.48.17-.5.39-.97.66-1.42-.12.51-.28,1.01-.5,1.49-.17.49-.39.97-.66,1.41Z" fill="#e0e0e0"/><path d="m196.37,31.75c.12-.51.28-1.01.5-1.48.17-.5.39-.97.66-1.42-.11.51-.28,1.01-.5,1.48-.17.5-.39.97-.66,1.42Z" fill="#e0e0e0"/><path d="m197.14,32.06c.11-.51.28-1.01.5-1.48.17-.5.39-.97.66-1.42-.11.51-.28,1.01-.5,1.48-.17.5-.39.97-.66,1.42Z" fill="#e0e0e0"/><path d="m197.92,32.37c.11-.51.28-1.01.5-1.48.17-.5.39-.97.66-1.42-.12.51-.29,1.01-.5,1.48-.17.5-.39.97-.65,1.42Z" fill="#e0e0e0"/><path d="m198.69,32.67c.11-.51.28-1.01.5-1.48.16-.49.38-.97.64-1.42-.11.51-.28,1.01-.5,1.48-.16.49-.38.97-.64,1.42Z" fill="#e0e0e0"/><path d="m199.47,32.98c.12-.51.28-1.01.5-1.48.17-.5.39-.97.65-1.42-.11.51-.28,1.01-.5,1.48-.17.5-.39.97-.66,1.42Z" fill="#e0e0e0"/><path d="m200.24,33.29c.12-.51.28-1.01.5-1.48.17-.5.39-.97.66-1.42-.11.51-.28,1.01-.5,1.48-.17.5-.39.97-.66,1.42Z" fill="#e0e0e0"/><path d="m201.01,33.6c.12-.51.28-1.01.5-1.48.17-.5.39-.97.66-1.42-.12.51-.28,1.01-.5,1.48-.17.5-.39.97-.66,1.42Z" fill="#e0e0e0"/><path d="m200.01,39.37l-7.55-3.01c-.24-.1-.52.02-.61.26l-1.87,4.69c-.1.24.02.52.26.61l7.55,3.01c.24.1.52-.02.61-.26l1.87-4.69c.1-.24-.02-.52-.26-.61Z" fill="#ebebeb"/><path d="m197.83,44.49s.02-.06.03-.1l.1-.26.37-.99c.32-.85.8-2.05,1.37-3.51l.04.09-7.39-2.93s.2-.09.11-.04v.02l-.02.04-.03.08-.06.16-.13.32c-.09.21-.17.42-.25.64-.16.42-.32.83-.49,1.23l-.93,2.33-.04-.1,5.28,2.14,1.52.64.41.17s.1.04.14.07l-.13-.04-.4-.15-1.52-.58-5.36-2.1-.07-.03.03-.07c.29-.74.6-1.52.92-2.33.16-.41.32-.82.49-1.23.08-.21.17-.42.25-.64l.12-.32.07-.16.03-.08.02-.04v-.02l.11-.05,7.38,2.94.06.03-.03.06c-.6,1.47-1.09,2.67-1.44,3.53l-.4.96-.1.25c-.03.06-.04.08-.04.08Z" fill="#e0e0e0"/><path d="m197.99,40.77c-.87-.26-1.72-.56-2.55-.92-.85-.31-1.68-.67-2.48-1.08.87.25,1.72.56,2.55.92.85.31,1.68.67,2.48,1.08Z" fill="#e0e0e0"/><path d="m197.65,41.62c-.87-.25-1.72-.56-2.55-.92-.85-.31-1.67-.67-2.48-1.08.87.25,1.72.56,2.55.92.85.31,1.67.67,2.48,1.08Z" fill="#e0e0e0"/><path d="m197.33,42.44c-.87-.25-1.72-.56-2.55-.92-.85-.31-1.68-.67-2.48-1.08.87.25,1.72.56,2.55.92.85.31,1.68.67,2.48,1.08Z" fill="#e0e0e0"/><path d="m200.53,34.42c-.94-.28-1.86-.62-2.77-1.01-.92-.34-1.83-.73-2.71-1.17.94.28,1.87.62,2.77,1.01.92.34,1.83.73,2.71,1.17Z" fill="#e0e0e0"/><path d="m187.39,44.54c.05-.18.11-.36.18-.53.14-.36.32-.84.54-1.42.46-1.2,1.11-2.84,1.84-4.66.37-.91.71-1.77,1.04-2.55.25-.72.65-1.38,1.16-1.94.37-.37.84-.61,1.36-.69.14-.02.28-.02.42,0,.05,0,.1.02.14.04-.18,0-.37,0-.55.03-.49.1-.93.35-1.28.71-.5.56-.87,1.21-1.11,1.91-.32.79-.66,1.66-1.02,2.55-.73,1.82-1.4,3.46-1.89,4.64l-.59,1.4c-.07.18-.15.35-.25.51Z" fill="#fff"/><path d="m197.47,50.31c-.13-.08-.24-.18-.35-.28-.11-.1-.25-.21-.41-.34-.16-.13-.34-.28-.55-.43-.49-.37-.99-.7-1.52-1.01-.65-.36-1.32-.68-2.01-.96-.69-.27-1.4-.5-2.13-.67-.59-.14-1.19-.25-1.8-.32-.26-.04-.49-.05-.7-.07-.2-.02-.39-.03-.53-.03-.15,0-.3-.01-.45-.04.15-.03.3-.04.45-.03h.53c.21,0,.45,0,.71.04.61.05,1.22.15,1.82.28.73.17,1.45.39,2.16.67.7.28,1.37.62,2.02,1,.53.32,1.03.67,1.51,1.05.21.16.38.32.54.46.14.11.27.24.39.36.11.1.22.21.31.33Z" fill="#fff"/><path d="m29.51,47.88l-24.7,11.89c-.38.18-.54.64-.36,1.03l16.58,34.45c.18.38.64.54,1.03.36l24.7-11.89c.38-.18.54-.64.36-1.03l-16.58-34.45c-.18-.38-.64-.54-1.03-.36Z" fill="#e0e0e0"/><path d="m29.12,49.01l-23.18,11.15,16.05,33.36,23.18-11.15-16.05-33.36Z" fill="#fafafa"/><path d="m22.49,52.82c-.46-.36-1.02-.58-1.6-.64-.58-.06-1.17.04-1.7.3l-.71-1.4c-.25-.51-.69-.91-1.23-1.1-.54-.19-1.13-.16-1.64.09-.26.12-.49.3-.68.51-.19.21-.34.46-.43.73-.09.27-.13.55-.12.84s.09.56.21.82l.71,1.48-.49.25c-.52.26-.95.66-1.26,1.14-.31.49-.47,1.05-.48,1.63v.73l10.09-4.86-.68-.51Zm-5.39.23c-.21.1-.44.14-.67.1-.23-.03-.44-.13-.61-.29-.17-.15-.29-.35-.35-.58-.06-.22-.05-.46.03-.67.08-.22.21-.41.4-.55.18-.14.4-.22.63-.23.23-.01.46.04.66.16.2.12.36.29.46.5.07.14.11.29.11.44,0,.15-.01.31-.06.45-.05.14-.13.28-.23.39-.1.11-.23.21-.36.27Z" fill="#ebebeb"/><path d="m16.81,60.76s-1.37.75-3.1,1.6c-1.74.84-3.16,1.48-3.19,1.44-.03-.04,1.37-.75,3.1-1.6,1.74-.84,3.17-1.48,3.19-1.44Z" fill="#e0e0e0"/><path d="m14.07,63.38c-.46.32-.96.59-1.48.8-.49.26-1.01.48-1.55.64.47-.31.97-.57,1.49-.79.49-.27,1.01-.48,1.54-.65Z" fill="#e0e0e0"/><path d="m30.25,59.23s-3.88,1.96-8.71,4.28c-4.83,2.32-8.76,4.18-8.78,4.15-.02-.03,3.88-1.97,8.7-4.3,4.82-2.33,8.77-4.17,8.79-4.13Z" fill="#e0e0e0"/><path d="m31.05,60.9s-3.88,1.96-8.71,4.28c-4.83,2.33-8.76,4.18-8.78,4.15-.02-.03,3.88-1.96,8.71-4.28,4.83-2.33,8.75-4.19,8.78-4.15Z" fill="#e0e0e0"/><path d="m31.85,62.56s-3.88,1.96-8.71,4.28c-4.83,2.33-8.76,4.18-8.78,4.15-.02-.03,3.88-1.96,8.71-4.28,4.83-2.33,8.76-4.19,8.78-4.15Z" fill="#e0e0e0"/><path d="m32.66,64.23s-3.88,1.96-8.71,4.28c-4.83,2.33-8.76,4.17-8.78,4.15-.02-.03,3.88-1.96,8.71-4.28,4.83-2.32,8.76-4.19,8.78-4.15Z" fill="#e0e0e0"/><path d="m33.46,65.9s-3.88,1.96-8.71,4.28c-4.83,2.32-8.76,4.18-8.78,4.15-.02-.03,3.89-1.97,8.71-4.3,4.82-2.33,8.76-4.17,8.78-4.13Z" fill="#e0e0e0"/><path d="m34.26,67.57s-3.88,1.96-8.71,4.28c-4.83,2.33-8.76,4.18-8.78,4.15-.02-.03,3.88-1.96,8.71-4.28,4.83-2.33,8.76-4.19,8.78-4.15Z" fill="#e0e0e0"/><path d="m26.24,73.28c-.1.08-.21.14-.32.19l-.93.48c-.78.39-1.88.93-3.08,1.51-1.21.58-2.31,1.1-3.1,1.47l-.96.43c-.11.06-.23.1-.36.13.1-.07.21-.14.32-.19l.93-.47c.78-.4,1.88-.93,3.08-1.51,1.21-.58,2.31-1.1,3.1-1.46l.96-.43c.11-.06.23-.11.36-.14Z" fill="#e0e0e0"/><path d="m29,54.7c-.43.3-.89.55-1.37.75-.46.25-.94.45-1.44.6.43-.3.89-.55,1.37-.75.46-.25.94-.45,1.44-.6Z" fill="#e0e0e0"/><path d="m24.01,78.83c-.72.44-1.46.83-2.23,1.17-.75.39-1.52.73-2.31,1.02.72-.44,1.46-.83,2.23-1.17.75-.39,1.52-.73,2.31-1.02Z" fill="#e0e0e0"/><path d="m24.9,80.27c-.73.44-1.49.84-2.27,1.18-.76.4-1.54.74-2.34,1.04.73-.44,1.49-.84,2.27-1.19.76-.39,1.54-.74,2.34-1.03Z" fill="#e0e0e0"/><path d="m37.09,72.26c-.32.25-.68.45-1.06.6-.36.2-.74.35-1.14.45.33-.25.68-.45,1.06-.6.36-.2.74-.35,1.13-.45Z" fill="#e0e0e0"/><path d="m37.81,73.59c-.33.25-.68.45-1.06.6-.36.2-.74.35-1.13.45.32-.25.68-.45,1.06-.6.36-.2.74-.35,1.14-.45Z" fill="#e0e0e0"/><path d="m23.54,82.88c-.31.24-.66.44-1.02.58-.34.2-.71.34-1.1.44.31-.25.66-.45,1.02-.6.34-.19.71-.33,1.1-.42Z" fill="#e0e0e0"/><path d="m38.65,75.14c-.22.2-.48.35-.76.46-.26.15-.54.26-.83.32.22-.2.48-.36.76-.46.25-.16.54-.26.83-.32Z" fill="#e0e0e0"/><path d="m23.01,87.56s.06-.05.09-.07l.27-.18,1.03-.66,3.7-2.33.07-.05.03.08c.17.45.19.95.04,1.41-.08.25-.21.48-.38.67-.18.19-.4.34-.64.43-.26.1-.54.14-.82.11-.28-.03-.54-.13-.78-.29-.23-.18-.4-.42-.5-.7-.09-.28-.1-.57-.03-.86.06-.22.17-.42.32-.58.04-.04.08-.08.12-.11.04-.04.09-.07.14-.1.03-.02.07-.03.11-.03s.08,0,.11.03c.05.04.1.09.13.15.19.36.3.77.32,1.18.02.4-.04.79-.18,1.16-.12.37-.36.69-.69.91-.16.1-.35.15-.54.14-.19,0-.38-.06-.54-.17-.3-.19-.52-.47-.64-.8-.15-.59-.15-1.21,0-1.8l.02-.12.08.09c.34.39.55.87.61,1.38.04.38,0,.77-.11,1.13-.07.23-.18.44-.32.64-.05.07-.09.11-.12.14-.03.03-.04.05-.04.04.19-.26.33-.54.42-.85.1-.36.13-.73.08-1.1-.06-.49-.27-.94-.6-1.31l.1-.03c-.14.57-.14,1.17,0,1.74.11.3.31.55.58.72.14.09.3.14.46.14s.32-.04.46-.12c.29-.2.51-.5.62-.83.13-.35.19-.73.17-1.1-.02-.39-.13-.77-.32-1.11-.01-.03-.04-.06-.07-.09-.01,0-.02,0-.03,0s-.02,0-.04,0c-.08.04-.15.1-.21.17-.13.14-.22.32-.27.51-.07.25-.06.52.03.76.08.25.24.46.44.62.21.14.44.23.69.26.25.03.5,0,.73-.1.22-.09.42-.22.58-.39.16-.17.28-.38.35-.61.14-.43.13-.89-.03-1.3l.11.04-3.74,2.27-1.05.64-.28.16s-.05.04-.07.05Z" fill="#e0e0e0"/><path d="m39.57,79.51c0,.1-.02.2-.05.3-.03.12-.08.23-.15.34-.09.15-.23.27-.4.32-.1.04-.22.04-.32,0-.11-.04-.2-.12-.27-.21-.13-.19-.25-.4-.36-.61l-.78-1.46.14-.03c-.03.73-.05,1.53-.08,2.36,0,.2,0,.4-.02.59v.32l-.14-.3c-.44-.9-.84-1.74-1.2-2.46h.13c-.21.73-.31,1.48-.32,2.23,0,.55.04.86.02.86-.03-.07-.04-.15-.05-.22-.03-.21-.05-.42-.05-.64-.03-.76.06-1.52.25-2.26l.05-.18.08.17,1.22,2.45-.16.03c0-.19,0-.39.02-.59.04-.84.07-1.63.1-2.36v-.29l.13.25c.28.53.54,1.02.77,1.46.1.21.21.41.33.6.05.08.12.14.2.17.08.03.18.04.26.02.13-.04.24-.12.33-.22.09-.1.16-.22.19-.35.03-.1.07-.2.11-.3Z" fill="#e0e0e0"/><path d="m39.54,78.32s-1.29.98-2.94,2.1c-1.65,1.12-3.01,2-3.03,1.96-.03-.04,1.28-.98,2.94-2.1,1.67-1.12,3.01-2,3.03-1.96Z" fill="#e0e0e0"/><path d="m41.16,78.6c-.68.7-1.4,1.35-2.16,1.96-.72.66-1.48,1.27-2.26,1.84.68-.69,1.4-1.35,2.16-1.96.72-.66,1.48-1.27,2.26-1.84Z" fill="#e0e0e0"/><path d="m52.83,9.87h-1.34l-2.91-4.09v-2.68s-2.08-.13-1.83,3.38c.25,3.51-.02,2.61-.02,2.61,0,0-4.41.02-4.79.4-.27.28-.39,4.65-.43,7.02-.03.57.14,1.14.47,1.61.33.47.81.81,1.36.98.15.05.31.07.46.08,1.1,0,6.7-.89,6.7-.89h2.32l.02-8.41Z" fill="#f5f5f5"/><path d="m56.67,9.13l-.83,9.18h-2.3v-9l3.13-.19Z" fill="#f5f5f5"/><path d="m156.4,10.68c-.35-2.79-2.71-5.4-5.53-5.4-1.66,0-3.24.87-4.38,2.08-.4.41-.78.85-1.11,1.32-.24-.52-.51-1.03-.83-1.51-.87-1.41-2.25-2.58-3.88-2.9-2.76-.55-5.59,1.53-6.48,4.21-.89,2.67-.15,5.67,1.31,8.07,1.46,2.41,3.98,5.55,8.61,7.11,3.19-.41,7.48-3.25,9.39-5.32,1.91-2.07,3.22-4.87,2.89-7.66Z" fill="#3e385b"/><path d="m155.38,15.7s-.06,0-.09,0l-.27-.02-1.04-.09-3.83-.35.07-.04c-.46,1.2-1,2.61-1.6,4.15l-.1.25-.06-.26c-.49-2.02-1.03-4.28-1.6-6.66-.17-.74-.35-1.46-.52-2.17l.16.03-2.92,4.02-.03.04h-.05l-6.73-.7-1.91-.21-.5-.06c-.06,0-.12-.01-.17-.03.06,0,.12,0,.18,0l.5.04,1.91.17,6.73.64-.07.03,2.91-4.03.11-.16.04.19c.17.71.35,1.43.52,2.17l1.6,6.66h-.16c.6-1.54,1.15-2.95,1.63-4.15l.02-.05h.05l3.83.41,1.04.12.27.04s.05.02.08.03Z" fill="#fafafa"/><path d="m87.12,28.13h-2.11v9.44h2.11v-9.44Z" fill="#3e385b"/><path d="m81.35,31.79v2.11h9.44v-2.11h-9.44Z" fill="#3e385b"/><path d="m93.91,32.87s-.01-.08-.02-.13c0-.09-.02-.22-.03-.37,0-.08,0-.18-.02-.27-.02-.1-.03-.21-.05-.32-.04-.27-.09-.54-.17-.81-.18-.73-.48-1.43-.87-2.08-.93-1.56-2.37-2.74-4.09-3.35-1.71-.61-3.58-.6-5.28.02-.35.12-.69.27-1.02.45-.33.18-.65.39-.96.62-.31.23-.61.48-.88.75-.27.28-.53.59-.76.9-.48.65-.86,1.37-1.11,2.14-.54,1.59-.54,3.32,0,4.92.25.77.63,1.49,1.11,2.14.23.32.49.62.76.9.28.27.57.52.88.75.3.23.62.43.96.62.33.17.67.32,1.02.45,1.7.62,3.57.63,5.28.02,1.71-.61,3.15-1.79,4.09-3.34.4-.65.69-1.35.87-2.08.08-.26.13-.53.17-.81.02-.12.04-.23.05-.32,0-.09,0-.19.02-.27,0-.16.02-.28.03-.37,0-.04,0-.09.02-.13,0,.04,0,.09,0,.13v.65c0,.1-.03.21-.04.32-.03.28-.08.55-.15.82-.18.74-.47,1.46-.86,2.12-.58.97-1.35,1.81-2.28,2.46-.92.65-1.98,1.09-3.09,1.3-1.39.26-2.82.14-4.15-.33-.35-.13-.7-.28-1.04-.45-.69-.38-1.32-.85-1.88-1.39-.28-.29-.54-.59-.78-.92-.5-.66-.88-1.4-1.14-2.19-.26-.81-.4-1.66-.41-2.51.01-.85.15-1.7.41-2.51.26-.79.64-1.53,1.14-2.19.24-.32.5-.63.78-.92.28-.27.59-.53.9-.76.88-.65,1.87-1.1,2.93-1.35,1.06-.24,2.16-.27,3.23-.07,1.1.21,2.15.66,3.07,1.3.92.65,1.69,1.48,2.26,2.45.39.66.68,1.37.86,2.11.07.27.12.54.15.82,0,.12.04.23.04.32v.65s.03.09.03.14Z" fill="#39a53b"/><path d="m191.06,97.88s9.34-2.23,9.64-2.62l-7.68-19.78c-.74-2.03-1.94-3.87-3.49-5.38-1.55-1.51-3.42-2.65-5.47-3.35-2.91-1.01-5.98-1.49-9.07-1.4l-12.96-.69c-3.57.22-7.05,1.18-10.23,2.83-4.36,2.27-7.76,6.02-9.6,10.58l-5.81,14.52,14.67,3.07.56,15.6-2.21,21.52h40.47l-.28-34.12,1.44-.79Z" fill="#8000e3"/><g opacity=".3"><path d="m199.11,92.68s-2.41.84-5.42,1.76c-3.01.93-5.45,1.65-5.46,1.6-.01-.05,2.4-.84,5.42-1.77,3.02-.93,5.45-1.64,5.46-1.59Z" fill="#fff"/></g><path d="m156.75,78.78c-.09-.11-.18-.22-.25-.34-.15-.22-.37-.54-.67-.93-.34-.45-.71-.87-1.1-1.28-.48-.5-.98-.97-1.52-1.4-.54-.43-1.11-.83-1.69-1.19-.48-.29-.98-.56-1.49-.8-.43-.21-.79-.36-1.05-.46-.13-.04-.26-.1-.39-.17.14.03.27.06.41.11.36.12.72.26,1.07.41.52.23,1.03.49,1.52.78.6.36,1.17.76,1.72,1.19.54.44,1.05.92,1.53,1.43.39.42.75.86,1.08,1.32.23.31.44.63.64.96.07.12.14.24.19.37Z" fill="#263238"/><path d="m154.84,83.5s-.41,4.77-1.01,10.64c-.6,5.87-1.13,10.63-1.17,10.62-.04,0,.41-4.77,1.01-10.64.61-5.87,1.14-10.63,1.17-10.62Z" fill="#263238"/><path d="m186.71,74.69c-.09-.32-.16-.63-.21-.96-.16-.77-.38-1.54-.64-2.28-.27-.75-.59-1.47-.96-2.18-.17-.28-.32-.58-.45-.88,0,0,.07.07.17.21.1.14.23.35.39.61.4.69.74,1.42,1.01,2.18.27.75.47,1.53.6,2.32.05.3.08.55.09.72.01.09,0,.17,0,.26Z" fill="#263238"/><path d="m187.53,91.32c-.04-.15-.06-.31-.08-.47-.04-.3-.09-.74-.14-1.28-.1-1.08-.22-2.59-.27-4.25-.06-1.66-.05-3.17-.03-4.27.02-.55.03-.99.05-1.28,0-.16.02-.32.05-.47.02.16.03.31.02.47v1.28c0,1.09.01,2.59.07,4.26.06,1.66.15,3.16.23,4.25.04.52.06.96.09,1.28.02.16.02.32.01.48Z" fill="#263238"/><path d="m167.93,88.54c-3.4.2-6.82.13-10.21-.19v1.33h10.21v-1.14Z" fill="#fff"/><g opacity=".3"><path d="m178.1,66.48c.02.07.04.13.04.2l.09.59c.06.52.15,1.28.23,2.23.15,1.91.29,4.64.32,7.86v.12l-.11-.05c-2.04-.99-4.32-2.07-6.7-3.26l-11.6-5.81-3.51-1.78-.96-.49-.24-.13s-.06-.03-.08-.05c.03,0,.06.02.09.04l.25.11.96.46,3.53,1.73,11.64,5.76c2.37,1.19,4.65,2.27,6.7,3.27l-.11.07c-.04-3.21-.15-5.94-.27-7.85-.06-.96-.13-1.71-.18-2.23-.03-.25-.05-.45-.07-.59,0-.07,0-.13,0-.2Z" fill="#fff"/></g><g opacity=".3"><path d="m153.71,94.04c-.06,0-.11-.01-.17-.03l-.48-.11-1.74-.44c-1.47-.38-3.51-.89-5.76-1.44-2.25-.55-4.3-1.02-5.78-1.36l-1.76-.4-.48-.11c-.06-.01-.11-.03-.16-.05.06,0,.11,0,.17,0l.48.09c.42.08,1.02.2,1.77.35,1.49.32,3.54.76,5.8,1.31,2.26.55,4.29,1.08,5.74,1.49.73.2,1.33.37,1.73.49l.47.14c.06.02.12.04.17.08Z" fill="#fff"/></g><path d="m176.3,64.07s.88.41,1.72,1.67c.85,1.25,1.61,3.19,2.05,5.42.2,1.05.33,2.12.37,3.19,0,.49.02.96,0,1.39-.02.44-.03.84-.07,1.21-.04.37-.08.7-.11,1-.03.3-.09.54-.12.74-.02.22-.07.43-.15.64-.02-.21-.01-.43.03-.64l.07-.75c.02-.3.04-.64.06-.99.02-.35,0-.77.03-1.2.03-.43-.02-.89-.04-1.38-.07-1.05-.2-2.09-.39-3.13-.33-1.88-.98-3.69-1.91-5.35-.3-.49-.66-.94-1.06-1.35-.16-.15-.32-.31-.47-.48Z" fill="#263238"/><path d="m161.79,64.16c-.2.34-.42.66-.67.96-.61.87-1.11,1.82-1.5,2.81-.56,1.48-.93,3.02-1.11,4.58-.23,1.77-.32,3.75-.46,5.82-.14,2.07-.11,4.04-.11,5.84,0,1.8,0,3.42,0,4.79s-.04,2.47-.07,3.23c0,.4-.04.79-.12,1.18-.07-.39-.09-.79-.08-1.18-.02-.78-.05-1.87-.08-3.22-.04-1.35-.08-2.98-.11-4.79-.03-1.81-.03-3.78.08-5.87.11-2.09.24-4.05.5-5.85.21-1.6.63-3.17,1.25-4.66.43-1,.99-1.94,1.67-2.79.24-.32.51-.6.82-.84Z" fill="#263238"/><path d="m183.24,90.83c-.05-.35-.07-.7-.06-1.05-.02-.68-.03-1.66-.05-2.87,0-.61,0-1.28-.02-1.98-.02-.71,0-1.48-.04-2.26-.02-.81-.31-1.6-.81-2.23-.28-.32-.62-.58-1-.77-.38-.18-.8-.28-1.23-.3-.87,0-1.71.33-2.35.91-.6.56-1.01,1.28-1.19,2.07-.2.76-.28,1.52-.4,2.23l-.32,1.96c-.19,1.2-.35,2.17-.47,2.83-.04.35-.12.7-.22,1.03,0-.35.03-.71.09-1.05.08-.67.2-1.65.37-2.85.08-.6.18-1.26.27-1.97.1-.71.18-1.46.38-2.26.19-.86.63-1.64,1.28-2.23.7-.64,1.6-1,2.55-1.01.47.01.94.12,1.37.33.43.2.81.5,1.12.86.55.69.86,1.54.88,2.42.05.82,0,1.57,0,2.29s-.02,1.38-.03,1.98c0,1.21-.03,2.19-.06,2.87.01.35,0,.71-.04,1.06Z" fill="#263238"/><path d="m180.17,76.24c-.11,1.12-.46,2.37-1.24,3.19.68-.15,1.38-.13,2.06.04-.48-.96-.56-2.14-.55-3.22" fill="#263238"/><path d="m183.25,83.5c-.06,0-.1-.54-.5-1.28-.24-.42-.55-.8-.93-1.11-.45-.38-.99-.64-1.57-.75-.58-.1-1.18-.04-1.73.17-.46.17-.88.42-1.24.75-.62.56-.82,1.07-.88,1.04-.05-.03.1-.56.71-1.21.36-.37.8-.67,1.28-.86.6-.25,1.26-.32,1.9-.22.64.12,1.23.41,1.71.84.39.34.71.76.94,1.23.39.82.34,1.39.31,1.38Z" fill="#263238"/><path d="m191.79,119.64c1.91,0,3.6-1.37,4.49-3.04.89-1.67,1.12-3.62,1.21-5.52.23-5.03-.38-10.07-1.82-14.9l-8.32,1.45,2.27,22.42,2.18-.41Z" fill="#ffbe9d"/><path d="m158.12,122.43l27.11-.99,6.57-31.77-28.56,1.59-5.13,31.17Z" fill="#263238"/><path d="m172.07,90.71l.41-.81,2.16-.16s.55-1.42,3.64-1.57c2.77-.13,2.87,1.28,2.87,1.28h1.49v.68l-10.58.58Z" fill="#455a64"/><path d="m187.19,112.19l2.06-.6c.39-.11.79-.13,1.19-.05.48.09.93.33,1.28.67.68.67,1.78,1.78,1.93,2.11.23.48.23,1.32,0,1.62-.23.31.5,1.89.41,2.42-.05.45-.19.88-.41,1.28-.18.22,0,.97-.46,1.54-.26.33-.56.64-.87.92,0,0-5.65.26-6.2,0-.55-.26-1.51-1.28-1.51-1.28,0,0-.5-.92.27-1.01l-3.21-1.23c-.19-.07-.34-.21-.43-.38-.09-.18-.1-.38-.04-.57.02-.07.06-.13.11-.19.05-.06.11-.1.18-.13,0,0-1.44-.46-1.78-.6-.67-.29-.92-1.84.46-1.65.73.1,1.71.32,1.71.32,0,0-.53-.86.21-1.37.45-.32,2.46.07,2.46.07l2.64-1.88h0Z" fill="#ffbe9d"/><path d="m187.9,120.66c-.57.02-1.13-.07-1.67-.25-.56-.12-1.08-.36-1.54-.69.02-.04.7.29,1.6.54.9.25,1.62.37,1.61.41Z" fill="#eb996e"/><path d="m186.67,118.66c-.88-.14-1.76-.33-2.62-.58-.87-.19-1.74-.44-2.58-.74,1.76.34,3.49.78,5.2,1.33Z" fill="#eb996e"/><path d="m187.35,116.66c-1.89-.33-3.76-.77-5.6-1.31,1.89.33,3.76.77,5.6,1.31Z" fill="#eb996e"/><path d="m189.43,114.09c-.23.1-.48.18-.73.23l-.8.2-.47.12c-.18.04-.36.06-.54.05-.18-.01-.36-.04-.53-.09l-.48-.11-.8-.19c-.25-.05-.5-.12-.73-.22.25,0,.51.04.75.11l.81.16c.32.08.65.14.98.18.32,0,.65-.06.96-.15l.81-.17c.25-.07.51-.11.76-.12Z" fill="#eb996e"/><path d="m189.79,115.17s.1.06.16.21c.08.2.09.43.02.64-.06.21-.2.39-.38.51-.14.09-.24.1-.25.08,0-.02.32-.22.47-.64.06-.27.05-.54-.02-.8Z" fill="#eb996e"/><path d="m189.68,117.35s.17.21.15.52c-.02.31-.17.52-.2.5-.04-.03.03-.24.04-.51.01-.27-.03-.49.02-.51Z" fill="#eb996e"/><path d="m189.71,119.72s.13.14.09.34c-.04.2-.18.32-.21.28-.04-.04.02-.15.05-.32.03-.17.03-.28.08-.3Z" fill="#eb996e"/><path d="m190.32,113.96c-.18.02-.36.01-.54-.03l-.58-.08c-.23-.05-.46-.06-.69-.03-.22.05-.43.15-.61.28-.18.12-.32.25-.48.34-.15.11-.33.17-.52.18,0-.03.19-.08.46-.28.32-.32.71-.55,1.13-.68.13-.01.26-.01.39,0,.13,0,.24.04.35.06l.58.11c.18.02.36.07.52.13Z" fill="#eb996e"/><path d="m193.58,119.74c.04-.13.09-.26.14-.39.26-.61.3-1.28.1-1.91-.06-.28-.19-.56-.26-.9-.04-.35-.02-.7.07-1.04.04-.35-.03-.71-.18-1.02-.16-.32-.36-.63-.59-.91-.22-.28-.43-.55-.64-.79-.36-.44-.82-.8-1.34-1.04-.35-.16-.74-.22-1.12-.17-.27.04-.41.11-.41.1,0-.01.03-.03.1-.06.1-.04.21-.08.32-.1.4-.07.8-.03,1.18.12.54.24,1.02.6,1.4,1.05.22.25.44.51.66.79.24.29.44.62.61.96.17.35.24.73.2,1.12-.09.32-.11.66-.08.99.06.32.19.6.25.89.07.27.11.54.1.82-.01.4-.11.79-.28,1.15-.06.13-.14.25-.23.36Z" fill="#eb996e"/><path d="m174.61,104.04l-22.26,3.53.99-11.62-12.38-2.39-1.51,17.2-.26,3.94c-.09,1.31.17,2.63.73,3.82.57,1.19,1.43,2.21,2.5,2.97.98.69,2.11,1.15,3.29,1.33,1.19.18,2.4.08,3.54-.29l4.79-1.56,23.33-8.29" fill="#ffbe9d"/><path d="m188.08,101.63c.01-.09,0-.19-.01-.28-.03-.09-.07-.17-.13-.24-.06-.07-.14-.13-.22-.17-.09-.04-.18-.06-.27-.06-1.25,0-4.64,0-5.84.35-1.48.42-7,2.78-7,2.78l2.34,8.61,8.46.09s3.09-1.42,3.13-2.03c0-.39-.03-.77-.08-1.15l.93-.5c1.39-.88.5-2.57.5-2.57,0,0,.96-.54,1.01-1.51.02-.28-.03-.57-.17-.82-.13-.25-.33-.46-.58-.61,0,0,.38-1.37-.32-1.73-.7-.37-1.91.1-1.91.1.08-.07.14-.17.16-.27Z" fill="#ffbe9d"/><path d="m188.56,101.77c-.08.04-.17.08-.26.09-.17.05-.42.1-.73.16-.64.11-1.49.2-2.44.32-.81.07-1.62.2-2.42.37-.61.14-.96.32-.96.32.07-.06.15-.11.23-.15.23-.11.46-.2.7-.27.8-.21,1.61-.35,2.43-.42.96-.1,1.82-.18,2.44-.26.62-.08.99-.18,1-.16Z" fill="#eb996e"/><path d="m190.16,103.5c-.18.13-.38.24-.6.3-.5.19-1.01.34-1.54.45-.62.13-1.17.21-1.6.26-.22.04-.44.06-.66.05,0-.06.99-.23,2.21-.48.52-.11,1.03-.24,1.54-.4.21-.08.43-.15.65-.19Z" fill="#eb996e"/><path d="m189.9,106.5c-1.17.54-2.43.82-3.71.84,0-.05.84-.16,1.86-.39,1.02-.23,1.85-.5,1.85-.45Z" fill="#eb996e"/><path d="m189.4,109.06c-.89.45-1.87.69-2.87.69.96-.22,1.92-.46,2.87-.69Z" fill="#eb996e"/><path d="m184.98,107.55s-.09.07-.26.09c-.23.02-.45-.04-.64-.17-.19-.13-.32-.33-.38-.55-.04-.17-.02-.27,0-.27s.09.41.47.68c.25.14.52.21.8.22Z" fill="#eb996e"/><path d="m184.8,110.21s-.32.06-.62-.19c-.3-.26-.32-.6-.26-.59.05,0,.13.26.38.47.25.21.51.27.51.32Z" fill="#eb996e"/><path d="m183.84,104.77s-.21.12-.43-.05-.21-.41-.16-.4c.05,0,.1.16.26.27.16.12.31.13.33.18Z" fill="#eb996e"/><path d="m174.61,104.04l.07-.04.2-.09.78-.35c.69-.3,1.69-.73,2.95-1.25.64-.26,1.33-.54,2.09-.82.39-.16.8-.28,1.21-.38.45-.08.9-.13,1.35-.17.93-.07,1.91-.11,2.93-.12h1.17c.15,0,.29.02.42.09.14.07.25.18.32.32.07.14.08.3.04.45-.02.05-.05.08-.1.11l-.1.06-.19.09c-.13.06-.26.1-.4.14-.02,0-.04,0-.06,0-.02-.01-.03-.03-.04-.05,0-.01,0-.02,0-.03,0-.01,0-.02,0-.03s.01-.02.02-.02c0,0,.02-.01.03-.01.35-.1.7-.18,1.05-.24.37-.07.74-.08,1.12-.04.2.02.39.1.55.24.14.15.24.34.27.54.06.39.03.78-.07,1.16l-.04-.1c.18.11.34.25.47.42.16.21.26.46.3.72.04.26.02.53-.06.78-.17.49-.51.89-.96,1.16l.03-.11c.23.46.32.97.27,1.47-.04.25-.13.48-.26.69-.14.21-.32.38-.53.51l-.93.5.04-.08c.02.22.04.45.06.67,0,.11,0,.22.02.32v.17c0,.07-.03.13-.07.18-.13.18-.3.33-.48.46-.17.13-.35.24-.53.35-.68.4-1.38.77-2.1,1.1h-.03l-6.16-.1-1.7-.03-.45-.02c-.05,0-.1,0-.15,0,.05,0,.1,0,.15,0h2.15l6.16.03h-.03c.71-.33,1.41-.7,2.08-1.1.17-.11.35-.22.51-.34.17-.11.32-.26.44-.42.02-.03.04-.07.05-.11v-.48c-.02-.22-.04-.44-.06-.66,0-.02,0-.03,0-.04,0-.01.02-.03.03-.03l.93-.5c.19-.12.36-.28.49-.47.12-.19.21-.4.24-.63.05-.47-.04-.95-.26-1.38,0-.02,0-.04,0-.06,0-.02.02-.04.04-.05.41-.24.73-.62.89-1.07.07-.23.09-.47.05-.71-.04-.24-.13-.46-.27-.65-.11-.15-.25-.27-.41-.36-.02,0-.03-.02-.04-.04,0-.02,0-.04,0-.06.1-.35.12-.72.07-1.09-.02-.17-.1-.33-.22-.44-.12-.12-.29-.19-.46-.19-.36-.04-.71-.03-1.07.04-.35.05-.69.13-1.03.23l-.04-.16c.13-.03.26-.08.38-.13.06-.03.12-.05.18-.08.05-.03.11-.09.13-.08.01-.11,0-.23-.05-.33-.05-.1-.14-.19-.24-.25-.11-.05-.23-.08-.35-.07h-1.17c-1.02,0-2,.04-2.92.11-.45.03-.89.08-1.33.16-.41.09-.81.21-1.2.36-.76.28-1.46.56-2.1.8l-2.97,1.2-.79.32-.21.08h-.12Z" fill="#eb996e"/><path d="m152.44,107.55c-.61.4-1.16.88-1.64,1.42-.44.58-.81,1.21-1.1,1.88.02-.22.07-.44.17-.64.39-.99,1.09-1.82,1.99-2.39.18-.12.38-.21.59-.27Z" fill="#eb996e"/><path d="m181.5,38.72c-.22-2.82-1.49-5.45-3.57-7.37-2.07-1.92-4.79-2.99-7.62-3h-.58c-6.28.35-9.49,5.88-8.96,12.15l1.08,25.12c0,.21.07.4.18.58.11.17.27.31.45.4l14.09,6.61-.41-13.19s6.04-.93,6.12-6.96c.02-2.91-.38-8.92-.8-14.36Z" fill="#ffbe9d"/><path d="m176.22,60.01c-2.8,0-5.55-.81-7.9-2.33,0,0,1.85,4.34,7.87,3.83l.03-1.5Z" fill="#eb996e"/><path d="m179.37,42.47c0,.22-.08.44-.24.6-.15.16-.37.26-.59.27-.11,0-.22,0-.32-.04-.1-.03-.2-.09-.28-.16-.08-.07-.15-.16-.2-.26-.05-.1-.07-.21-.08-.32,0-.22.08-.44.24-.6.15-.16.37-.26.59-.26.11,0,.22,0,.32.04.1.03.2.09.28.16.08.07.15.16.2.26.05.1.08.21.08.32Z" fill="#263238"/><path d="m180.2,41.67c-.11.11-.76-.37-1.69-.37s-1.59.47-1.71.35c-.05-.05.06-.25.35-.47.4-.28.88-.42,1.37-.42.48,0,.95.15,1.34.44.28.22.38.42.33.47Z" fill="#263238"/><path d="m170.25,42.75c0,.22-.08.44-.24.6-.16.16-.37.26-.59.26-.11,0-.22,0-.32-.04-.1-.03-.2-.09-.28-.16-.08-.07-.15-.16-.2-.26-.05-.1-.08-.21-.08-.32,0-.22.09-.44.24-.6.16-.16.37-.26.59-.26.11,0,.22,0,.32.04.1.03.2.09.28.16.08.07.15.16.2.26s.07.21.08.32Z" fill="#263238"/><path d="m171.08,41.83c-.1.11-.76-.37-1.68-.37s-1.6.46-1.71.35c-.05-.05.06-.25.36-.47.4-.28.88-.43,1.37-.42.48,0,.95.15,1.34.44.29.21.39.42.33.47Z" fill="#263238"/><path d="m174.44,48.71c0-.05.57-.15,1.51-.27.24-.03.46-.07.5-.23.02-.24-.03-.49-.16-.7l-.7-1.81c-.96-2.55-1.67-4.68-1.56-4.72.1-.04.96,2.01,1.94,4.58l.67,1.82c.15.29.19.61.12.93-.04.08-.09.16-.16.22-.07.06-.15.1-.24.13-.13.04-.27.05-.4.06-.94.05-1.52.05-1.52,0Z" fill="#263238"/><path d="m171.72,49.34c.15,0,.15,1,1.01,1.71.86.72,1.93.61,1.94.75,0,.06-.24.2-.69.21-.59,0-1.16-.19-1.62-.57-.44-.36-.72-.87-.78-1.44-.05-.42.06-.67.14-.66Z" fill="#263238"/><path d="m171.33,38.19c-.09.25-1.02.13-2.1.26-1.09.13-1.97.42-2.12.2-.06-.11.09-.35.45-.59.47-.3,1.01-.49,1.57-.55.56-.07,1.12,0,1.65.2.4.16.6.36.56.48Z" fill="#263238"/><path d="m179.87,38.99c-.17.21-.8,0-1.57-.02-.77-.02-1.42.14-1.57-.08-.07-.11.04-.32.32-.52.38-.24.83-.36,1.27-.34.45.01.88.16,1.25.42.27.22.36.43.29.54Z" fill="#263238"/><path d="m161.68,44.97c-.1-.04-4.15-1.23-4.02,2.89.13,4.13,4.24,3.15,4.24,3.03,0-.12-.22-5.92-.22-5.92Z" fill="#ffbe9d"/><path d="m160.96,49.37s-.07.05-.19.11c-.17.08-.36.09-.54.03-.44-.15-.83-.83-.87-1.57-.02-.35.04-.71.17-1.03.04-.13.1-.25.19-.35.09-.1.21-.17.33-.22.08-.02.17-.02.25.01.08.03.14.09.18.17.06.11.04.2.05.2.02,0,.09-.07.05-.24-.03-.1-.09-.19-.17-.26-.12-.08-.26-.12-.4-.09-.17.04-.32.12-.45.23-.13.12-.23.26-.28.43-.17.36-.24.76-.21,1.16.05.83.5,1.6,1.1,1.75.11.03.22.03.33,0,.11-.02.21-.07.3-.14.14-.09.16-.2.15-.2Z" fill="#eb996e"/><path d="m164.38,32.71l17.2.38c-.59-1.17-1.45-2.17-2.53-2.92-2.24-1.73-4.96-2.71-7.79-2.8-2.8-.05-8.52,3.37-10.55,5.3-1.63,1.55-1.62,2.89-1.62,2.89-.26,2.23.99,4.77,1.49,6.96.26,1.13.75,4.55.75,4.55.96,0,1.3-.76,1.15-1.69l-.18-3.68s3.22-2.29,1.69-6.48c-.24-.34-.76-1.87.37-2.49Z" fill="#263238"/><path d="m168,45.76s-.03,0-.04,0c-.01,0-.02-.01-.03-.02-.01,0-.02-.02-.02-.03,0-.01,0-.03,0-.04,0-.03,0-.06.01-.08.01-.02.04-.04.07-.05.03,0,.06,0,.08.02.02.02.04.04.04.07,0,.02,0,.03,0,.05,0,.02,0,.03-.02.04,0,.01-.02.02-.03.03-.01,0-.03.01-.05.02Z" fill="#eb996e"/><path d="m169.77,45.36c-.06,0-.11-.04-.13-.11,0-.03,0-.06,0-.09.01-.03.04-.05.07-.06.03,0,.06,0,.08.03.02.02.04.05.04.08,0,.03,0,.06,0,.09-.01.03-.04.05-.07.06Z" fill="#eb996e"/><path d="m170.96,45.34c-.06,0-.11-.06-.12-.15-.01-.09.03-.17.08-.18.06,0,.11.06.12.15.01.09-.03.18-.08.18Z" fill="#eb996e"/><path d="m168.86,46.87c-.05,0-.1-.03-.1-.06s.05-.07.1-.07.1.03.1.07-.04.06-.1.06Z" fill="#eb996e"/><path d="m170.49,46.5s-.06,0-.08-.03c-.02-.02-.04-.05-.04-.08,0-.03,0-.06.03-.08.02-.02.05-.04.08-.04.01,0,.03,0,.04,0,.01,0,.02.01.04.02.01,0,.02.02.02.03s0,.03,0,.04c0,.03,0,.06-.02.08-.02.02-.04.04-.07.04Z" fill="#eb996e"/><path d="m178.95,45.51s-.03,0-.04,0c-.01,0-.03,0-.04-.02-.01,0-.02-.02-.03-.03,0-.01-.01-.03-.01-.04,0-.03,0-.06.01-.08.01-.02.04-.04.06-.05.03,0,.06,0,.08.02.02.02.04.04.04.07,0,.01,0,.03,0,.04,0,.01,0,.03-.01.04,0,.01-.02.02-.03.03-.01,0-.02.01-.04.02Z" fill="#eb996e"/><path d="m180.16,45.4s-.05,0-.08,0c-.03,0-.05-.02-.07-.05-.02-.02-.03-.05-.03-.07,0-.03,0-.05.02-.08.01-.02.04-.04.06-.05.02,0,.05-.01.08,0,.03,0,.05.02.07.04.02.02.03.05.03.07,0,.03,0,.06-.02.09-.02.03-.04.04-.07.05Z" fill="#eb996e"/><path d="m177.88,45.53s-.05,0-.07-.01c-.02-.01-.04-.03-.05-.06,0-.03,0-.05.01-.08.02-.02.04-.04.07-.04.03,0,.05,0,.08.01.02.01.04.04.04.06,0,.03,0,.05-.02.07-.01.02-.04.03-.06.04Z" fill="#eb996e"/><path d="m178.78,46.74s-.05.02-.07.02c-.02,0-.05,0-.07-.02-.02-.01-.03-.04-.04-.06,0-.02,0-.05,0-.07,0-.02.02-.04.04-.06.02-.02.04-.02.07-.03.03,0,.05,0,.07.02.02.01.04.03.05.05.01.03.02.06,0,.08,0,.03-.03.05-.05.07Z" fill="#eb996e"/><path d="m179.81,46.54s-.05-.02-.06-.04c-.01-.02-.02-.05-.02-.07.01-.02.03-.04.05-.05.02,0,.05-.01.07,0,.02,0,.04.02.06.04.01.02.02.04.02.07,0,.02-.03.04-.05.05-.02.01-.05.01-.07,0Z" fill="#eb996e"/><path d="m160.61,32.9c-.19-.76-.2-1.56-.04-2.33s.51-1.49,1-2.1c.49-.61,1.12-1.1,1.83-1.43.71-.33,1.49-.49,2.28-.47.8.03,1.6.26,2.4.17,1.49-.16,2.64-1.36,4.02-1.94,1.09-.43,2.29-.47,3.41-.14,1.12.34,2.1,1.04,2.77,1.99.52.78.87,1.75,1.67,2.23.69.42,1.57.39,2.34.64,1.58.47,2.65,2.15,2.57,3.79-.07.82-.36,1.61-.84,2.28-.48.67-1.14,1.19-1.9,1.51-.77.31-1.59.44-2.41.38-.82-.06-1.62-.29-2.34-.7-1.3-.72-2.46-1.96-3.95-1.91-1.54.04-2.87,1.49-4.39,1.19-.79-.16-1.4-.77-1.98-1.33-.58-.56-1.24-1.13-2.05-1.18-.81-.05-1.23,1.06-.93,1.81l-3.47-2.49Z" fill="#263238"/><path d="m181.26,30.9s-.02.04-.03.06c-.03.06-.06.11-.1.17-.14.21-.31.4-.49.56-.3.26-.65.46-1.02.59-.5.17-1.04.2-1.56.09-.63-.13-1.21-.46-1.65-.94-.47-.51-.75-1.21-1.19-1.81-.21-.31-.5-.57-.83-.75-.35-.18-.75-.26-1.14-.25-.41.01-.81.12-1.17.32-.37.21-.66.51-.86.89-.21.38-.36.79-.61,1.16-.12.19-.28.35-.47.47s-.41.19-.63.2c-.42,0-.84-.11-1.2-.34-.33-.21-.64-.47-.91-.76-.53-.54-1.06-1.07-1.71-1.22-.3-.06-.61-.05-.91.02-.3.07-.58.2-.82.39-.42.3-.75.71-.96,1.17-.16.35-.28.73-.36,1.11-.06.32-.09.56-.11.73,0,.09-.02.17-.04.26,0-.02,0-.04,0-.07v-.19c.01-.25.04-.5.09-.74.06-.39.17-.77.32-1.13.21-.49.54-.91.96-1.23.26-.2.55-.34.87-.42s.64-.08.96-.02c.71.15,1.25.71,1.78,1.24.26.28.56.52.89.73.33.21.72.32,1.11.32.2-.02.39-.08.56-.18.17-.1.31-.25.42-.42.23-.34.38-.76.6-1.15.21-.4.53-.73.93-.96.38-.21.81-.32,1.25-.33.42,0,.84.09,1.22.27.35.19.66.47.88.8.45.64.72,1.31,1.17,1.81.42.46.96.78,1.57.91.5.11,1.02.09,1.51-.07.37-.12.71-.31,1.01-.55.26-.21.5-.46.7-.74Z" fill="#455a64"/><path d="m184.37,30.98c.04.1.07.21.07.32.03.31,0,.62-.09.92-.12.45-.34.86-.64,1.21-.37.43-.84.77-1.36.99-.95.39-1.99.5-3,.34-.3-.04-.6-.1-.9-.18-.11-.02-.22-.06-.32-.11,0-.03.47.09,1.23.17.99.13,1.99,0,2.92-.37.5-.21.95-.53,1.31-.94.29-.33.51-.73.64-1.15.11-.39.15-.8.13-1.21Z" fill="#455a64"/><path d="m155.01,97.44c.07.65.32,1.27.72,1.79.37.48,1.12.96,1.72.92.46.02.91-.07,1.31-.28.41-.2.75-.51,1.01-.89.74-1.17.92-3.6.32-5.04-.4-.99-1.32-1.91-2.39-1.94-1.4-.03-2.28.98-2.58,2.01" fill="#e0e0e0"/><path d="m155.13,94.01c.05-.24.14-.48.26-.69.14-.26.32-.49.53-.69.28-.27.62-.47.99-.58.22-.07.44-.1.67-.11.25-.01.49.02.73.1.51.18.97.51,1.31.93.38.46.64,1.01.77,1.6.14.62.18,1.26.14,1.89-.07,1-.26,1.99-.82,2.75-.27.36-.64.63-1.06.8-.38.15-.79.22-1.2.2-.3,0-.6-.07-.86-.21-.23-.12-.45-.27-.64-.45-.3-.3-.54-.65-.71-1.05-.11-.25-.18-.51-.22-.78,0-.07-.02-.14-.02-.21,0-.02,0-.05,0-.07.06.35.17.7.32,1.03.17.37.41.71.71,1,.19.17.41.31.64.42.25.13.52.19.8.19.4.02.81-.06,1.18-.22.37-.17.69-.42.95-.73.51-.71.71-1.69.78-2.67.07-1.28-.14-2.53-.86-3.38-.32-.41-.74-.72-1.23-.9-.22-.07-.45-.11-.69-.1-.22,0-.43.03-.64.09-.36.1-.68.29-.96.54-.21.19-.4.41-.54.65-.12.21-.22.43-.32.66Z" fill="#263238"/><path d="m154.27,97.5c.07.65.32,1.27.72,1.79.37.48,1.12.96,1.72.92.46.02.91-.07,1.31-.28.41-.2.75-.51,1.01-.89.73-1.17.92-3.6.32-5.04-.4-.99-1.31-1.91-2.38-1.94-.59,0-1.17.19-1.64.55-.47.36-.8.88-.94,1.45" fill="#e0e0e0"/><path d="m154.39,94.07c.05-.24.13-.47.26-.69.14-.26.32-.49.53-.69.45-.43,1.04-.68,1.66-.69.25-.01.5.02.73.1.52.18.97.5,1.3.93.38.46.64,1.01.77,1.6.13.62.18,1.26.14,1.89-.06,1-.26,1.99-.81,2.75-.27.36-.64.63-1.06.8-.38.15-.79.22-1.2.2-.3,0-.6-.07-.86-.21-.23-.12-.45-.27-.64-.45-.3-.3-.54-.66-.71-1.05-.11-.25-.18-.51-.22-.77-.01-.07-.02-.14-.02-.21,0-.02,0-.05,0-.07.06.35.17.7.32,1.02.17.38.41.72.71,1,.19.17.41.31.64.42.25.13.52.19.8.19.4.02.81-.06,1.18-.22.37-.17.69-.42.94-.73.51-.71.71-1.69.77-2.67.07-1.28-.14-2.53-.86-3.38-.32-.41-.74-.72-1.23-.9-.22-.07-.45-.11-.69-.1-.22,0-.43.03-.64.09-.36.1-.68.29-.96.54-.21.19-.39.41-.54.65-.12.21-.23.43-.32.65Z" fill="#263238"/><path d="m155.62,93.71c-.35-.04-.71.03-1.02.21-.31.18-.55.45-.69.78-.26.67-.26,1.41,0,2.08.11.35.29.67.53.94.25.27.59.44.96.46.27-.01.53-.09.76-.23.23-.14.43-.33.57-.55.25-.35.41-.75.49-1.17.08-.42.06-.86-.04-1.27-.15-.56-.55-1.12-1.12-1.14" fill="#e0e0e0"/><path d="m156.04,93.83h.12c.12.01.24.05.35.12.19.12.35.29.48.47.13.19.21.4.25.62.15.65.08,1.34-.2,1.95-.16.36-.41.69-.71.94-.17.14-.37.25-.58.3-.21.05-.44.05-.65,0-.42-.13-.77-.42-.99-.8-.2-.34-.33-.72-.41-1.1-.08-.32-.09-.66-.04-.99.05-.33.18-.64.36-.92.13-.19.29-.34.49-.47.19-.12.4-.2.63-.24.12-.02.24-.02.36,0,.08.02.12.03.12.04-.16,0-.32,0-.48.03-.42.1-.79.35-1.03.71-.17.27-.27.57-.32.89-.05.31-.03.63.05.94.08.37.21.72.4,1.05.19.35.51.61.89.73.19.05.39.05.57,0s.36-.14.51-.26c.29-.23.52-.53.68-.87.28-.58.35-1.23.22-1.86-.07-.42-.3-.81-.64-1.07-.14-.09-.29-.15-.45-.19Z" fill="#263238"/><path d="m157.23,98.95s-.06-.1-.17-.23c-.14-.16-.33-.28-.54-.35-.22-.06-.44-.1-.67-.11-.18,0-.29-.03-.29-.05,0-.02.11-.05.29-.07.24-.03.49,0,.72.06.24.07.45.23.59.44.1.17.09.29.07.3Z" fill="#263238"/><path d="m157.48,93.28s-.05.11-.2.23c-.2.15-.43.25-.67.29-.24.05-.49.03-.73-.04-.18-.06-.28-.13-.27-.15.32.05.64.06.96.03.32-.08.62-.2.91-.36Z" fill="#263238"/><path d="m69.58,37.48c.04-1.39-1.24-2.46-2.55-2.97-1.31-.51-2.73-.7-3.89-1.48-1.02-.69-1.71-1.76-2.57-2.64-1.07-1.08-2.4-1.86-3.87-2.25-1.47-.39-3.01-.39-4.48,0-1.47.4-2.8,1.18-3.86,2.27-1.06,1.08-1.82,2.43-2.19,3.91-.49,1.98-.16,4.32,1.4,5.63,1.81,1.52,4.49,1.19,6.81.71,2.32-.48,4.95-.96,6.88.42,1.17.82,1.84,2.16,2.55,3.4.71,1.24,1.6,2.5,2.96,2.96,1.37.47,3.19-.34,3.24-1.76" fill="#263238"/><path d="m69.49,38.24c-.15,1.16.69,2.21,1.53,3.03.84.82,1.79,1.69,1.94,2.87.17,1.36-.82,2.7-.53,4.05.18.85.85,1.51,1.25,2.28.53,1.12.62,2.39.25,3.57-.34,1.17-.9,3.79-1.71,4.71-2.26,2.52-5.84,4.7-9.14,5.45-3.3.76-6.72.76-10.1.56-2.76-.17-5.94-.04-8.25-3.84-1.19-1.97-1.78-4.59-2.41-6.8-.55-1.91-1.02-3.95-.45-5.85.32-1.1,1-2.09,1.32-3.19.41-1.38.26-2.87.42-4.3.18-1.56.73-3.06,1.6-4.36.87-1.31,2.04-2.38,3.42-3.15,1.37-.76,2.91-1.18,4.48-1.23,1.57-.05,3.13.28,4.55.95" fill="#263238"/><path d="m44.92,43.01c.26-3.97,2.9-8.83,6.85-8.4l12.33,3.15c.58.06,1.11.34,1.5.78.38.44.59,1,.58,1.59l-1.39,29.76.09.02s-2.81,8.39-10.97,5.83c-1.62-.51-2.36-2.28-2.68-4.1h-.08v-.64c-.16-1.36-.17-2.73-.05-4.09-.02-2.4-.02-3.38-.02-3.36,0,.02-5.07-.85-6.1-7.47-.53-3.26-.35-8.65-.06-13.06Z" fill="#ffbe9d"/><path d="m46.9,47c0,.22.08.43.23.59.15.16.36.25.58.26.11,0,.22,0,.32-.04.1-.03.2-.09.28-.16s.15-.16.2-.25c.05-.1.08-.2.08-.31,0-.22-.08-.43-.23-.6-.15-.16-.36-.25-.58-.26-.11,0-.22,0-.32.04-.1.03-.2.09-.28.16-.08.07-.15.16-.2.25-.05.1-.08.2-.08.31Z" fill="#263238"/><path d="m46.08,45.82c.11.11.75-.36,1.66-.36s1.6.46,1.68.35c.05-.05-.06-.25-.35-.46-.39-.28-.86-.42-1.34-.42-.47,0-.94.14-1.32.42-.28.22-.38.41-.33.47Z" fill="#263238"/><path d="m55.87,47c0,.22.08.43.23.6.15.16.36.25.58.26.11,0,.22,0,.32-.04.1-.03.2-.09.28-.16.08-.07.15-.16.2-.25s.07-.2.08-.31c0-.22-.08-.43-.23-.59-.15-.16-.36-.25-.58-.26-.11,0-.22,0-.32.04-.1.03-.2.09-.28.16-.08.07-.15.16-.2.26-.05.1-.08.2-.08.31Z" fill="#263238"/><path d="m55.05,46.01c.11.11.75-.36,1.66-.36.91,0,1.58.46,1.68.35.05-.05-.06-.25-.35-.46-.39-.27-.86-.42-1.34-.42-.47,0-.94.15-1.32.42-.28.21-.38.43-.33.46Z" fill="#263238"/><path d="m51.72,52.77c0-.05-.56-.15-1.48-.27-.23-.02-.45-.07-.49-.23-.02-.24.04-.48.16-.69l.69-1.77c.96-2.52,1.66-4.6,1.56-4.64s-.96,1.97-1.91,4.5c-.23.62-.46,1.22-.66,1.78-.15.28-.19.6-.12.91.03.08.09.16.15.21.07.06.15.1.23.13.13.04.26.05.4.06.91.05,1.49.06,1.49,0Z" fill="#263238"/><path d="m51.07,63.57c3.11.05,6.18-.76,8.86-2.34,0,0-2.23,4.57-8.85,3.94v-1.6Z" fill="#eb996e"/><path d="m52.1,54.97c.17-.22.4-.39.66-.49.26-.11.54-.14.82-.11.2.02.4.08.58.17.18.1.34.23.46.39.12.15.19.34.2.53.01.19-.04.39-.14.55-.15.16-.34.28-.55.34-.21.05-.44.04-.64-.04-.43-.15-.83-.39-1.16-.7-.1-.07-.19-.16-.26-.27-.03-.05-.05-.11-.05-.17s.02-.12.05-.17" fill="#eb996e"/><path d="m54.4,53.41c-.15,0-.15.98-1,1.68-.85.7-1.91.59-1.91.73,0,.06.24.19.68.2.58,0,1.15-.19,1.6-.55.43-.35.71-.86.78-1.41.04-.41-.06-.66-.13-.65Z" fill="#263238"/><path d="m54.64,44.41c.09.25,1,.13,2.07.26,1.07.13,1.94.42,2.08.2.06-.11-.09-.34-.44-.58-.46-.3-.99-.49-1.54-.54-.55-.07-1.1,0-1.62.18-.39.16-.59.35-.56.47Z" fill="#263238"/><path d="m46.42,43.18c.16.21.79,0,1.55,0s1.39.14,1.54-.07c.06-.11-.04-.32-.32-.51-.37-.24-.81-.36-1.25-.34s-.87.16-1.23.41c-.26.2-.36.41-.28.51Z" fill="#263238"/><path d="m68.71,59.51c-.91.18-1.86.15-2.75-.1-.9-.25-1.72-.72-2.4-1.35s-1.2-1.42-1.52-2.3c-.32-.88-.42-1.81-.31-2.74.2-1.62,1.08-3.28.52-4.81-.74-2.03-3.59-2.66-4.35-4.69-.44-1.18-.04-2.55-.54-3.71-.47-1.09-1.61-1.71-2.72-2.12-1.11-.4-2.3-.68-3.24-1.4-.93-.72-1.52-2.1-.91-3.11,4.94.59,9.79,1.77,14.45,3.51,1.08.4,2.21.89,2.85,1.85.68,1.01.64,2.33.59,3.54l-.83,17.81" fill="#263238"/><path d="m68.3,61.79s.04-.02.11-.07l.29-.22c.26-.2.64-.5,1.09-.91.57-.49,1.09-1.04,1.55-1.63.63-.79,1.06-1.73,1.24-2.72.13-.61.12-1.23-.03-1.84-.15-.6-.43-1.16-.82-1.64-.48-.48-.99-.92-1.54-1.31-.55-.42-.97-.98-1.2-1.63-.49-1.35-.27-2.91-.46-4.5-.19-1.66-.84-3.24-1.88-4.56-.54-.66-1.2-1.2-1.96-1.6-.74-.34-1.52-.6-2.31-.78-.74-.19-1.43-.53-2.03-1-.56-.47-1.06-1.02-1.47-1.62-.83-1.18-1.45-2.44-2.23-3.49-.37-.51-.81-.98-1.3-1.38-.46-.37-.98-.66-1.54-.84-.48-.18-.99-.25-1.5-.2-.51.05-1,.22-1.43.49-.3.24-.56.54-.74.88-.18.34-.28.72-.31,1.1-.04.49.1.97.4,1.36.08.1.17.19.27.26.03.03.07.05.11.07-.03-.03-.06-.06-.09-.09-.09-.08-.17-.17-.24-.27-.26-.39-.37-.85-.32-1.32.03-.36.14-.72.31-1.04.18-.32.42-.6.71-.82.41-.25.88-.4,1.36-.44.48-.04.97.03,1.41.21.53.18,1.03.46,1.47.82.47.4.89.85,1.25,1.35.77,1.03,1.37,2.29,2.21,3.51.43.63.94,1.2,1.52,1.69.62.49,1.33.84,2.1,1.04.78.18,1.54.43,2.26.77.72.38,1.36.9,1.87,1.53,1.01,1.27,1.64,2.79,1.82,4.4.19,1.54-.03,3.13.49,4.56.25.69.69,1.3,1.28,1.74.54.39,1.05.81,1.52,1.28.37.45.64.98.79,1.55.14.57.16,1.16.04,1.74-.16.97-.56,1.88-1.16,2.66-.45.59-.95,1.15-1.5,1.65-.45.42-.81.73-1.06.96-.12.1-.24.21-.35.32Z" fill="#455a64"/><path d="m69.51,62.61c1.36-1.31,3.68-.17,4.82,1.33,1.14,1.51,1.95,3.45,3.68,4.21s3.98.11,5.42,1.31c2,1.67.88,5.52,3.05,6.97.86.57,1.99.56,2.91,1.03,2.17,1.12,2.14,4.17,1.81,6.59-.46,3.4-.97,6.91-2.84,9.78-1.87,2.87-5.51,4.88-8.74,3.77-3.11-1.06-4.71-4.42-5.98-7.45-1.75-4.21-3.5-8.4-5.25-12.59-1.01-2.43-2.04-4.89-2.36-7.5-.33-2.61.11-5.42,1.77-7.47" fill="#263238"/><path d="m70.38,59.71c.99-.12,1.74,1.09,1.48,2.05-.26.96-1.18,1.6-2.12,1.91-.52.21-1.08.27-1.64.19-.28-.04-.54-.16-.75-.33-.22-.18-.39-.4-.49-.67-.1-.22-.11-.48-.03-.71.08-.23.26-.42.48-.53.64-.41,1.03-.72,1.54-1.01.78-.43.74-.49,1.52-.92" fill="#b19eca"/><path d="m47.66,70.35l3.83-2.91,14.45-.93.58,1.94-4.7,29.34,3.71,35h-20.17l2.29-62.45Z" fill="#8000e3"/><g opacity=".3"><path d="m63.13,120.38c-.46-.49-1.22-1.17-1.89-1.19-4.83-.11-9.76-.59-14.59-.69l-.39,14.31c1.15-2.04,2.25-4.15,2.55-6.48.13-1.01.32-2.23,1.23-2.66.52-.25,1.14-.15,1.7-.04,1.74.35,3.48.79,5.25.91,1.77.11,3.63-.15,5.12-1.12.53-.31.95-.77,1.22-1.32.13-.28.18-.58.14-.89-.04-.3-.16-.59-.36-.83Z"/></g><path d="m50.78,70.94l-.45-4.2c-.02-.18,0-.35.05-.52.05-.17.13-.33.25-.46.11-.14.25-.25.41-.33.16-.08.33-.13.5-.15l13.3-1.2c.09,0,.17,0,.25.03.08.03.16.07.22.13.06.06.12.13.15.2.04.08.06.16.06.25l.15,4.99-3.85,6.54-3.96,1.26h-4.84l-2.78-2.97.55-3.56Z" fill="#b19eca"/><path d="m63.71,68.08c-.18,0-.36-.03-.53-.05-.48-.05-.97-.05-1.45-.03-.72.05-1.43.16-2.13.32-.79.17-1.66.4-2.57.62-.86.22-1.74.38-2.62.47-.73.07-1.46.02-2.17-.15-.48-.11-.94-.3-1.35-.56-.11-.07-.22-.15-.32-.24-.07-.06-.11-.09-.1-.1,0,0,.16.11.46.27.42.23.88.4,1.35.5.7.15,1.42.18,2.13.11.88-.09,1.74-.25,2.59-.48.91-.22,1.78-.45,2.58-.61.71-.15,1.43-.24,2.16-.27.49-.02.98,0,1.46.08.17.03.3.06.39.08.08.01.13.03.12.03Z" fill="#263238"/><g opacity=".3"><path d="m51.1,68.74c-.36.98-.37,2.19.36,2.94.59.61,1.53.77,2.37.6.82-.21,1.61-.56,2.31-1.04,1.83-1.09,3.69-2.22,5.77-2.68.14-.02.27-.07.37-.16.02-.02.04-.05.06-.08.01-.03.02-.06.02-.1s0-.07-.02-.1c-.01-.03-.03-.06-.06-.08-.05-.03-.11-.05-.17-.05-1.84-.18-3.67.32-5.47.74-1.8.42-3.73.69-5.47.06"/></g><path d="m53.64,65.15c-.19.1-.34.25-.46.43-.21.34-.2.91-.18,1.53.04,1.24.24,2.23.19,2.23-.09-.2-.15-.42-.18-.64-.1-.53-.16-1.06-.18-1.6-.01-.3,0-.59.02-.89.02-.25.1-.49.23-.71.09-.14.22-.26.37-.33.11-.04.18-.04.18-.04Z" fill="#263238"/><path d="m57.16,68.79c0-.68-.03-1.35-.1-2.03-.15-1.11-.52-1.96-.47-1.98.12.16.21.34.27.54.17.46.3.93.37,1.41.07.48.08.97.04,1.46,0,.2-.04.4-.11.59Z" fill="#263238"/><path d="m61.44,64.43c.12.14.2.31.25.49.14.43.2.88.18,1.33-.03.45-.15.89-.35,1.3-.07.17-.18.33-.32.46.29-.55.46-1.15.5-1.76.04-.62-.05-1.24-.26-1.82h0Z" fill="#263238"/><path d="m42.78,72.24s-4.54,3.04-5.74,8.52c-.94,4.31-3.51,27.1-3.51,27.1l-4.5,8.75,2.93,6.98c2.51.18,5.01-.53,7.05-2.01l1.97-1.43,3.62-5.37-1.83-42.53Z" fill="#ebebeb"/><path d="m50.47,68.21l-7.69,4.03-1.82,5.96-1.62,17.29,3.04,20.27-5.34,16.98,9.21.07.22-9.95.92-32.22.9-20.53,2.17-1.89Z" fill="#ebebeb"/><path d="m46.75,95.08c-.05-.08-.1-.16-.14-.24l-.38-.71c-.16-.32-.32-.71-.51-1.16-.09-.23-.17-.48-.26-.75-.09-.26-.19-.55-.27-.85-.72-2.39-1.2-5.84-1.1-9.64,0-.29.02-.58.04-.87v-.05l.05-.02,1.35-.57-.02.14-1.35-1.08-.03-.02v-.03c-.01-1.31.19-2.61.61-3.84.34-1.13.71-2.1,1.03-2.89.33-.8.61-1.42.81-1.84.1-.21.18-.38.24-.48.03-.06.06-.11.09-.16-.02.06-.04.12-.07.17l-.21.49c-.19.43-.45,1.06-.77,1.86-.31.8-.67,1.77-1,2.89-.4,1.22-.6,2.51-.58,3.79l-.03-.05,1.35,1.08.11.09-.12.05-1.35.57.05-.07c-.02.28-.03.57-.04.87-.1,3.79.36,7.22,1.05,9.6.07.3.17.58.26.85.09.26.16.52.26.75.19.45.32.85.48,1.16l.35.72c.05.08.08.17.12.26Z" fill="#263238"/><path d="m40.71,107.18c-.03-.08-.05-.17-.07-.25-.04-.18-.11-.42-.18-.73-.08-.32-.17-.7-.26-1.15-.09-.45-.21-.96-.3-1.54-.09-.58-.21-1.2-.3-1.88-.09-.68-.17-1.4-.25-2.17-.14-1.53-.23-3.22-.23-4.99s.11-3.46.25-4.99c.09-.76.16-1.49.26-2.17.11-.68.2-1.3.3-1.88.1-.57.21-1.08.32-1.54.11-.45.18-.84.26-1.15.08-.31.14-.55.19-.72.02-.09.04-.17.07-.25,0,.09-.02.17-.04.26l-.15.73c-.07.32-.16.71-.24,1.16-.08.45-.19.96-.28,1.54-.09.58-.2,1.2-.28,1.87s-.17,1.4-.25,2.16c-.13,1.53-.23,3.21-.24,4.98,0,1.77.09,3.45.22,4.98.08.76.14,1.49.24,2.16.1.67.18,1.3.27,1.88.09.57.19,1.09.27,1.54.08.45.16.84.23,1.16.07.32.11.55.15.73.02.08.03.17.03.26Z" fill="#263238"/><path d="m42.79,122.74c-.09.27-.22.53-.37.78-.34.6-.74,1.17-1.18,1.71-.44.54-.92,1.03-1.44,1.49-.21.2-.44.38-.69.52.19-.22.39-.42.61-.61.49-.48.96-.98,1.39-1.51.43-.53.84-1.09,1.21-1.66.14-.25.3-.49.47-.71Z" fill="#263238"/><path d="m78.14,71.75c1.62.63,3.05,1.64,4.18,2.96,1.13,1.31,1.92,2.88,2.31,4.57,2.52,11.09,6.82,25.84,6.89,30.6.08,6.06-2.55,10.21-6.03,10.97-2.74.61-27.54-.75-27.54-.75l-1.16-9.25,20.1-2.96-2.75-15.34,2.72-21.29,1.28.48Z" fill="#ebebeb"/><path d="m76.86,71.25l-5.55-2.27-5.85-3.43-.04,1c.72,1.23.97,2.67.71,4.07l-4.88,25.41,1.1,18.57,2.27,18.18h17.61l-8.09-19.03,2.86-25.65-.13-16.87Z" fill="#ebebeb"/><path d="m82,121.01l-.12.02-.35.04c-.32.03-.78.03-1.37.04-1.19,0-2.93-.03-5.09-.1-4.32-.14-10.32-.43-17.11-.83h-.07v-.07c-.14-1.1-.28-2.26-.43-3.44-.25-1.99-.49-3.94-.73-5.8v-.08h.08l15.34-2.23,4.5-.64,1.21-.16.32-.04h.11l-.11.02-.32.06-1.21.19-4.5.69-15.31,2.29.07-.09c.24,1.86.48,3.81.73,5.8.15,1.18.29,2.34.43,3.44l-.08-.07c6.78.4,12.79.71,17.11.88,2.16.08,3.89.13,5.08.15.6,0,1.06,0,1.37-.02l.35-.02.09-.02Z" fill="#263238"/><path d="m73.98,90.98c.02.06.04.11.04.17.03.13.06.29.1.49.08.45.19,1.07.32,1.82.27,1.56.64,3.67,1.05,6,.41,2.33.74,4.45,1,6.01.12.75.21,1.37.28,1.82.03.2.05.37.07.5,0,.06,0,.12,0,.18-.02-.05-.04-.11-.05-.17-.03-.13-.06-.29-.1-.49-.08-.45-.2-1.06-.34-1.81-.28-1.54-.64-3.65-1.05-6-.41-2.34-.75-4.47-1-6.01-.11-.75-.21-1.37-.28-1.82-.03-.2-.05-.37-.07-.5,0-.06,0-.12.02-.18Z" fill="#263238"/><path d="m68.01,67.35s0,.02.02.06l.05.19c.04.17.11.41.18.72.19.9.34,1.82.42,2.73.13,1.39.17,2.78.11,4.17-.05,1.6-.22,3.34-.46,5.2v.06h-.06l-1.83.34.06-.11c.11.28.21.58.29.89.5,2.03.43,4.17-.21,6.16-.51,1.62-1.22,3.16-2.13,4.59-.76,1.23-1.44,2.18-1.91,2.83l-.55.75c-.06.08-.11.14-.15.19-.01.02-.03.05-.05.06,0,0,0-.03.04-.07l.13-.2c.13-.19.32-.44.52-.77.46-.66,1.13-1.62,1.87-2.85.89-1.43,1.59-2.97,2.09-4.57.53-1.81.78-3.96.19-6.06-.08-.3-.18-.59-.29-.87l-.04-.09.1-.02,1.82-.33-.07.07c.24-1.85.42-3.6.48-5.18.07-1.38.04-2.77-.07-4.15-.07-.92-.2-1.83-.37-2.73-.06-.32-.12-.56-.15-.73-.02-.08-.03-.14-.04-.19,0-.03,0-.05,0-.08Z" fill="#263238"/><path d="m68.01,93.41v-4.05s.05-1-.79-.79c-.84.21-.69,1.79-.69,1.79,0,0-.16,6.16.21,6.11.37-.05.51-.53.51-.53v-2.37l.76-.17Z" fill="#39a53b"/><path d="m71.51,93.66c-.72.08-1.45.11-2.17.08-.73.03-1.45,0-2.17-.08.72-.08,1.45-.11,2.17-.08.73-.03,1.45,0,2.17.08Z" fill="#263238"/><path d="m79.52,74.15c-.15.07-.3.12-.45.17-.41.15-.82.32-1.21.52-1.29.66-2.4,1.61-3.26,2.78-.24.33-.46.68-.64,1.04-.16.35-.29.7-.38,1.07-.16.63-.27,1.27-.32,1.91-.04.55-.05,1-.06,1.31,0,.16,0,.32,0,.48-.04-.15-.06-.31-.06-.47-.03-.44-.03-.88,0-1.32.03-.66.13-1.31.29-1.95.1-.38.23-.75.39-1.1.19-.38.4-.73.65-1.07.87-1.19,2.02-2.14,3.34-2.79.4-.19.81-.35,1.23-.48.15-.06.31-.1.47-.12Z" fill="#263238"/><path d="m8.04,107.86l29.01,10.74,24.46,3.74-29.08-14.18-24.39-.31Z" fill="#263238"/><path d="m20.46,119.45c-.23-1.55-.76-3.04-1.55-4.4-.17-.25-.3-.53-.4-.83-.05-.15-.05-.3-.03-.45.03-.15.09-.29.19-.41.37-.41,1.05-.23,1.51.08.93.68,1.61,1.64,1.95,2.74.33,1.09.55,2.22.64,3.35" fill="#ffbe9d"/><path d="m31.77,116.69h-1.44c-.35-.35-.79-.6-1.28-.73-.18-.03-.36-.01-.53.06-.17.07-.32.18-.43.32.64-1.06,1.34-2.23,1.47-2.55.26-.62-.32-1.09-1.25-1.09s-5.04,5.82-5.04,5.82c0,0,2.55-4.68,2.8-5.39.62-1.79-1.34-1.91-2.05-1.06-.88,1.07-4.44,6.45-4.44,6.45,0,0-.68,1.09-.21,2.13.47,1.04,1.82.64,1.82.64.02.3.12.6.29.85.17.25.4.46.67.59,1.04.58,2.41-.09,2.41-.09l5.32,1.19,1.91-.19c1.31-.13,2.53-.69,3.48-1.6.95-.91,1.57-2.1,1.76-3.4l-5.28-1.94Z" fill="#ffbe9d"/><path d="m28.19,116.25c.06.04-.64,1.15-1.56,2.48-.46.67-.88,1.28-1.2,1.69-.16.24-.34.47-.54.67.12-.26.27-.51.44-.74.29-.44.7-1.05,1.16-1.72.46-.67.88-1.28,1.19-1.7l.37-.51c.04-.07.09-.13.14-.18Z" fill="#eb996e"/><path d="m27.87,122.17c.13-.3.29-.59.47-.87.32-.52.76-1.24,1.25-2.03.25-.39.48-.77.67-1.12.08-.15.14-.31.16-.48.02-.17,0-.34-.04-.5-.09-.31-.25-.6-.45-.85,0,0,.09.04.2.17.17.18.29.4.36.64.06.18.08.37.07.55-.02.19-.07.37-.16.54-.19.36-.42.74-.67,1.14-.49.79-.96,1.49-1.3,2-.17.28-.36.55-.57.81Z" fill="#eb996e"/><path d="m30.66,122.7c.05-.29.15-.57.28-.83l.38-.87c.16-.35.29-.7.39-1.07.05-.17.06-.36.03-.54-.03-.18-.1-.35-.2-.5-.1-.12-.23-.21-.38-.27-.12-.06-.26-.1-.4-.11-.2.03-.4.1-.57.2-.07.04-.14.07-.22.09,0,0,.06-.06.18-.15.08-.05.16-.1.24-.14.11-.06.24-.1.36-.12.16,0,.31.04.45.1.17.06.32.17.44.3.12.17.2.36.24.56.04.2.03.41-.03.61-.1.38-.24.74-.41,1.1-.15.32-.29.61-.41.85-.12.27-.25.53-.39.78Z" fill="#eb996e"/><path d="m31.64,117.68c.08,0,.15.03.22.07.2.08.38.19.56.32.58.43.98,1.06,1.14,1.76.16.71.06,1.44-.28,2.08-.1.19-.22.37-.36.53-.1.11-.17.16-.18.16,0,0,.21-.26.43-.74.3-.62.38-1.32.23-1.99-.15-.67-.52-1.27-1.05-1.71-.23-.17-.46-.33-.7-.48Z" fill="#eb996e"/><path d="m22.29,114.62c-.35.67-.76,1.31-1.2,1.91-.4.65-.85,1.27-1.34,1.85.35-.67.75-1.31,1.2-1.92.4-.65.85-1.27,1.34-1.85Z" fill="#eb996e"/><path d="m56.72,111.2l-3.32-.75-3.19-3c-.39-.36-.89-.58-1.42-.61l-5.8-.32c-.58-.04-1.15.15-1.6.53l-4.15,3.51,18.09,8.79,2.48.22-1.1-8.37Z" fill="#ffbe9d"/><path d="m46.89,109.66s-.43-.05-1.12-.14c-.69-.09-1.67-.17-2.63.28-.44.21-.86.48-1.25.78-.37.28-.7.53-.99.72-.23.16-.47.3-.72.42-.09.05-.18.08-.28.11,0-.03.38-.2.93-.62.28-.2.6-.47.96-.75.39-.32.82-.59,1.28-.81.47-.21.97-.32,1.48-.32.41,0,.82.02,1.23.09.35.05.64.12.81.17.1,0,.2.04.29.08Z" fill="#eb996e"/><path d="m48.08,112.89s-.24-.08-.64-.12c-.51-.05-1.02.03-1.49.21-.48.19-.93.42-1.37.7-.18.13-.36.24-.56.32.15-.16.31-.3.5-.42.42-.31.88-.57,1.38-.76.5-.19,1.04-.25,1.56-.17.23.02.44.1.62.23Z" fill="#eb996e"/><path d="m55.54,113.42s-.51-.67-1.12-1.49c-.62-.82-1.15-1.47-1.11-1.5.47.41.89.89,1.24,1.4.4.49.73,1.02.99,1.59Z" fill="#eb996e"/><path d="m46.41,106.85l7.34-6.84c.07-.07.13-.15.17-.25.04-.09.06-.2.05-.3,0-.1-.03-.2-.08-.29-.05-.09-.11-.17-.2-.23-.13-.1-.29-.15-.45-.14-.16,0-.32.07-.44.18l-8.61,7.73" fill="#39a53b"/><g opacity=".3"><path d="m46.41,106.85l7.34-6.84c.07-.07.13-.15.17-.25.04-.09.06-.2.05-.3,0-.1-.03-.2-.08-.29-.05-.09-.11-.17-.2-.23-.13-.1-.29-.15-.45-.14-.16,0-.32.07-.44.18l-8.61,7.73"/></g><path d="m106.46,40.9c-.11-.04-4.57-1.21-4.3,3.29.27,4.5,4.73,3.3,4.73,3.17,0-.13-.44-6.46-.44-6.46Z" fill="#b78876"/><path d="m105.42,45.74s-.08.06-.2.13c-.18.09-.39.11-.59.04-.49-.14-.93-.87-1-1.68-.03-.38.01-.76.14-1.12.03-.14.1-.28.2-.39.1-.11.22-.2.36-.25.09-.03.18-.03.27,0,.09.03.16.1.2.18.07.12.04.21.07.22.02,0,.09-.08.04-.26-.03-.11-.1-.21-.19-.27-.06-.04-.14-.07-.21-.09-.08-.02-.15-.02-.23,0-.18.05-.35.14-.49.27-.14.13-.24.29-.29.47-.17.4-.24.84-.2,1.28.08.91.6,1.73,1.26,1.88.12.03.25.03.37,0,.12-.03.24-.08.34-.16.14-.14.16-.24.15-.25Z" fill="#aa6550"/><path d="m117.69,24.82c2.29,0,4.62,0,7.48,1.5,1.81.96,2.93,2.43,3.87,4.24.75,1.47,1.12,3.1,1.07,4.75-.08,1.56-.09,2.64-.71,4.07" fill="#263238"/><path d="m116.78,25.17c1.61-.11,3.22.09,4.75.61,1.53.52,2.93,1.33,4.14,2.4,1.21,1.07,2.19,2.37,2.89,3.82.7,1.45,1.1,3.03,1.19,4.64.29,5.64.55,11.73.49,14.8-.13,6.59-6.73,7.56-6.73,7.56,0,0,.15,1.95.32,4.38.08,1.16-.08,2.32-.46,3.42-.38,1.1-.98,2.11-1.75,2.97-.78.86-1.72,1.56-2.77,2.05-1.05.49-2.19.77-3.35.81-1.14.04-2.28-.14-3.35-.53-1.07-.4-2.05-1-2.89-1.78s-1.51-1.71-1.99-2.75c-.48-1.04-.74-2.16-.78-3.3l-.98-26.56c-.12-3.15.99-6.22,3.1-8.56,2.11-2.34,5.04-3.77,8.18-3.99h0Z" fill="#b78876"/><path d="m123.5,59.01s-4.05.21-8.45-2.61c0,0,1.99,4.79,8.57,4.26l-.12-1.65Z" fill="#aa6550"/><path d="m127.22,40.31c0,.25-.09.49-.26.67-.17.18-.41.28-.65.29-.12,0-.24,0-.35-.05-.11-.04-.22-.1-.31-.18-.09-.08-.16-.18-.21-.28-.05-.11-.08-.23-.08-.34,0-.25.09-.48.26-.66.17-.18.4-.28.65-.3.12,0,.24,0,.35.05.11.04.22.1.31.18.09.08.16.18.21.28.05.11.08.22.09.34Z" fill="#263238"/><path d="m128.13,38.97c-.12.12-.83-.41-1.84-.42-1.01,0-1.76.5-1.87.37-.06-.06.07-.28.39-.51.44-.3.96-.46,1.5-.45.53,0,1.04.17,1.46.48.31.24.41.46.36.52Z" fill="#263238"/><path d="m117.29,40.31c0,.25-.09.49-.26.67-.17.18-.41.28-.66.29-.12,0-.24,0-.35-.05-.11-.04-.22-.1-.31-.18-.09-.08-.16-.18-.21-.28-.05-.11-.08-.22-.09-.34,0-.25.1-.48.27-.66.17-.18.4-.28.65-.29.12,0,.24,0,.35.05s.22.1.31.18c.09.08.16.18.21.28.05.11.08.22.09.34Z" fill="#263238"/><path d="m118.18,39.08c-.12.12-.83-.41-1.84-.42-1.01,0-1.76.49-1.87.37-.05-.05.07-.28.4-.51.44-.3.96-.46,1.5-.45.53,0,1.04.17,1.46.49.3.24.42.46.36.52Z" fill="#263238"/><path d="m121.79,46.61c0-.06.64-.16,1.65-.28.26-.03.5-.07.55-.25.03-.27-.03-.54-.17-.77-.24-.64-.49-1.28-.75-1.97-1.04-2.81-1.79-5.12-1.68-5.16.12-.04,1.05,2.2,2.09,5.02.25.69.49,1.35.72,1.99.16.31.21.67.13,1.01-.04.09-.1.17-.17.24-.07.07-.16.11-.26.14-.14.04-.29.05-.44.06-1.03.05-1.67.05-1.67-.01Z" fill="#263238"/><path d="m118.81,47.3c.17,0,.16,1.09,1.09,1.88.93.79,2.11.68,2.12.83,0,.07-.26.21-.76.22-.64,0-1.27-.22-1.76-.64-.47-.4-.78-.96-.85-1.58-.04-.45.09-.72.16-.72Z" fill="#263238"/><path d="m118.47,35.13c-.1.27-1.11.14-2.3.27-1.19.13-2.15.45-2.31.2-.07-.12.1-.38.49-.64.52-.32,1.11-.52,1.71-.58.61-.06,1.22.02,1.8.23.44.16.65.38.61.52Z" fill="#263238"/><path d="m127.99,35.37c-.18.23-.87-.02-1.71-.03-.84-.02-1.55.14-1.71-.1-.07-.12.04-.35.35-.56.42-.26.91-.39,1.4-.37.49.02.97.18,1.36.48.29.24.39.48.31.59Z" fill="#263238"/><path d="m105.57,39.79s.29,1.52.36,2.21c.03.25,0,3.04.67,3.19.58.12,1.74-.41,2.26-1.57.52-1.15,1.5-3.93,1.39-5.19-.14-1.72-.22-3.46.12-5.16.35-1.69,1.15-3.34,2.51-4.4,1.36-1.07,3.32-1.43,4.86-.66.96.48,1.66,1.32,2.55,1.91.79.56,1.76.81,2.72.71.48-.06.93-.25,1.3-.56.37-.3.65-.71.8-1.16.28-1-.24-2.11-1.04-2.77-.81-.67-1.84-.97-2.87-1.18-2.85-.61-5.82-.4-8.56.6-2.7,1.05-5.11,3.07-6.25,5.72-1.33,3.07-1.18,4.96-.83,8.29" fill="#263238"/><path d="m120.64,40.35c-.03-.37-.09-.73-.17-1.08-.26-.97-.83-1.82-1.63-2.43-.55-.41-1.18-.69-1.86-.82-.78-.14-1.57-.07-2.32.19-.4.14-.77.35-1.11.6-.36.26-.67.57-.93.93-.55.75-.85,1.66-.85,2.6s.3,1.85.85,2.6c.26.36.57.67.93.93.34.26.71.46,1.11.6.74.27,1.54.34,2.32.2.68-.12,1.31-.4,1.86-.82.8-.6,1.38-1.46,1.63-2.42.08-.36.14-.72.17-1.09,0,.02,0,.05,0,.07v.21c0,.12,0,.23-.03.35-.01.16-.04.31-.08.47-.24,1-.81,1.88-1.62,2.51-.6.46-1.31.77-2.06.89s-1.52.04-2.23-.22c-.42-.14-.81-.35-1.15-.62-.37-.27-.69-.59-.96-.96-.58-.78-.89-1.73-.89-2.7s.31-1.92.89-2.7c.54-.73,1.27-1.28,2.12-1.6.77-.27,1.59-.34,2.39-.19.7.13,1.35.43,1.91.86.81.62,1.39,1.51,1.62,2.5.04.15.07.31.08.47.02.11.03.23.03.34v.21c0,.05-.01.08-.02.08Z" fill="#263238"/><path d="m132.24,40.35c-.03-.36-.09-.73-.17-1.08-.26-.97-.83-1.82-1.63-2.43-.55-.41-1.18-.69-1.86-.82-.78-.14-1.57-.07-2.31.19-.82.3-1.53.84-2.04,1.54-.56.75-.86,1.66-.86,2.6s.3,1.85.86,2.6c.26.36.57.67.93.93.34.26.71.46,1.11.6.74.27,1.54.34,2.31.2.68-.12,1.31-.4,1.86-.82.8-.6,1.38-1.46,1.63-2.42.08-.36.14-.72.17-1.09,0,.02,0,.05,0,.07v.21c0,.12,0,.23-.02.35-.02.16-.04.31-.09.47-.24,1-.81,1.88-1.62,2.51-.56.43-1.22.73-1.91.86-.8.15-1.63.09-2.39-.19-.85-.31-1.59-.86-2.12-1.6-.58-.78-.89-1.72-.89-2.7s.31-1.92.89-2.7c.27-.37.59-.69.96-.96.35-.26.74-.47,1.16-.62.77-.27,1.59-.34,2.39-.19.7.13,1.35.43,1.91.86.82.62,1.39,1.51,1.62,2.5.04.15.07.31.09.47.02.11.03.23.03.34v.21s0,.05,0,.08Z" fill="#263238"/><path d="m123.39,39.87s-.16-.06-.42-.14c-.33-.11-.68-.16-1.02-.13-.34.03-.68.11-.99.26-.24.12-.37.22-.39.2-.02-.02.1-.15.32-.3.31-.19.67-.3,1.04-.33.37-.02.73.04,1.07.19.28.12.41.24.39.26Z" fill="#263238"/><path d="m125.18,28.75c.07-.34-.05-.53.15-.67.19-.14.64.26.78.43.05.05.2-.16.26-.19.07-.14.11-.29.11-.44-.03-.24-.4-.32-.58-.47-.18-.16-.39-.28-.62-.35-.09-.05-.2-.07-.3-.06-.1,0-.2.04-.29.1-.05.06-.09.13-.11.21-.02.08-.03.16-.02.24,0,.16.03.32.09.47.06.15.17.27.32.34" fill="#263238"/><path d="m105.33,36.28s3.23,1.18,4.91,1.9l-.1-1.65-4.7-1.86s-.12,1.23-.12,1.61Z" fill="#ebebeb"/><path d="m105.63,33.71c.78.24,1.54.53,2.29.88.77.29,1.51.64,2.23,1.03-.78-.24-1.55-.53-2.29-.88-.77-.29-1.51-.64-2.23-1.03Z" fill="#ebebeb"/><path d="m106.6,68.53l-.25-7.82s1.55,7.16,9.69,7.06c7.77-.09,7.63-6.3,7.63-6.3l.28,3.15v12.73l-5.07,20.77-6.48.81-7.16-28.39,1.36-2.01Z" fill="#8000e3"/><path d="m122.96,66.03c-.02.06-.06.11-.09.17-.1.16-.2.31-.32.45-.41.54-.9,1.01-1.45,1.4-.82.59-1.73,1.02-2.71,1.28-1.19.32-2.43.4-3.65.25-1.22-.17-2.4-.52-3.51-1.06-.9-.43-1.75-.95-2.55-1.54-.54-.4-1.06-.82-1.55-1.28-.18-.16-.3-.29-.39-.38-.05-.04-.09-.09-.13-.14.05.03.1.07.15.12l.42.36c.36.32.89.74,1.58,1.24.8.58,1.66,1.08,2.55,1.5,1.1.52,2.26.86,3.46,1.03,1.2.15,2.42.07,3.59-.23.96-.25,1.86-.66,2.68-1.22.55-.38,1.04-.83,1.46-1.35.31-.38.45-.6.46-.59Z" fill="#263238"/><path d="m117.31,132.78l-.12-36.91-10.48-26.93-.35-8.11-6.38,4.83s-9.29,31.99-9.45,30.88c-.16-1.1,0,36.23,0,36.23h26.78Z" fill="#ebebeb"/><path d="m117.06,132.68s-.08-8.32-.08-18.58.04-18.58.08-18.58.08,8.32.08,18.58-.04,18.58-.08,18.58Z" fill="#263238"/><path d="m100.06,70.93l1.3.98-.91,5.97,15.3,16.03-13.9-18.25,1.18-4.73h-2.97Z" fill="#e0e0e0"/><path d="m117.88,113.87l-23.48-6.88-.78-17.84,6.44-23.5s-15.35,7.66-16.4,12.54c-1.05,4.88-3.56,16.72-3.83,25.29-.24,7.66-.27,12.76,1.47,15.22,5.01,7,38.01,8.25,51.19,0" fill="#ebebeb"/><path d="m116.05,94.29s-.03-.03-.08-.09c-.05-.06-.12-.15-.21-.26l-.8-1.02c-.69-.9-1.69-2.19-2.91-3.78l-9.55-12.5-.72-.96-.03-.03v-.04c.41-1.63.81-3.22,1.19-4.73l.08.1h-3.05v-5.38l.03-.02,4.62-3.51,1.28-.96.32-.25s.07-.06.12-.08l-.11.09-.32.26-1.25.98-4.58,3.55.03-.05v5.27l-.08-.07h3.1l-.03.1-1.18,4.73-.02-.07.72.94,9.51,12.53,2.87,3.81c.32.45.59.79.77,1.04.08.11.15.21.2.27l.07.11Z" fill="#263238"/><path d="m126.51,64.26c-1.87-3.27-2.85-2.94-2.85-2.94l.1,1.17v2.45l-.89,10.53-5.69,22.87.12,34.43h21.51l2.68-42.03-.24-18.11-14.73-8.37Z" fill="#ebebeb"/><path d="m141.25,72.64s5.57,4.11,6.06,10.72c.39,5.37,1.28,20.07,1.45,23.27.26,4.98-3.63,16.66-13.73,13.35-6.06-1.98-28.45-9.59-28.45-9.59l1.49-9.51,26.57,1.6.53-22.17,6.08-7.67Z" fill="#ebebeb"/><path d="m107.75,101.98s-7.52-.81-9.25-.39c-1.67.41-4.06,2.45-4.06,2.45l.04,2.97,12.1,3.39,1.17-8.42Z" fill="#b78876"/><path d="m117.19,94.91s.02-.07.04-.1c.03-.07.06-.17.11-.29.11-.27.26-.64.45-1.12l1.68-4.12,2.51-6.11c.24-.57.48-1.17.77-1.75.3-.58.62-1.17.96-1.75.73-1.19,1.53-2.34,2.39-3.45.43-.56.87-1.1,1.32-1.63v.09l-.94-2.38-.03-.08.08-.03,3.91-1.32-.04.11c-1.82-3.04-3.35-5.6-4.44-7.42-.54-.9-1-1.62-1.48-1.91-.18-.11-.38-.19-.59-.24-.08-.01-.15-.03-.22-.05.07,0,.15.01.22.03.22.04.42.12.62.23.3.19.55.44.75.73.28.38.54.77.78,1.17l4.5,7.39.05.08-.09.03-3.92,1.34.05-.11.94,2.38.02.04-.04.04c-.45.52-.88,1.06-1.31,1.62-.85,1.1-1.65,2.24-2.38,3.42-.34.58-.68,1.15-.96,1.74s-.53,1.16-.77,1.74c-.96,2.29-1.82,4.35-2.55,6.09-.73,1.74-1.32,3.12-1.73,4.1-.2.48-.37.85-.48,1.11-.05.12-.1.21-.13.29-.01.03-.03.07-.05.1Z" fill="#263238"/><path d="m144.3,118.13s-.06.07-.09.1l-.29.28c-.38.35-.79.66-1.22.93-.69.42-1.45.74-2.23.94-1.04.26-2.12.33-3.19.2-.62-.07-1.24-.2-1.83-.39-.64-.2-1.25-.44-1.91-.67-1.31-.48-2.72-.96-4.2-1.49-2.97-1.04-6.24-2.15-9.68-3.28-6.89-2.26-13.18-4.17-17.73-5.53l-5.4-1.6-1.47-.44-.38-.11s-.09-.03-.13-.05l.13.03.38.1,1.48.4c1.28.36,3.13.88,5.42,1.55,4.56,1.33,10.85,3.22,17.75,5.49,3.45,1.13,6.72,2.23,9.68,3.29,1.48.53,2.89,1.03,4.2,1.51.66.24,1.28.49,1.91.68.59.19,1.19.32,1.81.39,1.06.13,2.13.07,3.17-.18.78-.19,1.54-.5,2.23-.9.43-.26.85-.56,1.23-.9l.3-.27s.04-.06.07-.09Z" fill="#263238"/><path d="m94.46,107.06s-.42-.06-1.1-.03c-.39.02-.78.08-1.16.19-.46.14-.9.34-1.31.6-.73.49-1.36,1.12-1.82,1.87-.35.57-.51.96-.54.96.02-.1.05-.19.09-.28.1-.25.21-.5.35-.73.45-.79,1.07-1.45,1.83-1.95.42-.27.88-.47,1.36-.6.39-.11.79-.16,1.2-.16.27,0,.54.02.81.07.1.01.2.03.29.07Z" fill="#263238"/><path d="m87.07,104.73s0-.03.03-.09c.04-.08.09-.15.15-.21.23-.22.52-.37.84-.42.46-.07.92-.07,1.38,0,.56.07,1.11.21,1.64.4.97.34,1.85.88,2.59,1.6.22.22.42.45.6.71.07.09.13.19.18.29-.03.02-.29-.39-.86-.91-.75-.67-1.62-1.18-2.57-1.52-.52-.18-1.05-.32-1.6-.4-.44-.08-.89-.09-1.34-.04-.3.03-.58.15-.81.35-.16.14-.21.25-.23.24Z" fill="#263238"/><path d="m95.83,84.26c-.05-.16-.09-.32-.11-.48-.05-.15-.11-.33-.19-.55-.07-.21-.2-.44-.35-.68-.34-.57-.74-1.11-1.2-1.6-.56-.59-1.17-1.13-1.83-1.61-1.2-.88-2.56-1.5-4.01-1.84-.44-.09-.89-.15-1.34-.17-.17,0-.33-.01-.49-.04.16-.02.33-.03.5-.03.45,0,.91.04,1.36.12,1.48.31,2.87.93,4.08,1.82.67.48,1.29,1.03,1.85,1.64.45.5.85,1.05,1.19,1.64.14.25.24.5.32.71.08.21.13.41.17.56.03.17.05.33.06.5Z" fill="#263238"/><path d="m140.42,111.52s0-.08,0-.11v-.33c0-.29-.02-.72-.06-1.28-.12-1.57-.44-3.11-.96-4.6-.16-.49-.37-.96-.64-1.4-.3-.47-.73-.84-1.24-1.06-1.07-.46-2.35-.4-3.66-.47l-8.56-.36c-7.08-.32-13.37-.57-17.33-.78l.05-.04c-.24,1.45-.43,2.61-.56,3.41-.07.39-.12.69-.16.9-.02.1-.03.17-.04.23l-.02.08s0-.05,0-.08l.03-.23c.03-.21.07-.52.13-.91.12-.8.29-1.96.51-3.41v-.04h.05l17.33.72,8.56.39c.66.03,1.3.05,1.91.1.61.03,1.22.17,1.79.4.54.23.99.61,1.31,1.1.27.45.48.93.64,1.44.51,1.49.82,3.05.91,4.63.04.56.04.99.03,1.28v.33c-.01.09-.02.13-.02.13Z" fill="#263238"/><path d="m135.35,90.71s.08,2.57.08,5.74-.04,5.74-.08,5.74-.08-2.57-.08-5.74.04-5.74.08-5.74Z" fill="#263238"/><path d="m83.85,77.61s-.02.07-.06.21c-.04.14-.12.34-.19.64-.16.55-.35,1.38-.57,2.45-.44,2.15-.99,5.3-1.6,9.23-.3,1.97-.64,4.15-.96,6.48-.16,1.17-.26,2.39-.35,3.65-.08,1.26-.15,2.55-.2,3.9-.1,2.68-.15,5.52-.08,8.47.03.74.05,1.48.11,2.23.02.38.08.75.13,1.12.07.37.16.74.27,1.1.23.73.59,1.42,1.06,2.02.47.61,1.1,1.09,1.81,1.4,1.52.75,3.1,1.35,4.73,1.81,1.65.5,3.35.89,5.08,1.25,3.76.78,7.58,1.24,11.42,1.39,1.82.05,3.64,0,5.45-.14,1.78-.12,3.51-.32,5.18-.56,3.16-.45,6.27-1.17,9.3-2.16,2.6-.86,5.11-1.94,7.52-3.23v.11l-10.29-3.66-2.78-.99-.72-.26c-.16-.06-.24-.1-.24-.1l.25.08.72.25,2.79.96,10.34,3.6.12.04-.11.06c-2.41,1.3-4.94,2.39-7.54,3.26-3.04,1-6.16,1.73-9.33,2.18-1.68.25-3.41.44-5.19.57-1.82.14-3.64.19-5.47.15-3.85-.15-7.68-.61-11.45-1.39-1.74-.36-3.44-.76-5.1-1.25-1.64-.46-3.23-1.07-4.76-1.82-.74-.31-1.39-.81-1.89-1.45-.48-.62-.85-1.32-1.08-2.07-.12-.37-.21-.74-.28-1.12-.05-.38-.11-.76-.13-1.13-.06-.75-.09-1.5-.11-2.23-.08-2.96,0-5.79.09-8.48.05-1.34.12-2.64.21-3.91.09-1.28.19-2.49.36-3.66.32-2.34.66-4.51.96-6.48.64-3.94,1.19-7.08,1.66-9.23.23-1.08.43-1.9.6-2.45.07-.28.16-.48.2-.62.04-.14.11-.21.11-.21Z" fill="#263238"/><path d="m94.43,104.86c3.93-4.35,3.75-12.08,1.5-17.56-.21,5.94-.91,11.21-1.45,16.98" fill="#e0e0e0"/><path d="m95.94,88.4c0,.06,0,.13,0,.19,0,.14-.02.32-.04.54-.04.49-.09,1.17-.16,1.99-.14,1.7-.32,4.02-.54,6.58l-.52,6.58c-.06.82-.11,1.5-.15,1.99l-.05.54c0,.06-.01.13-.03.19,0-.06,0-.13,0-.19,0-.14,0-.32.02-.55.02-.47.05-1.15.1-2,.1-1.68.26-4.01.47-6.58.21-2.57.42-4.89.59-6.57.09-.82.16-1.5.21-1.99.03-.22.05-.4.07-.54,0-.06,0-.13.03-.19Z" fill="#263238"/><path d="m105.62,80.55c.08,1.12.11,2.25.08,3.37.03,1.12,0,2.25-.08,3.37-.04,0-.08-1.51-.08-3.37s.04-3.37.08-3.37Z" fill="#263238"/><path d="m103.06,91.75c.07.65.32,1.27.72,1.79.37.48,1.12.96,1.72.92.45.02.91-.07,1.31-.28.41-.2.75-.51,1.01-.89.73-1.17.92-3.6.32-5.04-.4-.99-1.31-1.91-2.38-1.94-1.4-.03-2.28.98-2.58,2.01" fill="#e0e0e0"/><path d="m103.18,88.32c.05-.24.13-.48.26-.69.14-.26.32-.49.53-.69.28-.27.62-.47,1-.58.22-.07.44-.1.67-.11.25-.01.5.02.73.1.51.18.96.51,1.3.93.38.46.64,1.01.77,1.6.13.62.18,1.26.14,1.89-.06,1-.26,1.99-.81,2.75-.27.36-.64.63-1.06.8-.38.15-.79.22-1.2.2-.3,0-.59-.07-.86-.21-.23-.12-.45-.27-.64-.45-.3-.3-.54-.65-.7-1.05-.11-.25-.18-.51-.22-.78-.01-.07-.02-.14-.02-.21,0-.02,0-.05,0-.07.07.35.17.7.32,1.03.17.37.41.71.71,1,.19.17.41.31.64.42.25.13.52.19.8.19.4.02.81-.06,1.18-.22.37-.17.69-.42.94-.73.51-.71.71-1.69.77-2.67.07-1.28-.14-2.53-.86-3.38-.32-.41-.75-.72-1.24-.89-.22-.07-.45-.11-.69-.1-.22,0-.43.03-.64.09-.36.1-.68.29-.96.54-.21.19-.39.41-.53.65-.12.21-.22.42-.32.64Z" fill="#263238"/><path d="m102.31,91.81c.07.65.32,1.27.72,1.79.37.48,1.12.96,1.72.92.46.02.91-.07,1.31-.28.41-.2.75-.51,1.01-.89.73-1.17.92-3.6.32-5.04-.4-.99-1.31-1.91-2.38-1.94-.59,0-1.17.19-1.64.55-.47.36-.8.88-.94,1.45" fill="#e0e0e0"/><path d="m102.44,88.38c.05-.24.13-.47.26-.69.14-.26.32-.49.53-.69.45-.43,1.04-.68,1.66-.69.25-.01.5.02.73.1.51.18.97.51,1.3.93.38.46.64,1.01.77,1.6.14.62.18,1.26.14,1.89-.06,1-.26,1.99-.81,2.75-.28.36-.64.63-1.06.8-.38.15-.79.22-1.2.2-.3,0-.59-.07-.86-.21-.23-.12-.45-.27-.64-.45-.3-.3-.54-.66-.7-1.05-.11-.25-.18-.51-.22-.77,0-.09-.02-.16-.02-.21,0-.02,0-.05,0-.07.07.35.17.7.32,1.02.17.38.41.72.71,1,.19.17.41.31.64.42.25.13.52.19.8.19.4.02.81-.06,1.18-.22.37-.17.69-.42.94-.73.52-.71.71-1.69.78-2.67.07-1.28-.14-2.53-.86-3.38-.32-.41-.74-.72-1.23-.9-.22-.07-.45-.11-.68-.1-.59,0-1.16.24-1.6.64-.21.19-.39.41-.53.65-.12.21-.23.42-.33.64Z" fill="#263238"/><path d="m103.67,88.02c-.35-.04-.71.03-1.02.21-.31.18-.55.45-.69.78-.26.67-.26,1.41,0,2.08.11.35.29.67.53.94.25.27.59.44.96.46.27-.01.53-.09.75-.23.23-.14.42-.32.56-.55.25-.35.42-.75.49-1.17.08-.42.06-.86-.04-1.27-.15-.56-.56-1.12-1.13-1.14" fill="#e0e0e0"/><path d="m104.08,88.13h.13c.12.01.24.05.35.12.19.13.35.29.47.48.12.19.21.4.25.62.15.65.09,1.34-.2,1.95-.16.37-.4.69-.71.94-.17.14-.37.25-.58.3-.22.05-.44.05-.65,0-.42-.13-.77-.42-.98-.8-.19-.34-.33-.72-.41-1.1-.08-.32-.09-.66-.04-.99s.18-.64.36-.92c.13-.19.29-.34.48-.46.19-.12.4-.2.63-.24.12-.02.24-.02.37,0,.08.02.12.03.12.04-.16,0-.32,0-.47.03-.42.1-.79.35-1.03.71-.17.27-.27.57-.32.89-.05.31-.03.63.06.94.07.37.21.72.4,1.05.19.35.51.61.89.73.19.05.39.05.58,0,.19-.05.36-.14.51-.26.29-.24.52-.53.68-.87.28-.58.35-1.23.22-1.86-.07-.43-.3-.81-.64-1.07-.14-.09-.29-.15-.45-.18Z" fill="#263238"/><path d="m105.28,93.27s-.06-.1-.17-.23c-.15-.16-.33-.28-.54-.35-.22-.06-.44-.1-.67-.11-.18,0-.29-.03-.29-.05s.11-.05.29-.07c.24-.03.49,0,.72.06.24.07.45.23.59.44.1.17.09.29.07.3Z" fill="#263238"/><path d="m105.53,87.59s-.05.11-.2.23c-.2.15-.43.25-.67.29-.24.04-.5.03-.73-.04-.18-.06-.28-.13-.26-.15.32.05.64.06.96.03.32-.08.62-.2.91-.36Z" fill="#263238"/><path d="m127.45,64.74s.04,0,.11.04c.1.04.19.09.28.15.34.19.66.42.96.68.98.86,1.69,1.99,2.05,3.25.38,1.23.64,2.5.78,3.78.06.49.09.89.1,1.16.02.14.02.29,0,.43-.04-.14-.06-.28-.07-.42-.04-.3-.1-.69-.16-1.15-.18-1.27-.45-2.52-.83-3.75-.35-1.23-1.04-2.34-1.97-3.21-.4-.35-.82-.67-1.26-.95Z" fill="#263238"/><path d="m123.47,99.85c.92-.04,1.67-.96,2.59-.91.17.01.33.06.48.14.15.08.28.18.39.31.11.13.19.28.24.44.05.16.07.33.06.5-.01.17-.06.33-.14.48-.08.15-.18.28-.31.39-.13.11-.28.19-.44.24-.16.05-.33.07-.5.06-.97-.11-1.54-1.25-2.49-1.47" fill="#263238"/><path d="m131.31,100.64c-.29,0-.58-.02-.87-.07l.05-.32c1.14.18,2.1,0,2.85-.56.96-.69,1.55-1.93,1.81-3.69v-.07c.11-.7.25-14.34.25-16.93,0-4.05-3.55-4.6-3.7-4.62-.15-.02-3.37-.56-5.09,3.85-1.79,4.63-4.66,13.55-4.85,14.6-.03.13-.06.29-.1.47-.3,1.34-.92,4.12.94,5.73,2.07,1.79,3.7,1.1,3.77,1.07l.13.29c-.08.03-1.88.81-4.11-1.12-2-1.73-1.36-4.64-1.04-6.04.04-.18.07-.32.1-.46.19-1.05,3.07-10.01,4.87-14.65,1.8-4.64,5.4-4.06,5.42-4.05.03,0,3.97.61,3.97,4.94,0,2.13-.14,16.24-.25,16.98v.06c-.27,1.84-.92,3.16-1.94,3.9-.64.46-1.42.7-2.21.69Z" fill="#263238"/><path d="m135.58,81.62c-.14-.56-.37-1.1-.66-1.6-.34-.52-.76-.99-1.26-1.37-.61-.46-1.31-.79-2.05-.96-1.37-.3-2.79-.11-4.04.53-.51.28-.98.61-1.41,1,.02-.04.05-.07.07-.1.07-.09.15-.18.24-.26.31-.3.66-.55,1.04-.76,1.26-.69,2.73-.9,4.13-.59.77.18,1.48.52,2.11,1.01.51.39.94.88,1.28,1.43.22.37.39.77.49,1.19.03.11.05.23.07.34,0,.07,0,.11,0,.11Z" fill="#263238"/><path d="m143.71,107.12c-.12-.46-.26-.92-.44-1.36-.45-1.06-1.2-1.96-2.16-2.6-.54-.33-1.13-.54-1.75-.64-.51-.08-1.03-.13-1.55-.16l-1.05-.07c-.13,0-.26-.02-.38-.05.13-.02.26-.02.39,0l1.05.02c.52.01,1.04.05,1.56.13.64.08,1.26.3,1.82.64.99.65,1.75,1.59,2.18,2.69.13.33.23.67.29,1.02.03.12.04.25.04.38Z" fill="#263238"/><path d="m127.61,101.8s3.14-4.75,3.94-5.37c.8-.62,7.66-3.72,8.45-3.22.79.5.32,1.58.32,1.58,0,0,2.9-1.01,3.21-.62.17.24.26.52.26.82s-.09.58-.26.82c0,0,1.6-.25,1.6.25,0,.33-.09.66-.25.95-.16.29-.39.54-.67.72-.74.56-5.55,3.76-5.94,4.65l-1.56-.1-9.09-.47Z" fill="#b78876"/><path d="m136.64,100.44c.04-.11.08-.21.14-.3.15-.26.33-.51.52-.74.64-.77,1.41-1.41,2.28-1.91.86-.5,1.76-.93,2.69-1.28.35-.14.64-.24.85-.32.1-.04.21-.07.32-.09-.09.06-.19.11-.3.15l-.83.35c-.91.37-1.8.81-2.65,1.3-.85.49-1.61,1.12-2.27,1.85-.5.59-.72,1-.75.99Z" fill="#aa6550"/><path d="m132.66,100.36c.04-.12.09-.24.15-.35.11-.22.26-.54.48-.92.25-.45.54-.88.87-1.28.19-.24.41-.46.66-.65.26-.18.54-.34.83-.52.98-.58,2-1.09,3.06-1.52.32-.13.65-.23.98-.32.12-.04.25-.06.38-.07,0,.03-.52.15-1.31.51-1.04.46-2.05.98-3.03,1.56-.29.17-.56.34-.82.51-.24.18-.45.39-.64.62-.33.39-.62.81-.88,1.24l-.53.89c-.06.11-.12.21-.2.3Z" fill="#aa6550"/><path d="m216.38,132.87s-48.13.08-107.49.08-107.51-.04-107.51-.08,48.12-.08,107.51-.08,107.49.04,107.49.08Z" fill="#263238"/></svg>