<svg width="239" height="239" viewBox="0 0 239 239" fill="none" xmlns="http://www.w3.org/2000/svg">
<path d="M239 182.787H0V182.907H239V182.787Z" fill="#EBEBEB"/>
<path d="M215.052 190.478H189.685V190.598H215.052V190.478Z" fill="#EBEBEB"/>
<path d="M158.323 188.982H130.283V189.102H158.323V188.982Z" fill="#EBEBEB"/>
<path d="M190.908 188.294H181.735V188.413H190.908V188.294Z" fill="#EBEBEB"/>
<path d="M68.6692 186.845H48.0244V186.965H68.6692V186.845Z" fill="#EBEBEB"/>
<path d="M45.3618 186.845H37.9814V186.965H45.3618V186.845Z" fill="#EBEBEB"/>
<path d="M88.7504 188.863H62.8428V188.982H88.7504V188.863Z" fill="#EBEBEB"/>
<path d="M113.286 161.468H20.9892C20.2662 161.467 19.5732 161.179 19.0624 160.667C18.5516 160.156 18.2646 159.462 18.2646 158.739V28.9955C18.2709 28.2766 18.5606 27.5892 19.0708 27.0826C19.5809 26.5761 20.2703 26.2912 20.9892 26.29H113.286C114.01 26.29 114.704 26.5776 115.216 27.0894C115.728 27.6013 116.016 28.2955 116.016 29.0194V158.739C116.016 159.463 115.728 160.157 115.216 160.669C114.704 161.181 114.01 161.468 113.286 161.468ZM20.9892 26.3856C20.2979 26.3869 19.6353 26.6624 19.1469 27.1517C18.6585 27.641 18.3841 28.3041 18.3841 28.9955V158.739C18.3841 159.43 18.6585 160.093 19.1469 160.583C19.6353 161.072 20.2979 161.348 20.9892 161.349H113.286C113.978 161.348 114.641 161.072 115.13 160.583C115.62 160.094 115.895 159.431 115.896 158.739V28.9955C115.895 28.3037 115.62 27.6406 115.13 27.1514C114.641 26.6622 113.978 26.3869 113.286 26.3856H20.9892Z" fill="#EBEBEB"/>
<path d="M216.683 161.468H124.381C123.657 161.467 122.964 161.179 122.452 160.668C121.941 160.156 121.653 159.463 121.651 158.739V28.9955C121.659 28.2762 121.95 27.5888 122.461 27.0823C122.971 26.5759 123.661 26.2912 124.381 26.29H216.683C217.401 26.2925 218.089 26.5779 218.598 27.0843C219.107 27.5907 219.396 28.2774 219.402 28.9955V158.739C219.402 159.461 219.116 160.154 218.606 160.666C218.097 161.177 217.405 161.466 216.683 161.468ZM124.381 26.3856C123.689 26.3869 123.026 26.6622 122.537 27.1514C122.048 27.6406 121.772 28.3037 121.771 28.9955V158.739C121.772 159.431 122.048 160.094 122.537 160.583C123.026 161.072 123.689 161.348 124.381 161.349H216.683C217.374 161.348 218.037 161.072 218.527 160.583C219.016 160.094 219.291 159.431 219.292 158.739V28.9955C219.291 28.3037 219.016 27.6406 218.527 27.1514C218.037 26.6622 217.374 26.3869 216.683 26.3856H124.381Z" fill="#EBEBEB"/>
<path d="M45.1709 99.9976H91.6182L91.6182 40.501L45.1709 40.501L45.1709 99.9976Z" fill="#E6E6E6"/>
<path d="M42.6715 99.9976H91.1455L91.1455 40.501L42.6715 40.501L42.6715 99.9976Z" fill="#F0F0F0"/>
<path d="M88.9033 97.7653V42.7428H44.9034V97.7653H88.9033Z" fill="white"/>
<path d="M67.5315 97.7606L58.6885 42.738H51.332L60.1703 97.7606H67.5315Z" fill="#F5F5F5"/>
<path d="M73.6937 97.7606L64.8555 42.738H61.6338L70.4768 97.7606H73.6937Z" fill="#F5F5F5"/>
<path d="M45.1807 97.7653V42.7428H44.9082V97.7653H45.1807Z" fill="#E6E6E6"/>
<path d="M133.984 103.559L208.37 103.559V40.2428L133.984 40.2428V103.559Z" fill="#E6E6E6"/>
<path d="M131.556 103.559L207.237 103.559V40.2428L131.556 40.2428V103.559Z" fill="#F0F0F0"/>
<path d="M133.984 108.066L208.37 108.066V103.554L133.984 103.554V108.066Z" fill="#E6E6E6"/>
<path d="M127.507 108.066L203.188 108.066V103.554L127.507 103.554V108.066Z" fill="#F0F0F0"/>
<path d="M203.834 100.16V43.6414L134.949 43.6414V100.16H203.834Z" fill="#FAFAFA"/>
<path d="M159.982 100.155L154.538 43.6414H145.121L150.566 100.155H159.982Z" fill="white"/>
<path d="M202.261 80.9971C202.33 80.9971 202.395 80.9699 202.444 80.9215C202.492 80.8731 202.519 80.8074 202.519 80.739V45.845C202.519 45.7765 202.492 45.7109 202.444 45.6625C202.395 45.614 202.33 45.5869 202.261 45.5869C202.193 45.5869 202.127 45.614 202.079 45.6625C202.03 45.7109 202.003 45.7765 202.003 45.845V80.739C202.003 80.8074 202.03 80.8731 202.079 80.9215C202.127 80.9699 202.193 80.9971 202.261 80.9971Z" fill="#F0F0F0"/>
<path d="M148.543 100.155L143.099 43.6414H139.428L144.872 100.155H148.543Z" fill="white"/>
<path d="M135.384 100.16V43.6414H134.954V100.16H135.384Z" fill="#E6E6E6"/>
<path opacity="0.5" d="M130.747 49.8028H205.133L205.449 44.9607H131.063L130.747 49.8028Z" fill="#E0E0E0"/>
<path opacity="0.5" d="M130.747 57.7615H205.133L205.449 52.9194H131.063L130.747 57.7615Z" fill="#E0E0E0"/>
<path opacity="0.5" d="M130.747 65.7202H205.133L205.449 60.8781H131.063L130.747 65.7202Z" fill="#E0E0E0"/>
<path opacity="0.5" d="M130.747 73.6789H205.133L205.449 68.8368H131.063L130.747 73.6789Z" fill="#E0E0E0"/>
<path opacity="0.5" d="M130.747 81.6376H205.133L205.449 76.7955H131.063L130.747 81.6376Z" fill="#E0E0E0"/>
<path opacity="0.5" d="M130.747 89.5963H205.133L205.449 84.7542H131.063L130.747 89.5963Z" fill="#E0E0E0"/>
<path d="M161.832 152.028C161.811 151.926 161.755 151.834 161.674 151.769C161.593 151.704 161.492 151.668 161.387 151.669H144.179C144.075 151.668 143.974 151.704 143.893 151.769C143.812 151.834 143.756 151.926 143.735 152.028L137.626 182.787H138.553L144.547 152.573H161.019L167.013 182.787H167.936L161.832 152.028Z" fill="#F0F0F0"/>
<path d="M195.163 152.028C195.142 151.926 195.086 151.834 195.005 151.769C194.924 151.704 194.822 151.668 194.718 151.669H177.51C177.406 151.668 177.305 151.704 177.224 151.769C177.143 151.834 177.087 151.926 177.066 152.028L170.952 182.787H171.879L177.874 152.573H194.345L200.34 182.787H201.267L195.163 152.028Z" fill="#F0F0F0"/>
<path d="M195.65 148.228H141.512C138.926 148.228 136.827 149.471 136.827 151.01V151.105C136.827 151.665 137.592 152.119 138.538 152.119H198.628C199.584 152.119 200.334 151.665 200.334 151.105V151.01C200.334 149.471 198.236 148.228 195.65 148.228Z" fill="#E0E0E0"/>
<path d="M198.967 125.92H163.17L157.979 147.057H193.776L198.967 125.92Z" fill="#E6E6E6"/>
<path d="M193.777 147.057L193.633 148.228H157.836L157.979 147.057H193.777Z" fill="#E6E6E6"/>
<path d="M197.864 125.92H162.066L156.88 147.057H192.677L197.864 125.92Z" fill="#F0F0F0"/>
<path d="M191.917 146.091L196.635 126.885H162.826L158.108 146.091H191.917Z" fill="white"/>
<path d="M183.346 147.057L183.203 148.228H143.782L143.926 147.057H183.346Z" fill="#F0F0F0"/>
<path d="M108.97 151.421H96.6807V154.145H108.97V151.421Z" fill="#E6E6E6"/>
<path d="M36.2041 182.787H38.4746L38.4746 120.136H36.2041L36.2041 182.787Z" fill="#E6E6E6"/>
<path d="M28.3458 154.145H96.6807V151.421H28.3458V154.145Z" fill="#F5F5F5"/>
<path d="M108.97 166.32H96.6807V169.045H108.97V166.32Z" fill="#E6E6E6"/>
<path d="M28.3458 169.04H96.6807V166.315H28.3458V169.04Z" fill="#F5F5F5"/>
<path d="M108.97 121.627H96.6807V124.352H108.97V121.627Z" fill="#E6E6E6"/>
<path d="M28.3458 124.347L96.6807 124.347V121.622L28.3458 121.622V124.347Z" fill="#F5F5F5"/>
<path d="M108.97 136.522H96.6807V139.246H108.97V136.522Z" fill="#E6E6E6"/>
<path d="M28.3458 139.246H96.6807V136.522H28.3458V139.246Z" fill="#F5F5F5"/>
<path d="M104.539 182.787H106.81L106.81 120.136H104.539L104.539 182.787Z" fill="#E6E6E6"/>
<path d="M94.4102 182.787H96.6807L96.6807 120.136H94.4102L94.4102 182.787Z" fill="#F5F5F5"/>
<path d="M28.3408 182.787H30.6113L30.6113 120.136H28.3408L28.3408 182.787Z" fill="#F5F5F5"/>
<path d="M119.5 204.374C170.685 204.374 212.179 201.951 212.179 198.963C212.179 195.974 170.685 193.552 119.5 193.552C68.3143 193.552 26.8203 195.974 26.8203 198.963C26.8203 201.951 68.3143 204.374 119.5 204.374Z" fill="#F5F5F5"/>
<path d="M66.6775 84.5064L65.7158 92.4886L66.1904 92.5458L67.1521 84.5635L66.6775 84.5064Z" fill="#39A53B"/>
<path d="M65.3629 95.4228L65.0039 98.3983L65.4785 98.4555L65.8375 95.48L65.3629 95.4228Z" fill="#39A53B"/>
<path d="M155.264 165.813L65.6531 155.001C64.1383 154.813 62.7593 154.034 61.8171 152.833C60.875 151.632 60.4463 150.107 60.6245 148.591L72.0535 53.8945C72.2413 52.3797 73.0207 51.0007 74.2217 50.0586C75.4226 49.1164 76.9475 48.6877 78.4635 48.8659L168.074 59.6831C169.589 59.8697 170.969 60.6488 171.912 61.85C172.854 63.0513 173.282 64.5769 173.103 66.0931L161.674 160.785C161.487 162.3 160.708 163.68 159.507 164.622C158.306 165.565 156.78 165.993 155.264 165.813Z" fill="#39A53B"/>
<path opacity="0.3" d="M91.4647 62.2678C93.6779 59.6001 93.3094 55.6434 90.6418 53.4303C87.9741 51.2171 84.0174 51.5855 81.8042 54.2532C79.591 56.9209 79.9595 60.8776 82.6271 63.0908C85.2948 65.304 89.2515 64.9355 91.4647 62.2678Z" fill="black"/>
<path opacity="0.3" d="M157.907 73.1388C161.373 73.1388 164.183 70.3289 164.183 66.8627C164.183 63.3964 161.373 60.5865 157.907 60.5865C154.441 60.5865 151.631 63.3964 151.631 66.8627C151.631 70.3289 154.441 73.1388 157.907 73.1388Z" fill="black"/>
<path d="M169.028 82.8355L159.652 160.544C159.534 161.524 159.032 162.416 158.256 163.025C157.48 163.633 156.494 163.909 155.514 163.791L65.9037 152.979C64.9245 152.86 64.0323 152.358 63.4235 151.582C62.8146 150.806 62.539 149.82 62.6571 148.841L72.0334 71.1322L169.028 82.8355Z" fill="white"/>
<path d="M86.4699 59.6257C85.3805 59.4918 84.3887 58.9317 83.7114 58.0681C83.0341 57.2044 82.7266 56.1076 82.8562 55.0178L83.9843 45.6633C84.1229 44.5772 84.6847 43.5896 85.5477 42.9156C86.4106 42.2415 87.5048 41.9355 88.5922 42.064C89.681 42.1991 90.6721 42.7595 91.3491 43.6229C92.0262 44.4862 92.3342 45.5823 92.2059 46.6719L91.0778 56.0216C90.9391 57.1081 90.3775 58.0961 89.5147 58.7709C88.6519 59.4457 87.5578 59.7529 86.4699 59.6257Z" fill="#263238"/>
<path d="M157.74 68.2249C156.651 68.0898 155.66 67.5294 154.983 66.6661C154.306 65.8028 153.998 64.7066 154.126 63.617L155.254 54.2673C155.389 53.1786 155.95 52.1875 156.813 51.5104C157.676 50.8334 158.773 50.5254 159.862 50.6537C160.951 50.7876 161.943 51.3477 162.621 52.2113C163.298 53.0749 163.605 54.1717 163.476 55.2616L162.348 64.6113C162.213 65.7 161.652 66.6912 160.789 67.3682C159.926 68.0452 158.829 68.3532 157.74 68.2249Z" fill="#263238"/>
<path d="M109.419 148.314C105.353 148.319 101.306 147.763 97.3924 146.66C92.3352 145.226 88.6594 143.118 86.1642 140.202C79.9215 132.903 80.9588 119.333 84.5629 109.806C88.2818 99.9737 95.5999 92.4452 104.682 89.1518C111.484 86.6805 119.266 86.0974 127.812 87.4166C137.028 88.8506 144.456 92.1345 149.891 97.2156C149.996 97.3136 150.08 97.4311 150.139 97.5616C150.198 97.6921 150.231 97.8329 150.236 97.976C150.24 98.1192 150.217 98.2618 150.166 98.3959C150.116 98.5299 150.039 98.6527 149.941 98.7572C149.843 98.8617 149.726 98.9459 149.595 99.005C149.465 99.0641 149.324 99.0969 149.181 99.1016C149.038 99.1062 148.895 99.0826 148.761 99.0322C148.627 98.9817 148.504 98.9053 148.4 98.8074C143.295 94.0274 136.254 90.9252 127.478 89.5724C119.299 88.3105 111.881 88.8554 105.428 91.1976C96.9575 94.2759 90.0982 101.336 86.5992 110.581C83.7742 118.042 81.7666 131.713 87.8181 138.783C90.0265 141.364 93.3533 143.252 97.9852 144.562C105.816 146.727 114.098 146.648 121.885 144.332C129.71 142.047 137.1 137.64 141.646 132.53C144.992 128.797 146.842 124.328 146.904 119.954C146.966 115.886 144.906 111.317 141.536 108.033C138.668 105.236 135.322 103.769 132.124 103.903C131.981 103.909 131.838 103.887 131.703 103.837C131.569 103.788 131.445 103.713 131.34 103.616C131.127 103.42 131.001 103.147 130.989 102.858C130.977 102.569 131.08 102.287 131.276 102.075C131.472 101.862 131.744 101.735 132.033 101.723C135.857 101.57 139.753 103.253 143.056 106.47C146.88 110.217 149.15 115.27 149.083 119.983C149.012 124.882 146.947 129.853 143.271 133.979C138.462 139.38 130.699 144.017 122.497 146.407C118.25 147.658 113.847 148.3 109.419 148.314Z" fill="#39A53B"/>
<mask id="mask0_53356_32928" style="mask-type:luminance" maskUnits="userSpaceOnUse" x="60" y="48" width="114" height="118">
<path d="M155.264 165.813L65.6531 155.001C64.1383 154.813 62.7593 154.034 61.8171 152.833C60.875 151.632 60.4463 150.107 60.6245 148.591L72.0535 53.8945C72.2413 52.3797 73.0207 51.0007 74.2217 50.0586C75.4226 49.1164 76.9475 48.6877 78.4635 48.8659L168.074 59.6831C169.589 59.8697 170.969 60.6488 171.912 61.85C172.854 63.0513 173.282 64.5769 173.103 66.0931L161.674 160.785C161.487 162.3 160.708 163.68 159.507 164.622C158.306 165.565 156.78 165.993 155.264 165.813Z" fill="white"/>
</mask>
<g mask="url(#mask0_53356_32928)">
<path opacity="0.1" d="M154.012 76.6186L151.579 74.4963L149.71 77.0727L149.848 80.8585L147.621 82.694C146.732 83.4397 145.847 84.1806 144.954 84.9119C144.06 85.6433 143.18 86.3794 142.291 87.0868C141.847 87.4501 141.402 87.7943 140.957 88.1337C140.513 88.473 140.064 88.7933 139.672 89.0466L139.385 89.2187L139.031 89.4003C138.792 89.5151 138.553 89.6489 138.314 89.7541C137.836 89.9787 137.325 90.2034 136.813 90.4089C135.795 90.8152 134.753 91.1976 133.692 91.5418C132.798 91.8381 131.895 92.1011 130.982 92.3544L130.843 89.9023C129.116 90.3002 127.438 90.8852 125.838 91.6469C125.451 91.5705 125.045 91.4988 124.624 91.4318C124.535 91.3324 124.413 91.268 124.28 91.2502C124.074 91.2215 123.883 91.2024 123.749 91.1928C123.645 91.186 123.54 91.2092 123.448 91.2598L122.913 91.1976C122.496 90.6901 122.231 90.0755 122.148 89.4242C123.279 89.9255 124.518 90.1323 125.75 90.0253C126.982 89.9183 128.167 89.501 129.194 88.8124C130.017 88.6606 130.783 88.2876 131.41 87.7336C132.038 87.1795 132.503 86.4652 132.755 85.6672C133.042 84.8457 133.155 83.9733 133.086 83.1057C133.017 82.2382 132.767 81.3946 132.353 80.629C132.929 79.6342 133.229 78.5038 133.221 77.3546C133.214 76.2053 132.9 75.0788 132.312 74.0913C131.724 73.1038 130.883 72.2911 129.876 71.7372C128.869 71.1832 127.733 70.908 126.584 70.94C126.313 70.9458 126.043 70.9714 125.776 71.0165C125.01 70.071 123.921 69.4421 122.72 69.2506C121.518 69.0591 120.288 69.3186 119.266 69.9792C119.318 69.9171 119.361 69.8597 119.414 69.8023C120.37 68.7507 121.885 68.268 123.639 68.4496C123.655 68.4509 123.67 68.4492 123.684 68.4446C123.699 68.4401 123.712 68.4327 123.724 68.4229C123.735 68.4131 123.745 68.4012 123.751 68.3877C123.758 68.3742 123.763 68.3595 123.764 68.3444C123.765 68.3294 123.763 68.3142 123.759 68.2998C123.754 68.2853 123.747 68.272 123.737 68.2604C123.727 68.2489 123.715 68.2394 123.702 68.2325C123.688 68.2256 123.674 68.2214 123.659 68.2202C121.833 68.0338 120.265 68.5404 119.242 69.6542C119.061 69.8627 118.901 70.0884 118.764 70.3282C118.644 70.3282 118.525 70.3282 118.401 70.3282C116.607 70.3769 114.906 71.1359 113.672 72.4383C112.438 73.7407 111.771 75.4798 111.819 77.2735C111.84 78.0949 112.013 78.9053 112.33 79.6635C111.732 80.6028 111.43 81.7004 111.465 82.8135C111.484 83.5518 111.649 84.279 111.949 84.9537C112.249 85.6284 112.68 86.2373 113.215 86.7455C113.751 87.2538 114.382 87.6515 115.072 87.9159C115.761 88.1804 116.496 88.3063 117.234 88.2866C117.614 88.2757 117.992 88.2277 118.362 88.1432C118.338 89.3717 117.817 90.4376 116.006 90.7722L116.054 90.6049L115.098 90.1795C115.049 90.2132 115.003 90.2499 114.959 90.2894C113.746 88.7903 112.363 87.4365 110.839 86.2551L110.389 87.0916C109.476 85.0884 108.687 83.0307 108.028 80.9302C107.947 80.6673 107.846 80.3327 107.832 80.2514C107.818 80.1702 107.832 80.0841 107.794 79.9981V79.6969C107.803 79.2138 107.864 78.733 107.975 78.2629C108.235 77.1834 108.582 76.1267 109.013 75.1034C109.438 74.0374 109.921 72.9715 110.447 71.9247C110.972 70.8779 111.479 69.8979 112.015 68.918C112.218 68.8475 112.412 68.7528 112.593 68.636L115.198 66.8913L116.503 64.3914L113.635 62.9144L111.546 65.6629C111.546 65.6629 110.208 66.8913 110.112 68.2154C108.699 69.981 107.44 71.8649 106.35 73.8462C105.728 74.9825 105.215 76.1748 104.816 77.4073C104.595 78.0921 104.449 78.7989 104.381 79.5153C104.381 79.7161 104.381 79.9121 104.381 80.1176C104.384 80.3317 104.398 80.5455 104.424 80.7581C104.477 81.1188 104.551 81.4762 104.644 81.8288C105.222 84.2497 106.002 86.6177 106.976 88.908C107.321 89.7302 107.679 90.5332 108.052 91.3315L106.522 94.1995C106.522 94.1995 107.583 97.947 108.821 99.8016C108.917 102.956 109.194 107.287 109.777 113.238H109.73C109.577 113.238 109.452 113.3 109.457 113.396L109.51 114.777C109.51 114.868 109.625 114.94 109.763 114.949C109.194 118.73 106.465 137.32 106.04 147.659C105.624 157.864 114.615 173.351 117.33 177.773L116.718 178.055L117.865 179.652L118.955 179.197L121.054 182.878L120.671 183.184C120.613 183.231 120.562 183.286 120.518 183.346C120.226 183.072 119.858 182.894 119.462 182.835C119.373 182.832 119.285 182.847 119.203 182.88C119.12 182.913 119.046 182.963 118.984 183.026C118.802 183.198 118.826 183.342 118.879 183.433C118.998 183.648 119.443 183.762 119.892 183.805C119.376 183.958 118.802 184.188 118.687 184.46C118.666 184.505 118.657 184.556 118.662 184.605C118.667 184.655 118.686 184.702 118.716 184.742C118.758 184.811 118.816 184.869 118.885 184.91C118.954 184.952 119.032 184.976 119.113 184.981C119.437 184.953 119.743 184.814 119.978 184.589L120.121 184.465C119.376 186.262 118.345 187.926 117.067 189.393C116.637 189.919 117.712 191.071 118.926 190.101C120.141 189.13 122.679 186.946 123.577 186.224C125.04 185.058 125.652 184.675 126.828 183.772C126.895 183.718 126.95 183.651 126.989 183.575C127.028 183.499 127.051 183.415 127.056 183.33C127.061 183.244 127.048 183.158 127.018 183.078C126.988 182.998 126.941 182.925 126.88 182.864L124.395 180.536C124.348 180.493 124.289 180.466 124.227 180.459C124.164 180.453 124.1 180.466 124.046 180.498L122.803 178.337L122.454 177.735L123.41 177.333L122.836 175.24L122.225 175.522C120.791 171.129 114.433 151.904 115.413 146.65C115.461 146.392 115.513 146.129 115.561 145.866C115.944 143.811 116.35 141.603 116.761 139.351C117.233 141.682 117.872 143.976 118.673 146.215C120.198 150.326 138.113 157.989 142.869 159.963L142.415 160.761L144.409 161.182L144.887 160.374L148.233 161.808L148.089 162.176C148.062 162.243 148.044 162.314 148.037 162.386C147.619 162.341 147.197 162.412 146.818 162.592C146.655 162.684 146.534 162.837 146.483 163.017C146.416 163.256 146.512 163.352 146.607 163.395C147 163.43 147.392 163.326 147.716 163.103C147.334 163.514 146.937 164.021 146.98 164.298C146.987 164.345 147.007 164.389 147.039 164.425C147.07 164.461 147.111 164.486 147.157 164.499C147.235 164.526 147.318 164.537 147.401 164.529C147.483 164.522 147.563 164.497 147.635 164.456C147.905 164.259 148.104 163.981 148.204 163.662C148.228 163.605 148.247 163.543 148.266 163.486C148.538 164.709 148.538 166.612 148.147 169.04C148.041 169.695 149.619 169.972 150.192 168.528C150.766 167.085 151.885 163.944 152.31 162.874C152.998 161.134 153.347 160.484 153.921 159.117C153.953 159.04 153.966 158.958 153.96 158.875C153.954 158.793 153.929 158.713 153.887 158.642C153.845 158.571 153.786 158.511 153.717 158.466C153.647 158.422 153.568 158.394 153.486 158.385L150.016 157.998C149.939 157.991 149.862 158.008 149.796 158.048C149.729 158.088 149.678 158.147 149.647 158.218L149.604 158.328L147.496 157.42L146.856 157.143L147.525 156.062L145.843 154.671L145.57 155.149C141.789 152.281 132.43 145.475 129.141 143.175C128.185 142.52 127.401 141.713 127.268 140.58C126.015 129.916 125.475 118.745 125.356 115.905H125.518C125.695 115.905 125.829 115.815 125.781 115.705L125.475 114.304C125.45 114.263 125.413 114.229 125.371 114.206C125.328 114.184 125.28 114.173 125.231 114.175C125.28 110.227 125.762 106.297 126.67 102.455C128.339 101.751 129.939 100.895 131.45 99.8972L131.249 96.3457L131.55 96.2644C132.698 95.9346 133.835 95.557 134.973 95.1555C136.111 94.754 137.224 94.2903 138.319 93.774L139.151 93.3773L139.968 92.9423C140.245 92.8037 140.513 92.6269 140.781 92.4643L141.187 92.2253L141.631 91.9194C142.144 91.5455 142.637 91.145 143.108 90.7196C143.558 90.3181 144.002 89.9166 144.428 89.5103C145.293 88.6977 146.12 87.866 146.937 87.0247C147.755 86.1834 148.548 85.3326 149.327 84.4769C150.106 83.6213 150.895 82.7466 151.65 81.8479C152.219 81.1601 152.599 80.3367 152.754 79.4579L154.012 76.6186ZM119.022 183.346C119.022 183.346 118.979 183.27 119.098 183.15L119.137 183.117C119.227 183.047 119.338 183.011 119.452 183.017C119.812 183.076 120.145 183.242 120.408 183.495C120.385 183.543 120.364 183.592 120.346 183.643C119.835 183.662 119.146 183.552 119.022 183.346ZM119.118 184.804C119.064 184.801 119.011 184.785 118.966 184.756C118.92 184.728 118.882 184.689 118.855 184.642C118.845 184.625 118.841 184.606 118.841 184.587C118.841 184.568 118.845 184.549 118.855 184.532C118.882 184.48 118.919 184.435 118.965 184.398C119.378 184.153 119.828 183.977 120.298 183.877C120.298 183.954 120.26 184.035 120.236 184.116C119.777 184.565 119.381 184.819 119.127 184.804H119.118ZM146.746 163.256C146.746 163.256 146.67 163.218 146.713 163.065V163.012C146.759 162.904 146.839 162.813 146.942 162.754C147.293 162.593 147.682 162.532 148.065 162.577C148.06 162.627 148.06 162.676 148.065 162.726C147.621 163.046 146.942 163.347 146.746 163.256ZM147.606 164.332C147.556 164.355 147.502 164.368 147.446 164.368C147.391 164.368 147.336 164.355 147.286 164.332C147.267 164.328 147.25 164.318 147.237 164.303C147.224 164.288 147.216 164.27 147.214 164.25C147.212 164.195 147.222 164.139 147.243 164.088C147.49 163.655 147.801 163.261 148.166 162.922L148.237 163.146C148.168 163.605 147.939 164.024 147.592 164.332H147.606ZM132.549 85.5907C132.336 86.2637 131.965 86.8755 131.465 87.3747C130.966 87.8738 130.354 88.2456 129.681 88.4587C130.584 87.7487 131.309 86.8373 131.797 85.7973C132.285 84.7574 132.523 83.6177 132.492 82.4693C132.479 82.0044 132.421 81.5418 132.32 81.0879C132.967 82.5055 133.044 84.1179 132.535 85.5907H132.549Z" fill="black"/>
</g>
<path d="M102.995 91.1211C101.777 88.8685 100.707 86.5389 99.7922 84.1471C98.8432 81.7488 98.0965 79.2753 97.56 76.7525C97.4725 76.3854 97.4071 76.0135 97.364 75.6387C97.3426 75.4179 97.333 75.1961 97.3353 74.9743C97.3353 74.764 97.3592 74.5632 97.3735 74.3577C97.4543 73.6208 97.6145 72.8948 97.8515 72.1923C98.2995 70.9299 98.8644 69.7121 99.5389 68.5548C100.831 66.3492 102.325 64.2689 104.003 62.3408L105.595 63.5214C104.993 64.5587 104.386 65.6342 103.827 66.7049C103.267 67.7756 102.77 68.832 102.292 69.9266C101.821 70.9705 101.436 72.0512 101.14 73.1579C101.01 73.6422 100.932 74.1389 100.906 74.6397V74.9504C100.906 75.0364 100.906 75.1368 100.939 75.2133C100.973 75.2898 101.045 75.6435 101.121 75.9207C101.761 78.2253 102.545 80.4875 103.468 82.694C103.946 83.803 104.424 84.9024 104.935 86.0018C105.447 87.1012 105.987 88.1958 106.508 89.2235L102.995 91.1211Z" fill="#FFB573"/>
<path d="M109.534 89.7636C109.816 86.2503 103.798 81.4703 103.798 81.4703L99.1611 89.5724C99.1611 89.5724 100.351 94.2616 101.738 95.9251C103.124 97.5885 109.338 92.1823 109.534 89.7636Z" fill="#39A53B"/>
<g opacity="0.4">
<path d="M109.534 89.7636C109.816 86.2503 103.798 81.4703 103.798 81.4703L99.1611 89.5724C99.1611 89.5724 100.351 94.2616 101.738 95.9251C103.124 97.5885 109.338 92.1823 109.534 89.7636Z" fill="white"/>
</g>
<path d="M106.159 63.3446L108.898 61.619L105.16 60.228C105.16 60.228 103.248 61.8771 103.626 63.4641L103.994 63.5883C104.35 63.7117 104.729 63.7538 105.104 63.7117C105.479 63.6695 105.839 63.5441 106.159 63.3446Z" fill="#FFB573"/>
<path d="M110.313 59.076L107.388 57.4651L105.16 60.2471L108.898 61.619L110.313 59.076Z" fill="#FFB573"/>
<path d="M115.771 180.775L112.1 182.194L108.161 174.819L111.455 172.783L115.771 180.775Z" fill="#FFB573"/>
<path d="M111.374 181.846L114.878 179.193C114.937 179.146 115.012 179.122 115.088 179.127C115.164 179.131 115.235 179.163 115.289 179.217L117.789 181.688C117.849 181.752 117.896 181.828 117.925 181.912C117.954 181.995 117.965 182.084 117.957 182.172C117.95 182.26 117.923 182.346 117.88 182.423C117.837 182.5 117.778 182.567 117.708 182.62C116.47 183.523 115.829 183.901 114.29 185.067C113.334 185.784 110.69 187.935 109.381 188.939C108.071 189.943 107.019 188.69 107.469 188.16C109.515 185.77 110.69 183.748 110.987 182.424C111.047 182.193 111.184 181.989 111.374 181.846Z" fill="#263238"/>
<g opacity="0.2">
<path d="M108.161 174.819L110.083 178.418L113.682 176.903L111.459 172.783L108.161 174.819Z" fill="black"/>
</g>
<path d="M126.228 79.4006C126.903 75.2391 124.077 71.318 119.916 70.6425C115.754 69.967 111.833 72.7929 111.158 76.9544C110.482 81.1159 113.308 85.037 117.47 85.7125C121.631 86.3881 125.552 83.5621 126.228 79.4006Z" fill="#263238"/>
<path d="M122.645 84.6538C122.613 84.6538 122.583 84.6412 122.56 84.6188C122.538 84.5964 122.525 84.566 122.525 84.5343C122.525 84.5026 122.538 84.4722 122.56 84.4498C122.583 84.4274 122.613 84.4148 122.645 84.4148C123.472 84.2995 124.251 83.9569 124.895 83.4252C125.539 82.8936 126.022 82.1937 126.292 81.4034C127.019 79.4914 126.77 77.1588 125.656 75.8299C125.634 75.8076 125.622 75.7775 125.622 75.7463C125.622 75.715 125.634 75.685 125.656 75.6626C125.679 75.6404 125.71 75.628 125.742 75.628C125.774 75.628 125.805 75.6404 125.828 75.6626C126.976 77.0536 127.262 79.4866 126.502 81.4751C126.216 82.3021 125.708 83.0345 125.033 83.5925C124.359 84.1505 123.544 84.5127 122.678 84.6395L122.645 84.6538Z" fill="#263238"/>
<path d="M102.32 86.6949C102.32 86.6949 100.408 87.1729 102.086 110.389L117.917 111.799C118.223 105.332 118.524 101.35 122.783 88.4013C120.624 87.7483 118.419 87.2547 116.187 86.9243C113.815 86.5421 111.419 86.328 109.017 86.2838C105.886 86.2933 102.32 86.6949 102.32 86.6949Z" fill="#39A53B"/>
<g opacity="0.4">
<path d="M102.32 86.6949C102.32 86.6949 100.408 87.1729 102.086 110.389L117.917 111.799C118.223 105.332 118.524 101.35 122.783 88.4013C120.624 87.7483 118.419 87.2547 116.187 86.9243C113.815 86.5421 111.419 86.328 109.017 86.2838C105.886 86.2933 102.32 86.6949 102.32 86.6949Z" fill="white"/>
</g>
<path d="M120.532 79.4675C124.22 79.4675 127.21 76.4778 127.21 72.7898C127.21 69.1019 124.22 66.1122 120.532 66.1122C116.844 66.1122 113.854 69.1019 113.854 72.7898C113.854 76.4778 116.844 79.4675 120.532 79.4675Z" fill="#263238"/>
<path d="M115.647 74.415C118.474 74.415 120.766 72.123 120.766 69.2957C120.766 66.4683 118.474 64.1763 115.647 64.1763C112.819 64.1763 110.527 66.4683 110.527 69.2957C110.527 72.123 112.819 74.415 115.647 74.415Z" fill="#263238"/>
<path d="M111.943 68.4544C111.914 68.4546 111.885 68.444 111.863 68.4246C111.841 68.4052 111.827 68.3784 111.824 68.3492C111.709 67.6728 111.754 66.9789 111.956 66.3232C112.158 65.6674 112.51 65.068 112.985 64.573C114.07 63.4593 115.705 62.9765 117.588 63.2203C117.604 63.2221 117.619 63.2269 117.633 63.2347C117.647 63.2424 117.659 63.2528 117.669 63.2652C117.679 63.2777 117.686 63.2919 117.69 63.3072C117.694 63.3225 117.695 63.3384 117.693 63.3541C117.689 63.3854 117.672 63.4137 117.647 63.4332C117.622 63.4528 117.591 63.4621 117.56 63.4593C115.753 63.2251 114.19 63.6792 113.157 64.7403C112.708 65.2094 112.375 65.777 112.184 66.3978C111.993 67.0186 111.95 67.6753 112.058 68.3158C112.062 68.3468 112.054 68.3782 112.035 68.4032C112.016 68.4282 111.988 68.4449 111.957 68.4496L111.943 68.4544Z" fill="#263238"/>
<path d="M110.38 83.7456C113.587 83.7456 116.188 81.1454 116.188 77.9379C116.188 74.7304 113.587 72.1302 110.38 72.1302C107.172 72.1302 104.572 74.7304 104.572 77.9379C104.572 81.1454 107.172 83.7456 110.38 83.7456Z" fill="#263238"/>
<path d="M112.081 79.2094C115.941 79.2094 119.069 76.0806 119.069 72.221C119.069 68.3615 115.941 65.2327 112.081 65.2327C108.222 65.2327 105.093 68.3615 105.093 72.221C105.093 76.0806 108.222 79.2094 112.081 79.2094Z" fill="#263238"/>
<path d="M116.197 78.7696C115.537 81.0401 114.706 85.237 116.197 86.9243C116.197 86.9243 115.356 89.2139 111.058 88.8363C106.331 88.4157 109.008 86.2886 109.008 86.2886C111.642 85.9014 111.747 83.9846 111.455 82.1491L116.197 78.7696Z" fill="#FFB573"/>
<path opacity="0.2" d="M114.241 80.1463L111.431 82.1395C111.505 82.5673 111.541 83.0008 111.541 83.4349C112.535 83.3823 113.988 82.4215 114.184 81.3986C114.277 80.9879 114.297 80.5638 114.241 80.1463Z" fill="black"/>
<path d="M119.767 76.5421C117.788 79.8881 117.018 81.3221 114.37 82.216C110.384 83.5353 106.722 80.3709 107.654 76.5087C108.505 73.0288 111.603 68.1485 115.68 68.507C116.581 68.5812 117.447 68.8846 118.197 69.3882C118.947 69.8918 119.556 70.5789 119.966 71.3842C120.375 72.1895 120.572 73.0862 120.537 73.989C120.502 74.8918 120.237 75.7707 119.767 76.5421Z" fill="#FFB573"/>
<path d="M120.255 79.544C122.385 79.544 124.112 77.07 124.112 74.0183C124.112 70.9666 122.385 68.4926 120.255 68.4926C118.125 68.4926 116.397 70.9666 116.397 74.0183C116.397 77.07 118.125 79.544 120.255 79.544Z" fill="#263238"/>
<path d="M116.192 65.5242C118.936 66.0596 120.919 67.7469 120.618 69.2957C120.317 70.8444 117.851 71.6857 115.102 71.1407C112.354 70.5958 110.375 68.918 110.676 67.3693C110.977 65.8206 113.443 65.008 116.192 65.5242Z" fill="#263238"/>
<path d="M102.086 110.389C102.086 110.389 98.0232 132.855 97.2201 144.762C96.3836 157.152 108.807 177.448 108.807 177.448L113.439 174.915C113.534 174.986 105.614 150.097 106.928 143.978C109.72 130.977 113.678 111.422 113.678 111.422L102.086 110.389Z" fill="#263238"/>
<path d="M114.337 175.88L108.549 178.127L107.406 176.444L113.807 173.705L114.337 175.88Z" fill="#39A53B"/>
<path opacity="0.2" d="M108.888 119.156C110.556 116.842 111.593 117.038 112.205 118.654C110.843 125.308 108.783 135.312 107.1 143.185C105.843 137.148 103.725 126.273 108.888 119.156Z" fill="black"/>
<path d="M143.825 157.864L141.65 161.119L133.318 157.272L135.498 154.016L143.825 157.864Z" fill="#FFB573"/>
<path d="M140.269 160.928L141.999 156.884C142.03 156.811 142.084 156.75 142.154 156.712C142.223 156.673 142.303 156.658 142.382 156.669L145.952 157.147C146.038 157.157 146.119 157.188 146.191 157.236C146.262 157.283 146.321 157.347 146.363 157.422C146.405 157.498 146.429 157.581 146.432 157.667C146.436 157.753 146.418 157.839 146.382 157.917C145.751 159.317 145.374 159.972 144.614 161.741C144.136 162.835 142.922 166.009 142.276 167.52C141.631 169.03 140.02 168.667 140.145 167.998C140.713 164.996 140.68 162.74 140.245 161.569C140.173 161.36 140.181 161.131 140.269 160.928Z" fill="#263238"/>
<g opacity="0.2">
<path d="M133.323 157.272L137.616 159.255L139.795 156L135.503 154.016L133.323 157.272Z" fill="black"/>
</g>
<path d="M106.465 110.781C106.465 110.781 106.393 132.205 110.289 143.629C111.971 148.572 136.077 159.007 136.077 159.007L139.49 154.963C139.829 155.03 125.499 143.945 121.23 140.79C120.274 140.087 119.476 139.227 119.366 138.056C118.209 125.274 118.052 111.814 118.052 111.814L106.465 110.781Z" fill="#263238"/>
<path d="M139.862 154.6L136.454 159.791L134.408 159.298L138.165 153.113L139.862 154.6Z" fill="#39A53B"/>
<path d="M140.354 162.463C140.244 162.79 140.031 163.073 139.747 163.27C139.67 163.313 139.585 163.337 139.497 163.342C139.41 163.347 139.322 163.333 139.241 163.299C139.194 163.284 139.153 163.257 139.122 163.219C139.091 163.182 139.071 163.137 139.064 163.089C138.997 162.577 140.388 161.358 140.546 161.225C140.562 161.213 140.581 161.207 140.601 161.207C140.62 161.207 140.64 161.213 140.656 161.225C140.672 161.232 140.685 161.244 140.694 161.26C140.703 161.275 140.706 161.293 140.703 161.311C140.623 161.705 140.506 162.09 140.354 162.463ZM139.293 162.883C139.266 162.935 139.254 162.993 139.26 163.051C139.261 163.071 139.269 163.09 139.282 163.105C139.295 163.121 139.312 163.132 139.332 163.137C139.383 163.162 139.439 163.175 139.496 163.175C139.554 163.175 139.61 163.162 139.661 163.137C139.963 162.979 140.249 162.396 140.455 161.559C140.002 161.938 139.61 162.385 139.293 162.883Z" fill="#39A53B"/>
<path d="M140.699 161.311L140.675 161.344C140.288 161.712 139.103 162.334 138.701 162.142C138.606 162.099 138.51 161.994 138.586 161.75C138.647 161.568 138.776 161.416 138.945 161.325C139.533 160.986 140.594 161.191 140.637 161.196C140.653 161.199 140.667 161.207 140.679 161.218C140.691 161.229 140.699 161.243 140.704 161.258C140.707 161.276 140.705 161.294 140.699 161.311ZM138.787 161.731C138.786 161.749 138.786 161.766 138.787 161.784C138.735 161.946 138.787 161.975 138.816 161.985C139.06 162.095 139.949 161.703 140.417 161.344C139.958 161.257 139.484 161.301 139.05 161.473C138.936 161.526 138.844 161.617 138.792 161.731H138.787Z" fill="#39A53B"/>
<path d="M114.036 75.0125C113.893 75.2946 113.63 75.4475 113.444 75.3519C113.257 75.2563 113.229 74.9552 113.372 74.6732C113.515 74.3912 113.783 74.2382 113.965 74.3338C114.146 74.4294 114.185 74.7305 114.036 75.0125Z" fill="#263238"/>
<path d="M110.862 73.3873C110.719 73.6646 110.451 73.8175 110.269 73.7219C110.088 73.6263 110.054 73.3252 110.198 73.0432C110.341 72.7612 110.609 72.613 110.79 72.7086C110.972 72.8042 111.005 73.1053 110.862 73.3873Z" fill="#263238"/>
<path d="M110.863 72.7659L110.289 72.221C110.289 72.221 110.366 72.9284 110.863 72.7659Z" fill="#263238"/>
<path d="M111.341 74.0183C110.766 74.5302 110.122 74.9597 109.429 75.2946C109.518 75.471 109.646 75.6255 109.802 75.7469C109.958 75.8684 110.139 75.9539 110.332 75.9972L111.341 74.0183Z" fill="#ED893E"/>
<path d="M111.292 77.8853C111.146 77.8333 111.002 77.7726 110.862 77.7037C110.841 77.6916 110.826 77.6721 110.819 77.649C110.812 77.626 110.813 77.6011 110.824 77.5794C110.835 77.5577 110.854 77.5411 110.878 77.5331C110.901 77.5251 110.926 77.5263 110.948 77.5364C111.293 77.7245 111.678 77.8281 112.071 77.8389C112.464 77.8497 112.854 77.7673 113.209 77.5985C113.23 77.5865 113.255 77.5832 113.278 77.5895C113.302 77.5958 113.321 77.6111 113.333 77.632C113.345 77.6529 113.349 77.6777 113.342 77.7011C113.336 77.7244 113.321 77.7442 113.3 77.7563C112.991 77.9103 112.654 78.001 112.309 78.0232C111.964 78.0454 111.619 77.9985 111.292 77.8853Z" fill="#263238"/>
<path d="M119.079 80.1845C118.522 80.6865 117.791 80.9507 117.042 80.9206C116.048 80.868 115.867 79.8977 116.411 79.1281C116.889 78.435 118.003 77.6272 118.873 78.0574C119.061 78.1558 119.222 78.2995 119.34 78.4755C119.458 78.6514 119.531 78.8542 119.552 79.0653C119.572 79.2765 119.539 79.4894 119.457 79.6848C119.374 79.8802 119.244 80.0519 119.079 80.1845Z" fill="#FFB573"/>
<path d="M115.404 74.6445C115.366 74.6324 115.333 74.6088 115.31 74.577C115.287 74.5452 115.275 74.507 115.274 74.4676C115.274 73.6072 114.385 72.9619 114.381 72.9524C114.36 72.9386 114.343 72.9208 114.33 72.9002C114.317 72.8796 114.308 72.8566 114.304 72.8325C114.3 72.8084 114.301 72.7837 114.307 72.76C114.313 72.7362 114.323 72.7139 114.338 72.6943C114.366 72.6546 114.41 72.6279 114.458 72.6198C114.506 72.6118 114.556 72.6231 114.596 72.6512C114.639 72.6847 115.652 73.4208 115.647 74.4676C115.647 74.5171 115.628 74.5645 115.593 74.5995C115.558 74.6344 115.51 74.6541 115.461 74.6541L115.404 74.6445Z" fill="#263238"/>
<path d="M110.417 71.0547C110.378 71.0436 110.344 71.02 110.32 70.9877C110.295 70.9554 110.282 70.916 110.282 70.8754C110.282 70.8349 110.295 70.7955 110.32 70.7632C110.344 70.7308 110.378 70.7073 110.417 70.6962C110.704 70.625 111.003 70.6244 111.289 70.6943C111.576 70.7643 111.841 70.9027 112.062 71.0977C112.079 71.1143 112.093 71.1342 112.103 71.1564C112.113 71.1786 112.118 71.2026 112.118 71.2268C112.118 71.251 112.113 71.2749 112.103 71.2971C112.093 71.3193 112.079 71.3393 112.062 71.3558C112.045 71.3736 112.024 71.3878 112.002 71.3975C111.979 71.4071 111.955 71.4121 111.93 71.4121C111.906 71.4121 111.881 71.4071 111.859 71.3975C111.836 71.3878 111.816 71.3736 111.799 71.3558C111.621 71.2054 111.41 71.0995 111.183 71.0471C110.956 70.9948 110.72 70.9973 110.494 71.0547C110.469 71.0594 110.443 71.0594 110.417 71.0547Z" fill="#263238"/>
<path d="M120.57 89.2474C121.66 89.0179 122.826 88.7694 123.945 88.4826C125.064 88.1958 126.196 87.9138 127.291 87.5792C128.386 87.2446 129.485 86.8861 130.546 86.4941C131.082 86.2933 131.598 86.0782 132.109 85.8584C132.372 85.7532 132.587 85.6241 132.864 85.5094L133.237 85.3326L133.534 85.1653C133.95 84.9167 134.428 84.5821 134.891 84.2571C135.355 83.932 135.847 83.5783 136.292 83.215C137.248 82.5076 138.165 81.781 139.102 81.0401C140.039 80.2992 140.981 79.5727 141.913 78.8222L144.748 76.6186L146.096 78.0526C145.292 78.9608 144.456 79.826 143.624 80.7007C142.793 81.5755 141.932 82.4215 141.067 83.2676C140.202 84.1137 139.322 84.9454 138.409 85.7628C137.955 86.1738 137.487 86.5754 137.009 86.9769C136.513 87.4046 135.994 87.8052 135.455 88.1767L134.977 88.4778L134.552 88.7168C134.27 88.8698 133.988 89.0466 133.701 89.1948L132.841 89.625L131.975 90.0122C130.814 90.5141 129.648 90.9682 128.462 91.3458C127.277 91.7234 126.096 92.0867 124.901 92.3926C123.706 92.6985 122.511 92.971 121.254 93.1861L120.57 89.2474Z" fill="#FFB573"/>
<path d="M118.391 99.1898C122.693 97.5216 124.724 96.1449 124.724 96.1449L124.409 85.8058C124.409 85.8058 119.5 86.7188 116.632 88.994C114.853 90.3946 116.632 99.8733 118.391 99.1898Z" fill="#39A53B"/>
<g opacity="0.4">
<path d="M118.391 99.1898C122.693 97.5216 124.724 96.1449 124.724 96.1449L124.409 85.8058C124.409 85.8058 119.5 86.7188 116.632 88.994C114.853 90.3946 116.632 99.8733 118.391 99.1898Z" fill="white"/>
</g>
<path d="M109.543 91.1211C109.543 91.1211 111.417 91.2406 111.455 93.6498C113.955 92.6938 117.588 89.9022 118.085 87.7417C118.104 87.6624 118.106 87.5802 118.092 87.5C118.078 87.4197 118.047 87.3433 118.003 87.2752C117.958 87.2072 117.9 87.149 117.832 87.1043C117.764 87.0595 117.687 87.0292 117.607 87.0151C117.397 86.9816 117.201 86.9578 117.062 86.9434C116.933 86.9308 116.804 86.961 116.694 87.0295L113.687 88.865L109.543 91.1211Z" fill="white"/>
<path d="M108.358 88.43L109.099 86.1069L108.105 85.6289C106.843 86.3268 105.237 91.3649 107.082 93.1766C108.095 90.7866 109.543 91.1068 109.543 91.1068L108.358 88.43Z" fill="white"/>
<path d="M116.187 86.9291C113.816 86.5422 111.42 86.3281 109.017 86.2886H108.539C107.87 87.3258 107.521 89.1566 109.046 91.4558C109.046 91.4558 115.26 89.5868 117.143 87.0725C116.818 87.0199 116.503 86.996 116.187 86.9291Z" fill="#FFB573"/>
<path d="M110.595 183.28C110.346 183.506 110.027 183.641 109.691 183.662C109.608 183.656 109.526 183.629 109.456 183.584C109.385 183.539 109.326 183.477 109.285 183.404C109.261 183.359 109.248 183.309 109.248 183.258C109.248 183.207 109.261 183.157 109.285 183.112C109.51 182.61 111.235 182.304 111.426 182.271C111.446 182.268 111.466 182.271 111.484 182.28C111.502 182.288 111.517 182.302 111.527 182.319C111.538 182.334 111.545 182.352 111.545 182.371C111.545 182.39 111.538 182.409 111.527 182.424C111.244 182.738 110.932 183.024 110.595 183.28ZM109.548 183.055C109.497 183.088 109.456 183.134 109.428 183.189C109.418 183.206 109.412 183.226 109.412 183.246C109.412 183.266 109.418 183.286 109.428 183.303C109.455 183.351 109.493 183.392 109.538 183.422C109.584 183.452 109.637 183.471 109.691 183.476C110.012 183.504 110.547 183.146 111.149 182.52C110.588 182.613 110.047 182.8 109.548 183.074V183.055Z" fill="#39A53B"/>
<path d="M111.474 182.438C111.463 182.441 111.452 182.441 111.441 182.438C110.963 182.553 109.696 182.438 109.485 182.042C109.438 181.946 109.419 181.798 109.605 181.621C109.672 181.557 109.752 181.509 109.839 181.477C109.927 181.446 110.019 181.433 110.112 181.439C110.752 181.468 111.46 182.252 111.488 182.285C111.496 182.299 111.5 182.315 111.5 182.331C111.5 182.347 111.496 182.362 111.488 182.376C111.49 182.387 111.49 182.398 111.487 182.409C111.485 182.419 111.48 182.429 111.474 182.438ZM109.777 181.736L109.734 181.774C109.61 181.889 109.638 181.946 109.648 181.97C109.777 182.204 110.676 182.357 111.23 182.3C110.931 181.969 110.537 181.739 110.102 181.64C109.986 181.631 109.87 181.665 109.777 181.736Z" fill="#39A53B"/>
<path d="M114.041 74.3912L113.463 73.851C113.463 73.851 113.539 74.568 114.041 74.3912Z" fill="#263238"/>
<path d="M118.238 110.896L118.515 112.33C118.563 112.445 118.419 112.545 118.238 112.531L101.943 111.097C101.799 111.097 101.689 111.001 101.689 110.915V109.481C101.689 109.386 101.819 109.314 101.976 109.328L118.008 110.762C118.055 110.764 118.1 110.778 118.14 110.801C118.179 110.824 118.213 110.857 118.238 110.896Z" fill="#FAFAFA"/>
<path d="M115.924 112.493L116.355 112.531C116.441 112.531 116.508 112.502 116.508 112.445L116.469 110.585C116.469 110.533 116.398 110.48 116.312 110.475L115.881 110.437C115.795 110.437 115.729 110.466 115.729 110.523L115.767 112.383C115.767 112.435 115.838 112.488 115.924 112.493Z" fill="#263238"/>
<path d="M103.137 111.374L103.568 111.412C103.654 111.412 103.721 111.379 103.721 111.326L103.682 109.467C103.682 109.409 103.611 109.362 103.525 109.352L103.094 109.314C103.008 109.314 102.941 109.347 102.941 109.4L102.98 111.259C102.98 111.293 103.051 111.345 103.137 111.374Z" fill="#263238"/>
<path d="M109.528 111.924L109.959 111.962C110.045 111.962 110.116 111.928 110.111 111.876L110.073 110.016C110.073 109.964 110.002 109.911 109.92 109.907L109.49 109.868C109.404 109.868 109.332 109.897 109.337 109.95L109.371 111.809C109.375 111.852 109.461 111.914 109.528 111.924Z" fill="#263238"/>
<path d="M144.284 77.3069L144.241 73.0814L147.31 75.6148C147.31 75.6148 146.832 78.0813 145.293 78.5736L144.284 77.3069Z" fill="#FFB573"/>
<path d="M146.244 70.4668L148.696 72.7277L147.31 75.6148L144.241 73.0814L146.244 70.4668Z" fill="#FFB573"/>
</svg>
